<svg xmlns="http://www.w3.org/2000/svg" xmlns:xlink="http://www.w3.org/1999/xlink" xmlns:lucid="lucid" width="1000" height="441.09"><g transform="translate(0 0)" lucid:page-tab-id="0_0"><path d="M20 194.97c0-3.3 2.7-6 6-6h108c3.3 0 6 2.7 6 6v51c0 3.3-2.7 6-6 6H26c-3.3 0-6-2.7-6-6z" stroke="#5e5e5e" stroke-width="3" fill="#fff"/><use xlink:href="#a" transform="matrix(1,0,0,1,20,188.97465551181105) translate(21.93388888888893 37.46527777777776)"/><path d="M360 194.97c0-3.3 2.7-6 6-6h108c3.3 0 6 2.7 6 6v50.3c0 3.32-2.7 6-6 6H366c-3.3 0-6-2.68-6-6z" stroke="#5e5e5e" stroke-width="3" fill="#fff"/><use xlink:href="#b" transform="matrix(1,0,0,1,360,188.97465551181105) translate(23.373888888888906 37.465277777777764)"/><path d="M690 195.67c0-3.32 2.7-6 6-6h108c3.3 0 6 2.68 6 6v50.3c0 3.3-2.7 6-6 6H696c-3.3 0-6-2.7-6-6z" stroke="#5e5e5e" stroke-width="3" fill="#fff"/><use xlink:href="#c" transform="matrix(1,0,0,1,690,189.66707677165363) translate(36.2627777777778 37.465277777777764)"/><path d="M177 45.16H86c-3.3 0-6 2.7-6 6v134.8" stroke="#5e5e5e" stroke-width="3" fill="none"/><path d="M178.54 44.14l-.04 1.02.03.87.07.63h-1.64v-3h1.64zM81.5 187.47h-3v-1.53h3z" stroke="#5e5e5e" stroke-width=".05" fill="#5e5e5e"/><path d="M80 254.97v134.96c0 3.3 2.7 6 6 6h91" stroke="#5e5e5e" stroke-width="3" fill="none"/><path d="M81.5 255h-3v-1.53h3zM178.54 394.9l-.04 1.02.03.88.07.63h-1.64v-3h1.64z" stroke="#5e5e5e" stroke-width=".05" fill="#5e5e5e"/><path d="M136.12 254.45v47.8c0 3.3 2.7 6 6 6H177" stroke="#5e5e5e" stroke-width="3" fill="none"/><path d="M137.62 254.5h-3v-1.14l3-.82zM178.54 307.2l-.04 1.03.03.88.07.64h-1.64v-3h1.64z" stroke="#5e5e5e" stroke-width=".05" fill="#5e5e5e"/><path d="M136.03 186.47v-47.62c0-3.3 2.68-6 6-6H177" stroke="#5e5e5e" stroke-width="3" fill="none"/><path d="M137.53 188.37l-3-.8v-1.14h3zM178.54 131.83l-.04 1.02.03.88.07.62h-1.64v-3h1.64z" stroke="#5e5e5e" stroke-width=".05" fill="#5e5e5e"/><path d="M143 220.47h16.96c.02 0 .04.02.04.04 0 .03.02.04.04.04H177" stroke="#5e5e5e" stroke-width="3" fill="none"/><path d="M143.04 221.97h-1.54v-3h1.54zM178.54 219.52l-.04 1.02.03.88.07.62h-1.64v-3h1.64z" stroke="#5e5e5e" stroke-width=".05" fill="#5e5e5e"/><path d="M420 185.97V75.57c0-3.3 2.7-6 6-6h91" stroke="#5e5e5e" stroke-width="3" fill="none"/><path d="M421.5 187.47h-3v-1.53h3zM518.54 68.56l-.04 1 .03.9.07.62h-1.64v-3h1.64z" stroke="#5e5e5e" stroke-width=".05" fill="#5e5e5e"/><path d="M420 254.28V365.5c0 3.32 2.7 6 6 6h91" stroke="#5e5e5e" stroke-width="3" fill="none"/><path d="M421.5 254.32h-3v-1.54h3zM518.54 370.5l-.04 1 .03.88.07.63h-1.64v-3h1.64z" stroke="#5e5e5e" stroke-width=".05" fill="#5e5e5e"/><path d="M474.9 254.1v10.77c0 3.3 2.7 6 6 6H517" stroke="#5e5e5e" stroke-width="3" fill="none"/><path d="M476.4 254.13h-3v-1.35h.8l2.2-.6zM518.54 269.84l-.04 1.02.03.88.07.63h-1.64v-3h1.64z" stroke="#5e5e5e" stroke-width=".05" fill="#5e5e5e"/><path d="M474.9 186.16v-9.94c0-3.3 2.7-6 6-6H517" stroke="#5e5e5e" stroke-width="3" fill="none"/><path d="M476.4 188.07l-2.2-.6h-.8v-1.34h3zM518.54 169.2l-.04 1.02.03.88.07.62h-1.64v-3h1.64z" stroke="#5e5e5e" stroke-width=".05" fill="#5e5e5e"/><path d="M750 186.67v-64.2c0-3.3 2.7-6 6-6h101" stroke="#5e5e5e" stroke-width="3" fill="none"/><path d="M751.5 188.17h-3v-1.54h3zM858.54 115.45l-.04 1.02.03.88.07.63h-1.64v-3h1.64z" stroke="#5e5e5e" stroke-width=".05" fill="#5e5e5e"/><path d="M750 254.97v64.2c0 3.3 2.7 6 6 6h101" stroke="#5e5e5e" stroke-width="3" fill="none"/><path d="M751.5 255h-3v-1.53h3zM858.54 324.14l-.04 1.02.03.87.07.63h-1.64v-3h1.64z" stroke="#5e5e5e" stroke-width=".05" fill="#5e5e5e"/><path d="M813 220.82h44" stroke="#5e5e5e" stroke-width="3" fill="none"/><path d="M813.04 222.32h-1.54v-3h1.54zM858.54 219.8l-.04 1 .03.9.07.62h-1.64v-3h1.64z" stroke="#5e5e5e" stroke-width=".05" fill="#5e5e5e"/><path d="M640 170.22c0 13.9-26.86 25.16-60 25.16s-60-11.26-60-25.16 26.86-25.16 60-25.16 60 11.27 60 25.16z" stroke="#5e5e5e" stroke-width="3" fill="#fff"/><use xlink:href="#d" transform="matrix(1,0,0,1,520,145.06151574803167) translate(15.251666666666702 30.56555555555554)"/><path d="M640 270.87c0 13.9-26.86 25.16-60 25.16s-60-11.27-60-25.16c0-13.9 26.86-25.16 60-25.16s60 11.27 60 25.17z" stroke="#5e5e5e" stroke-width="3" fill="#fff"/><use xlink:href="#e" transform="matrix(1,0,0,1,520,245.7052165354331) translate(29.119444444444472 31.493055555555543)"/><path d="M640 371.5c0 13.9-26.86 25.17-60 25.17s-60-11.26-60-25.16 26.86-25.15 60-25.15 60 11.26 60 25.16z" stroke="#5e5e5e" stroke-width="3" fill="#fff"/><use xlink:href="#f" transform="matrix(1,0,0,1,520,346.3489173228345) translate(20.71944444444448 28.56555555555554)"/><path d="M640 69.58c0 13.9-26.86 25.16-60 25.16s-60-11.27-60-25.16c0-13.9 26.86-25.16 60-25.16s60 11.26 60 25.16z" stroke="#5e5e5e" stroke-width="3" fill="#fff"/><use xlink:href="#g" transform="matrix(1,0,0,1,520,44.41781496063024) translate(38.3127777777778 31.493055555555543)"/><path d="M300 45.16c0 13.9-26.86 25.16-60 25.16s-60-11.26-60-25.16S206.86 20 240 20s60 11.26 60 25.16z" stroke="#5e5e5e" stroke-width="3" fill="#fff"/><use xlink:href="#h" transform="matrix(1,0,0,1,180,20) translate(45.3438888888889 31.493055555555543)"/><path d="M300 132.85c0 13.9-26.86 25.16-60 25.16s-60-11.25-60-25.15c0-13.9 26.86-25.16 60-25.16s60 11.26 60 25.15z" stroke="#5e5e5e" stroke-width="3" fill="#fff"/><use xlink:href="#i" transform="matrix(1,0,0,1,180,107.69168307086619) translate(25.37833333333337 31.493055555555543)"/><path d="M300 220.54c0 13.9-26.86 25.17-60 25.17s-60-11.26-60-25.16 26.86-25.16 60-25.16 60 11.27 60 25.16z" stroke="#5e5e5e" stroke-width="3" fill="#fff"/><use xlink:href="#j" transform="matrix(1,0,0,1,180,195.38336614173238) translate(33.72388888888891 31.493055555555543)"/><path d="M300 395.93c0 13.9-26.86 25.16-60 25.16s-60-11.28-60-25.17c0-13.9 26.86-25.16 60-25.16s60 11.26 60 25.16z" stroke="#5e5e5e" stroke-width="3" fill="#fff"/><use xlink:href="#k" transform="matrix(1,0,0,1,180,370.76673228346476) translate(32.510555555555584 31.493055555555543)"/><path d="M300 308.24c0 13.9-26.86 25.16-60 25.16s-60-11.27-60-25.16c0-13.9 26.86-25.16 60-25.16s60 11.26 60 25.16z" stroke="#5e5e5e" stroke-width="3" fill="#fff"/><use xlink:href="#f" transform="matrix(1,0,0,1,180,283.07504921259857) translate(20.71944444444448 28.56555555555554)"/><path d="M980 325.16c0 13.9-26.86 25.16-60 25.16s-60-11.26-60-25.16S886.86 300 920 300s60 11.26 60 25.16z" stroke="#5e5e5e" stroke-width="3" fill="#fff"/><use xlink:href="#l" transform="matrix(1,0,0,1,860,300) translate(36.86611111111114 31.493055555555543)"/><path d="M980 220.82c0 13.9-26.86 25.16-60 25.16s-60-11.27-60-25.16c0-13.9 26.86-25.16 60-25.16s60 11.26 60 25.16z" stroke="#5e5e5e" stroke-width="3" fill="#fff"/><use xlink:href="#m" transform="matrix(1,0,0,1,860,195.65772637795277) translate(32.19166666666669 31.493055555555543)"/><path d="M980 116.48c0 13.9-26.86 25.16-60 25.16s-60-11.27-60-25.16c0-13.9 26.86-25.16 60-25.16s60 11.26 60 25.16z" stroke="#5e5e5e" stroke-width="3" fill="#fff"/><use xlink:href="#n" transform="matrix(1,0,0,1,860,91.31545275590554) translate(34.0116666666667 31.493055555555543)"/><defs><path fill="#232b2b" d="M39-669c-16-27 26-44 38-15L337-58l-12-1 261-628c9-25 48-12 37 15L349-13c-4 16-31 17-38 0" id="o"/><path fill="#232b2b" d="M83-495c-1-25 40-26 40 0v475c1 25-40 26-40 0v-475zm54-128c11 49-70 54-69 8-10-48 70-54 69-8" id="p"/><path fill="#232b2b" d="M476-720c-2-26 40-26 40 0v700c1 25-40 26-40 0v-142l16-22C480-69 404 10 284 10 137 10 52-103 52-253s85-262 232-262c124 0 200 82 208 206l-16-25v-386zM92-253c0 127 70 225 194 225 126 0 194-96 194-225s-69-224-194-224c-124 0-194 96-194 224" id="q"/><path fill="#232b2b" d="M465-111c14-22 46 1 30 21C457-42 391 11 308 10 149 5 52-90 52-250c0-154 84-265 226-265 141 0 218 87 226 228 0 10-10 22-20 21H76l-6-38h403l-10 9c-2-114-78-180-185-180-119 0-185 92-187 222C88-98 211 4 372-40c38-14 72-41 93-71" id="r"/><path fill="#232b2b" d="M299-515c153 0 246 109 246 263 0 153-94 262-246 262C148 10 52-99 52-252c0-154 95-263 247-263zm0 487c129 0 206-93 206-224 0-132-77-225-206-225S92-384 92-252c0 131 79 224 207 224" id="s"/><path fill="#232b2b" d="M127-615c-3-76 45-118 112-120 27 2 67 2 70 28-6 39-46 7-74 8-48 2-68 33-68 84v595c1 25-40 26-40 0v-595zM47-455c-23 1-25-38 0-38h238c25-2 25 38 0 38H47" id="t"/><path fill="#232b2b" d="M88-720c-1-25 40-26 40 0v700c1 25-40 26-40 0v-700" id="u"/><path fill="#232b2b" d="M83-479c-1-25 40-26 40 0v109l-30 51c7-141 174-233 305-155 31 20 53 52 64 95l-13 9c21-82 106-135 202-135 118 0 175 77 175 194v291c2 26-40 26-40 0v-287c-2-94-42-160-139-160-96 0-178 64-178 160v287c2 26-40 26-40 0v-292c-2-91-39-155-133-155-92 0-173 62-173 155v292c1 25-40 26-40 0v-459" id="v"/><g id="a"><use transform="matrix(0.017777777777777753,0,0,0.017777777777777753,0,0)" xlink:href="#o"/><use transform="matrix(0.017777777777777753,0,0,0.017777777777777753,11.733333333333317,0)" xlink:href="#p"/><use transform="matrix(0.017777777777777753,0,0,0.017777777777777753,15.395555555555534,0)" xlink:href="#q"/><use transform="matrix(0.017777777777777753,0,0,0.017777777777777753,26.04444444444441,0)" xlink:href="#r"/><use transform="matrix(0.017777777777777753,0,0,0.017777777777777753,35.92888888888884,0)" xlink:href="#s"/><use transform="matrix(0.017777777777777753,0,0,0.017777777777777753,46.542222222222165,0)" xlink:href="#t"/><use transform="matrix(0.017777777777777753,0,0,0.017777777777777753,52.47999999999993,0)" xlink:href="#p"/><use transform="matrix(0.017777777777777753,0,0,0.017777777777777753,56.14222222222215,0)" xlink:href="#u"/><use transform="matrix(0.017777777777777753,0,0,0.017777777777777753,59.98222222222215,0)" xlink:href="#v"/></g><path fill="#232b2b" d="M613-27c10 26-31 38-40 14L312-657l15 8L74-13C68 11 26-1 36-27l269-662c3-19 36-16 39 0zM142-217l14-40h324l10 40H142" id="w"/><path fill="#232b2b" d="M440-479c-2-26 40-26 40 0v291C482-62 402 6 281 6 161 6 83-62 83-188v-291c-1-25 40-26 40 0v291C122-88 183-32 281-32s159-56 159-156v-291" id="x"/><path fill="#232b2b" d="M404-186C470-34 286 55 142-11c-32-14-61-37-87-69-21-23 12-49 29-29 33 46 85 83 162 83 69-3 133-29 133-98 0-125-181-91-253-156-29-22-52-51-52-99-6-157 248-172 323-69 22 14-8 48-25 28-30-35-74-56-134-57-68 3-124 30-126 98 23 136 242 77 292 193" id="y"/><path fill="#232b2b" d="M83-720c-1-25 40-26 40 0v349l-25 48c12-110 92-182 203-182 118 0 178 78 178 193v292c1 25-40 26-40 0v-292c-2-93-42-155-138-155-94 0-178 61-178 155v292c1 25-40 26-40 0v-700" id="z"/><path fill="#232b2b" d="M123-20c0 25-40 26-40 0v-459c-1-25 40-26 40 0v169l-17 26c10-127 72-223 203-231 17 1 48 3 46 23-3 35-32 13-57 12-84 7-134 73-160 138-34 85-15 213-15 322" id="A"/><g id="b"><use transform="matrix(0.017777777777777764,0,0,0.017777777777777764,0,0)" xlink:href="#w"/><use transform="matrix(0.017777777777777764,0,0,0.017777777777777764,11.359999999999992,0)" xlink:href="#x"/><use transform="matrix(0.017777777777777764,0,0,0.017777777777777764,21.368888888888875,0)" xlink:href="#y"/><use transform="matrix(0.017777777777777764,0,0,0.017777777777777764,29.635555555555534,0)" xlink:href="#u"/><use transform="matrix(0.017777777777777764,0,0,0.017777777777777764,33.29777777777775,0)" xlink:href="#r"/><use transform="matrix(0.017777777777777764,0,0,0.017777777777777764,43.182222222222194,0)" xlink:href="#p"/><use transform="matrix(0.017777777777777764,0,0,0.017777777777777764,46.84444444444441,0)" xlink:href="#z"/><use transform="matrix(0.017777777777777764,0,0,0.017777777777777764,56.83555555555552,0)" xlink:href="#r"/><use transform="matrix(0.017777777777777764,0,0,0.017777777777777764,66.71999999999996,0)" xlink:href="#A"/></g><path fill="#232b2b" d="M414-634c-98-68-313-40-303 98 11 163 220 149 321 227 56 43 93 158 40 231-36 52-101 88-189 88-121 0-182-45-246-110-10-22 21-46 37-24 46 54 115 92 205 94 97-2 177-42 177-135 0-142-159-150-260-199-68-33-131-72-128-171 4-117 96-175 220-175 91 0 178 35 206 103 0 14-25 30-37 15-12-16-26-30-43-42" id="B"/><path fill="#232b2b" d="M37-465c-24 0-25-38 0-38h232c24-1 25 38 0 38H37zm122 356c-5 58 30 83 79 69 34 8 8 46-23 40-68 3-96-35-96-107v-523c-1-25 40-26 40 0v521" id="C"/><path fill="#232b2b" d="M476-479c-2-26 40-26 40 0v459c1 25-40 26-40 0v-142l16-13C479-64 402 10 284 10 136 10 52-104 52-255s85-260 232-260c126 0 201 80 208 206l-16-25v-145zM92-255c0 129 69 227 194 227s194-98 194-227c0-126-71-222-194-222-124 0-194 94-194 222" id="D"/><g id="c"><use transform="matrix(0.017777777777777764,0,0,0.017777777777777764,0,0)" xlink:href="#B"/><use transform="matrix(0.017777777777777764,0,0,0.017777777777777764,9.77777777777777,0)" xlink:href="#C"/><use transform="matrix(0.017777777777777764,0,0,0.017777777777777764,15.395555555555543,0)" xlink:href="#A"/><use transform="matrix(0.017777777777777764,0,0,0.017777777777777764,21.724444444444426,0)" xlink:href="#D"/><use transform="matrix(0.017777777777777764,0,0,0.017777777777777764,32.373333333333306,0)" xlink:href="#t"/><use transform="matrix(0.017777777777777764,0,0,0.017777777777777764,37.599999999999966,0)" xlink:href="#r"/></g><path fill="#232b2b" d="M100-680c-2-20 27-27 38-11l287 427h-20l287-427c11-18 37-7 37 11v660c1 25-43 26-42 0v-615h11c-92 137-181 277-274 413-8 5-23 1-25-6L124-643h16v623c1 25-40 26-40 0v-660" id="E"/><path fill="#232b2b" d="M52-253c0-153 92-262 242-262 96 0 161 53 198 114 11 20 17 40 17 59-19-31-12-88-13-137-2-26 40-26 40 0v430c1 182-139 281-326 239-39-11-88-26-95-61 0-21 26-24 35-7 28 27 84 39 142 40 125 3 205-88 204-211v-99l10 1C478-52 408 10 294 10 144 10 52-100 52-253zm448 0c0-132-75-224-204-224-128 0-204 93-204 224 0 130 76 225 204 225s204-93 204-225" id="F"/><path fill="#232b2b" d="M594 140c0 11-10 21-22 20H82c-12 1-22-9-22-20 0-13 9-20 22-20h490c13 0 22 7 22 20" id="G"/><path fill="#232b2b" d="M587-681c-1-24 38-26 38 0v659c2 21-26 29-37 14L124-642l14-7v632c1 22-38 23-38 0v-663c-2-19 23-26 33-13L595-63l-8 20v-638" id="H"/><g id="d"><use transform="matrix(0.015555555555555541,0,0,0.015555555555555541,0,0)" xlink:href="#E"/><use transform="matrix(0.015555555555555541,0,0,0.015555555555555541,12.895555555555545,0)" xlink:href="#p"/><use transform="matrix(0.015555555555555541,0,0,0.015555555555555541,16.099999999999987,0)" xlink:href="#C"/><use transform="matrix(0.015555555555555541,0,0,0.015555555555555541,20.93777777777776,0)" xlink:href="#F"/><use transform="matrix(0.015555555555555541,0,0,0.015555555555555541,30.56666666666664,0)" xlink:href="#u"/><use transform="matrix(0.015555555555555541,0,0,0.015555555555555541,33.92666666666664,0)" xlink:href="#p"/><use transform="matrix(0.015555555555555541,0,0,0.015555555555555541,37.13111111111108,0)" xlink:href="#r"/><use transform="matrix(0.015555555555555541,0,0,0.015555555555555541,45.77999999999996,0)" xlink:href="#q"/><use transform="matrix(0.015555555555555541,0,0,0.015555555555555541,55.09777777777773,0)" xlink:href="#y"/><use transform="matrix(0.015555555555555541,0,0,0.015555555555555541,62.331111111111056,0)" xlink:href="#G"/><use transform="matrix(0.015555555555555541,0,0,0.015555555555555541,72.50444444444437,0)" xlink:href="#H"/><use transform="matrix(0.015555555555555541,0,0,0.015555555555555541,83.78222222222215,0)" xlink:href="#A"/></g><path fill="#232b2b" d="M37-673c-13-25 30-42 39-16L291-68l-7 1 184-465c3-17 32-16 38 0L692-64l-9 1 215-626c6-24 49-14 39 16L708-13c-3 15-31 18-38 1L483-484h8L304-12c-4 16-32 15-38-1" id="I"/><path fill="#232b2b" d="M83-479c-1-25 40-26 40 0v98l-25 48c13-111 98-177 212-182 120-5 179 73 179 189v306c1 25-40 26-40 0v-302c-2-94-46-155-143-155-96 0-183 60-183 155v302c1 25-40 26-40 0v-459" id="J"/><g id="e"><use transform="matrix(0.015555555555555541,0,0,0.015555555555555541,0,0)" xlink:href="#I"/><use transform="matrix(0.015555555555555541,0,0,0.015555555555555541,14.917777777777765,0)" xlink:href="#s"/><use transform="matrix(0.015555555555555541,0,0,0.015555555555555541,24.204444444444423,0)" xlink:href="#z"/><use transform="matrix(0.015555555555555541,0,0,0.015555555555555541,32.94666666666664,0)" xlink:href="#J"/><use transform="matrix(0.015555555555555541,0,0,0.015555555555555541,41.844444444444406,0)" xlink:href="#s"/><use transform="matrix(0.015555555555555541,0,0,0.015555555555555541,51.13111111111107,0)" xlink:href="#A"/><use transform="matrix(0.015555555555555541,0,0,0.015555555555555541,56.855555555555505,0)" xlink:href="#C"/></g><path fill="#232b2b" d="M407-515c16 0 25 20 15 34L102-33l-15-5h310c25-1 26 38 0 38H71C55 1 45-19 55-33l322-452 5 8H101c-25 1-26-38 0-38h306" id="K"/><g id="f"><use transform="matrix(0.015555555555555541,0,0,0.015555555555555541,0,0)" xlink:href="#w"/><use transform="matrix(0.015555555555555541,0,0,0.015555555555555541,9.93999999999999,0)" xlink:href="#x"/><use transform="matrix(0.015555555555555541,0,0,0.015555555555555541,18.69777777777776,0)" xlink:href="#y"/><use transform="matrix(0.015555555555555541,0,0,0.015555555555555541,25.931111111111086,0)" xlink:href="#u"/><use transform="matrix(0.015555555555555541,0,0,0.015555555555555541,29.135555555555527,0)" xlink:href="#r"/><use transform="matrix(0.015555555555555541,0,0,0.015555555555555541,37.784444444444404,0)" xlink:href="#p"/><use transform="matrix(0.015555555555555541,0,0,0.015555555555555541,40.988888888888845,0)" xlink:href="#z"/><use transform="matrix(0.015555555555555541,0,0,0.015555555555555541,49.73111111111106,0)" xlink:href="#K"/><use transform="matrix(0.015555555555555541,0,0,0.015555555555555541,57.15111111111106,0)" xlink:href="#D"/><use transform="matrix(0.015555555555555541,0,0,0.015555555555555541,66.46888888888883,0)" xlink:href="#z"/><use transform="matrix(0.015555555555555541,0,0,0.015555555555555541,75.21111111111104,0)" xlink:href="#u"/></g><g id="g"><use transform="matrix(0.015555555555555541,0,0,0.015555555555555541,0,0)" xlink:href="#H"/><use transform="matrix(0.015555555555555541,0,0,0.015555555555555541,11.277777777777768,0)" xlink:href="#D"/><use transform="matrix(0.015555555555555541,0,0,0.015555555555555541,20.595555555555535,0)" xlink:href="#v"/><use transform="matrix(0.015555555555555541,0,0,0.015555555555555541,34.73555555555552,0)" xlink:href="#r"/></g><path fill="#232b2b" d="M318-20c1 25-40 26-40 0v-656h40v656zm243-661c1 11-9 19-20 19H55c-26 2-26-38 0-38h486c10 0 20 9 20 19" id="L"/><g id="h"><use transform="matrix(0.015555555555555541,0,0,0.015555555555555541,0,0)" xlink:href="#L"/><use transform="matrix(0.015555555555555541,0,0,0.015555555555555541,9.271111111111102,0)" xlink:href="#p"/><use transform="matrix(0.015555555555555541,0,0,0.015555555555555541,12.475555555555543,0)" xlink:href="#C"/><use transform="matrix(0.015555555555555541,0,0,0.015555555555555541,17.31333333333332,0)" xlink:href="#r"/><use transform="matrix(0.015555555555555541,0,0,0.015555555555555541,25.9622222222222,0)" xlink:href="#u"/></g><path fill="#232b2b" d="M142-20c2 26-42 27-42 0v-660c0-10 10-20 20-20h264c146-5 236 123 182 264-21 48-62 82-114 97l-46-8c98 6 156 72 158 177 1 64 2 105 34 131 22 9 6 50-17 36-47-29-60-83-59-167 1-98-54-143-146-143H133l9-12v305zm398-498c0-85-70-142-161-142H137l5-7v325l-10-11h257c88-12 149-67 151-165" id="M"/><g id="i"><use transform="matrix(0.015555555555555541,0,0,0.015555555555555541,0,0)" xlink:href="#M"/><use transform="matrix(0.015555555555555541,0,0,0.015555555555555541,10.251111111111102,0)" xlink:href="#r"/><use transform="matrix(0.015555555555555541,0,0,0.015555555555555541,18.822222222222205,0)" xlink:href="#F"/><use transform="matrix(0.015555555555555541,0,0,0.015555555555555541,28.451111111111086,0)" xlink:href="#p"/><use transform="matrix(0.015555555555555541,0,0,0.015555555555555541,31.655555555555527,0)" xlink:href="#y"/><use transform="matrix(0.015555555555555541,0,0,0.015555555555555541,38.88888888888885,0)" xlink:href="#y"/><use transform="matrix(0.015555555555555541,0,0,0.015555555555555541,46.12222222222218,0)" xlink:href="#r"/><use transform="matrix(0.015555555555555541,0,0,0.015555555555555541,54.771111111111054,0)" xlink:href="#x"/><use transform="matrix(0.015555555555555541,0,0,0.015555555555555541,63.52888888888882,0)" xlink:href="#A"/></g><path fill="#232b2b" d="M609-345c11-1 20 9 20 20-1 86 3 177-2 260-1 3-4 6-7 9-80 62-240 91-354 40C141-69 50-177 50-350s91-281 216-334c108-46 277-29 347 36 8 15-5 29-17 29-54-24-110-52-187-51-194 6-317 126-317 320S214-36 409-30c71 0 140-26 184-56l-4 18v-250l14 13H409c-25 1-26-40 0-40h200" id="N"/><path fill="#232b2b" d="M110-364c32-84 94-141 205-141 146 0 232 106 232 255C547-83 426 39 252-4c-69-17-112-68-142-129l13-14v327c2 26-40 25-40 0v-665c-2-26 40-26 40 0v128zm397 114c0-126-71-217-194-217-124 0-194 90-194 217 0 126 70 218 194 218 123 0 194-92 194-218" id="O"/><g id="j"><use transform="matrix(0.015555555555555541,0,0,0.015555555555555541,0,0)" xlink:href="#N"/><use transform="matrix(0.015555555555555541,0,0,0.015555555555555541,10.795555555555545,0)" xlink:href="#A"/><use transform="matrix(0.015555555555555541,0,0,0.015555555555555541,16.519999999999985,0)" xlink:href="#x"/><use transform="matrix(0.015555555555555541,0,0,0.015555555555555541,25.277777777777757,0)" xlink:href="#O"/><use transform="matrix(0.015555555555555541,0,0,0.015555555555555541,34.59555555555553,0)" xlink:href="#O"/><use transform="matrix(0.015555555555555541,0,0,0.015555555555555541,43.9133333333333,0)" xlink:href="#r"/></g><path fill="#232b2b" d="M100-680c-1-26 42-26 42 0v658l-18-18h363c25-1 26 40 0 40H120c-11 1-20-9-20-20v-660" id="P"/><g id="k"><use transform="matrix(0.015555555555555541,0,0,0.015555555555555541,0,0)" xlink:href="#P"/><use transform="matrix(0.015555555555555541,0,0,0.015555555555555541,8.119999999999992,0)" xlink:href="#r"/><use transform="matrix(0.015555555555555541,0,0,0.015555555555555541,16.768888888888874,0)" xlink:href="#p"/><use transform="matrix(0.015555555555555541,0,0,0.015555555555555541,19.973333333333315,0)" xlink:href="#z"/><use transform="matrix(0.015555555555555541,0,0,0.015555555555555541,28.71555555555553,0)" xlink:href="#t"/><use transform="matrix(0.015555555555555541,0,0,0.015555555555555541,33.91111111111108,0)" xlink:href="#A"/><use transform="matrix(0.015555555555555541,0,0,0.015555555555555541,39.63555555555552,0)" xlink:href="#p"/><use transform="matrix(0.015555555555555541,0,0,0.015555555555555541,42.83999999999996,0)" xlink:href="#y"/><use transform="matrix(0.015555555555555541,0,0,0.015555555555555541,50.07333333333329,0)" xlink:href="#C"/></g><g id="l"><use transform="matrix(0.015555555555555541,0,0,0.015555555555555541,0,0)" xlink:href="#B"/><use transform="matrix(0.015555555555555541,0,0,0.015555555555555541,8.555555555555548,0)" xlink:href="#O"/><use transform="matrix(0.015555555555555541,0,0,0.015555555555555541,17.873333333333317,0)" xlink:href="#r"/><use transform="matrix(0.015555555555555541,0,0,0.015555555555555541,26.522222222222197,0)" xlink:href="#A"/><use transform="matrix(0.015555555555555541,0,0,0.015555555555555541,32.246666666666634,0)" xlink:href="#A"/><use transform="matrix(0.015555555555555541,0,0,0.015555555555555541,37.62888888888885,0)" xlink:href="#r"/></g><g id="m"><use transform="matrix(0.015555555555555541,0,0,0.015555555555555541,0,0)" xlink:href="#M"/><use transform="matrix(0.015555555555555541,0,0,0.015555555555555541,10.251111111111102,0)" xlink:href="#r"/><use transform="matrix(0.015555555555555541,0,0,0.015555555555555541,18.822222222222205,0)" xlink:href="#F"/><use transform="matrix(0.015555555555555541,0,0,0.015555555555555541,28.451111111111086,0)" xlink:href="#G"/><use transform="matrix(0.015555555555555541,0,0,0.015555555555555541,38.62444444444441,0)" xlink:href="#H"/><use transform="matrix(0.015555555555555541,0,0,0.015555555555555541,49.90222222222218,0)" xlink:href="#A"/></g><path fill="#232b2b" d="M110-364c34-85 94-151 205-151 147 0 232 109 232 260S462 10 315 10c-109 0-166-67-205-143l13-14v127c2 26-40 25-40 0v-699c-2-26 40-26 40 0v362zm397 109c0-128-70-222-194-222-125 0-194 94-194 222 0 129 68 227 194 227 124 0 194-100 194-227" id="Q"/><path fill="#232b2b" d="M440-479c-2-26 40-26 40 0v291C482-62 402 6 281 6 161 6 83-62 83-188v-291c-1-25 40-26 40 0v291C122-88 183-32 281-32s159-56 159-156v-291zm-42-164c0 26-11 44-34 44-24 0-35-18-35-44 0-21 15-36 36-36 19 0 33 16 33 36zm-163 0c0 26-11 44-34 44-24 0-35-18-35-44 0-21 15-36 36-36 19 0 33 16 33 36" id="R"/><g id="n"><use transform="matrix(0.015555555555555541,0,0,0.015555555555555541,0,0)" xlink:href="#N"/><use transform="matrix(0.015555555555555541,0,0,0.015555555555555541,10.795555555555545,0)" xlink:href="#r"/><use transform="matrix(0.015555555555555541,0,0,0.015555555555555541,19.444444444444425,0)" xlink:href="#Q"/><use transform="matrix(0.015555555555555541,0,0,0.015555555555555541,28.762222222222192,0)" xlink:href="#R"/><use transform="matrix(0.015555555555555541,0,0,0.015555555555555541,37.51999999999996,0)" xlink:href="#z"/><use transform="matrix(0.015555555555555541,0,0,0.015555555555555541,46.26222222222218,0)" xlink:href="#A"/></g></defs></g></svg>