<svg xmlns="http://www.w3.org/2000/svg" xmlns:xlink="http://www.w3.org/1999/xlink" xmlns:lucid="lucid" width="360" height="90.3"><g transform="translate(-160 -300)" lucid:page-tab-id="nY731sZ4h5~x"><path d="M250 320h40v25h-40z" fill="none"/><use xlink:href="#a" transform="matrix(1,0,0,1,250,320) translate(10.910000000000004 20.499999999999996)"/><path d="M334.78 327.96c2.88-1.64 7.56-1.64 10.44 0l29.56 16.73c2.88 1.63 2.88 4.27 0 5.9l-29.56 16.74c-2.88 1.64-7.56 1.64-10.44 0l-29.56-16.73c-2.88-1.63-2.88-4.27 0-5.9z" stroke="#5e5e5e" stroke-width="3" fill="#fff"/><path d="M300.3 347.65H243" stroke="#5e5e5e" stroke-width="3" fill="none"/><path d="M301.78 349.15h-1.5v-3h1.56zM243.04 349.15h-1.54v-3h1.54z" stroke="#5e5e5e" stroke-width=".05" fill="#5e5e5e"/><path d="M379.7 347.65H437" stroke="#5e5e5e" stroke-width="3" fill="none"/><path d="M379.73 349.15h-1.57l.06-3h1.5zM438.5 349.15h-1.54v-3h1.54z" stroke="#5e5e5e" stroke-width=".05" fill="#5e5e5e"/><path d="M180 335.85c0-3.3 2.7-6 6-6h48c3.3 0 6 2.7 6 6v23.6c0 3.3-2.7 6-6 6h-48c-3.3 0-6-2.7-6-6zM440 335.85c0-3.3 2.7-6 6-6h48c3.3 0 6 2.7 6 6v23.6c0 3.3-2.7 6-6 6h-48c-3.3 0-6-2.7-6-6z" stroke="#5e5e5e" stroke-width="3" fill="#fff"/><path d="M390 320h40v25h-40z" fill="none"/><use xlink:href="#b" transform="matrix(1,0,0,1,390,320) translate(14.280000000000001 20.499999999999996)"/><defs><path fill="#232b2b" d="M83-479c-1-25 40-26 40 0v109l-30 51c7-141 174-233 305-155 31 20 53 52 64 95l-13 9c21-82 106-135 202-135 118 0 175 77 175 194v291c2 26-40 26-40 0v-287c-2-94-42-160-139-160-96 0-178 64-178 160v287c2 26-40 26-40 0v-292c-2-91-39-155-133-155-92 0-173 62-173 155v292c1 25-40 26-40 0v-459" id="c"/><use transform="matrix(0.019999999999999993,0,0,0.019999999999999993,0,0)" xlink:href="#c" id="a"/><path fill="#232b2b" d="M83-479c-1-25 40-26 40 0v98l-25 48c13-111 98-177 212-182 120-5 179 73 179 189v306c1 25-40 26-40 0v-302c-2-94-46-155-143-155-96 0-183 60-183 155v302c1 25-40 26-40 0v-459" id="d"/><use transform="matrix(0.019999999999999993,0,0,0.019999999999999993,0,0)" xlink:href="#d" id="b"/></defs></g></svg>