<svg xmlns="http://www.w3.org/2000/svg" xmlns:xlink="http://www.w3.org/1999/xlink" xmlns:lucid="lucid" width="720" height="380"><g transform="translate(-120 -40)" lucid:page-tab-id="n8j4uiGWQJf5"><path d="M310 120h360v32.17H310z" fill="#fff"/><path d="M310 152.17h90v32.16h-90zM400 152.17h90v32.16h-90zM490 152.17h90v32.16h-90zM580 152.17h90v32.16h-90z" fill="#333"/><path d="M310 184.33h90v32.17h-90zM400 184.33h90v32.17h-90zM490 184.33h90v32.17h-90zM580 184.33h90v32.17h-90zM310 216.5h90v32.17h-90zM400 216.5h90v32.17h-90zM490 216.5h90v32.17h-90zM580 216.5h90v32.17h-90z" fill="#fff"/><path d="M310 248.67h90v32.16h-90zM400 248.67h90v32.16h-90zM490 248.67h90v32.16h-90zM580 248.67h90v32.16h-90zM310 280.83h90V313h-90zM400 280.83h90V313h-90zM490 280.83h90V313h-90zM580 280.83h90V313h-90z" fill="#fff"/><path d="M310 120v32.17M670 120v32.17M310 152.17v32.16M400 152.17v32.16M490 152.17v32.16M580 152.17v32.16M670 152.17v32.16M310 184.33v32.17M400 184.33v32.17M490 184.33v32.17M580 184.33v32.17M670 184.33v32.17M310 216.5v32.17M400 216.5v32.17M490 216.5v32.17M580 216.5v32.17M670 216.5v32.17M310 248.67v32.16M400 248.67v32.16M490 248.67v32.16M580 248.67v32.16M670 248.67v32.16M310 280.83V313M400 280.83V313M490 280.83V313M580 280.83V313M670 280.83V313M310 120h360M310 152.17h90M400 152.17h90M490 152.17h90M580 152.17h90M310 184.33h90M400 184.33h90M490 184.33h90M580 184.33h90M310 216.5h90M400 216.5h90M490 216.5h90M580 216.5h90M310 248.67h90M400 248.67h90M490 248.67h90M580 248.67h90M310 280.83h90M310 313h90M400 280.83h90M400 313h90M490 280.83h90M490 313h90M580 280.83h90M580 313h90" stroke="#5e5e5e" stroke-width="3" fill="none"/><use xlink:href="#a" transform="matrix(1,0,0,1,315,125) translate(138.87333333333333 16.5)"/><use xlink:href="#b" transform="matrix(1,0,0,1,315,157.16666666666669) translate(18.633333333333333 16.5)"/><use xlink:href="#c" transform="matrix(1,0,0,1,405,157.16666666666669) translate(6.406666666666666 16.5)"/><use xlink:href="#d" transform="matrix(1,0,0,1,495,157.16666666666669) translate(11.746666666666666 16.5)"/><use xlink:href="#e" transform="matrix(1,0,0,1,585,157.16666666666669) translate(27.119999999999997 16.5)"/><use xlink:href="#f" transform="matrix(1,0,0,1,315,189.33333333333334) translate(19.939999999999998 16.5)"/><use xlink:href="#g" transform="matrix(1,0,0,1,405,189.33333333333334) translate(19.96666666666667 16.5)"/><use xlink:href="#h" transform="matrix(1,0,0,1,495,189.33333333333334) translate(20.12 16.5)"/><use xlink:href="#i" transform="matrix(1,0,0,1,585,189.33333333333334) translate(36.84 16.5)"/><use xlink:href="#j" transform="matrix(1,0,0,1,315,221.5) translate(19.519999999999996 16.5)"/><use xlink:href="#k" transform="matrix(1,0,0,1,405,221.5) translate(24.106666666666666 16.5)"/><use xlink:href="#l" transform="matrix(1,0,0,1,495,221.5) translate(20.46666666666666 16.5)"/><use xlink:href="#i" transform="matrix(1,0,0,1,585,221.5) translate(36.84 16.5)"/><use xlink:href="#m" transform="matrix(1,0,0,1,315,253.66666666666669) translate(19.74 16.5)"/><use xlink:href="#n" transform="matrix(1,0,0,1,405,253.66666666666669) translate(23.23333333333333 16.5)"/><use xlink:href="#o" transform="matrix(1,0,0,1,495,253.66666666666669) translate(24.333333333333332 16.5)"/><use xlink:href="#i" transform="matrix(1,0,0,1,585,253.66666666666669) translate(36.84 16.5)"/><use xlink:href="#i" transform="matrix(1,0,0,1,315,285.83333333333337) translate(36.84 16.5)"/><use xlink:href="#i" transform="matrix(1,0,0,1,405,285.83333333333337) translate(36.84 16.5)"/><use xlink:href="#i" transform="matrix(1,0,0,1,495,285.83333333333337) translate(36.84 16.5)"/><use xlink:href="#i" transform="matrix(1,0,0,1,585,285.83333333333337) translate(36.84 16.5)"/><g opacity=".65"><path d="M460 66c0-3.3 2.7-6 6-6h48c3.3 0 6 2.7 6 6v28c0 3.3-2.7 6-6 6h-48c-3.3 0-6-2.7-6-6z" stroke="#000" stroke-opacity="0" fill="#fff"/><use xlink:href="#p" transform="matrix(1,0,0,1,465,65) translate(5.720000000000006 20.83333333333333)"/></g><g opacity=".65"><path d="M170 218.5c0-3.3 2.7-6 6-6h48c3.3 0 6 2.7 6 6v28c0 3.3-2.7 6-6 6h-48c-3.3 0-6-2.7-6-6z" stroke="#000" stroke-opacity="0" fill="#fff"/><use xlink:href="#q" transform="matrix(1,0,0,1,175,217.5) translate(8.933333333333337 20.83333333333333)"/></g><g opacity=".65"><path d="M450 366c0-3.3 2.7-6 6-6h68c3.3 0 6 2.7 6 6v28c0 3.3-2.7 6-6 6h-68c-3.3 0-6-2.7-6-6z" stroke="#000" stroke-opacity="0" fill="#fff"/><use xlink:href="#r" transform="matrix(1,0,0,1,455,365) translate(9.140000000000011 20.83333333333333)"/></g><g opacity=".65"><path d="M740 206.47c0-3.3 2.7-6 6-6h68c3.3 0 6 2.7 6 6v28c0 3.32-2.7 6-6 6h-68c-3.3 0-6-2.68-6-6z" stroke="#000" stroke-opacity="0" fill="#fff"/><use xlink:href="#s" transform="matrix(1,0,0,1,745,205.4724409448819) translate(10.193333333333342 20.83333333333333)"/></g><g opacity=".65"><path d="M140 157c0-3.3 2.7-6 6-6h108c3.3 0 6 2.7 6 6v28c0 3.3-2.7 6-6 6H146c-3.3 0-6-2.7-6-6z" stroke="#000" stroke-opacity="0" fill="#fff"/><use xlink:href="#t" transform="matrix(1,0,0,1,145,156) translate(7.906666666666688 20.83333333333333)"/></g><path d="M231 232.5h76.5" stroke="#5e5e5e" stroke-width="2" fill="none"/><path d="M231.03 233.5H230v-2h1.03zM308.5 233.5h-1.03v-2h1.03z" stroke="#5e5e5e" stroke-width=".05" fill="#5e5e5e"/><path d="M231 232.5h32.25c3.3 0 6-2.7 6-6v-19c0-3.3 2.7-6 6-6h32.25" stroke="#5e5e5e" stroke-width="2" fill="none"/><path d="M231.03 233.5H230v-2h1.03zM308.5 202.5h-1.03v-2h1.03z" stroke="#5e5e5e" stroke-width=".05" fill="#5e5e5e"/><path d="M231 232.5h32.25c3.3 0 6 2.7 6 6v24c0 3.3 2.7 6 6 6h32.25" stroke="#5e5e5e" stroke-width="2" fill="none"/><path d="M231.03 233.5H230v-2h1.03zM308.5 269.5h-1.03v-2h1.03z" stroke="#5e5e5e" stroke-width=".05" fill="#5e5e5e"/><path d="M307.5 298h-32.25c-3.3 0-6-2.7-6-6v-53.5c0-3.3-2.7-6-6-6H231" stroke="#5e5e5e" stroke-width="2" fill="none"/><path d="M308.5 299h-1.03v-2h1.03zM231.03 233.5H230v-2h1.03z" stroke="#5e5e5e" stroke-width=".05" fill="#5e5e5e"/><path d="M261 171h46.5" stroke="#5e5e5e" stroke-width="2" fill="none"/><path d="M261.03 172H260v-2h1.03zM308.5 172h-1.03v-2h1.03z" stroke="#5e5e5e" stroke-width=".05" fill="#5e5e5e"/><path d="M490 359v-15.75c0-3.3 2.7-6 6-6h124c3.3 0 6-2.7 6-6V315.5" stroke="#5e5e5e" stroke-width="2" fill="none"/><path d="M491 360h-2v-1.03h2zM627 315.53h-2v-1.03h2z" stroke="#5e5e5e" stroke-width=".05" fill="#5e5e5e"/><path d="M490 359v-15.75c0-3.3 2.7-6 6-6h33.5c3.3 0 6-2.7 6-6V315.5" stroke="#5e5e5e" stroke-width="2" fill="none"/><path d="M491 360h-2v-1.03h2zM536.5 315.53h-2v-1.03h2z" stroke="#5e5e5e" stroke-width=".05" fill="#5e5e5e"/><path d="M490 359v-15.75c0-3.3-2.7-6-6-6h-33.5c-3.3 0-6-2.7-6-6V315.5" stroke="#5e5e5e" stroke-width="2" fill="none"/><path d="M491 360h-2v-1.03h2zM445.5 315.53h-2v-1.03h2z" stroke="#5e5e5e" stroke-width=".05" fill="#5e5e5e"/><path d="M490 359v-15.75c0-3.3-2.7-6-6-6H361c-3.3 0-6-2.7-6-6V315.5" stroke="#5e5e5e" stroke-width="2" fill="none"/><path d="M491 360h-2v-1.03h2zM356 315.53h-2v-1.03h2z" stroke="#5e5e5e" stroke-width=".05" fill="#5e5e5e"/><path d="M739 220.47h-27.25c-3.3 0-6-2.68-6-6V126c0-3.3-2.7-6-6-6H672.5" stroke="#5e5e5e" stroke-width="2" fill="none"/><path d="M740 221.47h-1.03v-2H740zM672.53 121h-1.03v-1H670v-1h2.53z" stroke="#5e5e5e" stroke-width=".05" fill="#5e5e5e"/><path d="M739 220.47h-27.25c-3.3 0-6 2.7-6 6V307c0 3.3-2.7 6-6 6H672.5" stroke="#5e5e5e" stroke-width="2" fill="none"/><path d="M740 221.47h-1.03v-2H740zM672.53 314H670v-1h1.5v-1h1.03z" stroke="#5e5e5e" stroke-width=".05" fill="#5e5e5e"/><path d="M490 101v16.5" stroke="#5e5e5e" stroke-width="2" fill="none"/><path d="M491 101.03h-2V100h2zM491 118.5h-2v-1.03h2z" stroke="#5e5e5e" stroke-width=".05" fill="#5e5e5e"/><defs><path fill="#232b2b" d="M414-634c-98-68-313-40-303 98 11 163 220 149 321 227 56 43 93 158 40 231-36 52-101 88-189 88-121 0-182-45-246-110-10-22 21-46 37-24 46 54 115 92 205 94 97-2 177-42 177-135 0-142-159-150-260-199-68-33-131-72-128-171 4-117 96-175 220-175 91 0 178 35 206 103 0 14-25 30-37 15-12-16-26-30-43-42" id="u"/><path fill="#232b2b" d="M37-465c-24 0-25-38 0-38h232c24-1 25 38 0 38H37zm122 356c-5 58 30 83 79 69 34 8 8 46-23 40-68 3-96-35-96-107v-523c-1-25 40-26 40 0v521" id="v"/><path fill="#232b2b" d="M440-479c-2-26 40-26 40 0v291C482-62 402 6 281 6 161 6 83-62 83-188v-291c-1-25 40-26 40 0v291C122-88 183-32 281-32s159-56 159-156v-291" id="w"/><path fill="#232b2b" d="M476-720c-2-26 40-26 40 0v700c1 25-40 26-40 0v-142l16-22C480-69 404 10 284 10 137 10 52-103 52-253s85-262 232-262c124 0 200 82 208 206l-16-25v-386zM92-253c0 127 70 225 194 225 126 0 194-96 194-225s-69-224-194-224c-124 0-194 96-194 224" id="x"/><path fill="#232b2b" d="M83-495c-1-25 40-26 40 0v475c1 25-40 26-40 0v-475zm54-128c11 49-70 54-69 8-10-48 70-54 69-8" id="y"/><path fill="#232b2b" d="M465-111c14-22 46 1 30 21C457-42 391 11 308 10 149 5 52-90 52-250c0-154 84-265 226-265 141 0 218 87 226 228 0 10-10 22-20 21H76l-6-38h403l-10 9c-2-114-78-180-185-180-119 0-185 92-187 222C88-98 211 4 372-40c38-14 72-41 93-71" id="z"/><path fill="#232b2b" d="M123-20c0 25-40 26-40 0v-459c-1-25 40-26 40 0v169l-17 26c10-127 72-223 203-231 17 1 48 3 46 23-3 35-32 13-57 12-84 7-134 73-160 138-34 85-15 213-15 322" id="A"/><path fill="#232b2b" d="M83-479c-1-25 40-26 40 0v98l-25 48c13-111 98-177 212-182 120-5 179 73 179 189v306c1 25-40 26-40 0v-302c-2-94-46-155-143-155-96 0-183 60-183 155v302c1 25-40 26-40 0v-459" id="B"/><g id="a"><use transform="matrix(0.013333333333333334,0,0,0.013333333333333334,0,0)" xlink:href="#u"/><use transform="matrix(0.013333333333333334,0,0,0.013333333333333334,7.333333333333334,0)" xlink:href="#v"/><use transform="matrix(0.013333333333333334,0,0,0.013333333333333334,11.546666666666667,0)" xlink:href="#w"/><use transform="matrix(0.013333333333333334,0,0,0.013333333333333334,19.053333333333335,0)" xlink:href="#x"/><use transform="matrix(0.013333333333333334,0,0,0.013333333333333334,27.040000000000003,0)" xlink:href="#y"/><use transform="matrix(0.013333333333333334,0,0,0.013333333333333334,29.78666666666667,0)" xlink:href="#z"/><use transform="matrix(0.013333333333333334,0,0,0.013333333333333334,37.2,0)" xlink:href="#A"/><use transform="matrix(0.013333333333333334,0,0,0.013333333333333334,41.81333333333333,0)" xlink:href="#z"/><use transform="matrix(0.013333333333333334,0,0,0.013333333333333334,49.22666666666667,0)" xlink:href="#B"/><use transform="matrix(0.013333333333333334,0,0,0.013333333333333334,56.85333333333334,0)" xlink:href="#x"/><use transform="matrix(0.013333333333333334,0,0,0.013333333333333334,64.84,0)" xlink:href="#z"/></g><path fill="#fff" d="M100-680c-2-20 27-27 38-11l287 427h-20l287-427c11-18 37-7 37 11v660c1 25-43 26-42 0v-615h11c-92 137-181 277-274 413-8 5-23 1-25-6L124-643h16v623c1 25-40 26-40 0v-660" id="C"/><path fill="#fff" d="M476-479c-2-26 40-26 40 0v459c1 25-40 26-40 0v-142l16-13C479-64 402 10 284 10 136 10 52-104 52-255s85-260 232-260c126 0 201 80 208 206l-16-25v-145zM92-255c0 129 69 227 194 227s194-98 194-227c0-126-71-222-194-222-124 0-194 94-194 222" id="D"/><path fill="#fff" d="M37-465c-24 0-25-38 0-38h232c24-1 25 38 0 38H37zm122 356c-5 58 30 83 79 69 34 8 8 46-23 40-68 3-96-35-96-107v-523c-1-25 40-26 40 0v521" id="E"/><path fill="#fff" d="M123-20c0 25-40 26-40 0v-459c-1-25 40-26 40 0v169l-17 26c10-127 72-223 203-231 17 1 48 3 46 23-3 35-32 13-57 12-84 7-134 73-160 138-34 85-15 213-15 322" id="F"/><path fill="#fff" d="M587-681c-1-24 38-26 38 0v659c2 21-26 29-37 14L124-642l14-7v632c1 22-38 23-38 0v-663c-2-19 23-26 33-13L595-63l-8 20v-638" id="G"/><g id="b"><use transform="matrix(0.013333333333333334,0,0,0.013333333333333334,0,0)" xlink:href="#C"/><use transform="matrix(0.013333333333333334,0,0,0.013333333333333334,11.053333333333335,0)" xlink:href="#D"/><use transform="matrix(0.013333333333333334,0,0,0.013333333333333334,19.040000000000003,0)" xlink:href="#E"/><use transform="matrix(0.013333333333333334,0,0,0.013333333333333334,23.253333333333337,0)" xlink:href="#F"/><use transform="matrix(0.013333333333333334,0,0,0.013333333333333334,28.16,0)" xlink:href="#G"/><use transform="matrix(0.013333333333333334,0,0,0.013333333333333334,37.82666666666667,0)" xlink:href="#F"/><path fill="#fff" d="M-.67 1.67H43.4v.67H-.67z"/></g><path fill="#fff" d="M52-253c0-179 141-296 336-252 39 10 83 26 89 61 1 18-24 27-37 14-24-35-73-48-137-47-127 7-211 94-211 224C92-98 209 1 372-36c27-9 55-25 69-42 9-17 37-14 36 7-23 52-97 81-177 81C145 5 52-97 52-253" id="H"/><path fill="#fff" d="M83-720c-1-25 40-26 40 0v349l-25 48c12-110 92-182 203-182 118 0 178 78 178 193v292c1 25-40 26-40 0v-292c-2-93-42-155-138-155-94 0-178 61-178 155v292c1 25-40 26-40 0v-700" id="I"/><path fill="#fff" d="M83-479c-1-25 40-26 40 0v98l-25 48c13-111 98-177 212-182 120-5 179 73 179 189v306c1 25-40 26-40 0v-302c-2-94-46-155-143-155-96 0-183 60-183 155v302c1 25-40 26-40 0v-459" id="J"/><path fill="#fff" d="M83-479c-1-25 40-26 40 0v109l-30 51c7-141 174-233 305-155 31 20 53 52 64 95l-13 9c21-82 106-135 202-135 118 0 175 77 175 194v291c2 26-40 26-40 0v-287c-2-94-42-160-139-160-96 0-178 64-178 160v287c2 26-40 26-40 0v-292c-2-91-39-155-133-155-92 0-173 62-173 155v292c1 25-40 26-40 0v-459" id="K"/><path fill="#fff" d="M465-111c14-22 46 1 30 21C457-42 391 11 308 10 149 5 52-90 52-250c0-154 84-265 226-265 141 0 218 87 226 228 0 10-10 22-20 21H76l-6-38h403l-10 9c-2-114-78-180-185-180-119 0-185 92-187 222C88-98 211 4 372-40c38-14 72-41 93-71" id="L"/><g id="c"><use transform="matrix(0.013333333333333334,0,0,0.013333333333333334,0,0)" xlink:href="#G"/><use transform="matrix(0.013333333333333334,0,0,0.013333333333333334,9.666666666666668,0)" xlink:href="#D"/><use transform="matrix(0.013333333333333334,0,0,0.013333333333333334,17.653333333333336,0)" xlink:href="#H"/><use transform="matrix(0.013333333333333334,0,0,0.013333333333333334,24.54666666666667,0)" xlink:href="#I"/><use transform="matrix(0.013333333333333334,0,0,0.013333333333333334,32.040000000000006,0)" xlink:href="#J"/><use transform="matrix(0.013333333333333334,0,0,0.013333333333333334,39.66666666666667,0)" xlink:href="#D"/><use transform="matrix(0.013333333333333334,0,0,0.013333333333333334,47.653333333333336,0)" xlink:href="#K"/><use transform="matrix(0.013333333333333334,0,0,0.013333333333333334,59.77333333333334,0)" xlink:href="#L"/></g><path fill="#fff" d="M39-669c-16-27 26-44 38-15L337-58l-12-1 261-628c9-25 48-12 37 15L349-13c-4 16-31 17-38 0" id="M"/><path fill="#fff" d="M299-515c153 0 246 109 246 263 0 153-94 262-246 262C148 10 52-99 52-252c0-154 95-263 247-263zm0 487c129 0 206-93 206-224 0-132-77-225-206-225S92-384 92-252c0 131 79 224 207 224" id="N"/><g id="d"><use transform="matrix(0.013333333333333334,0,0,0.013333333333333334,0,0)" xlink:href="#M"/><use transform="matrix(0.013333333333333334,0,0,0.013333333333333334,8.493333333333334,0)" xlink:href="#N"/><use transform="matrix(0.013333333333333334,0,0,0.013333333333333334,16.453333333333333,0)" xlink:href="#F"/><use transform="matrix(0.013333333333333334,0,0,0.013333333333333334,21.36,0)" xlink:href="#J"/><use transform="matrix(0.013333333333333334,0,0,0.013333333333333334,28.98666666666666,0)" xlink:href="#D"/><use transform="matrix(0.013333333333333334,0,0,0.013333333333333334,36.97333333333333,0)" xlink:href="#K"/><use transform="matrix(0.013333333333333334,0,0,0.013333333333333334,49.093333333333334,0)" xlink:href="#L"/></g><path fill="#fff" d="M440-479c-2-26 40-26 40 0v291C482-62 402 6 281 6 161 6 83-62 83-188v-291c-1-25 40-26 40 0v291C122-88 183-32 281-32s159-56 159-156v-291" id="O"/><path fill="#fff" d="M404-186C470-34 286 55 142-11c-32-14-61-37-87-69-21-23 12-49 29-29 33 46 85 83 162 83 69-3 133-29 133-98 0-125-181-91-253-156-29-22-52-51-52-99-6-157 248-172 323-69 22 14-8 48-25 28-30-35-74-56-134-57-68 3-124 30-126 98 23 136 242 77 292 193" id="P"/><path fill="#fff" d="M40-488c-13-25 29-42 37-16L226-45h-17l142-352c4-18 31-15 38 0L542-44h-20l147-460c7-25 46-12 37 16L551-13c-6 16-31 18-38 0L359-360l15 5L238-13c-4 18-34 16-38 0" id="Q"/><path fill="#fff" d="M77-85c45-8 43 94 0 85-38 4-39-88 0-85" id="R"/><g id="e"><use transform="matrix(0.013333333333333334,0,0,0.013333333333333334,0,0)" xlink:href="#O"/><use transform="matrix(0.013333333333333334,0,0,0.013333333333333334,7.506666666666667,0)" xlink:href="#P"/><use transform="matrix(0.013333333333333334,0,0,0.013333333333333334,13.706666666666667,0)" xlink:href="#Q"/><use transform="matrix(0.013333333333333334,0,0,0.013333333333333334,23.653333333333336,0)" xlink:href="#R"/></g><path fill="#232b2b" d="M243-20c1 26-42 26-42 0v-634l10 6c-55 34-105 74-164 105-19 0-31-27-11-39 63-37 120-81 184-118 14-1 23 6 23 20v660" id="S"/><path fill="#232b2b" d="M268-700c134-3 225 121 176 256-18 40-50 75-88 93l-3-4c67 28 124 83 124 176C477-63 387 7 268 10 124 13 21-116 77-258c21-44 61-78 105-96l-2 4c-55-29-104-82-104-164 0-113 80-184 192-186zm0 40c-87-2-152 60-150 146 3 90 63 147 150 147s146-58 149-147c2-85-63-148-149-146zM102-179c-1 89 72 149 166 149 93 0 168-60 167-149-4-94-72-152-167-152-94 0-162 58-166 152" id="T"/><path fill="#232b2b" d="M380-20c1 25-40 26-40 0v-625l11 8L65-252l-3-11h394c26-2 26 38 0 38H35c-16 1-25-21-15-34l323-433c11-15 37-7 37 12v660" id="U"/><path fill="#232b2b" d="M419-221c0-131-101-190-233-177-20 1-24-25-12-39l212-232 6 14H70c-25 1-26-40 0-40h346c20-2 25 24 14 36L219-427l-20-6c1-5 36-9 43-9 130 7 219 82 219 221 0 142-99 231-239 231-70 0-127-26-160-70-9-22 21-41 37-20 25 32 68 48 123 48 116-4 197-73 197-189" id="V"/><path fill="#232b2b" d="M480-242C484-63 329 34 148-15c-30-11-60-26-81-49-9-18 16-43 32-25 33 28 78 47 133 48 127-2 208-72 208-198 0-119-77-183-198-185-64-3-111 34-157 46-12-1-19-10-17-24l47-275c2-8 10-17 22-17h305c26-1 26 42 0 42H145l9-9-46 249-20-5c42-25 100-46 169-46 135 5 220 85 223 221" id="W"/><path fill="#232b2b" d="M188-692c143-53 294 24 285 175-7 108-64 167-132 245L126-28l-9-12h362c25-1 26 40 0 40H93C74 2 60-18 73-34l235-262c62-70 113-121 121-217 9-119-116-189-231-143-49 18-85 57-106 100-19 12-41-6-27-30 26-45 72-85 123-106" id="X"/><g id="f"><use transform="matrix(0.013333333333333334,0,0,0.013333333333333334,0,0)" xlink:href="#S"/><use transform="matrix(0.013333333333333334,0,0,0.013333333333333334,4.840000000000001,0)" xlink:href="#T"/><use transform="matrix(0.013333333333333334,0,0,0.013333333333333334,12,0)" xlink:href="#U"/><use transform="matrix(0.013333333333333334,0,0,0.013333333333333334,18.746666666666666,0)" xlink:href="#V"/><use transform="matrix(0.013333333333333334,0,0,0.013333333333333334,25.666666666666668,0)" xlink:href="#W"/><use transform="matrix(0.013333333333333334,0,0,0.013333333333333334,32.800000000000004,0)" xlink:href="#X"/></g><path fill="#232b2b" d="M100-680c-2-20 27-27 38-11l287 427h-20l287-427c11-18 37-7 37 11v660c1 25-43 26-42 0v-615h11c-92 137-181 277-274 413-8 5-23 1-25-6L124-643h16v623c1 25-40 26-40 0v-660" id="Y"/><path fill="#232b2b" d="M440-479c-2-26 40-26 40 0v291C482-62 402 6 281 6 161 6 83-62 83-188v-291c-1-25 40-26 40 0v291C122-88 183-32 281-32s159-56 159-156v-291zm-42-164c0 26-11 44-34 44-24 0-35-18-35-44 0-21 15-36 36-36 19 0 33 16 33 36zm-163 0c0 26-11 44-34 44-24 0-35-18-35-44 0-21 15-36 36-36 19 0 33 16 33 36" id="Z"/><path fill="#232b2b" d="M52-253c0-179 141-296 336-252 39 10 83 26 89 61 1 18-24 27-37 14-24-35-73-48-137-47-127 7-211 94-211 224C92-98 209 1 372-36c27-9 55-25 69-42 9-17 37-14 36 7-23 52-97 81-177 81C145 5 52-97 52-253" id="aa"/><path fill="#232b2b" d="M128-20c2 26-40 26-40 0v-700c-2-26 40-26 40 0v700zm314-479c18-20 47 13 26 30L121-180l-2-48zm33 464c19 18-10 48-29 28L204-265l30-26" id="ab"/><g id="g"><use transform="matrix(0.013333333333333334,0,0,0.013333333333333334,0,0)" xlink:href="#Y"/><use transform="matrix(0.013333333333333334,0,0,0.013333333333333334,11.053333333333335,0)" xlink:href="#Z"/><use transform="matrix(0.013333333333333334,0,0,0.013333333333333334,18.560000000000002,0)" xlink:href="#B"/><use transform="matrix(0.013333333333333334,0,0,0.013333333333333334,26.186666666666667,0)" xlink:href="#aa"/><use transform="matrix(0.013333333333333334,0,0,0.013333333333333334,33.08,0)" xlink:href="#ab"/></g><path fill="#232b2b" d="M100-680c0-10 10-20 20-20h240c118 3 189 73 189 191s-70 198-189 198H138l4-7v298c1 25-42 27-42 0v-660zm407 171c0-94-53-151-147-151H139l3-5v317l-4-3h222c95-2 147-64 147-158" id="ac"/><path fill="#232b2b" d="M83-720c-1-25 40-26 40 0v349l-25 48c12-110 92-182 203-182 118 0 178 78 178 193v292c1 25-40 26-40 0v-292c-2-93-42-155-138-155-94 0-178 61-178 155v292c1 25-40 26-40 0v-700" id="ad"/><path fill="#232b2b" d="M88-720c-1-25 40-26 40 0v700c1 25-40 26-40 0v-700" id="ae"/><path fill="#232b2b" d="M110-364c32-84 94-141 205-141 146 0 232 106 232 255C547-83 426 39 252-4c-69-17-112-68-142-129l13-14v327c2 26-40 25-40 0v-665c-2-26 40-26 40 0v128zm397 114c0-126-71-217-194-217-124 0-194 90-194 217 0 126 70 218 194 218 123 0 194-92 194-218" id="af"/><g id="h"><use transform="matrix(0.013333333333333334,0,0,0.013333333333333334,0,0)" xlink:href="#ac"/><use transform="matrix(0.013333333333333334,0,0,0.013333333333333334,7.920000000000001,0)" xlink:href="#ad"/><use transform="matrix(0.013333333333333334,0,0,0.013333333333333334,15.413333333333334,0)" xlink:href="#y"/><use transform="matrix(0.013333333333333334,0,0,0.013333333333333334,18.16,0)" xlink:href="#ae"/><use transform="matrix(0.013333333333333334,0,0,0.013333333333333334,21.04,0)" xlink:href="#y"/><use transform="matrix(0.013333333333333334,0,0,0.013333333333333334,23.786666666666665,0)" xlink:href="#af"/><use transform="matrix(0.013333333333333334,0,0,0.013333333333333334,31.773333333333337,0)" xlink:href="#af"/></g><path fill="#232b2b" d="M77-85c45-8 43 94 0 85-38 4-39-88 0-85" id="ag"/><g id="i"><use transform="matrix(0.013333333333333334,0,0,0.013333333333333334,0,0)" xlink:href="#ag"/><use transform="matrix(0.013333333333333334,0,0,0.013333333333333334,2.106666666666667,0)" xlink:href="#ag"/><use transform="matrix(0.013333333333333334,0,0,0.013333333333333334,4.213333333333334,0)" xlink:href="#ag"/></g><path fill="#232b2b" d="M528-350c0 185-54 360-234 360C115 10 60-164 60-350s55-360 234-360c180 0 234 174 234 360zm-426 0c0 162 40 318 192 318s192-156 192-318-39-318-192-318-192 156-192 318" id="ah"/><g id="j"><use transform="matrix(0.013333333333333334,0,0,0.013333333333333334,0,0)" xlink:href="#S"/><use transform="matrix(0.013333333333333334,0,0,0.013333333333333334,4.840000000000001,0)" xlink:href="#T"/><use transform="matrix(0.013333333333333334,0,0,0.013333333333333334,12,0)" xlink:href="#ah"/><use transform="matrix(0.013333333333333334,0,0,0.013333333333333334,19.84,0)" xlink:href="#X"/><use transform="matrix(0.013333333333333334,0,0,0.013333333333333334,27.16,0)" xlink:href="#X"/><use transform="matrix(0.013333333333333334,0,0,0.013333333333333334,34.21333333333334,0)" xlink:href="#U"/></g><path fill="#232b2b" d="M140-20c2 26-40 26-40 0v-660c0-10 10-20 20-20h377c25-1 26 40 0 40H137l3-4v288l-4-8h316c25-1 26 40 0 40H134l6-8v332" id="ai"/><g id="k"><use transform="matrix(0.013333333333333334,0,0,0.013333333333333334,0,0)" xlink:href="#ai"/><use transform="matrix(0.013333333333333334,0,0,0.013333333333333334,7.44,0)" xlink:href="#A"/><use transform="matrix(0.013333333333333334,0,0,0.013333333333333334,12.053333333333335,0)" xlink:href="#z"/><use transform="matrix(0.013333333333333334,0,0,0.013333333333333334,19.46666666666667,0)" xlink:href="#z"/><use transform="matrix(0.013333333333333334,0,0,0.013333333333333334,26.880000000000003,0)" xlink:href="#A"/></g><path fill="#232b2b" d="M100-679c-2-27 42-27 42 0v658c1 26-42 28-42 0v-658zm478 0c-2-27 42-27 42 0v658c1 26-42 28-42 0v-658zM116-380h485l-2 40H110" id="aj"/><path fill="#232b2b" d="M476-479c-2-26 40-26 40 0v459c1 25-40 26-40 0v-142l16-13C479-64 402 10 284 10 136 10 52-104 52-255s85-260 232-260c126 0 201 80 208 206l-16-25v-145zM92-255c0 129 69 227 194 227s194-98 194-227c0-126-71-222-194-222-124 0-194 94-194 222" id="ak"/><g id="l"><use transform="matrix(0.013333333333333334,0,0,0.013333333333333334,0,0)" xlink:href="#aj"/><use transform="matrix(0.013333333333333334,0,0,0.013333333333333334,9.600000000000001,0)" xlink:href="#ak"/><use transform="matrix(0.013333333333333334,0,0,0.013333333333333334,17.453333333333337,0)" xlink:href="#w"/><use transform="matrix(0.013333333333333334,0,0,0.013333333333333334,24.960000000000004,0)" xlink:href="#ab"/><use transform="matrix(0.013333333333333334,0,0,0.013333333333333334,31.653333333333343,0)" xlink:href="#z"/></g><path fill="#232b2b" d="M60-489c0-128 86-218 215-221 188-5 262 168 214 352C444-187 344-51 188 12c-21 1-31-31-8-41 129-58 234-185 268-339l20-18c-37 70-103 123-204 123-129 0-204-99-204-226zm402-4c0-107-72-177-185-177-109 0-175 71-175 181 0 107 59 183 169 185 119-2 191-75 191-189" id="al"/><g id="m"><use transform="matrix(0.013333333333333334,0,0,0.013333333333333334,0,0)" xlink:href="#S"/><use transform="matrix(0.013333333333333334,0,0,0.013333333333333334,4.840000000000001,0)" xlink:href="#T"/><use transform="matrix(0.013333333333333334,0,0,0.013333333333333334,12,0)" xlink:href="#X"/><use transform="matrix(0.013333333333333334,0,0,0.013333333333333334,19.32,0)" xlink:href="#al"/><use transform="matrix(0.013333333333333334,0,0,0.013333333333333334,26.72,0)" xlink:href="#X"/><use transform="matrix(0.013333333333333334,0,0,0.013333333333333334,33.77333333333333,0)" xlink:href="#U"/></g><g id="n"><use transform="matrix(0.013333333333333334,0,0,0.013333333333333334,0,0)" xlink:href="#Y"/><use transform="matrix(0.013333333333333334,0,0,0.013333333333333334,11.053333333333335,0)" xlink:href="#z"/><use transform="matrix(0.013333333333333334,0,0,0.013333333333333334,18.46666666666667,0)" xlink:href="#y"/><use transform="matrix(0.013333333333333334,0,0,0.013333333333333334,21.213333333333335,0)" xlink:href="#z"/><use transform="matrix(0.013333333333333334,0,0,0.013333333333333334,28.62666666666667,0)" xlink:href="#A"/></g><path fill="#232b2b" d="M100-680c0-10 10-20 20-20h269c134-8 212 123 159 250-21 49-63 87-127 92l-7-12c116 4 186 64 186 181C600-63 520 0 396 0H120c-10 0-20-10-20-20v-660zm423 149c0-80-55-129-139-129H131l11-19v317l-10-17h252c84-3 142-59 139-152zm35 342c0-103-67-149-167-149H138l4-6v312l-5-8h254c96-1 170-47 167-149" id="am"/><path fill="#232b2b" d="M52-253c0-153 92-262 242-262 96 0 161 53 198 114 11 20 17 40 17 59-19-31-12-88-13-137-2-26 40-26 40 0v430c1 182-139 281-326 239-39-11-88-26-95-61 0-21 26-24 35-7 28 27 84 39 142 40 125 3 205-88 204-211v-99l10 1C478-52 408 10 294 10 144 10 52-100 52-253zm448 0c0-132-75-224-204-224-128 0-204 93-204 224 0 130 76 225 204 225s204-93 204-225" id="an"/><g id="o"><use transform="matrix(0.013333333333333334,0,0,0.013333333333333334,0,0)" xlink:href="#am"/><use transform="matrix(0.013333333333333334,0,0,0.013333333333333334,8.666666666666668,0)" xlink:href="#y"/><use transform="matrix(0.013333333333333334,0,0,0.013333333333333334,11.413333333333334,0)" xlink:href="#A"/><use transform="matrix(0.013333333333333334,0,0,0.013333333333333334,16.12,0)" xlink:href="#an"/><use transform="matrix(0.013333333333333334,0,0,0.013333333333333334,24.373333333333335,0)" xlink:href="#y"/><use transform="matrix(0.013333333333333334,0,0,0.013333333333333334,27.12,0)" xlink:href="#v"/></g><path d="M100-680c0-10 10-20 20-20h377c25-1 26 40 0 40H132l10-17v310l-12-14h322c25-1 26 40 0 40H132l10-11v317l-4-5h359c25-1 26 40 0 40H120c-10 0-20-10-20-20v-660" id="ao"/><path d="M83-479c-1-25 40-26 40 0v98l-25 48c13-111 98-177 212-182 120-5 179 73 179 189v306c1 25-40 26-40 0v-302c-2-94-46-155-143-155-96 0-183 60-183 155v302c1 25-40 26-40 0v-459" id="ap"/><path d="M37-465c-24 0-25-38 0-38h232c24-1 25 38 0 38H37zm122 356c-5 58 30 83 79 69 34 8 8 46-23 40-68 3-96-35-96-107v-523c-1-25 40-26 40 0v521" id="aq"/><path d="M83-495c-1-25 40-26 40 0v475c1 25-40 26-40 0v-475zm54-128c11 49-70 54-69 8-10-48 70-54 69-8" id="ar"/><path d="M476-479c-2-26 40-26 40 0v459c1 25-40 26-40 0v-142l16-13C479-64 402 10 284 10 136 10 52-104 52-255s85-260 232-260c126 0 201 80 208 206l-16-25v-145zM92-255c0 129 69 227 194 227s194-98 194-227c0-126-71-222-194-222-124 0-194 94-194 222zm316-388c0 26-11 44-34 44-24 0-35-18-35-44 0-21 15-36 36-36 19 0 33 16 33 36zm-163 0c0 26-11 44-34 44-24 0-35-18-35-44 0-21 15-36 36-36 19 0 33 16 33 36" id="as"/><g id="p"><use transform="matrix(0.013333333333333329,0,0,0.013333333333333329,0,0)" xlink:href="#ao"/><use transform="matrix(0.013333333333333329,0,0,0.013333333333333329,7.559999999999998,0)" xlink:href="#ap"/><use transform="matrix(0.013333333333333329,0,0,0.013333333333333329,15.186666666666662,0)" xlink:href="#aq"/><use transform="matrix(0.013333333333333329,0,0,0.013333333333333329,19.399999999999995,0)" xlink:href="#ar"/><use transform="matrix(0.013333333333333329,0,0,0.013333333333333329,22.14666666666666,0)" xlink:href="#aq"/><use transform="matrix(0.013333333333333329,0,0,0.013333333333333329,26.359999999999992,0)" xlink:href="#as"/><use transform="matrix(0.013333333333333329,0,0,0.013333333333333329,34.34666666666666,0)" xlink:href="#aq"/></g><path d="M318-20c1 25-40 26-40 0v-656h40v656zm243-661c1 11-9 19-20 19H55c-26 2-26-38 0-38h486c10 0 20 9 20 19" id="at"/><path d="M440-479c-2-26 40-26 40 0v291C482-62 402 6 281 6 161 6 83-62 83-188v-291c-1-25 40-26 40 0v291C122-88 183-32 281-32s159-56 159-156v-291" id="au"/><path d="M110-364c32-84 94-141 205-141 146 0 232 106 232 255C547-83 426 39 252-4c-69-17-112-68-142-129l13-14v327c2 26-40 25-40 0v-665c-2-26 40-26 40 0v128zm397 114c0-126-71-217-194-217-124 0-194 90-194 217 0 126 70 218 194 218 123 0 194-92 194-218" id="av"/><path d="M465-111c14-22 46 1 30 21C457-42 391 11 308 10 149 5 52-90 52-250c0-154 84-265 226-265 141 0 218 87 226 228 0 10-10 22-20 21H76l-6-38h403l-10 9c-2-114-78-180-185-180-119 0-185 92-187 222C88-98 211 4 372-40c38-14 72-41 93-71" id="aw"/><path d="M88-720c-1-25 40-26 40 0v700c1 25-40 26-40 0v-700" id="ax"/><g id="q"><use transform="matrix(0.013333333333333329,0,0,0.013333333333333329,0,0)" xlink:href="#at"/><use transform="matrix(0.013333333333333329,0,0,0.013333333333333329,6.346666666666664,0)" xlink:href="#au"/><use transform="matrix(0.013333333333333329,0,0,0.013333333333333329,13.853333333333328,0)" xlink:href="#av"/><use transform="matrix(0.013333333333333329,0,0,0.013333333333333329,21.839999999999993,0)" xlink:href="#aw"/><use transform="matrix(0.013333333333333329,0,0,0.013333333333333329,29.253333333333323,0)" xlink:href="#ax"/></g><path d="M613-27c10 26-31 38-40 14L312-657l15 8L74-13C68 11 26-1 36-27l269-662c3-19 36-16 39 0zM142-217l14-40h324l10 40H142" id="ay"/><path d="M123-20c0 25-40 26-40 0v-459c-1-25 40-26 40 0v169l-17 26c10-127 72-223 203-231 17 1 48 3 46 23-3 35-32 13-57 12-84 7-134 73-160 138-34 85-15 213-15 322" id="az"/><path d="M110-364c34-85 94-151 205-151 147 0 232 109 232 260S462 10 315 10c-109 0-166-67-205-143l13-14v127c2 26-40 25-40 0v-699c-2-26 40-26 40 0v362zm397 109c0-128-70-222-194-222-125 0-194 94-194 222 0 129 68 227 194 227 124 0 194-100 194-227" id="aA"/><g id="r"><use transform="matrix(0.013333333333333329,0,0,0.013333333333333329,0,0)" xlink:href="#ay"/><use transform="matrix(0.013333333333333329,0,0,0.013333333333333329,8.586666666666664,0)" xlink:href="#aq"/><use transform="matrix(0.013333333333333329,0,0,0.013333333333333329,12.799999999999997,0)" xlink:href="#aq"/><use transform="matrix(0.013333333333333329,0,0,0.013333333333333329,17.01333333333333,0)" xlink:href="#az"/><use transform="matrix(0.013333333333333329,0,0,0.013333333333333329,21.919999999999995,0)" xlink:href="#ar"/><use transform="matrix(0.013333333333333329,0,0,0.013333333333333329,24.66666666666666,0)" xlink:href="#aA"/><use transform="matrix(0.013333333333333329,0,0,0.013333333333333329,32.65333333333332,0)" xlink:href="#au"/><use transform="matrix(0.013333333333333329,0,0,0.013333333333333329,40.15999999999998,0)" xlink:href="#aq"/><use transform="matrix(0.013333333333333329,0,0,0.013333333333333329,44.30666666666664,0)" xlink:href="#aw"/></g><path d="M142-20c2 26-42 27-42 0v-660c0-10 10-20 20-20h264c146-5 236 123 182 264-21 48-62 82-114 97l-46-8c98 6 156 72 158 177 1 64 2 105 34 131 22 9 6 50-17 36-47-29-60-83-59-167 1-98-54-143-146-143H133l9-12v305zm398-498c0-85-70-142-161-142H137l5-7v325l-10-11h257c88-12 149-67 151-165" id="aB"/><path d="M476-479c-2-26 40-26 40 0v459c1 25-40 26-40 0v-142l16-13C479-64 402 10 284 10 136 10 52-104 52-255s85-260 232-260c126 0 201 80 208 206l-16-25v-145zM92-255c0 129 69 227 194 227s194-98 194-227c0-126-71-222-194-222-124 0-194 94-194 222" id="aC"/><path d="M299-515c153 0 246 109 246 263 0 153-94 262-246 262C148 10 52-99 52-252c0-154 95-263 247-263zm0 487c129 0 206-93 206-224 0-132-77-225-206-225S92-384 92-252c0 131 79 224 207 224" id="aD"/><g id="s"><use transform="matrix(0.013333333333333329,0,0,0.013333333333333329,0,0)" xlink:href="#aB"/><use transform="matrix(0.013333333333333329,0,0,0.013333333333333329,8.786666666666664,0)" xlink:href="#aw"/><use transform="matrix(0.013333333333333329,0,0,0.013333333333333329,16.199999999999996,0)" xlink:href="#ax"/><use transform="matrix(0.013333333333333329,0,0,0.013333333333333329,19.079999999999995,0)" xlink:href="#aC"/><use transform="matrix(0.013333333333333329,0,0,0.013333333333333329,27.06666666666666,0)" xlink:href="#aq"/><use transform="matrix(0.013333333333333329,0,0,0.013333333333333329,31.27999999999999,0)" xlink:href="#ar"/><use transform="matrix(0.013333333333333329,0,0,0.013333333333333329,34.02666666666666,0)" xlink:href="#aD"/><use transform="matrix(0.013333333333333329,0,0,0.013333333333333329,41.98666666666665,0)" xlink:href="#ap"/></g><path d="M100-680c0-10 10-20 20-20h240c118 3 189 73 189 191s-70 198-189 198H138l4-7v298c1 25-42 27-42 0v-660zm407 171c0-94-53-151-147-151H139l3-5v317l-4-3h222c95-2 147-64 147-158" id="aE"/><path d="M83-479c-1-25 40-26 40 0v109l-30 51c7-141 174-233 305-155 31 20 53 52 64 95l-13 9c21-82 106-135 202-135 118 0 175 77 175 194v291c2 26-40 26-40 0v-287c-2-94-42-160-139-160-96 0-178 64-178 160v287c2 26-40 26-40 0v-292c-2-91-39-155-133-155-92 0-173 62-173 155v292c1 25-40 26-40 0v-459" id="aF"/><path d="M404-186C470-34 286 55 142-11c-32-14-61-37-87-69-21-23 12-49 29-29 33 46 85 83 162 83 69-3 133-29 133-98 0-125-181-91-253-156-29-22-52-51-52-99-6-157 248-172 323-69 22 14-8 48-25 28-30-35-74-56-134-57-68 3-124 30-126 98 23 136 242 77 292 193" id="aG"/><path d="M52-253c0-179 141-296 336-252 39 10 83 26 89 61 1 18-24 27-37 14-24-35-73-48-137-47-127 7-211 94-211 224C92-98 209 1 372-36c27-9 55-25 69-42 9-17 37-14 36 7-23 52-97 81-177 81C145 5 52-97 52-253" id="aH"/><path d="M83-720c-1-25 40-26 40 0v349l-25 48c12-110 92-182 203-182 118 0 178 78 178 193v292c1 25-40 26-40 0v-292c-2-93-42-155-138-155-94 0-178 61-178 155v292c1 25-40 26-40 0v-700" id="aI"/><path d="M440-479c-2-26 40-26 40 0v291C482-62 402 6 281 6 161 6 83-62 83-188v-291c-1-25 40-26 40 0v291C122-88 183-32 281-32s159-56 159-156v-291zm-42-164c0 26-11 44-34 44-24 0-35-18-35-44 0-21 15-36 36-36 19 0 33 16 33 36zm-163 0c0 26-11 44-34 44-24 0-35-18-35-44 0-21 15-36 36-36 19 0 33 16 33 36" id="aJ"/><g id="t"><use transform="matrix(0.013333333333333329,0,0,0.013333333333333329,0,0)" xlink:href="#aE"/><use transform="matrix(0.013333333333333329,0,0,0.013333333333333329,7.919999999999997,0)" xlink:href="#az"/><use transform="matrix(0.013333333333333329,0,0,0.013333333333333329,12.826666666666663,0)" xlink:href="#ar"/><use transform="matrix(0.013333333333333329,0,0,0.013333333333333329,15.573333333333329,0)" xlink:href="#aF"/><use transform="matrix(0.013333333333333329,0,0,0.013333333333333329,27.693333333333324,0)" xlink:href="#as"/><use transform="matrix(0.013333333333333329,0,0,0.013333333333333329,35.679999999999986,0)" xlink:href="#az"/><use transform="matrix(0.013333333333333329,0,0,0.013333333333333329,40.58666666666665,0)" xlink:href="#aG"/><use transform="matrix(0.013333333333333329,0,0,0.013333333333333329,46.78666666666665,0)" xlink:href="#aH"/><use transform="matrix(0.013333333333333329,0,0,0.013333333333333329,53.67999999999998,0)" xlink:href="#aI"/><use transform="matrix(0.013333333333333329,0,0,0.013333333333333329,61.17333333333331,0)" xlink:href="#ax"/><use transform="matrix(0.013333333333333329,0,0,0.013333333333333329,63.986666666666636,0)" xlink:href="#aJ"/><use transform="matrix(0.013333333333333329,0,0,0.013333333333333329,71.4933333333333,0)" xlink:href="#aG"/><use transform="matrix(0.013333333333333329,0,0,0.013333333333333329,77.6933333333333,0)" xlink:href="#aG"/><use transform="matrix(0.013333333333333329,0,0,0.013333333333333329,83.8933333333333,0)" xlink:href="#aw"/><use transform="matrix(0.013333333333333329,0,0,0.013333333333333329,91.30666666666663,0)" xlink:href="#ax"/></g></defs></g></svg>