<svg xmlns="http://www.w3.org/2000/svg" xmlns:xlink="http://www.w3.org/1999/xlink" xmlns:lucid="lucid" width="1042" height="462"><g transform="translate(-59 -199)" lucid:page-tab-id="Um73PFw5dUmh"><g filter="url(#a)"><path d="M530 226c0-3.3 2.7-6 6-6h88c3.3 0 6 2.7 6 6v48c0 3.3-2.7 6-6 6h-88c-3.3 0-6-2.7-6-6z" stroke="#5e5e5e" stroke-width="2" fill="#fff"/><use xlink:href="#b" transform="matrix(1,0,0,1,535,225) translate(30.580000000000005 31.18055555555555)"/></g><g filter="url(#c)"><path d="M80 386c0-3.3 2.7-6 6-6h328c3.3 0 6 2.7 6 6v248c0 3.3-2.7 6-6 6H86c-3.3 0-6-2.7-6-6z" stroke="#5e5e5e" stroke-width="2" fill="url(#d)"/><use xlink:href="#e" transform="matrix(1,0,0,1,85,385) translate(50.8377777777778 242.36835555555552)"/><use xlink:href="#f" transform="matrix(1,0,0,1,85,385) translate(89.7888888888889 242.36835555555552)"/><use xlink:href="#g" transform="matrix(1,0,0,1,85,385) translate(160.76888888888888 242.36835555555552)"/><use xlink:href="#h" transform="matrix(1,0,0,1,85,385) translate(236.8511111111111 242.36835555555552)"/><use xlink:href="#i" transform="matrix(1,0,0,1,85,385) translate(164.46333333333334 248.47946666666664)"/></g><g filter="url(#j)"><path d="M460 386c0-3.3 2.7-6 6-6h228c3.3 0 6 2.7 6 6v248c0 3.3-2.7 6-6 6H466c-3.3 0-6-2.7-6-6z" stroke="#5e5e5e" stroke-width="2" fill="url(#k)"/><use xlink:href="#e" transform="matrix(1,0,0,1,465,385) translate(8.965555555555582 242.36835555555552)"/><use xlink:href="#l" transform="matrix(1,0,0,1,465,385) translate(47.916666666666686 242.36835555555552)"/><use xlink:href="#g" transform="matrix(1,0,0,1,465,385) translate(103.54333333333334 242.36835555555552)"/><use xlink:href="#m" transform="matrix(1,0,0,1,465,385) translate(179.62555555555554 242.36835555555552)"/><use xlink:href="#n" transform="matrix(1,0,0,1,465,385) translate(113.92666666666666 248.47946666666664)"/></g><g filter="url(#c)"><path d="M740 386c0-3.3 2.7-6 6-6h328c3.3 0 6 2.7 6 6v248c0 3.3-2.7 6-6 6H746c-3.3 0-6-2.7-6-6z" stroke="#5e5e5e" stroke-width="2" fill="url(#o)"/><use xlink:href="#e" transform="matrix(1,0,0,1,745,385) translate(38.99222222222224 242.36835555555552)"/><use xlink:href="#p" transform="matrix(1,0,0,1,745,385) translate(77.94333333333334 242.36835555555552)"/><use xlink:href="#g" transform="matrix(1,0,0,1,745,385) translate(173.51666666666668 242.36835555555552)"/><use xlink:href="#m" transform="matrix(1,0,0,1,745,385) translate(249.5988888888889 242.36835555555552)"/><use xlink:href="#q" transform="matrix(1,0,0,1,745,385) translate(164.46333333333334 248.47946666666664)"/></g><g filter="url(#r)"><path d="M190 406c0-3.3 2.7-6 6-6h108c3.3 0 6 2.7 6 6v48c0 3.3-2.7 6-6 6H196c-3.3 0-6-2.7-6-6z" stroke="#5e5e5e" stroke-width="2" fill="#fff"/><use xlink:href="#s" transform="matrix(1,0,0,1,195,405) translate(1.1622222222222263 31.18055555555555)"/></g><g filter="url(#r)"><path d="M520 406c0-3.3 2.7-6 6-6h108c3.3 0 6 2.7 6 6v48c0 3.3-2.7 6-6 6H526c-3.3 0-6-2.7-6-6z" stroke="#5e5e5e" stroke-width="2" fill="#fff"/><use xlink:href="#t" transform="matrix(1,0,0,1,525,405) translate(3.153333333333343 31.18055555555555)"/></g><g filter="url(#u)"><path d="M830 406c0-3.3 2.7-6 6-6h148c3.3 0 6 2.7 6 6v48c0 3.3-2.7 6-6 6H836c-3.3 0-6-2.7-6-6z" stroke="#5e5e5e" stroke-width="2" fill="#fff"/><use xlink:href="#v" transform="matrix(1,0,0,1,835,405) translate(7.240000000000009 31.18055555555555)"/></g><g filter="url(#w)"><path d="M100 512.1c0-3.3 2.7-6 6-6h118c3.3 0 6 2.7 6 6v48c0 3.32-2.7 6-6 6H106c-3.3 0-6-2.68-6-6z" stroke="#5e5e5e" stroke-width="2" fill="#fff"/><use xlink:href="#x" transform="matrix(1,0,0,1,105,511.1111111111111) translate(5.298888888888904 21.80555555555555)"/><use xlink:href="#y" transform="matrix(1,0,0,1,105,511.1111111111111) translate(88.53666666666666 21.80555555555555)"/><use xlink:href="#z" transform="matrix(1,0,0,1,105,511.1111111111111) translate(12.104444444444454 41.24999999999999)"/></g><g filter="url(#A)"><path d="M260 512.1c0-3.3 2.7-6 6-6h128c3.3 0 6 2.7 6 6v75.8c0 3.3-2.7 6-6 6H266c-3.3 0-6-2.7-6-6z" stroke="#5e5e5e" stroke-width="2" fill="#fff"/><use xlink:href="#B" transform="matrix(1,0,0,1,265,511.1111111111111) translate(16.070000000000007 15.555555555555552)"/><use xlink:href="#C" transform="matrix(1,0,0,1,265,511.1111111111111) translate(90.23888888888888 15.555555555555552)"/><use xlink:href="#D" transform="matrix(1,0,0,1,265,511.1111111111111) translate(16.4588888888889 34.99999999999999)"/><use xlink:href="#E" transform="matrix(1,0,0,1,265,511.1111111111111) translate(20.083333333333336 54.44444444444443)"/><use xlink:href="#F" transform="matrix(1,0,0,1,265,511.1111111111111) translate(35.44444444444445 73.88888888888887)"/></g><g filter="url(#G)"><path d="M510 519.9c0-3.32 2.7-6 6-6h128c3.3 0 6 2.68 6 6v48c0 3.3-2.7 6-6 6H516c-3.3 0-6-2.7-6-6z" stroke="#5e5e5e" stroke-width="2" fill="#fff"/><use xlink:href="#H" transform="matrix(1,0,0,1,515,518.8888888888888) translate(19.375555555555565 21.80555555555555)"/><use xlink:href="#y" transform="matrix(1,0,0,1,515,518.8888888888888) translate(84.46 21.80555555555555)"/><use xlink:href="#I" transform="matrix(1,0,0,1,515,518.8888888888888) translate(11.04555555555556 41.24999999999999)"/></g><g filter="url(#G)"><path d="M760 519.9c0-3.32 2.7-6 6-6h128c3.3 0 6 2.68 6 6v48c0 3.3-2.7 6-6 6H766c-3.3 0-6-2.7-6-6z" stroke="#5e5e5e" stroke-width="2" fill="#fff"/><use xlink:href="#B" transform="matrix(1,0,0,1,765,518.8888888888888) translate(14.833333333333343 21.111111111111114)"/><use xlink:href="#y" transform="matrix(1,0,0,1,765,518.8888888888888) translate(89.00222222222222 21.111111111111114)"/><use xlink:href="#J" transform="matrix(1,0,0,1,765,518.8888888888888) translate(-2.223333333333329 40.55555555555555)"/></g><g filter="url(#K)"><path d="M920 519.9c0-3.32 2.7-6 6-6h128c3.3 0 6 2.68 6 6v56.32c0 3.32-2.7 6-6 6H926c-3.3 0-6-2.68-6-6z" stroke="#5e5e5e" stroke-width="2" fill="#fff"/><use xlink:href="#L" transform="matrix(1,0,0,1,925,518.8888888888888) translate(21.810000000000002 15.888888888888895)"/><use xlink:href="#y" transform="matrix(1,0,0,1,925,518.8888888888888) translate(82.02555555555556 15.888888888888895)"/><use xlink:href="#M" transform="matrix(1,0,0,1,925,518.8888888888888) translate(-2.223333333333329 35.333333333333336)"/><use xlink:href="#N" transform="matrix(1,0,0,1,925,518.8888888888888) translate(27.946666666666673 54.77777777777777)"/><use xlink:href="#O" transform="matrix(1,0,0,1,925,518.8888888888888) translate(40.03333333333334 54.77777777777777)"/></g><path d="M580 462v49.9" stroke="#5e5e5e" stroke-width="2" fill="none"/><path d="M581 462.03h-2V461h2zM581 512.9h-2v-1.04h2z" stroke="#5e5e5e" stroke-width=".05" fill="#5e5e5e"/><path d="M580 282v42c0 3.3-2.7 6-6 6H256c-3.3 0-6 2.7-6 6v42" stroke="#5e5e5e" stroke-width="2" fill="none"/><path d="M581 282.03h-2V281h2zM251 379h-2v-1.03h2z" stroke="#5e5e5e" stroke-width=".05" fill="#5e5e5e"/><path d="M580 282v42c0 3.3 2.7 6 6 6h318c3.3 0 6 2.7 6 6v42" stroke="#5e5e5e" stroke-width="2" fill="none"/><path d="M581 282.03h-2V281h2zM911 379h-2v-1.03h2z" stroke="#5e5e5e" stroke-width=".05" fill="#5e5e5e"/><path d="M250 462v15.06c0 3.3-2.7 6-6 6h-73c-3.3 0-6 2.68-6 6v15.05" stroke="#5e5e5e" stroke-width="2" fill="none"/><path d="M251 462.03h-2V461h2zM166 505.1h-2v-1h2z" stroke="#5e5e5e" stroke-width=".05" fill="#5e5e5e"/><path d="M250 462v15.06c0 3.3 2.7 6 6 6h68c3.3 0 6 2.68 6 6v15.05" stroke="#5e5e5e" stroke-width="2" fill="none"/><path d="M251 462.03h-2V461h2zM331 505.1h-2v-1h2z" stroke="#5e5e5e" stroke-width=".05" fill="#5e5e5e"/><path d="M910 462v18.94c0 3.32-2.7 6-6 6h-68c-3.3 0-6 2.7-6 6v18.95" stroke="#5e5e5e" stroke-width="2" fill="none"/><path d="M911 462.03h-2V461h2zM831 512.9h-2v-1.04h2z" stroke="#5e5e5e" stroke-width=".05" fill="#5e5e5e"/><path d="M910 462v18.94c0 3.32 2.7 6 6 6h68c3.3 0 6 2.7 6 6v18.95" stroke="#5e5e5e" stroke-width="2" fill="none"/><path d="M911 462.03h-2V461h2zM991 512.9h-2v-1.04h2z" stroke="#5e5e5e" stroke-width=".05" fill="#5e5e5e"/><path d="M580 282v96" stroke="#5e5e5e" stroke-width="2" fill="none"/><path d="M581 282.03h-2V281h2zM581 379h-2v-1.03h2z" stroke="#5e5e5e" stroke-width=".05" fill="#5e5e5e"/><defs><path fill="#333" d="M414-634c-98-68-313-40-303 98 11 163 220 149 321 227 56 43 93 158 40 231-36 52-101 88-189 88-121 0-182-45-246-110-10-22 21-46 37-24 46 54 115 92 205 94 97-2 177-42 177-135 0-142-159-150-260-199-68-33-131-72-128-171 4-117 96-175 220-175 91 0 178 35 206 103 0 14-25 30-37 15-12-16-26-30-43-42" id="P"/><path fill="#333" d="M320 40c149 13 292 164 440 36 10-15 37-15 37 6-21 58-102 77-176 83-145 6-186-86-320-89-33-2-51 19-77 22-20 1-29-31-9-38L376 4l92-4-147 48zm374-536c33 85 33 207 0 292C646-81 549 10 384 10 169 10 50-133 50-350c0-218 120-360 334-360 164 0 262 91 310 214zM384-30c187 0 292-130 292-320S571-670 384-670C198-670 92-540 92-350S198-30 384-30" id="Q"/><path fill="#333" d="M100-680c-1-26 42-26 42 0v658l-18-18h363c25-1 26 40 0 40H120c-11 1-20-9-20-20v-660" id="R"/><g id="b"><use transform="matrix(0.015555555555555552,0,0,0.015555555555555552,0,0)" xlink:href="#P"/><use transform="matrix(0.015555555555555552,0,0,0.015555555555555552,8.555555555555554,0)" xlink:href="#Q"/><use transform="matrix(0.015555555555555552,0,0,0.015555555555555552,20.719999999999995,0)" xlink:href="#R"/></g><filter id="a" filterUnits="objectBoundingBox" x="-.1" y="-.07" width="1.2" height="1.33"><feOffset result="offOut" in="SourceAlpha" dy="6"/><feGaussianBlur result="blurOut" in="offOut" stdDeviation="5"/><feColorMatrix result="colorOut" in="blurOut" values="0 0 0 0 0 0 0 0 0 0 0 0 0 0 0 0 0 0 0.5019607843137255 0"/><feBlend in="SourceGraphic" in2="colorOut"/></filter><linearGradient gradientUnits="userSpaceOnUse" id="d" x1="80" y1="380" x2="80" y2="640"><stop offset="0%" stop-color="#cde1e1"/><stop offset="55.67%" stop-color="#a0c2c2"/><stop offset="100%" stop-color="#76a7a7"/></linearGradient><path fill="#333" d="M100-680c0-10 10-20 20-20h260c203 6 290 149 290 350S584 0 380 0H120c-10 0-20-10-20-20v-660zm528 330c0-180-76-310-258-310H136l6-8v637l-6-9h234c184-1 258-130 258-310" id="S"/><path fill="#333" d="M476-479c-2-26 40-26 40 0v459c1 25-40 26-40 0v-142l16-13C479-64 402 10 284 10 136 10 52-104 52-255s85-260 232-260c126 0 201 80 208 206l-16-25v-145zM92-255c0 129 69 227 194 227s194-98 194-227c0-126-71-222-194-222-124 0-194 94-194 222" id="T"/><path fill="#333" d="M37-465c-24 0-25-38 0-38h232c24-1 25 38 0 38H37zm122 356c-5 58 30 83 79 69 34 8 8 46-23 40-68 3-96-35-96-107v-523c-1-25 40-26 40 0v521" id="U"/><g id="e"><use transform="matrix(0.015555555555555552,0,0,0.015555555555555552,0,0)" xlink:href="#S"/><use transform="matrix(0.015555555555555552,0,0,0.015555555555555552,11.199999999999998,0)" xlink:href="#T"/><use transform="matrix(0.015555555555555552,0,0,0.015555555555555552,20.517777777777773,0)" xlink:href="#U"/><use transform="matrix(0.015555555555555552,0,0,0.015555555555555552,25.433333333333326,0)" xlink:href="#T"/></g><path fill="#333" d="M465-111c14-22 46 1 30 21C457-42 391 11 308 10 149 5 52-90 52-250c0-154 84-265 226-265 141 0 218 87 226 228 0 10-10 22-20 21H76l-6-38h403l-10 9c-2-114-78-180-185-180-119 0-185 92-187 222C88-98 211 4 372-40c38-14 72-41 93-71" id="V"/><path fill="#333" d="M127-615c-3-76 45-118 112-120 27 2 67 2 70 28-6 39-46 7-74 8-48 2-68 33-68 84v595c1 25-40 26-40 0v-595zM47-455c-23 1-25-38 0-38h238c25-2 25 38 0 38H47" id="W"/><path fill="#333" d="M83-495c-1-25 40-26 40 0v475c1 25-40 26-40 0v-475zm54-128c11 49-70 54-69 8-10-48 70-54 69-8" id="X"/><path fill="#333" d="M83-479c-1-25 40-26 40 0v98l-25 48c13-111 98-177 212-182 120-5 179 73 179 189v306c1 25-40 26-40 0v-302c-2-94-46-155-143-155-96 0-183 60-183 155v302c1 25-40 26-40 0v-459" id="Y"/><path fill="#333" d="M299-515c153 0 246 109 246 263 0 153-94 262-246 262C148 10 52-99 52-252c0-154 95-263 247-263zm0 487c129 0 206-93 206-224 0-132-77-225-206-225S92-384 92-252c0 131 79 224 207 224" id="Z"/><g id="f"><use transform="matrix(0.015555555555555552,0,0,0.015555555555555552,0,0)" xlink:href="#S"/><use transform="matrix(0.015555555555555552,0,0,0.015555555555555552,11.324444444444442,0)" xlink:href="#V"/><use transform="matrix(0.015555555555555552,0,0,0.015555555555555552,19.97333333333333,0)" xlink:href="#W"/><use transform="matrix(0.015555555555555552,0,0,0.015555555555555552,25.168888888888883,0)" xlink:href="#X"/><use transform="matrix(0.015555555555555552,0,0,0.015555555555555552,28.373333333333328,0)" xlink:href="#Y"/><use transform="matrix(0.015555555555555552,0,0,0.015555555555555552,37.271111111111104,0)" xlink:href="#X"/><use transform="matrix(0.015555555555555552,0,0,0.015555555555555552,40.475555555555545,0)" xlink:href="#U"/><use transform="matrix(0.015555555555555552,0,0,0.015555555555555552,45.3911111111111,0)" xlink:href="#X"/><use transform="matrix(0.015555555555555552,0,0,0.015555555555555552,48.59555555555554,0)" xlink:href="#Z"/><use transform="matrix(0.015555555555555552,0,0,0.015555555555555552,57.882222222222204,0)" xlink:href="#Y"/></g><path fill="#333" d="M52-253c0-153 92-262 242-262 96 0 161 53 198 114 11 20 17 40 17 59-19-31-12-88-13-137-2-26 40-26 40 0v430c1 182-139 281-326 239-39-11-88-26-95-61 0-21 26-24 35-7 28 27 84 39 142 40 125 3 205-88 204-211v-99l10 1C478-52 408 10 294 10 144 10 52-100 52-253zm448 0c0-132-75-224-204-224-128 0-204 93-204 224 0 130 76 225 204 225s204-93 204-225" id="aa"/><path fill="#333" d="M440-479c-2-26 40-26 40 0v291C482-62 402 6 281 6 161 6 83-62 83-188v-291c-1-25 40-26 40 0v291C122-88 183-32 281-32s159-56 159-156v-291" id="ab"/><g id="g"><use transform="matrix(0.015555555555555552,0,0,0.015555555555555552,0,0)" xlink:href="#R"/><use transform="matrix(0.015555555555555552,0,0,0.015555555555555552,8.119999999999997,0)" xlink:href="#T"/><use transform="matrix(0.015555555555555552,0,0,0.015555555555555552,17.437777777777775,0)" xlink:href="#Y"/><use transform="matrix(0.015555555555555552,0,0,0.015555555555555552,26.33555555555555,0)" xlink:href="#aa"/><use transform="matrix(0.015555555555555552,0,0,0.015555555555555552,35.83999999999999,0)" xlink:href="#ab"/><use transform="matrix(0.015555555555555552,0,0,0.015555555555555552,44.597777777777765,0)" xlink:href="#T"/><use transform="matrix(0.015555555555555552,0,0,0.015555555555555552,53.91555555555554,0)" xlink:href="#aa"/><use transform="matrix(0.015555555555555552,0,0,0.015555555555555552,63.23333333333332,0)" xlink:href="#V"/></g><path fill="#333" d="M321-705c21-15 40 22 18 33C166-586 46-342 128-92c37 110 111 204 211 252 14 5 11 38-8 35C164 126 60-33 60-256c0-222 114-363 261-449" id="ac"/><path fill="#333" d="M48-709c167 69 271 227 271 451 0 221-113 365-261 449-21 14-41-22-18-33 173-86 294-330 212-580-37-109-112-204-212-252-14-6-12-38 8-35" id="ad"/><g id="h"><use transform="matrix(0.015555555555555552,0,0,0.015555555555555552,0,0)" xlink:href="#ac"/><use transform="matrix(0.015555555555555552,0,0,0.015555555555555552,5.895555555555554,0)" xlink:href="#S"/><use transform="matrix(0.015555555555555552,0,0,0.015555555555555552,17.095555555555553,0)" xlink:href="#S"/><use transform="matrix(0.015555555555555552,0,0,0.015555555555555552,28.295555555555552,0)" xlink:href="#R"/><use transform="matrix(0.015555555555555552,0,0,0.015555555555555552,36.41555555555555,0)" xlink:href="#ad"/></g><path fill-opacity="0" d="M44-477c-17-20 16-46 33-24L438-28c16 20-15 45-32 23zM77-4C63 17 29-6 46-27l175-227 24 31zm329-497c14-21 48-2 31 21L262-246l-21-35" id="ae"/><use transform="matrix(0.0022222222222222222,0,0,0.0022222222222222222,0,0)" xlink:href="#ae" id="i"/><filter id="c" filterUnits="objectBoundingBox" x="-.03" y="-.02" width="1.06" height="1.08"><feOffset result="offOut" in="SourceAlpha" dy="6"/><feGaussianBlur result="blurOut" in="offOut" stdDeviation="5"/><feColorMatrix result="colorOut" in="blurOut" values="0 0 0 0 0 0 0 0 0 0 0 0 0 0 0 0 0 0 0.5019607843137255 0"/><feBlend in="SourceGraphic" in2="colorOut"/></filter><linearGradient gradientUnits="userSpaceOnUse" id="k" x1="460" y1="380" x2="460" y2="640"><stop offset="0%" stop-color="#cde1e1"/><stop offset="55.67%" stop-color="#a0c2c2"/><stop offset="100%" stop-color="#76a7a7"/></linearGradient><path fill="#333" d="M264-683c114-53 275-21 354 41 22 13-1 49-22 33-71-56-212-86-316-39C171-599 92-503 92-350s80 250 188 298C385-4 527-37 595-90c21-17 45 17 24 32-79 58-241 96-355 41C143-72 50-179 50-350s93-278 214-333" id="af"/><path fill="#333" d="M123-20c0 25-40 26-40 0v-459c-1-25 40-26 40 0v169l-17 26c10-127 72-223 203-231 17 1 48 3 46 23-3 35-32 13-57 12-84 7-134 73-160 138-34 85-15 213-15 322" id="ag"/><path fill="#333" d="M88-720c-1-25 40-26 40 0v700c1 25-40 26-40 0v-700" id="ah"/><g id="l"><use transform="matrix(0.015555555555555552,0,0,0.015555555555555552,0,0)" xlink:href="#af"/><use transform="matrix(0.015555555555555552,0,0,0.015555555555555552,10.297777777777775,0)" xlink:href="#Z"/><use transform="matrix(0.015555555555555552,0,0,0.015555555555555552,19.584444444444436,0)" xlink:href="#Y"/><use transform="matrix(0.015555555555555552,0,0,0.015555555555555552,28.482222222222212,0)" xlink:href="#U"/><use transform="matrix(0.015555555555555552,0,0,0.015555555555555552,33.39777777777777,0)" xlink:href="#ag"/><use transform="matrix(0.015555555555555552,0,0,0.015555555555555552,38.779999999999994,0)" xlink:href="#Z"/><use transform="matrix(0.015555555555555552,0,0,0.015555555555555552,48.066666666666656,0)" xlink:href="#ah"/></g><g id="m"><use transform="matrix(0.015555555555555552,0,0,0.015555555555555552,0,0)" xlink:href="#ac"/><use transform="matrix(0.015555555555555552,0,0,0.015555555555555552,5.895555555555554,0)" xlink:href="#S"/><use transform="matrix(0.015555555555555552,0,0,0.015555555555555552,17.095555555555553,0)" xlink:href="#af"/><use transform="matrix(0.015555555555555552,0,0,0.015555555555555552,27.393333333333327,0)" xlink:href="#R"/><use transform="matrix(0.015555555555555552,0,0,0.015555555555555552,35.51333333333332,0)" xlink:href="#ad"/></g><g id="n"><use transform="matrix(0.0022222222222222222,0,0,0.0022222222222222222,0,0)" xlink:href="#ae"/><use transform="matrix(0.0022222222222222222,0,0,0.0022222222222222222,1.0733333333333333,0)" xlink:href="#ae"/></g><filter id="j" filterUnits="objectBoundingBox" x="-.04" y="-.02" width="1.08" height="1.08"><feOffset result="offOut" in="SourceAlpha" dy="6"/><feGaussianBlur result="blurOut" in="offOut" stdDeviation="5"/><feColorMatrix result="colorOut" in="blurOut" values="0 0 0 0 0 0 0 0 0 0 0 0 0 0 0 0 0 0 0.5019607843137255 0"/><feBlend in="SourceGraphic" in2="colorOut"/></filter><linearGradient gradientUnits="userSpaceOnUse" id="o" x1="740" y1="380" x2="740" y2="640"><stop offset="0%" stop-color="#cde1e1"/><stop offset="55.67%" stop-color="#a0c2c2"/><stop offset="100%" stop-color="#76a7a7"/></linearGradient><path fill="#333" d="M100-680c-2-20 27-27 38-11l287 427h-20l287-427c11-18 37-7 37 11v660c1 25-43 26-42 0v-615h11c-92 137-181 277-274 413-8 5-23 1-25-6L124-643h16v623c1 25-40 26-40 0v-660" id="ai"/><path fill="#333" d="M110-364c32-84 94-141 205-141 146 0 232 106 232 255C547-83 426 39 252-4c-69-17-112-68-142-129l13-14v327c2 26-40 25-40 0v-665c-2-26 40-26 40 0v128zm397 114c0-126-71-217-194-217-124 0-194 90-194 217 0 126 70 218 194 218 123 0 194-92 194-218" id="aj"/><g id="p"><use transform="matrix(0.015555555555555552,0,0,0.015555555555555552,0,0)" xlink:href="#ai"/><use transform="matrix(0.015555555555555552,0,0,0.015555555555555552,12.895555555555552,0)" xlink:href="#T"/><use transform="matrix(0.015555555555555552,0,0,0.015555555555555552,22.213333333333328,0)" xlink:href="#Y"/><use transform="matrix(0.015555555555555552,0,0,0.015555555555555552,31.111111111111104,0)" xlink:href="#X"/><use transform="matrix(0.015555555555555552,0,0,0.015555555555555552,34.31555555555555,0)" xlink:href="#aj"/><use transform="matrix(0.015555555555555552,0,0,0.015555555555555552,43.633333333333326,0)" xlink:href="#ab"/><use transform="matrix(0.015555555555555552,0,0,0.015555555555555552,52.3911111111111,0)" xlink:href="#ah"/><use transform="matrix(0.015555555555555552,0,0,0.015555555555555552,55.7511111111111,0)" xlink:href="#T"/><use transform="matrix(0.015555555555555552,0,0,0.015555555555555552,65.06888888888888,0)" xlink:href="#U"/><use transform="matrix(0.015555555555555552,0,0,0.015555555555555552,69.98444444444443,0)" xlink:href="#X"/><use transform="matrix(0.015555555555555552,0,0,0.015555555555555552,73.18888888888888,0)" xlink:href="#Z"/><use transform="matrix(0.015555555555555552,0,0,0.015555555555555552,82.47555555555554,0)" xlink:href="#Y"/></g><use transform="matrix(0.0022222222222222222,0,0,0.0022222222222222222,0,0)" xlink:href="#ae" id="q"/><path fill="#333" d="M476-720c-2-26 40-26 40 0v700c1 25-40 26-40 0v-142l16-22C480-69 404 10 284 10 137 10 52-103 52-253s85-262 232-262c124 0 200 82 208 206l-16-25v-386zM92-253c0 127 70 225 194 225 126 0 194-96 194-225s-69-224-194-224c-124 0-194 96-194 224" id="ak"/><g id="s"><use transform="matrix(0.015555555555555552,0,0,0.015555555555555552,0,0)" xlink:href="#S"/><use transform="matrix(0.015555555555555552,0,0,0.015555555555555552,11.199999999999998,0)" xlink:href="#T"/><use transform="matrix(0.015555555555555552,0,0,0.015555555555555552,20.517777777777773,0)" xlink:href="#U"/><use transform="matrix(0.015555555555555552,0,0,0.015555555555555552,25.355555555555547,0)" xlink:href="#V"/><use transform="matrix(0.015555555555555552,0,0,0.015555555555555552,34.00444444444443,0)" xlink:href="#Y"/><use transform="matrix(0.015555555555555552,0,0,0.015555555555555552,42.90222222222221,0)" xlink:href="#ak"/><use transform="matrix(0.015555555555555552,0,0,0.015555555555555552,52.219999999999985,0)" xlink:href="#V"/><use transform="matrix(0.015555555555555552,0,0,0.015555555555555552,60.868888888888875,0)" xlink:href="#W"/><use transform="matrix(0.015555555555555552,0,0,0.015555555555555552,66.06444444444443,0)" xlink:href="#X"/><use transform="matrix(0.015555555555555552,0,0,0.015555555555555552,69.26888888888888,0)" xlink:href="#Y"/><use transform="matrix(0.015555555555555552,0,0,0.015555555555555552,78.16666666666666,0)" xlink:href="#X"/><use transform="matrix(0.015555555555555552,0,0,0.015555555555555552,81.3711111111111,0)" xlink:href="#U"/><use transform="matrix(0.015555555555555552,0,0,0.015555555555555552,86.28666666666666,0)" xlink:href="#X"/><use transform="matrix(0.015555555555555552,0,0,0.015555555555555552,89.49111111111111,0)" xlink:href="#Z"/><use transform="matrix(0.015555555555555552,0,0,0.015555555555555552,98.77777777777777,0)" xlink:href="#Y"/></g><filter id="r" filterUnits="objectBoundingBox" x="-.08" y="-.07" width="1.17" height="1.33"><feOffset result="offOut" in="SourceAlpha" dy="6"/><feGaussianBlur result="blurOut" in="offOut" stdDeviation="5"/><feColorMatrix result="colorOut" in="blurOut" values="0 0 0 0 0 0 0 0 0 0 0 0 0 0 0 0 0 0 0.5019607843137255 0"/><feBlend in="SourceGraphic" in2="colorOut"/></filter><path fill="#333" d="M128-20c2 26-40 26-40 0v-700c-2-26 40-26 40 0v700zm314-479c18-20 47 13 26 30L121-180l-2-48zm33 464c19 18-10 48-29 28L204-265l30-26" id="al"/><g id="t"><use transform="matrix(0.015555555555555552,0,0,0.015555555555555552,0,0)" xlink:href="#S"/><use transform="matrix(0.015555555555555552,0,0,0.015555555555555552,11.199999999999998,0)" xlink:href="#T"/><use transform="matrix(0.015555555555555552,0,0,0.015555555555555552,20.517777777777773,0)" xlink:href="#U"/><use transform="matrix(0.015555555555555552,0,0,0.015555555555555552,25.355555555555547,0)" xlink:href="#V"/><use transform="matrix(0.015555555555555552,0,0,0.015555555555555552,34.00444444444443,0)" xlink:href="#Y"/><use transform="matrix(0.015555555555555552,0,0,0.015555555555555552,42.90222222222221,0)" xlink:href="#al"/><use transform="matrix(0.015555555555555552,0,0,0.015555555555555552,50.711111111111094,0)" xlink:href="#Z"/><use transform="matrix(0.015555555555555552,0,0,0.015555555555555552,59.997777777777756,0)" xlink:href="#Y"/><use transform="matrix(0.015555555555555552,0,0,0.015555555555555552,68.89555555555553,0)" xlink:href="#U"/><use transform="matrix(0.015555555555555552,0,0,0.015555555555555552,73.81111111111109,0)" xlink:href="#ag"/><use transform="matrix(0.015555555555555552,0,0,0.015555555555555552,79.19333333333331,0)" xlink:href="#Z"/><use transform="matrix(0.015555555555555552,0,0,0.015555555555555552,88.47999999999998,0)" xlink:href="#ah"/><use transform="matrix(0.015555555555555552,0,0,0.015555555555555552,91.83999999999997,0)" xlink:href="#ah"/><use transform="matrix(0.015555555555555552,0,0,0.015555555555555552,95.04444444444442,0)" xlink:href="#V"/></g><path fill="#333" d="M83-479c-1-25 40-26 40 0v109l-30 51c7-141 174-233 305-155 31 20 53 52 64 95l-13 9c21-82 106-135 202-135 118 0 175 77 175 194v291c2 26-40 26-40 0v-287c-2-94-42-160-139-160-96 0-178 64-178 160v287c2 26-40 26-40 0v-292c-2-91-39-155-133-155-92 0-173 62-173 155v292c1 25-40 26-40 0v-459" id="am"/><g id="v"><use transform="matrix(0.015555555555555552,0,0,0.015555555555555552,0,0)" xlink:href="#S"/><use transform="matrix(0.015555555555555552,0,0,0.015555555555555552,11.199999999999998,0)" xlink:href="#T"/><use transform="matrix(0.015555555555555552,0,0,0.015555555555555552,20.517777777777773,0)" xlink:href="#U"/><use transform="matrix(0.015555555555555552,0,0,0.015555555555555552,25.355555555555547,0)" xlink:href="#V"/><use transform="matrix(0.015555555555555552,0,0,0.015555555555555552,34.00444444444443,0)" xlink:href="#Y"/><use transform="matrix(0.015555555555555552,0,0,0.015555555555555552,42.90222222222221,0)" xlink:href="#am"/><use transform="matrix(0.015555555555555552,0,0,0.015555555555555552,57.04222222222221,0)" xlink:href="#T"/><use transform="matrix(0.015555555555555552,0,0,0.015555555555555552,66.35999999999999,0)" xlink:href="#Y"/><use transform="matrix(0.015555555555555552,0,0,0.015555555555555552,75.25777777777776,0)" xlink:href="#X"/><use transform="matrix(0.015555555555555552,0,0,0.015555555555555552,78.46222222222221,0)" xlink:href="#aj"/><use transform="matrix(0.015555555555555552,0,0,0.015555555555555552,87.77999999999999,0)" xlink:href="#ab"/><use transform="matrix(0.015555555555555552,0,0,0.015555555555555552,96.53777777777776,0)" xlink:href="#ah"/><use transform="matrix(0.015555555555555552,0,0,0.015555555555555552,99.89777777777776,0)" xlink:href="#T"/><use transform="matrix(0.015555555555555552,0,0,0.015555555555555552,109.21555555555554,0)" xlink:href="#U"/><use transform="matrix(0.015555555555555552,0,0,0.015555555555555552,114.1311111111111,0)" xlink:href="#X"/><use transform="matrix(0.015555555555555552,0,0,0.015555555555555552,117.33555555555554,0)" xlink:href="#Z"/><use transform="matrix(0.015555555555555552,0,0,0.015555555555555552,126.6222222222222,0)" xlink:href="#Y"/></g><filter id="u" filterUnits="objectBoundingBox" x="-.06" y="-.07" width="1.13" height="1.33"><feOffset result="offOut" in="SourceAlpha" dy="6"/><feGaussianBlur result="blurOut" in="offOut" stdDeviation="5"/><feColorMatrix result="colorOut" in="blurOut" values="0 0 0 0 0 0 0 0 0 0 0 0 0 0 0 0 0 0 0.5019607843137255 0"/><feBlend in="SourceGraphic" in2="colorOut"/></filter><path fill="#333" d="M587-681c-1-24 38-26 38 0v659c2 21-26 29-37 14L124-642l14-7v632c1 22-38 23-38 0v-663c-2-19 23-26 33-13L595-63l-8 20v-638" id="an"/><path fill="#333" d="M110-364c34-85 94-151 205-151 147 0 232 109 232 260S462 10 315 10c-109 0-166-67-205-143l13-14v127c2 26-40 25-40 0v-699c-2-26 40-26 40 0v362zm397 109c0-128-70-222-194-222-125 0-194 94-194 222 0 129 68 227 194 227 124 0 194-100 194-227" id="ao"/><g id="x"><use transform="matrix(0.015555555555555552,0,0,0.015555555555555552,0,0)" xlink:href="#an"/><use transform="matrix(0.015555555555555552,0,0,0.015555555555555552,11.277777777777775,0)" xlink:href="#V"/><use transform="matrix(0.015555555555555552,0,0,0.015555555555555552,19.926666666666662,0)" xlink:href="#ab"/><use transform="matrix(0.015555555555555552,0,0,0.015555555555555552,28.684444444444438,0)" xlink:href="#T"/><use transform="matrix(0.015555555555555552,0,0,0.015555555555555552,37.84666666666666,0)" xlink:href="#ab"/><use transform="matrix(0.015555555555555552,0,0,0.015555555555555552,46.60444444444443,0)" xlink:href="#W"/><use transform="matrix(0.015555555555555552,0,0,0.015555555555555552,51.79999999999998,0)" xlink:href="#ao"/><use transform="matrix(0.015555555555555552,0,0,0.015555555555555552,61.11777777777776,0)" xlink:href="#T"/><use transform="matrix(0.015555555555555552,0,0,0.015555555555555552,70.27999999999997,0)" xlink:href="#ab"/></g><path fill="#333" d="M40-488c-13-25 26-42 37-16L262-61l-10 7 188-450c7-25 49-13 37 15L278-13c-4 18-32 15-38 0" id="ap"/><g id="y"><use transform="matrix(0.015555555555555552,0,0,0.015555555555555552,0,0)" xlink:href="#ap"/><use transform="matrix(0.015555555555555552,0,0,0.015555555555555552,7.979999999999998,0)" xlink:href="#Z"/><use transform="matrix(0.015555555555555552,0,0,0.015555555555555552,17.266666666666662,0)" xlink:href="#Y"/></g><g id="z"><use transform="matrix(0.015555555555555552,0,0,0.015555555555555552,0,0)" xlink:href="#S"/><use transform="matrix(0.015555555555555552,0,0,0.015555555555555552,11.199999999999998,0)" xlink:href="#T"/><use transform="matrix(0.015555555555555552,0,0,0.015555555555555552,20.517777777777773,0)" xlink:href="#U"/><use transform="matrix(0.015555555555555552,0,0,0.015555555555555552,25.355555555555547,0)" xlink:href="#V"/><use transform="matrix(0.015555555555555552,0,0,0.015555555555555552,34.00444444444443,0)" xlink:href="#Y"/><use transform="matrix(0.015555555555555552,0,0,0.015555555555555552,42.90222222222221,0)" xlink:href="#ao"/><use transform="matrix(0.015555555555555552,0,0,0.015555555555555552,52.219999999999985,0)" xlink:href="#T"/><use transform="matrix(0.015555555555555552,0,0,0.015555555555555552,61.53777777777776,0)" xlink:href="#Y"/><use transform="matrix(0.015555555555555552,0,0,0.015555555555555552,70.43555555555554,0)" xlink:href="#al"/><use transform="matrix(0.015555555555555552,0,0,0.015555555555555552,78.24444444444443,0)" xlink:href="#V"/><use transform="matrix(0.015555555555555552,0,0,0.015555555555555552,86.89333333333332,0)" xlink:href="#Y"/></g><filter id="w" filterUnits="objectBoundingBox" x="-.08" y="-.07" width="1.15" height="1.33"><feOffset result="offOut" in="SourceAlpha" dy="6"/><feGaussianBlur result="blurOut" in="offOut" stdDeviation="5"/><feColorMatrix result="colorOut" in="blurOut" values="0 0 0 0 0 0 0 0 0 0 0 0 0 0 0 0 0 0 0.5019607843137255 0"/><feBlend in="SourceGraphic" in2="colorOut"/></filter><path fill="#333" d="M441-824c0 26-11 44-34 44-24 0-35-18-35-44 0-21 15-36 36-36 19 0 33 16 33 36zm-163 0c0 26-11 44-34 44-24 0-35-18-35-44 0-21 15-36 36-36 19 0 33 16 33 36zM613-27c10 26-31 38-40 14L312-657l15 8L74-13C68 11 26-1 36-27l269-662c3-19 36-16 39 0zM142-217l14-40h324l10 40H142" id="aq"/><g id="B"><use transform="matrix(0.015555555555555552,0,0,0.015555555555555552,0,0)" xlink:href="#aq"/><use transform="matrix(0.015555555555555552,0,0,0.015555555555555552,10.095555555555553,0)" xlink:href="#Y"/><use transform="matrix(0.015555555555555552,0,0,0.015555555555555552,18.99333333333333,0)" xlink:href="#ak"/><use transform="matrix(0.015555555555555552,0,0,0.015555555555555552,28.311111111111103,0)" xlink:href="#V"/><use transform="matrix(0.015555555555555552,0,0,0.015555555555555552,36.959999999999994,0)" xlink:href="#ag"/><use transform="matrix(0.015555555555555552,0,0,0.015555555555555552,42.68444444444444,0)" xlink:href="#ab"/><use transform="matrix(0.015555555555555552,0,0,0.015555555555555552,51.44222222222221,0)" xlink:href="#Y"/><use transform="matrix(0.015555555555555552,0,0,0.015555555555555552,60.33999999999999,0)" xlink:href="#aa"/></g><g id="C"><use transform="matrix(0.015555555555555552,0,0,0.015555555555555552,0,0)" xlink:href="#ak"/><use transform="matrix(0.015555555555555552,0,0,0.015555555555555552,9.317777777777776,0)" xlink:href="#V"/><use transform="matrix(0.015555555555555552,0,0,0.015555555555555552,17.96666666666666,0)" xlink:href="#ag"/></g><path fill="#333" d="M404-186C470-34 286 55 142-11c-32-14-61-37-87-69-21-23 12-49 29-29 33 46 85 83 162 83 69-3 133-29 133-98 0-125-181-91-253-156-29-22-52-51-52-99-6-157 248-172 323-69 22 14-8 48-25 28-30-35-74-56-134-57-68 3-124 30-126 98 23 136 242 77 292 193" id="ar"/><g id="D"><use transform="matrix(0.015555555555555552,0,0,0.015555555555555552,0,0)" xlink:href="#S"/><use transform="matrix(0.015555555555555552,0,0,0.015555555555555552,11.199999999999998,0)" xlink:href="#T"/><use transform="matrix(0.015555555555555552,0,0,0.015555555555555552,20.517777777777773,0)" xlink:href="#U"/><use transform="matrix(0.015555555555555552,0,0,0.015555555555555552,25.355555555555547,0)" xlink:href="#V"/><use transform="matrix(0.015555555555555552,0,0,0.015555555555555552,34.00444444444443,0)" xlink:href="#Y"/><use transform="matrix(0.015555555555555552,0,0,0.015555555555555552,42.90222222222221,0)" xlink:href="#ar"/><use transform="matrix(0.015555555555555552,0,0,0.015555555555555552,50.13555555555554,0)" xlink:href="#U"/><use transform="matrix(0.015555555555555552,0,0,0.015555555555555552,55.0511111111111,0)" xlink:href="#ag"/><use transform="matrix(0.015555555555555552,0,0,0.015555555555555552,60.77555555555554,0)" xlink:href="#ab"/><use transform="matrix(0.015555555555555552,0,0,0.015555555555555552,69.53333333333332,0)" xlink:href="#al"/><use transform="matrix(0.015555555555555552,0,0,0.015555555555555552,77.68444444444442,0)" xlink:href="#U"/><use transform="matrix(0.015555555555555552,0,0,0.015555555555555552,82.59999999999998,0)" xlink:href="#ab"/><use transform="matrix(0.015555555555555552,0,0,0.015555555555555552,91.35777777777776,0)" xlink:href="#ag"/></g><path fill="#333" d="M44-477c-17-20 16-46 33-24L438-28c16 20-15 45-32 23zM77-4C63 17 29-6 46-27l175-227 24 31zm329-497c14-21 48-2 31 21L262-246l-21-35" id="as"/><g id="E"><use transform="matrix(0.015555555555555552,0,0,0.015555555555555552,0,0)" xlink:href="#V"/><use transform="matrix(0.015555555555555552,0,0,0.015555555555555552,8.493333333333332,0)" xlink:href="#as"/><use transform="matrix(0.015555555555555552,0,0,0.015555555555555552,16.006666666666664,0)" xlink:href="#X"/><use transform="matrix(0.015555555555555552,0,0,0.015555555555555552,19.21111111111111,0)" xlink:href="#ar"/><use transform="matrix(0.015555555555555552,0,0,0.015555555555555552,26.44444444444444,0)" xlink:href="#U"/><use transform="matrix(0.015555555555555552,0,0,0.015555555555555552,31.359999999999992,0)" xlink:href="#X"/><use transform="matrix(0.015555555555555552,0,0,0.015555555555555552,34.56444444444443,0)" xlink:href="#V"/><use transform="matrix(0.015555555555555552,0,0,0.015555555555555552,43.213333333333324,0)" xlink:href="#ag"/><use transform="matrix(0.015555555555555552,0,0,0.015555555555555552,48.59555555555555,0)" xlink:href="#V"/><use transform="matrix(0.015555555555555552,0,0,0.015555555555555552,57.24444444444444,0)" xlink:href="#Y"/><use transform="matrix(0.015555555555555552,0,0,0.015555555555555552,66.14222222222222,0)" xlink:href="#ak"/><use transform="matrix(0.015555555555555552,0,0,0.015555555555555552,75.46,0)" xlink:href="#V"/><use transform="matrix(0.015555555555555552,0,0,0.015555555555555552,84.10888888888888,0)" xlink:href="#ag"/></g><path fill="#333" d="M318-20c1 25-40 26-40 0v-656h40v656zm243-661c1 11-9 19-20 19H55c-26 2-26-38 0-38h486c10 0 20 9 20 19" id="at"/><g id="F"><use transform="matrix(0.015555555555555552,0,0,0.015555555555555552,0,0)" xlink:href="#at"/><use transform="matrix(0.015555555555555552,0,0,0.015555555555555552,7.715555555555554,0)" xlink:href="#T"/><use transform="matrix(0.015555555555555552,0,0,0.015555555555555552,17.03333333333333,0)" xlink:href="#ao"/><use transform="matrix(0.015555555555555552,0,0,0.015555555555555552,26.35111111111111,0)" xlink:href="#V"/><use transform="matrix(0.015555555555555552,0,0,0.015555555555555552,35,0)" xlink:href="#ah"/><use transform="matrix(0.015555555555555552,0,0,0.015555555555555552,38.36,0)" xlink:href="#ah"/><use transform="matrix(0.015555555555555552,0,0,0.015555555555555552,41.56444444444444,0)" xlink:href="#V"/><use transform="matrix(0.015555555555555552,0,0,0.015555555555555552,50.213333333333324,0)" xlink:href="#Y"/></g><filter id="A" filterUnits="objectBoundingBox" x="-.07" y="-.05" width="1.14" height="1.23"><feOffset result="offOut" in="SourceAlpha" dy="6"/><feGaussianBlur result="blurOut" in="offOut" stdDeviation="5"/><feColorMatrix result="colorOut" in="blurOut" values="0 0 0 0 0 0 0 0 0 0 0 0 0 0 0 0 0 0 0.5019607843137255 0"/><feBlend in="SourceGraphic" in2="colorOut"/></filter><path fill="#333" d="M39-669c-16-27 26-44 38-15L337-58l-12-1 261-628c9-25 48-12 37 15L349-13c-4 16-31 17-38 0" id="au"/><g id="H"><use transform="matrix(0.015555555555555552,0,0,0.015555555555555552,0,0)" xlink:href="#au"/><use transform="matrix(0.015555555555555552,0,0,0.015555555555555552,9.908888888888887,0)" xlink:href="#V"/><use transform="matrix(0.015555555555555552,0,0,0.015555555555555552,18.557777777777773,0)" xlink:href="#ag"/><use transform="matrix(0.015555555555555552,0,0,0.015555555555555552,24.048888888888882,0)" xlink:href="#aa"/><use transform="matrix(0.015555555555555552,0,0,0.015555555555555552,33.59999999999999,0)" xlink:href="#T"/><use transform="matrix(0.015555555555555552,0,0,0.015555555555555552,42.917777777777765,0)" xlink:href="#ao"/><use transform="matrix(0.015555555555555552,0,0,0.015555555555555552,52.23555555555554,0)" xlink:href="#V"/></g><path fill="#333" d="M100-662c-25 1-26-38 0-38h470c20-2 29 18 19 32L111-28l1-10h460c25-1 26 38 0 38H80C64 1 54-20 64-33l475-633 6 4H100" id="av"/><path fill="#333" d="M52-253c0-179 141-296 336-252 39 10 83 26 89 61 1 18-24 27-37 14-24-35-73-48-137-47-127 7-211 94-211 224C92-98 209 1 372-36c27-9 55-25 69-42 9-17 37-14 36 7-23 52-97 81-177 81C145 5 52-97 52-253" id="aw"/><path fill="#333" d="M83-720c-1-25 40-26 40 0v349l-25 48c12-110 92-182 203-182 118 0 178 78 178 193v292c1 25-40 26-40 0v-292c-2-93-42-155-138-155-94 0-178 61-178 155v292c1 25-40 26-40 0v-700" id="ax"/><g id="I"><use transform="matrix(0.015555555555555552,0,0,0.015555555555555552,0,0)" xlink:href="#av"/><use transform="matrix(0.015555555555555552,0,0,0.015555555555555552,9.924444444444442,0)" xlink:href="#ab"/><use transform="matrix(0.015555555555555552,0,0,0.015555555555555552,18.526666666666664,0)" xlink:href="#aa"/><use transform="matrix(0.015555555555555552,0,0,0.015555555555555552,28.15555555555555,0)" xlink:href="#ag"/><use transform="matrix(0.015555555555555552,0,0,0.015555555555555552,33.879999999999995,0)" xlink:href="#X"/><use transform="matrix(0.015555555555555552,0,0,0.015555555555555552,37.084444444444436,0)" xlink:href="#W"/><use transform="matrix(0.015555555555555552,0,0,0.015555555555555552,42.27999999999999,0)" xlink:href="#W"/><use transform="matrix(0.015555555555555552,0,0,0.015555555555555552,47.475555555555545,0)" xlink:href="#ar"/><use transform="matrix(0.015555555555555552,0,0,0.015555555555555552,54.70888888888888,0)" xlink:href="#ag"/><use transform="matrix(0.015555555555555552,0,0,0.015555555555555552,60.091111111111104,0)" xlink:href="#V"/><use transform="matrix(0.015555555555555552,0,0,0.015555555555555552,68.74,0)" xlink:href="#aw"/><use transform="matrix(0.015555555555555552,0,0,0.015555555555555552,76.78222222222222,0)" xlink:href="#ax"/><use transform="matrix(0.015555555555555552,0,0,0.015555555555555552,85.52444444444444,0)" xlink:href="#U"/><use transform="matrix(0.015555555555555552,0,0,0.015555555555555552,90.36222222222221,0)" xlink:href="#V"/><use transform="matrix(0.015555555555555552,0,0,0.015555555555555552,99.0111111111111,0)" xlink:href="#Y"/></g><filter id="G" filterUnits="objectBoundingBox" x="-.07" y="-.07" width="1.14" height="1.33"><feOffset result="offOut" in="SourceAlpha" dy="6"/><feGaussianBlur result="blurOut" in="offOut" stdDeviation="5"/><feColorMatrix result="colorOut" in="blurOut" values="0 0 0 0 0 0 0 0 0 0 0 0 0 0 0 0 0 0 0.5019607843137255 0"/><feBlend in="SourceGraphic" in2="colorOut"/></filter><g id="J"><use transform="matrix(0.015555555555555552,0,0,0.015555555555555552,0,0)" xlink:href="#S"/><use transform="matrix(0.015555555555555552,0,0,0.015555555555555552,11.199999999999998,0)" xlink:href="#T"/><use transform="matrix(0.015555555555555552,0,0,0.015555555555555552,20.517777777777773,0)" xlink:href="#U"/><use transform="matrix(0.015555555555555552,0,0,0.015555555555555552,25.355555555555547,0)" xlink:href="#V"/><use transform="matrix(0.015555555555555552,0,0,0.015555555555555552,34.00444444444443,0)" xlink:href="#Y"/><use transform="matrix(0.015555555555555552,0,0,0.015555555555555552,42.90222222222221,0)" xlink:href="#ao"/><use transform="matrix(0.015555555555555552,0,0,0.015555555555555552,52.219999999999985,0)" xlink:href="#T"/><use transform="matrix(0.015555555555555552,0,0,0.015555555555555552,61.53777777777776,0)" xlink:href="#Y"/><use transform="matrix(0.015555555555555552,0,0,0.015555555555555552,70.43555555555554,0)" xlink:href="#al"/><use transform="matrix(0.015555555555555552,0,0,0.015555555555555552,78.58666666666664,0)" xlink:href="#X"/><use transform="matrix(0.015555555555555552,0,0,0.015555555555555552,81.79111111111109,0)" xlink:href="#Y"/><use transform="matrix(0.015555555555555552,0,0,0.015555555555555552,90.68888888888887,0)" xlink:href="#ax"/><use transform="matrix(0.015555555555555552,0,0,0.015555555555555552,99.4311111111111,0)" xlink:href="#T"/><use transform="matrix(0.015555555555555552,0,0,0.015555555555555552,108.74888888888887,0)" xlink:href="#ah"/><use transform="matrix(0.015555555555555552,0,0,0.015555555555555552,112.0622222222222,0)" xlink:href="#U"/><use transform="matrix(0.015555555555555552,0,0,0.015555555555555552,116.89999999999998,0)" xlink:href="#V"/><use transform="matrix(0.015555555555555552,0,0,0.015555555555555552,125.54888888888887,0)" xlink:href="#Y"/></g><path fill="#333" d="M613-27c10 26-31 38-40 14L312-657l15 8L74-13C68 11 26-1 36-27l269-662c3-19 36-16 39 0zM142-217l14-40h324l10 40H142" id="ay"/><g id="L"><use transform="matrix(0.015555555555555552,0,0,0.015555555555555552,0,0)" xlink:href="#ay"/><use transform="matrix(0.015555555555555552,0,0,0.015555555555555552,10.095555555555553,0)" xlink:href="#ao"/><use transform="matrix(0.015555555555555552,0,0,0.015555555555555552,19.413333333333327,0)" xlink:href="#ag"/><use transform="matrix(0.015555555555555552,0,0,0.015555555555555552,25.13777777777777,0)" xlink:href="#ab"/><use transform="matrix(0.015555555555555552,0,0,0.015555555555555552,33.895555555555546,0)" xlink:href="#W"/><use transform="matrix(0.015555555555555552,0,0,0.015555555555555552,38.468888888888884,0)" xlink:href="#V"/><use transform="matrix(0.015555555555555552,0,0,0.015555555555555552,47.117777777777775,0)" xlink:href="#Y"/></g><g id="M"><use transform="matrix(0.015555555555555552,0,0,0.015555555555555552,0,0)" xlink:href="#S"/><use transform="matrix(0.015555555555555552,0,0,0.015555555555555552,11.199999999999998,0)" xlink:href="#T"/><use transform="matrix(0.015555555555555552,0,0,0.015555555555555552,20.517777777777773,0)" xlink:href="#U"/><use transform="matrix(0.015555555555555552,0,0,0.015555555555555552,25.355555555555547,0)" xlink:href="#V"/><use transform="matrix(0.015555555555555552,0,0,0.015555555555555552,34.00444444444443,0)" xlink:href="#Y"/><use transform="matrix(0.015555555555555552,0,0,0.015555555555555552,42.90222222222221,0)" xlink:href="#ao"/><use transform="matrix(0.015555555555555552,0,0,0.015555555555555552,52.219999999999985,0)" xlink:href="#T"/><use transform="matrix(0.015555555555555552,0,0,0.015555555555555552,61.53777777777776,0)" xlink:href="#Y"/><use transform="matrix(0.015555555555555552,0,0,0.015555555555555552,70.43555555555554,0)" xlink:href="#al"/><use transform="matrix(0.015555555555555552,0,0,0.015555555555555552,78.58666666666664,0)" xlink:href="#X"/><use transform="matrix(0.015555555555555552,0,0,0.015555555555555552,81.79111111111109,0)" xlink:href="#Y"/><use transform="matrix(0.015555555555555552,0,0,0.015555555555555552,90.68888888888887,0)" xlink:href="#ax"/><use transform="matrix(0.015555555555555552,0,0,0.015555555555555552,99.4311111111111,0)" xlink:href="#T"/><use transform="matrix(0.015555555555555552,0,0,0.015555555555555552,108.74888888888887,0)" xlink:href="#ah"/><use transform="matrix(0.015555555555555552,0,0,0.015555555555555552,112.0622222222222,0)" xlink:href="#U"/><use transform="matrix(0.015555555555555552,0,0,0.015555555555555552,116.89999999999998,0)" xlink:href="#V"/><use transform="matrix(0.015555555555555552,0,0,0.015555555555555552,125.54888888888887,0)" xlink:href="#Y"/></g><path fill="#333" d="M491-763L46 109c-7 32-60 18-43-14l445-871c9-38 61-23 43 13" id="az"/><use transform="matrix(0.015555555555555552,0,0,0.015555555555555552,0,0)" xlink:href="#az" id="N"/><path fill="#333" d="M142-20c2 26-42 27-42 0v-660c0-10 10-20 20-20h264c146-5 236 123 182 264-21 48-62 82-114 97l-46-8c98 6 156 72 158 177 1 64 2 105 34 131 22 9 6 50-17 36-47-29-60-83-59-167 1-98-54-143-146-143H133l9-12v305zm398-498c0-85-70-142-161-142H137l5-7v325l-10-11h257c88-12 149-67 151-165" id="aA"/><g id="O"><use transform="matrix(0.015555555555555552,0,0,0.015555555555555552,0,0)" xlink:href="#aA"/><use transform="matrix(0.015555555555555552,0,0,0.015555555555555552,10.25111111111111,0)" xlink:href="#V"/><use transform="matrix(0.015555555555555552,0,0,0.015555555555555552,18.9,0)" xlink:href="#U"/><use transform="matrix(0.015555555555555552,0,0,0.015555555555555552,23.81555555555555,0)" xlink:href="#ag"/><use transform="matrix(0.015555555555555552,0,0,0.015555555555555552,29.539999999999996,0)" xlink:href="#X"/><use transform="matrix(0.015555555555555552,0,0,0.015555555555555552,32.74444444444444,0)" xlink:href="#V"/><use transform="matrix(0.015555555555555552,0,0,0.015555555555555552,41.31555555555555,0)" xlink:href="#ap"/><use transform="matrix(0.015555555555555552,0,0,0.015555555555555552,49.34222222222222,0)" xlink:href="#T"/><use transform="matrix(0.015555555555555552,0,0,0.015555555555555552,58.66,0)" xlink:href="#ah"/></g><filter id="K" filterUnits="objectBoundingBox" x="-.07" y="-.06" width="1.14" height="1.29"><feOffset result="offOut" in="SourceAlpha" dy="6"/><feGaussianBlur result="blurOut" in="offOut" stdDeviation="5"/><feColorMatrix result="colorOut" in="blurOut" values="0 0 0 0 0 0 0 0 0 0 0 0 0 0 0 0 0 0 0.5019607843137255 0"/><feBlend in="SourceGraphic" in2="colorOut"/></filter></defs></g></svg>