<svg xmlns="http://www.w3.org/2000/svg" xmlns:xlink="http://www.w3.org/1999/xlink" xmlns:lucid="lucid" width="763.65" height="782"><g transform="translate(-337.3476136798092 -339)" lucid:page-tab-id="0_0"><g opacity=".8" stroke="#5e5e5e" stroke-width="4" filter="url(#a)"><path d="M1080 1060c0 22.1-94.02 40-210 40s-210-17.9-210-40V740c0-22.1 94.02-40 210-40s210 17.9 210 40z" fill="url(#b)"/><path d="M1080 740c0 22.1-94.02 40-210 40s-210-17.9-210-40" fill="none"/></g><path d="M900 940h120v27.67H900zM900 967.67h30v27.66h-30zM930 967.67h30v27.66h-30zM960 967.67h30v27.66h-30zM990 967.67h30v27.66h-30zM900 995.33h30V1023h-30zM930 995.33h30V1023h-30zM960 995.33h30V1023h-30zM990 995.33h30V1023h-30z" fill="#fff"/><path d="M900 940v27.67M1020 940v27.67M900 967.67v27.66M930 967.67v27.66M960 967.67v27.66M990 967.67v27.66M1020 967.67v27.66M900 995.33V1023M930 995.33V1023M960 995.33V1023M990 995.33V1023M1020 995.33V1023M900 940h120M900 967.67h30M930 967.67h30M960 967.67h30M990 967.67h30M900 995.33h30M900 1023h30M930 995.33h30M930 1023h30M960 995.33h30M960 1023h30M990 995.33h30M990 1023h30" stroke="#5e5e5e" stroke-width="2" fill="none"/><use xlink:href="#c" transform="matrix(1,0,0,1,905,945) translate(37.17333333333334 15.55555555555555)"/><path d="M900 820h120v27.67H900zM900 847.67h30v27.66h-30zM930 847.67h30v27.66h-30zM960 847.67h30v27.66h-30zM990 847.67h30v27.66h-30zM900 875.33h30V903h-30zM930 875.33h30V903h-30zM960 875.33h30V903h-30zM990 875.33h30V903h-30z" fill="#fff"/><path d="M900 820v27.67M1020 820v27.67M900 847.67v27.66M930 847.67v27.66M960 847.67v27.66M990 847.67v27.66M1020 847.67v27.66M900 875.33V903M930 875.33V903M960 875.33V903M990 875.33V903M1020 875.33V903M900 820h120M900 847.67h30M930 847.67h30M960 847.67h30M990 847.67h30M900 875.33h30M900 903h30M930 875.33h30M930 903h30M960 875.33h30M960 903h30M990 875.33h30M990 903h30" stroke="#5e5e5e" stroke-width="2" fill="none"/><use xlink:href="#d" transform="matrix(1,0,0,1,905,825) translate(29.908888888888896 15.55555555555555)"/><path d="M720 940h120v27.67H720zM720 967.67h30v27.66h-30zM750 967.67h30v27.66h-30zM780 967.67h30v27.66h-30zM810 967.67h30v27.66h-30zM720 995.33h30V1023h-30zM750 995.33h30V1023h-30zM780 995.33h30V1023h-30zM810 995.33h30V1023h-30z" fill="#fff"/><path d="M720 940v27.67M840 940v27.67M720 967.67v27.66M750 967.67v27.66M780 967.67v27.66M810 967.67v27.66M840 967.67v27.66M720 995.33V1023M750 995.33V1023M780 995.33V1023M810 995.33V1023M840 995.33V1023M720 940h120M720 967.67h30M750 967.67h30M780 967.67h30M810 967.67h30M720 995.33h30M720 1023h30M750 995.33h30M750 1023h30M780 995.33h30M780 1023h30M810 995.33h30M810 1023h30" stroke="#5e5e5e" stroke-width="2" fill="none"/><use xlink:href="#e" transform="matrix(1,0,0,1,725,945) translate(46.19555555555556 15.555555555555548)"/><path d="M720 820h120v27.67H720zM720 847.67h30v27.66h-30zM750 847.67h30v27.66h-30zM780 847.67h30v27.66h-30zM810 847.67h30v27.66h-30zM720 875.33h30V903h-30zM750 875.33h30V903h-30zM780 875.33h30V903h-30zM810 875.33h30V903h-30z" fill="#fff"/><path d="M720 820v27.67M840 820v27.67M720 847.67v27.66M750 847.67v27.66M780 847.67v27.66M810 847.67v27.66M840 847.67v27.66M720 875.33V903M750 875.33V903M780 875.33V903M810 875.33V903M840 875.33V903M720 820h120M720 847.67h30M750 847.67h30M780 847.67h30M810 847.67h30M720 875.33h30M720 903h30M750 875.33h30M750 903h30M780 875.33h30M780 903h30M810 875.33h30M810 903h30" stroke="#5e5e5e" stroke-width="2" fill="none"/><use xlink:href="#f" transform="matrix(1,0,0,1,725,825) translate(28.49555555555557 15.555555555555548)"/><g filter="url(#g)"><path d="M540 366c0-3.3 2.7-6 6-6h148c3.3 0 6 2.7 6 6v48c0 3.3-2.7 6-6 6H546c-3.3 0-6-2.7-6-6z" stroke="#5e5e5e" stroke-width="2" fill="url(#h)"/><use xlink:href="#i" transform="matrix(1,0,0,1,545,365) translate(42.74 32.5)"/></g><g filter="url(#j)"><path d="M770 366c0-3.3 2.7-6 6-6h188c3.3 0 6 2.7 6 6v48c0 3.3-2.7 6-6 6H776c-3.3 0-6-2.7-6-6z" stroke="#5e5e5e" stroke-width="2" fill="url(#k)"/><use xlink:href="#l" transform="matrix(1,0,0,1,775,365) translate(11.830000000000027 32.5)"/></g><g filter="url(#g)"><path d="M790 486c0-3.3 2.7-6 6-6h148c3.3 0 6 2.7 6 6v48c0 3.3-2.7 6-6 6H796c-3.3 0-6-2.7-6-6z" stroke="#5e5e5e" stroke-width="2" fill="url(#m)"/><use xlink:href="#n" transform="matrix(1,0,0,1,795,485) translate(40.28000000000001 32.5)"/></g><g filter="url(#o)"><path d="M600 486c0-3.3 2.7-6 6-6h88c3.3 0 6 2.7 6 6v48c0 3.3-2.7 6-6 6h-88c-3.3 0-6-2.7-6-6z" stroke="#5e5e5e" stroke-width="2" fill="url(#p)"/><use xlink:href="#q" transform="matrix(1,0,0,1,605,485) translate(22.080000000000005 32.5)"/></g><g opacity=".95" filter="url(#g)"><path d="M918 580c17.67 0 32 13.43 32 30s-14.33 30-32 30h-96c-17.67 0-32-13.43-32-30s14.33-30 32-30z" stroke="#5e5e5e" stroke-width="2" fill="url(#r)"/><use xlink:href="#s" transform="matrix(1,0,0,1,795,585) translate(27.56000000000001 32.5)"/><use xlink:href="#t" transform="matrix(1,0,0,1,795,585) translate(70.03999999999999 32.5)"/><use xlink:href="#u" transform="matrix(1,0,0,1,795,585) translate(83.19999999999999 32.5)"/></g><g filter="url(#v)"><path d="M540 937.5c0-3.3 2.7-6 6-6h38c3.3 0 6 2.7 6 6v88c0 3.3-2.7 6-6 6h-38c-3.3 0-6-2.7-6-6z" stroke="#5e5e5e" stroke-width="2" fill="#ffd9d9"/><use xlink:href="#w" transform="matrix(1,0,0,1,545,936.5) translate(16.064444444444447 52.11805555555555)"/></g><g filter="url(#x)"><path d="M480 966c0-3.3 2.7-6 6-6h38c3.3 0 6 2.7 6 6v59.5c0 3.3-2.7 6-6 6h-38c-3.3 0-6-2.7-6-6z" stroke="#5e5e5e" stroke-width="2" fill="#ffdda6"/><use xlink:href="#y" transform="matrix(1,0,0,1,485,965) translate(15.963333333333335 34.93055555555555)"/></g><g filter="url(#z)"><path d="M420 986c0-3.3 2.7-6 6-6h38c3.3 0 6 2.7 6 6v39.5c0 3.3-2.7 6-6 6h-38c-3.3 0-6-2.7-6-6z" stroke="#5e5e5e" stroke-width="2" fill="#9fccff"/><use xlink:href="#A" transform="matrix(1,0,0,1,425,985) translate(15.73 26.05555555555555)"/></g><g filter="url(#B)"><path d="M360 1006c0-3.3 2.7-6 6-6h38c3.3 0 6 2.7 6 6v19.5c0 3.3-2.7 6-6 6h-38c-3.3 0-6-2.7-6-6z" stroke="#5e5e5e" stroke-width="2" fill="#b3ffbb"/><use xlink:href="#C" transform="matrix(1,0,0,1,365,1005) translate(17.17666666666667 16.93055555555555)"/></g><path d="M562.5 830h74.88" stroke="#5e5e5e" stroke-width="3" fill="none"/><path d="M562.54 831.5h-1.65l.1-1.46v-.32l-.1-1.22h1.64z" stroke="#5e5e5e" stroke-width=".05" fill="#5e5e5e"/><path d="M653.15 830l-14.27 4.64v-9.28z" stroke="#5e5e5e" stroke-width="3" fill="#5e5e5e"/><path d="M870 642.5v34.88" stroke="#5e5e5e" stroke-width="3" fill="none"/><path d="M871.5 642.54h-3V641h3z" stroke="#5e5e5e" stroke-width=".05" fill="#5e5e5e"/><path d="M870 693.15l-4.64-14.27h9.28z" stroke="#5e5e5e" stroke-width="3" fill="#5e5e5e"/><path d="M647.5 650h85.63c3.3 0 6 2.7 6 6v30.1" stroke="#5e5e5e" stroke-width="3" fill="none"/><path d="M647.54 651.5h-1.65l.1-1.46v-.32l-.1-1.22h1.64z" stroke="#5e5e5e" stroke-width=".05" fill="#5e5e5e"/><path d="M739.13 701.88l-4.64-14.27h9.26z" stroke="#5e5e5e" stroke-width="3" fill="#5e5e5e"/><path d="M870 542.5v35" stroke="#5e5e5e" stroke-width="3" fill="none"/><path d="M871.5 542.54h-3V541h3zM871.5 579h-3v-1.54h3z" stroke="#5e5e5e" stroke-width=".05" fill="#5e5e5e"/><path d="M702.5 510h65.88" stroke="#5e5e5e" stroke-width="3" fill="none"/><path d="M702.54 511.5H701v-3h1.54z" stroke="#5e5e5e" stroke-width=".05" fill="#5e5e5e"/><path d="M784.15 510l-14.27 4.64v-9.28z" stroke="#5e5e5e" stroke-width="3" fill="#5e5e5e"/><path d="M870 422.5v35.88" stroke="#5e5e5e" stroke-width="3" fill="none"/><path d="M871.5 422.54h-3V421h3z" stroke="#5e5e5e" stroke-width=".05" fill="#5e5e5e"/><path d="M870 474.15l-4.64-14.27h9.28z" stroke="#5e5e5e" stroke-width="3" fill="#5e5e5e"/><path d="M702.5 390h45.88" stroke="#5e5e5e" stroke-width="3" fill="none"/><path d="M702.54 391.5H701v-3h1.54z" stroke="#5e5e5e" stroke-width=".05" fill="#5e5e5e"/><path d="M764.15 390l-14.27 4.64v-9.28z" stroke="#5e5e5e" stroke-width="3" fill="#5e5e5e"/><path d="M656.5 982.67h-44.88" stroke="#5e5e5e" stroke-width="3" fill="none"/><path d="M658 984.17h-1.54v-3H658z" stroke="#5e5e5e" stroke-width=".05" fill="#5e5e5e"/><path d="M595.85 982.67l14.27-4.64v9.27z" stroke="#5e5e5e" stroke-width="3" fill="#5e5e5e"/><g opacity=".95" filter="url(#g)"><path d="M613 620c17.67 0 32 13.43 32 30s-14.33 30-32 30h-96c-17.67 0-32-13.43-32-30s14.33-30 32-30z" stroke="#5e5e5e" stroke-width="2" fill="url(#D)"/><use xlink:href="#E" transform="matrix(1,0,0,1,490,625) translate(28.140000000000008 32.5)"/><use xlink:href="#F" transform="matrix(1,0,0,1,490,625) translate(70.62 32.5)"/><use xlink:href="#G" transform="matrix(1,0,0,1,490,625) translate(83.78 32.5)"/></g><g opacity=".95" filter="url(#g)"><path d="M528 800c17.67 0 32 13.43 32 30s-14.33 30-32 30h-96c-17.67 0-32-13.43-32-30s14.33-30 32-30z" stroke="#5e5e5e" stroke-width="2" fill="url(#H)"/><use xlink:href="#E" transform="matrix(1,0,0,1,405,805) translate(26.470000000000013 32.5)"/><use xlink:href="#F" transform="matrix(1,0,0,1,405,805) translate(68.95 32.5)"/><use xlink:href="#I" transform="matrix(1,0,0,1,405,805) translate(82.11 32.5)"/></g><defs><linearGradient gradientUnits="userSpaceOnUse" id="b" x1="660" y1="700" x2="660" y2="1100"><stop offset="0%" stop-color="#a2c7c7"/><stop offset="45.56%" stop-color="#76a7a7"/><stop offset="77.82%" stop-color="#558484"/></linearGradient><filter id="a" filterUnits="objectBoundingBox" x="-.02" y="-.01" width="1.05" height="1.05"><feOffset result="offOut" in="SourceAlpha" dy="6"/><feGaussianBlur result="blurOut" in="offOut" stdDeviation="5"/><feColorMatrix result="colorOut" in="blurOut" values="0 0 0 0 0 0 0 0 0 0 0 0 0 0 0 0 0 0 0.5019607843137255 0"/><feBlend in="SourceGraphic" in2="colorOut"/></filter><path fill="#232b2b" d="M100-680c0-10 10-20 20-20h269c134-8 212 123 159 250-21 49-63 87-127 92l-7-12c116 4 186 64 186 181C600-63 520 0 396 0H120c-10 0-20-10-20-20v-660zm423 149c0-80-55-129-139-129H131l11-19v317l-10-17h252c84-3 142-59 139-152zm35 342c0-103-67-149-167-149H138l4-6v312l-5-8h254c96-1 170-47 167-149" id="J"/><path fill="#232b2b" d="M440-479c-2-26 40-26 40 0v291C482-62 402 6 281 6 161 6 83-62 83-188v-291c-1-25 40-26 40 0v291C122-88 183-32 281-32s159-56 159-156v-291" id="K"/><path fill="#232b2b" d="M52-253c0-179 141-296 336-252 39 10 83 26 89 61 1 18-24 27-37 14-24-35-73-48-137-47-127 7-211 94-211 224C92-98 209 1 372-36c27-9 55-25 69-42 9-17 37-14 36 7-23 52-97 81-177 81C145 5 52-97 52-253" id="L"/><path fill="#232b2b" d="M83-720c-1-25 40-26 40 0v349l-25 48c12-110 92-182 203-182 118 0 178 78 178 193v292c1 25-40 26-40 0v-292c-2-93-42-155-138-155-94 0-178 61-178 155v292c1 25-40 26-40 0v-700" id="M"/><g id="c"><use transform="matrix(0.01555555555555555,0,0,0.01555555555555555,0,0)" xlink:href="#J"/><use transform="matrix(0.01555555555555555,0,0,0.01555555555555555,10.111111111111107,0)" xlink:href="#K"/><use transform="matrix(0.01555555555555555,0,0,0.01555555555555555,18.868888888888883,0)" xlink:href="#L"/><use transform="matrix(0.01555555555555555,0,0,0.01555555555555555,26.911111111111104,0)" xlink:href="#M"/></g><path fill="#232b2b" d="M100-680c0-10 10-20 20-20h260c203 6 290 149 290 350S584 0 380 0H120c-10 0-20-10-20-20v-660zm528 330c0-180-76-310-258-310H136l6-8v637l-6-9h234c184-1 258-130 258-310" id="N"/><path fill="#232b2b" d="M299-515c153 0 246 109 246 263 0 153-94 262-246 262C148 10 52-99 52-252c0-154 95-263 247-263zm0 487c129 0 206-93 206-224 0-132-77-225-206-225S92-384 92-252c0 131 79 224 207 224" id="O"/><path fill="#232b2b" d="M407-515c16 0 25 20 15 34L102-33l-15-5h310c25-1 26 38 0 38H71C55 1 45-19 55-33l322-452 5 8H101c-25 1-26-38 0-38h306" id="P"/><path fill="#232b2b" d="M465-111c14-22 46 1 30 21C457-42 391 11 308 10 149 5 52-90 52-250c0-154 84-265 226-265 141 0 218 87 226 228 0 10-10 22-20 21H76l-6-38h403l-10 9c-2-114-78-180-185-180-119 0-185 92-187 222C88-98 211 4 372-40c38-14 72-41 93-71" id="Q"/><path fill="#232b2b" d="M83-479c-1-25 40-26 40 0v98l-25 48c13-111 98-177 212-182 120-5 179 73 179 189v306c1 25-40 26-40 0v-302c-2-94-46-155-143-155-96 0-183 60-183 155v302c1 25-40 26-40 0v-459" id="R"/><path fill="#232b2b" d="M37-465c-24 0-25-38 0-38h232c24-1 25 38 0 38H37zm122 356c-5 58 30 83 79 69 34 8 8 46-23 40-68 3-96-35-96-107v-523c-1-25 40-26 40 0v521" id="S"/><g id="d"><use transform="matrix(0.01555555555555555,0,0,0.01555555555555555,0,0)" xlink:href="#N"/><use transform="matrix(0.01555555555555555,0,0,0.01555555555555555,11.32444444444444,0)" xlink:href="#O"/><use transform="matrix(0.01555555555555555,0,0,0.01555555555555555,20.45555555555555,0)" xlink:href="#P"/><use transform="matrix(0.01555555555555555,0,0,0.01555555555555555,27.71999999999999,0)" xlink:href="#Q"/><use transform="matrix(0.01555555555555555,0,0,0.01555555555555555,36.368888888888875,0)" xlink:href="#R"/><use transform="matrix(0.01555555555555555,0,0,0.01555555555555555,45.26666666666665,0)" xlink:href="#S"/></g><path fill="#232b2b" d="M100-680c-1-26 42-26 42 0v658l-18-18h363c25-1 26 40 0 40H120c-11 1-20-9-20-20v-660" id="T"/><path fill="#232b2b" d="M39-669c-16-27 26-44 38-15L337-58l-12-1 261-628c9-25 48-12 37 15L349-13c-4 16-31 17-38 0" id="U"/><g id="e"><use transform="matrix(0.015555555555555548,0,0,0.015555555555555548,0,0)" xlink:href="#T"/><use transform="matrix(0.015555555555555548,0,0,0.015555555555555548,7.342222222222218,0)" xlink:href="#U"/></g><path fill="#232b2b" d="M414-634c-98-68-313-40-303 98 11 163 220 149 321 227 56 43 93 158 40 231-36 52-101 88-189 88-121 0-182-45-246-110-10-22 21-46 37-24 46 54 115 92 205 94 97-2 177-42 177-135 0-142-159-150-260-199-68-33-131-72-128-171 4-117 96-175 220-175 91 0 178 35 206 103 0 14-25 30-37 15-12-16-26-30-43-42" id="V"/><path fill="#232b2b" d="M476-720c-2-26 40-26 40 0v700c1 25-40 26-40 0v-142l16-22C480-69 404 10 284 10 137 10 52-103 52-253s85-262 232-262c124 0 200 82 208 206l-16-25v-386zM92-253c0 127 70 225 194 225 126 0 194-96 194-225s-69-224-194-224c-124 0-194 96-194 224" id="W"/><g id="f"><use transform="matrix(0.015555555555555548,0,0,0.015555555555555548,0,0)" xlink:href="#V"/><use transform="matrix(0.015555555555555548,0,0,0.015555555555555548,8.555555555555552,0)" xlink:href="#S"/><use transform="matrix(0.015555555555555548,0,0,0.015555555555555548,13.471111111111105,0)" xlink:href="#K"/><use transform="matrix(0.015555555555555548,0,0,0.015555555555555548,22.22888888888888,0)" xlink:href="#W"/><use transform="matrix(0.015555555555555548,0,0,0.015555555555555548,31.546666666666653,0)" xlink:href="#Q"/><use transform="matrix(0.015555555555555548,0,0,0.015555555555555548,40.195555555555536,0)" xlink:href="#R"/><use transform="matrix(0.015555555555555548,0,0,0.015555555555555548,49.09333333333331,0)" xlink:href="#S"/></g><linearGradient gradientUnits="userSpaceOnUse" id="h" x1="540" y1="360" x2="540" y2="420"><stop offset="0%" stop-color="#fff"/><stop offset="38.69%" stop-color="#f2f3f5"/><stop offset="100%" stop-color="#caced6"/></linearGradient><g id="i"><use transform="matrix(0.019999999999999997,0,0,0.019999999999999997,0,0)" xlink:href="#N"/><use transform="matrix(0.019999999999999997,0,0,0.019999999999999997,14.559999999999997,0)" xlink:href="#O"/><use transform="matrix(0.019999999999999997,0,0,0.019999999999999997,26.299999999999997,0)" xlink:href="#P"/><use transform="matrix(0.019999999999999997,0,0,0.019999999999999997,35.64,0)" xlink:href="#Q"/><use transform="matrix(0.019999999999999997,0,0,0.019999999999999997,46.760000000000005,0)" xlink:href="#R"/><use transform="matrix(0.019999999999999997,0,0,0.019999999999999997,58.2,0)" xlink:href="#S"/></g><filter id="g" filterUnits="objectBoundingBox" x="-.06" y="-.07" width="1.13" height="1.33"><feOffset result="offOut" in="SourceAlpha" dy="6"/><feGaussianBlur result="blurOut" in="offOut" stdDeviation="5"/><feColorMatrix result="colorOut" in="blurOut" values="0 0 0 0 0 0 0 0 0 0 0 0 0 0 0 0 0 0 0.5019607843137255 0"/><feBlend in="SourceGraphic" in2="colorOut"/></filter><linearGradient gradientUnits="userSpaceOnUse" id="k" x1="770" y1="360" x2="770" y2="420"><stop offset="0%" stop-color="#fff"/><stop offset="38.69%" stop-color="#f2f3f5"/><stop offset="100%" stop-color="#caced6"/></linearGradient><path fill="#232b2b" d="M123-20c0 25-40 26-40 0v-459c-1-25 40-26 40 0v169l-17 26c10-127 72-223 203-231 17 1 48 3 46 23-3 35-32 13-57 12-84 7-134 73-160 138-34 85-15 213-15 322" id="X"/><path fill="#232b2b" d="M40-488c-13-25 26-42 37-16L262-61l-10 7 188-450c7-25 49-13 37 15L278-13c-4 18-32 15-38 0" id="Y"/><path fill="#232b2b" d="M476-479c-2-26 40-26 40 0v459c1 25-40 26-40 0v-142l16-13C479-64 402 10 284 10 136 10 52-104 52-255s85-260 232-260c126 0 201 80 208 206l-16-25v-145zM92-255c0 129 69 227 194 227s194-98 194-227c0-126-71-222-194-222-124 0-194 94-194 222" id="Z"/><path fill="#232b2b" d="M404-186C470-34 286 55 142-11c-32-14-61-37-87-69-21-23 12-49 29-29 33 46 85 83 162 83 69-3 133-29 133-98 0-125-181-91-253-156-29-22-52-51-52-99-6-157 248-172 323-69 22 14-8 48-25 28-30-35-74-56-134-57-68 3-124 30-126 98 23 136 242 77 292 193" id="aa"/><path fill="#232b2b" d="M88-720c-1-25 40-26 40 0v700c1 25-40 26-40 0v-700" id="ab"/><path fill="#232b2b" d="M52-253c0-153 92-262 242-262 96 0 161 53 198 114 11 20 17 40 17 59-19-31-12-88-13-137-2-26 40-26 40 0v430c1 182-139 281-326 239-39-11-88-26-95-61 0-21 26-24 35-7 28 27 84 39 142 40 125 3 205-88 204-211v-99l10 1C478-52 408 10 294 10 144 10 52-100 52-253zm448 0c0-132-75-224-204-224-128 0-204 93-204 224 0 130 76 225 204 225s204-93 204-225" id="ac"/><g id="l"><use transform="matrix(0.019999999999999997,0,0,0.019999999999999997,0,0)" xlink:href="#T"/><use transform="matrix(0.019999999999999997,0,0,0.019999999999999997,10.439999999999998,0)" xlink:href="#Q"/><use transform="matrix(0.019999999999999997,0,0,0.019999999999999997,21.559999999999995,0)" xlink:href="#M"/><use transform="matrix(0.019999999999999997,0,0,0.019999999999999997,32.8,0)" xlink:href="#X"/><use transform="matrix(0.019999999999999997,0,0,0.019999999999999997,41.16,0)" xlink:href="#Y"/><use transform="matrix(0.019999999999999997,0,0,0.019999999999999997,51.419999999999995,0)" xlink:href="#Q"/><use transform="matrix(0.019999999999999997,0,0,0.019999999999999997,62.53999999999999,0)" xlink:href="#X"/><use transform="matrix(0.019999999999999997,0,0,0.019999999999999997,69.65999999999998,0)" xlink:href="#Z"/><use transform="matrix(0.019999999999999997,0,0,0.019999999999999997,81.63999999999999,0)" xlink:href="#R"/><use transform="matrix(0.019999999999999997,0,0,0.019999999999999997,93.07999999999998,0)" xlink:href="#aa"/><use transform="matrix(0.019999999999999997,0,0,0.019999999999999997,102.37999999999998,0)" xlink:href="#S"/><use transform="matrix(0.019999999999999997,0,0,0.019999999999999997,108.69999999999999,0)" xlink:href="#Z"/><use transform="matrix(0.019999999999999997,0,0,0.019999999999999997,120.67999999999998,0)" xlink:href="#ab"/><use transform="matrix(0.019999999999999997,0,0,0.019999999999999997,124.93999999999997,0)" xlink:href="#S"/><use transform="matrix(0.019999999999999997,0,0,0.019999999999999997,131.25999999999996,0)" xlink:href="#K"/><use transform="matrix(0.019999999999999997,0,0,0.019999999999999997,142.51999999999995,0)" xlink:href="#R"/><use transform="matrix(0.019999999999999997,0,0,0.019999999999999997,153.95999999999995,0)" xlink:href="#ac"/></g><filter id="j" filterUnits="objectBoundingBox" x="-.05" y="-.07" width="1.1" height="1.33"><feOffset result="offOut" in="SourceAlpha" dy="6"/><feGaussianBlur result="blurOut" in="offOut" stdDeviation="5"/><feColorMatrix result="colorOut" in="blurOut" values="0 0 0 0 0 0 0 0 0 0 0 0 0 0 0 0 0 0 0.5019607843137255 0"/><feBlend in="SourceGraphic" in2="colorOut"/></filter><linearGradient gradientUnits="userSpaceOnUse" id="m" x1="790" y1="480" x2="790" y2="540"><stop offset="0%" stop-color="#fff"/><stop offset="38.69%" stop-color="#f2f3f5"/><stop offset="100%" stop-color="#caced6"/></linearGradient><path fill="#333" d="M414-634c-98-68-313-40-303 98 11 163 220 149 321 227 56 43 93 158 40 231-36 52-101 88-189 88-121 0-182-45-246-110-10-22 21-46 37-24 46 54 115 92 205 94 97-2 177-42 177-135 0-142-159-150-260-199-68-33-131-72-128-171 4-117 96-175 220-175 91 0 178 35 206 103 0 14-25 30-37 15-12-16-26-30-43-42" id="ad"/><path fill="#333" d="M37-465c-24 0-25-38 0-38h232c24-1 25 38 0 38H37zm122 356c-5 58 30 83 79 69 34 8 8 46-23 40-68 3-96-35-96-107v-523c-1-25 40-26 40 0v521" id="ae"/><path fill="#333" d="M440-479c-2-26 40-26 40 0v291C482-62 402 6 281 6 161 6 83-62 83-188v-291c-1-25 40-26 40 0v291C122-88 183-32 281-32s159-56 159-156v-291" id="af"/><path fill="#333" d="M476-720c-2-26 40-26 40 0v700c1 25-40 26-40 0v-142l16-22C480-69 404 10 284 10 137 10 52-103 52-253s85-262 232-262c124 0 200 82 208 206l-16-25v-386zM92-253c0 127 70 225 194 225 126 0 194-96 194-225s-69-224-194-224c-124 0-194 96-194 224" id="ag"/><path fill="#333" d="M465-111c14-22 46 1 30 21C457-42 391 11 308 10 149 5 52-90 52-250c0-154 84-265 226-265 141 0 218 87 226 228 0 10-10 22-20 21H76l-6-38h403l-10 9c-2-114-78-180-185-180-119 0-185 92-187 222C88-98 211 4 372-40c38-14 72-41 93-71" id="ah"/><path fill="#333" d="M83-479c-1-25 40-26 40 0v98l-25 48c13-111 98-177 212-182 120-5 179 73 179 189v306c1 25-40 26-40 0v-302c-2-94-46-155-143-155-96 0-183 60-183 155v302c1 25-40 26-40 0v-459" id="ai"/><g id="n"><use transform="matrix(0.019999999999999997,0,0,0.019999999999999997,0,0)" xlink:href="#ad"/><use transform="matrix(0.019999999999999997,0,0,0.019999999999999997,10.999999999999998,0)" xlink:href="#ae"/><use transform="matrix(0.019999999999999997,0,0,0.019999999999999997,17.319999999999997,0)" xlink:href="#af"/><use transform="matrix(0.019999999999999997,0,0,0.019999999999999997,28.579999999999995,0)" xlink:href="#ag"/><use transform="matrix(0.019999999999999997,0,0,0.019999999999999997,40.559999999999995,0)" xlink:href="#ah"/><use transform="matrix(0.019999999999999997,0,0,0.019999999999999997,51.67999999999999,0)" xlink:href="#ai"/><use transform="matrix(0.019999999999999997,0,0,0.019999999999999997,63.11999999999999,0)" xlink:href="#ae"/></g><linearGradient gradientUnits="userSpaceOnUse" id="p" x1="600" y1="480" x2="600" y2="540"><stop offset="0%" stop-color="#fff"/><stop offset="38.69%" stop-color="#f2f3f5"/><stop offset="100%" stop-color="#caced6"/></linearGradient><g id="q"><use transform="matrix(0.019999999999999997,0,0,0.019999999999999997,0,0)" xlink:href="#J"/><use transform="matrix(0.019999999999999997,0,0,0.019999999999999997,12.999999999999998,0)" xlink:href="#K"/><use transform="matrix(0.019999999999999997,0,0,0.019999999999999997,24.259999999999998,0)" xlink:href="#L"/><use transform="matrix(0.019999999999999997,0,0,0.019999999999999997,34.599999999999994,0)" xlink:href="#M"/></g><filter id="o" filterUnits="objectBoundingBox" x="-.1" y="-.07" width="1.2" height="1.33"><feOffset result="offOut" in="SourceAlpha" dy="6"/><feGaussianBlur result="blurOut" in="offOut" stdDeviation="5"/><feColorMatrix result="colorOut" in="blurOut" values="0 0 0 0 0 0 0 0 0 0 0 0 0 0 0 0 0 0 0.5019607843137255 0"/><feBlend in="SourceGraphic" in2="colorOut"/></filter><linearGradient gradientUnits="userSpaceOnUse" id="r" x1="790" y1="580" x2="790" y2="640"><stop offset="17.74%" stop-color="#d3cae2"/><stop offset="67.34%" stop-color="#ae9fc6"/><stop offset="100%" stop-color="#8a74ad"/></linearGradient><path fill="#232b2b" d="M320 40c149 13 292 164 440 36 10-15 37-15 37 6-21 58-102 77-176 83-145 6-186-86-320-89-33-2-51 19-77 22-20 1-29-31-9-38L376 4l92-4-147 48zm374-536c33 85 33 207 0 292C646-81 549 10 384 10 169 10 50-133 50-350c0-218 120-360 334-360 164 0 262 91 310 214zM384-30c187 0 292-130 292-320S571-670 384-670C198-670 92-540 92-350S198-30 384-30" id="aj"/><g id="s"><use transform="matrix(0.019999999999999997,0,0,0.019999999999999997,0,0)" xlink:href="#V"/><use transform="matrix(0.019999999999999997,0,0,0.019999999999999997,10.999999999999998,0)" xlink:href="#aj"/><use transform="matrix(0.019999999999999997,0,0,0.019999999999999997,26.63999999999999,0)" xlink:href="#T"/></g><path fill="#232b2b" d="M309-335c24-1 25 40 0 40H79c-24 1-25-40 0-40h230" id="ak"/><use transform="matrix(0.019999999999999997,0,0,0.019999999999999997,0,0)" xlink:href="#ak" id="t"/><g id="u"><use transform="matrix(0.019999999999999997,0,0,0.019999999999999997,0,0)" xlink:href="#N"/><use transform="matrix(0.019999999999999997,0,0,0.019999999999999997,14.399999999999999,0)" xlink:href="#N"/><use transform="matrix(0.019999999999999997,0,0,0.019999999999999997,28.799999999999997,0)" xlink:href="#T"/></g><path fill="#333" d="M380-20c1 25-40 26-40 0v-625l11 8L65-252l-3-11h394c26-2 26 38 0 38H35c-16 1-25-21-15-34l323-433c11-15 37-7 37 12v660" id="al"/><use transform="matrix(0.01555555555555555,0,0,0.01555555555555555,0,0)" xlink:href="#al" id="w"/><filter id="v" filterUnits="objectBoundingBox" x="-.05" y="-.15" width="1.4" height="1.2"><feOffset result="offOut" in="SourceAlpha" dx="7.63" dy="-4.77"/><feGaussianBlur result="blurOut" in="offOut" stdDeviation="5"/><feColorMatrix result="colorOut" in="blurOut" values="0 0 0 0 0 0 0 0 0 0 0 0 0 0 0 0 0 0 0.5019607843137255 0"/><feBlend in="SourceGraphic" in2="colorOut"/></filter><path fill="#333" d="M419-221c0-131-101-190-233-177-20 1-24-25-12-39l212-232 6 14H70c-25 1-26-40 0-40h346c20-2 25 24 14 36L219-427l-20-6c1-5 36-9 43-9 130 7 219 82 219 221 0 142-99 231-239 231-70 0-127-26-160-70-9-22 21-41 37-20 25 32 68 48 123 48 116-4 197-73 197-189" id="am"/><use transform="matrix(0.01555555555555555,0,0,0.01555555555555555,0,0)" xlink:href="#am" id="y"/><filter id="x" filterUnits="objectBoundingBox" x="-.05" y="-.21" width="1.4" height="1.28"><feOffset result="offOut" in="SourceAlpha" dx="7.63" dy="-4.77"/><feGaussianBlur result="blurOut" in="offOut" stdDeviation="5"/><feColorMatrix result="colorOut" in="blurOut" values="0 0 0 0 0 0 0 0 0 0 0 0 0 0 0 0 0 0 0.5019607843137255 0"/><feBlend in="SourceGraphic" in2="colorOut"/></filter><path fill="#333" d="M188-692c143-53 294 24 285 175-7 108-64 167-132 245L126-28l-9-12h362c25-1 26 40 0 40H93C74 2 60-18 73-34l235-262c62-70 113-121 121-217 9-119-116-189-231-143-49 18-85 57-106 100-19 12-41-6-27-30 26-45 72-85 123-106" id="an"/><use transform="matrix(0.01555555555555555,0,0,0.01555555555555555,0,0)" xlink:href="#an" id="A"/><filter id="z" filterUnits="objectBoundingBox" x="-.05" y="-.29" width="1.4" height="1.39"><feOffset result="offOut" in="SourceAlpha" dx="7.63" dy="-4.77"/><feGaussianBlur result="blurOut" in="offOut" stdDeviation="5"/><feColorMatrix result="colorOut" in="blurOut" values="0 0 0 0 0 0 0 0 0 0 0 0 0 0 0 0 0 0 0.5019607843137255 0"/><feBlend in="SourceGraphic" in2="colorOut"/></filter><path fill="#333" d="M243-20c1 26-42 26-42 0v-634l10 6c-55 34-105 74-164 105-19 0-31-27-11-39 63-37 120-81 184-118 14-1 23 6 23 20v660" id="ao"/><use transform="matrix(0.01555555555555555,0,0,0.01555555555555555,0,0)" xlink:href="#ao" id="C"/><filter id="B" filterUnits="objectBoundingBox" x="-.05" y="-.47" width="1.4" height="1.63"><feOffset result="offOut" in="SourceAlpha" dx="7.65" dy="-4.74"/><feGaussianBlur result="blurOut" in="offOut" stdDeviation="5"/><feColorMatrix result="colorOut" in="blurOut" values="0 0 0 0 0 0 0 0 0 0 0 0 0 0 0 0 0 0 0.5019607843137255 0"/><feBlend in="SourceGraphic" in2="colorOut"/></filter><linearGradient gradientUnits="userSpaceOnUse" id="D" x1="485" y1="620" x2="485" y2="680"><stop offset="17.74%" stop-color="#d3cae2"/><stop offset="67.34%" stop-color="#ae9fc6"/><stop offset="100%" stop-color="#8a74ad"/></linearGradient><g id="E"><use transform="matrix(0.019999999999999997,0,0,0.019999999999999997,0,0)" xlink:href="#V"/><use transform="matrix(0.019999999999999997,0,0,0.019999999999999997,10.999999999999998,0)" xlink:href="#aj"/><use transform="matrix(0.019999999999999997,0,0,0.019999999999999997,26.63999999999999,0)" xlink:href="#T"/></g><use transform="matrix(0.019999999999999997,0,0,0.019999999999999997,0,0)" xlink:href="#ak" id="F"/><path fill="#232b2b" d="M264-683c114-53 275-21 354 41 22 13-1 49-22 33-71-56-212-86-316-39C171-599 92-503 92-350s80 250 188 298C385-4 527-37 595-90c21-17 45 17 24 32-79 58-241 96-355 41C143-72 50-179 50-350s93-278 214-333" id="ap"/><g id="G"><use transform="matrix(0.019999999999999997,0,0,0.019999999999999997,0,0)" xlink:href="#N"/><use transform="matrix(0.019999999999999997,0,0,0.019999999999999997,14.399999999999999,0)" xlink:href="#ap"/><use transform="matrix(0.019999999999999997,0,0,0.019999999999999997,27.639999999999997,0)" xlink:href="#T"/></g><linearGradient gradientUnits="userSpaceOnUse" id="H" x1="400" y1="800" x2="400" y2="860"><stop offset="17.74%" stop-color="#d3cae2"/><stop offset="67.34%" stop-color="#ae9fc6"/><stop offset="100%" stop-color="#8a74ad"/></linearGradient><path fill="#232b2b" d="M100-680c-2-20 27-27 38-11l287 427h-20l287-427c11-18 37-7 37 11v660c1 25-43 26-42 0v-615h11c-92 137-181 277-274 413-8 5-23 1-25-6L124-643h16v623c1 25-40 26-40 0v-660" id="aq"/><g id="I"><use transform="matrix(0.019999999999999997,0,0,0.019999999999999997,0,0)" xlink:href="#N"/><use transform="matrix(0.019999999999999997,0,0,0.019999999999999997,14.399999999999999,0)" xlink:href="#aq"/><use transform="matrix(0.019999999999999997,0,0,0.019999999999999997,30.979999999999997,0)" xlink:href="#T"/></g></defs></g></svg>