<svg xmlns="http://www.w3.org/2000/svg" xmlns:xlink="http://www.w3.org/1999/xlink" xmlns:lucid="lucid" width="944" height="360"><g transform="translate(-380 -560)" lucid:page-tab-id="2BE44KobGuPv"><path d="M400 580h904v40H400z" fill="#fff"/><path d="M400 620h105.9v40H400zM505.9 620h131.88v40H505.9zM637.78 620h121.9v40h-121.9z" fill="#232b2b"/><path d="M759.67 620h144.86v40H759.67z" fill="#232b2b"/><path d="M904.53 620h154.86v40H904.52zM1059.4 620H1304v40h-244.6z" fill="#232b2b"/><path d="M400 660h105.9v40H400zM505.9 660h131.88v40H505.9zM637.78 660h121.9v40h-121.9z" fill="#fff"/><path d="M759.67 660h144.86v40H759.67z" fill="#fff"/><path d="M904.53 660h154.86v40H904.52zM1059.4 660H1304v40h-244.6zM400 700h105.9v40H400zM505.9 700h131.88v40H505.9zM637.78 700h121.9v40h-121.9z" fill="#fff"/><path d="M759.67 700h144.86v40H759.67z" fill="#fff"/><path d="M904.53 700h154.86v40H904.52zM1059.4 700H1304v40h-244.6zM400 740h105.9v40H400zM505.9 740h131.88v40H505.9zM637.78 740h121.9v40h-121.9z" fill="#fff"/><path d="M759.67 740h144.86v40H759.67z" fill="#fff"/><path d="M904.53 740h154.86v40H904.52zM1059.4 740H1304v40h-244.6zM400 780h105.9v40H400zM505.9 780h131.88v40H505.9zM637.78 780h121.9v40h-121.9z" fill="#fff"/><path d="M759.67 780h144.86v40H759.67z" fill="#fff"/><path d="M904.53 780h154.86v40H904.52zM1059.4 780H1304v40h-244.6zM400 820h105.9v40H400zM505.9 820h131.88v40H505.9zM637.78 820h121.9v40h-121.9z" fill="#fff"/><path d="M759.67 820h144.86v40H759.67z" fill="#fff"/><path d="M904.53 820h154.86v40H904.52zM1059.4 820H1304v40h-244.6zM400 860h105.9v40H400zM505.9 860h131.88v40H505.9zM637.78 860h121.9v40h-121.9z" fill="#fff"/><path d="M759.67 860h144.86v40H759.67z" fill="#fff"/><path d="M904.53 860h154.86v40H904.52zM1059.4 860H1304v40h-244.6z" fill="#fff"/><path d="M400 580v40M1304 580v40M400 620v40M505.9 620v40M637.78 620v40M759.67 620v40M904.53 620v40M1059.4 620v40M1304 620v40M400 660v40M505.9 660v40M637.78 660v40M759.67 660v40M904.53 660v40M1059.4 660v40M1304 660v40M400 700v40M505.9 700v40M637.78 700v40M759.67 700v40M904.53 700v40M1059.4 700v40M1304 700v40M400 740v40M505.9 740v40M637.78 740v40M759.67 740v40M904.53 740v40M1059.4 740v40M1304 740v40M400 780v40M505.9 780v40M637.78 780v40M759.67 780v40M904.53 780v40M1059.4 780v40M1304 780v40M400 820v40M505.9 820v40M637.78 820v40M759.67 820v40M904.53 820v40M1059.4 820v40M1304 820v40M400 860v40M505.9 860v40M637.78 860v40M759.67 860v40M904.53 860v40M1059.4 860v40M1304 860v40M400 580h904M400 620h105.9M505.9 620h131.88M637.78 620h121.9M759.67 620h144.86M904.53 620h154.86M1059.4 620H1304M400 660h105.9M505.9 660h131.88M637.78 660h121.9M759.67 660h144.86M904.53 660h154.86M1059.4 660H1304M400 700h105.9M505.9 700h131.88M637.78 700h121.9M759.67 700h144.86M904.53 700h154.86M1059.4 700H1304M400 740h105.9M505.9 740h131.88M637.78 740h121.9M759.67 740h144.86M904.53 740h154.86M1059.4 740H1304M400 780h105.9M505.9 780h131.88M637.78 780h121.9M759.67 780h144.86M904.53 780h154.86M1059.4 780H1304M400 820h105.9M505.9 820h131.88M637.78 820h121.9M759.67 820h144.86M904.53 820h154.86M1059.4 820H1304M400 860h105.9M400 900h105.9M505.9 860h131.88M505.9 900h131.88M637.78 860h121.9M637.78 900h121.9M759.67 860h144.86M759.67 900h144.86M904.53 860h154.86M904.53 900h154.86M1059.4 860H1304M1059.4 900H1304" stroke="#5e5e5e" stroke-width="3" fill="none"/><use xlink:href="#a" transform="matrix(1,0,0,1,405,585) translate(392.81 22.5)"/><use xlink:href="#b" transform="matrix(1,0,0,1,405,625) translate(15.950000000000003 22.5)"/><use xlink:href="#c" transform="matrix(1,0,0,1,510.90237612820044,625) translate(10.610000000000014 22.5)"/><use xlink:href="#d" transform="matrix(1,0,0,1,642.7808067784123,625) translate(13.620000000000005 22.5)"/><use xlink:href="#e" transform="matrix(1,0,0,1,764.6684472278505,625) translate(21.680000000000014 22.5)"/><use xlink:href="#f" transform="matrix(1,0,0,1,909.534905139068,625) translate(22.94000000000002 22.5)"/><use xlink:href="#g" transform="matrix(1,0,0,1,1064.3921532510592,625) translate(59.84000000000001 22.5)"/><use xlink:href="#h" transform="matrix(1,0,0,1,405,665) translate(17.910000000000004 22.5)"/><use xlink:href="#i" transform="matrix(1,0,0,1,510.90237612820044,665) translate(30.950000000000006 22.5)"/><use xlink:href="#j" transform="matrix(1,0,0,1,642.7808067784123,665) translate(26.180000000000007 22.5)"/><use xlink:href="#k" transform="matrix(1,0,0,1,764.6684472278505,665) translate(29.860000000000007 22.5)"/><use xlink:href="#l" transform="matrix(1,0,0,1,909.534905139068,665) translate(38.06000000000002 22.5)"/><use xlink:href="#m" transform="matrix(1,0,0,1,1064.3921532510592,665) translate(22.340000000000018 22.5)"/><use xlink:href="#n" transform="matrix(1,0,0,1,405,705) translate(17.280000000000005 22.5)"/><use xlink:href="#o" transform="matrix(1,0,0,1,510.90237612820044,705) translate(37.160000000000004 22.5)"/><use xlink:href="#p" transform="matrix(1,0,0,1,642.7808067784123,705) translate(26.700000000000003 22.5)"/><use xlink:href="#q" transform="matrix(1,0,0,1,764.6684472278505,705) translate(41.830000000000005 22.5)"/><use xlink:href="#r" transform="matrix(1,0,0,1,909.534905139068,705) translate(40.45000000000001 22.5)"/><use xlink:href="#s" transform="matrix(1,0,0,1,1064.3921532510592,705) translate(60.22000000000001 22.5)"/><use xlink:href="#t" transform="matrix(1,0,0,1,405,745) translate(17.930000000000007 22.5)"/><use xlink:href="#u" transform="matrix(1,0,0,1,510.90237612820044,745) translate(32.21000000000001 22.5)"/><use xlink:href="#v" transform="matrix(1,0,0,1,642.7808067784123,745) translate(32.25 22.5)"/><use xlink:href="#w" transform="matrix(1,0,0,1,764.6684472278505,745) translate(27.060000000000002 22.5)"/><use xlink:href="#x" transform="matrix(1,0,0,1,909.534905139068,745) translate(36.74000000000001 22.5)"/><use xlink:href="#y" transform="matrix(1,0,0,1,1064.3921532510592,745) translate(66 22.5)"/><use xlink:href="#z" transform="matrix(1,0,0,1,405,785) translate(17.540000000000006 22.5)"/><use xlink:href="#A" transform="matrix(1,0,0,1,510.90237612820044,785) translate(37.02 22.5)"/><use xlink:href="#B" transform="matrix(1,0,0,1,642.7808067784123,785) translate(30.190000000000005 22.5)"/><use xlink:href="#C" transform="matrix(1,0,0,1,764.6684472278505,785) translate(26.34000000000001 22.5)"/><use xlink:href="#D" transform="matrix(1,0,0,1,909.534905139068,785) translate(37.09000000000001 22.5)"/><use xlink:href="#E" transform="matrix(1,0,0,1,1064.3921532510592,785) translate(79.30000000000001 22.5)"/><use xlink:href="#F" transform="matrix(1,0,0,1,405,825) translate(17.080000000000005 22.5)"/><use xlink:href="#G" transform="matrix(1,0,0,1,510.90237612820044,825) translate(22.670000000000016 22.5)"/><use xlink:href="#H" transform="matrix(1,0,0,1,642.7808067784123,825) translate(22.070000000000007 22.5)"/><use xlink:href="#I" transform="matrix(1,0,0,1,764.6684472278505,825) translate(40.550000000000004 22.5)"/><use xlink:href="#J" transform="matrix(1,0,0,1,909.534905139068,825) translate(40.73000000000001 22.5)"/><use xlink:href="#K" transform="matrix(1,0,0,1,1064.3921532510592,825) translate(104.37 22.5)"/><use xlink:href="#L" transform="matrix(1,0,0,1,405,865) translate(19.000000000000004 22.5)"/><use xlink:href="#M" transform="matrix(1,0,0,1,510.90237612820044,865) translate(34.18000000000001 22.5)"/><use xlink:href="#N" transform="matrix(1,0,0,1,642.7808067784123,865) translate(23.10000000000001 22.5)"/><use xlink:href="#O" transform="matrix(1,0,0,1,764.6684472278505,865) translate(14.340000000000003 22.5)"/><use xlink:href="#P" transform="matrix(1,0,0,1,909.534905139068,865) translate(40.49000000000001 22.5)"/><use xlink:href="#Q" transform="matrix(1,0,0,1,1064.3921532510592,865) translate(20.780000000000015 22.5)"/><defs><path fill="#232b2b" d="M414-634c-98-68-313-40-303 98 11 163 220 149 321 227 56 43 93 158 40 231-36 52-101 88-189 88-121 0-182-45-246-110-10-22 21-46 37-24 46 54 115 92 205 94 97-2 177-42 177-135 0-142-159-150-260-199-68-33-131-72-128-171 4-117 96-175 220-175 91 0 178 35 206 103 0 14-25 30-37 15-12-16-26-30-43-42" id="R"/><path fill="#232b2b" d="M37-465c-24 0-25-38 0-38h232c24-1 25 38 0 38H37zm122 356c-5 58 30 83 79 69 34 8 8 46-23 40-68 3-96-35-96-107v-523c-1-25 40-26 40 0v521" id="S"/><path fill="#232b2b" d="M440-479c-2-26 40-26 40 0v291C482-62 402 6 281 6 161 6 83-62 83-188v-291c-1-25 40-26 40 0v291C122-88 183-32 281-32s159-56 159-156v-291" id="T"/><path fill="#232b2b" d="M476-720c-2-26 40-26 40 0v700c1 25-40 26-40 0v-142l16-22C480-69 404 10 284 10 137 10 52-103 52-253s85-262 232-262c124 0 200 82 208 206l-16-25v-386zM92-253c0 127 70 225 194 225 126 0 194-96 194-225s-69-224-194-224c-124 0-194 96-194 224" id="U"/><path fill="#232b2b" d="M83-495c-1-25 40-26 40 0v475c1 25-40 26-40 0v-475zm54-128c11 49-70 54-69 8-10-48 70-54 69-8" id="V"/><path fill="#232b2b" d="M465-111c14-22 46 1 30 21C457-42 391 11 308 10 149 5 52-90 52-250c0-154 84-265 226-265 141 0 218 87 226 228 0 10-10 22-20 21H76l-6-38h403l-10 9c-2-114-78-180-185-180-119 0-185 92-187 222C88-98 211 4 372-40c38-14 72-41 93-71" id="W"/><path fill="#232b2b" d="M123-20c0 25-40 26-40 0v-459c-1-25 40-26 40 0v169l-17 26c10-127 72-223 203-231 17 1 48 3 46 23-3 35-32 13-57 12-84 7-134 73-160 138-34 85-15 213-15 322" id="X"/><path fill="#232b2b" d="M83-479c-1-25 40-26 40 0v98l-25 48c13-111 98-177 212-182 120-5 179 73 179 189v306c1 25-40 26-40 0v-302c-2-94-46-155-143-155-96 0-183 60-183 155v302c1 25-40 26-40 0v-459" id="Y"/><g id="a"><use transform="matrix(0.019999999999999997,0,0,0.019999999999999997,0,0)" xlink:href="#R"/><use transform="matrix(0.019999999999999997,0,0,0.019999999999999997,10.999999999999998,0)" xlink:href="#S"/><use transform="matrix(0.019999999999999997,0,0,0.019999999999999997,17.319999999999997,0)" xlink:href="#T"/><use transform="matrix(0.019999999999999997,0,0,0.019999999999999997,28.579999999999995,0)" xlink:href="#U"/><use transform="matrix(0.019999999999999997,0,0,0.019999999999999997,40.559999999999995,0)" xlink:href="#V"/><use transform="matrix(0.019999999999999997,0,0,0.019999999999999997,44.67999999999999,0)" xlink:href="#W"/><use transform="matrix(0.019999999999999997,0,0,0.019999999999999997,55.79999999999999,0)" xlink:href="#X"/><use transform="matrix(0.019999999999999997,0,0,0.019999999999999997,62.71999999999999,0)" xlink:href="#W"/><use transform="matrix(0.019999999999999997,0,0,0.019999999999999997,73.83999999999999,0)" xlink:href="#Y"/><use transform="matrix(0.019999999999999997,0,0,0.019999999999999997,85.27999999999999,0)" xlink:href="#U"/><use transform="matrix(0.019999999999999997,0,0,0.019999999999999997,97.25999999999999,0)" xlink:href="#W"/></g><path fill="#fff" d="M100-680c-2-20 27-27 38-11l287 427h-20l287-427c11-18 37-7 37 11v660c1 25-43 26-42 0v-615h11c-92 137-181 277-274 413-8 5-23 1-25-6L124-643h16v623c1 25-40 26-40 0v-660" id="Z"/><path fill="#fff" d="M476-479c-2-26 40-26 40 0v459c1 25-40 26-40 0v-142l16-13C479-64 402 10 284 10 136 10 52-104 52-255s85-260 232-260c126 0 201 80 208 206l-16-25v-145zM92-255c0 129 69 227 194 227s194-98 194-227c0-126-71-222-194-222-124 0-194 94-194 222" id="aa"/><path fill="#fff" d="M37-465c-24 0-25-38 0-38h232c24-1 25 38 0 38H37zm122 356c-5 58 30 83 79 69 34 8 8 46-23 40-68 3-96-35-96-107v-523c-1-25 40-26 40 0v521" id="ab"/><path fill="#fff" d="M123-20c0 25-40 26-40 0v-459c-1-25 40-26 40 0v169l-17 26c10-127 72-223 203-231 17 1 48 3 46 23-3 35-32 13-57 12-84 7-134 73-160 138-34 85-15 213-15 322" id="ac"/><path fill="#fff" d="M587-681c-1-24 38-26 38 0v659c2 21-26 29-37 14L124-642l14-7v632c1 22-38 23-38 0v-663c-2-19 23-26 33-13L595-63l-8 20v-638" id="ad"/><g id="b"><use transform="matrix(0.019999999999999997,0,0,0.019999999999999997,0,0)" xlink:href="#Z"/><use transform="matrix(0.019999999999999997,0,0,0.019999999999999997,16.58,0)" xlink:href="#aa"/><use transform="matrix(0.019999999999999997,0,0,0.019999999999999997,28.559999999999995,0)" xlink:href="#ab"/><use transform="matrix(0.019999999999999997,0,0,0.019999999999999997,34.879999999999995,0)" xlink:href="#ac"/><use transform="matrix(0.019999999999999997,0,0,0.019999999999999997,42.239999999999995,0)" xlink:href="#ad"/><use transform="matrix(0.019999999999999997,0,0,0.019999999999999997,56.739999999999995,0)" xlink:href="#ac"/></g><path fill="#fff" d="M52-253c0-179 141-296 336-252 39 10 83 26 89 61 1 18-24 27-37 14-24-35-73-48-137-47-127 7-211 94-211 224C92-98 209 1 372-36c27-9 55-25 69-42 9-17 37-14 36 7-23 52-97 81-177 81C145 5 52-97 52-253" id="ae"/><path fill="#fff" d="M83-720c-1-25 40-26 40 0v349l-25 48c12-110 92-182 203-182 118 0 178 78 178 193v292c1 25-40 26-40 0v-292c-2-93-42-155-138-155-94 0-178 61-178 155v292c1 25-40 26-40 0v-700" id="af"/><path fill="#fff" d="M83-479c-1-25 40-26 40 0v98l-25 48c13-111 98-177 212-182 120-5 179 73 179 189v306c1 25-40 26-40 0v-302c-2-94-46-155-143-155-96 0-183 60-183 155v302c1 25-40 26-40 0v-459" id="ag"/><path fill="#fff" d="M83-479c-1-25 40-26 40 0v109l-30 51c7-141 174-233 305-155 31 20 53 52 64 95l-13 9c21-82 106-135 202-135 118 0 175 77 175 194v291c2 26-40 26-40 0v-287c-2-94-42-160-139-160-96 0-178 64-178 160v287c2 26-40 26-40 0v-292c-2-91-39-155-133-155-92 0-173 62-173 155v292c1 25-40 26-40 0v-459" id="ah"/><path fill="#fff" d="M465-111c14-22 46 1 30 21C457-42 391 11 308 10 149 5 52-90 52-250c0-154 84-265 226-265 141 0 218 87 226 228 0 10-10 22-20 21H76l-6-38h403l-10 9c-2-114-78-180-185-180-119 0-185 92-187 222C88-98 211 4 372-40c38-14 72-41 93-71" id="ai"/><g id="c"><use transform="matrix(0.019999999999999997,0,0,0.019999999999999997,0,0)" xlink:href="#ad"/><use transform="matrix(0.019999999999999997,0,0,0.019999999999999997,14.499999999999998,0)" xlink:href="#aa"/><use transform="matrix(0.019999999999999997,0,0,0.019999999999999997,26.479999999999997,0)" xlink:href="#ae"/><use transform="matrix(0.019999999999999997,0,0,0.019999999999999997,36.81999999999999,0)" xlink:href="#af"/><use transform="matrix(0.019999999999999997,0,0,0.019999999999999997,48.05999999999998,0)" xlink:href="#ag"/><use transform="matrix(0.019999999999999997,0,0,0.019999999999999997,59.49999999999998,0)" xlink:href="#aa"/><use transform="matrix(0.019999999999999997,0,0,0.019999999999999997,71.47999999999999,0)" xlink:href="#ah"/><use transform="matrix(0.019999999999999997,0,0,0.019999999999999997,89.65999999999998,0)" xlink:href="#ai"/></g><path fill="#fff" d="M39-669c-16-27 26-44 38-15L337-58l-12-1 261-628c9-25 48-12 37 15L349-13c-4 16-31 17-38 0" id="aj"/><path fill="#fff" d="M299-515c153 0 246 109 246 263 0 153-94 262-246 262C148 10 52-99 52-252c0-154 95-263 247-263zm0 487c129 0 206-93 206-224 0-132-77-225-206-225S92-384 92-252c0 131 79 224 207 224" id="ak"/><g id="d"><use transform="matrix(0.019999999999999997,0,0,0.019999999999999997,0,0)" xlink:href="#aj"/><use transform="matrix(0.019999999999999997,0,0,0.019999999999999997,12.739999999999998,0)" xlink:href="#ak"/><use transform="matrix(0.019999999999999997,0,0,0.019999999999999997,24.679999999999996,0)" xlink:href="#ac"/><use transform="matrix(0.019999999999999997,0,0,0.019999999999999997,32.03999999999999,0)" xlink:href="#ag"/><use transform="matrix(0.019999999999999997,0,0,0.019999999999999997,43.48,0)" xlink:href="#aa"/><use transform="matrix(0.019999999999999997,0,0,0.019999999999999997,55.45999999999998,0)" xlink:href="#ah"/><use transform="matrix(0.019999999999999997,0,0,0.019999999999999997,73.63999999999999,0)" xlink:href="#ai"/></g><path fill="#fff" d="M100-679c-2-27 42-27 42 0v658c1 26-42 28-42 0v-658zm478 0c-2-27 42-27 42 0v658c1 26-42 28-42 0v-658zM116-380h485l-2 40H110" id="al"/><path fill="#fff" d="M83-495c-1-25 40-26 40 0v475c1 25-40 26-40 0v-475zm54-128c11 49-70 54-69 8-10-48 70-54 69-8" id="am"/><g id="e"><use transform="matrix(0.019999999999999997,0,0,0.019999999999999997,0,0)" xlink:href="#al"/><use transform="matrix(0.019999999999999997,0,0,0.019999999999999997,14.399999999999999,0)" xlink:href="#ai"/><use transform="matrix(0.019999999999999997,0,0,0.019999999999999997,25.519999999999996,0)" xlink:href="#am"/><use transform="matrix(0.019999999999999997,0,0,0.019999999999999997,29.639999999999997,0)" xlink:href="#ah"/><use transform="matrix(0.019999999999999997,0,0,0.019999999999999997,47.81999999999999,0)" xlink:href="#aa"/><use transform="matrix(0.019999999999999997,0,0,0.019999999999999997,59.79999999999999,0)" xlink:href="#ab"/><use transform="matrix(0.019999999999999997,0,0,0.019999999999999997,66.01999999999998,0)" xlink:href="#ak"/><use transform="matrix(0.019999999999999997,0,0,0.019999999999999997,77.95999999999998,0)" xlink:href="#ac"/><use transform="matrix(0.019999999999999997,0,0,0.019999999999999997,85.32,0)" xlink:href="#ab"/></g><path fill="#fff" d="M609-345c11-1 20 9 20 20-1 86 3 177-2 260-1 3-4 6-7 9-80 62-240 91-354 40C141-69 50-177 50-350s91-281 216-334c108-46 277-29 347 36 8 15-5 29-17 29-54-24-110-52-187-51-194 6-317 126-317 320S214-36 409-30c71 0 140-26 184-56l-4 18v-250l14 13H409c-25 1-26-40 0-40h200" id="an"/><path fill="#fff" d="M110-364c34-85 94-151 205-151 147 0 232 109 232 260S462 10 315 10c-109 0-166-67-205-143l13-14v127c2 26-40 25-40 0v-699c-2-26 40-26 40 0v362zm397 109c0-128-70-222-194-222-125 0-194 94-194 222 0 129 68 227 194 227 124 0 194-100 194-227" id="ao"/><path fill="#fff" d="M100-680c0-10 10-20 20-20h260c203 6 290 149 290 350S584 0 380 0H120c-10 0-20-10-20-20v-660zm528 330c0-180-76-310-258-310H136l6-8v637l-6-9h234c184-1 258-130 258-310" id="ap"/><path fill="#fff" d="M440-479c-2-26 40-26 40 0v291C482-62 402 6 281 6 161 6 83-62 83-188v-291c-1-25 40-26 40 0v291C122-88 183-32 281-32s159-56 159-156v-291" id="aq"/><g id="f"><use transform="matrix(0.019999999999999997,0,0,0.019999999999999997,0,0)" xlink:href="#an"/><use transform="matrix(0.019999999999999997,0,0,0.019999999999999997,13.879999999999997,0)" xlink:href="#ai"/><use transform="matrix(0.019999999999999997,0,0,0.019999999999999997,24.999999999999993,0)" xlink:href="#ao"/><use transform="matrix(0.019999999999999997,0,0,0.019999999999999997,36.97999999999999,0)" xlink:href="#ap"/><use transform="matrix(0.019999999999999997,0,0,0.019999999999999997,51.379999999999995,0)" xlink:href="#aa"/><use transform="matrix(0.019999999999999997,0,0,0.019999999999999997,63.35999999999998,0)" xlink:href="#ab"/><use transform="matrix(0.019999999999999997,0,0,0.019999999999999997,69.67999999999998,0)" xlink:href="#aq"/><use transform="matrix(0.019999999999999997,0,0,0.019999999999999997,80.93999999999997,0)" xlink:href="#ah"/></g><path fill="#fff" d="M414-634c-98-68-313-40-303 98 11 163 220 149 321 227 56 43 93 158 40 231-36 52-101 88-189 88-121 0-182-45-246-110-10-22 21-46 37-24 46 54 115 92 205 94 97-2 177-42 177-135 0-142-159-150-260-199-68-33-131-72-128-171 4-117 96-175 220-175 91 0 178 35 206 103 0 14-25 30-37 15-12-16-26-30-43-42" id="ar"/><path fill="#fff" d="M476-720c-2-26 40-26 40 0v700c1 25-40 26-40 0v-142l16-22C480-69 404 10 284 10 137 10 52-103 52-253s85-262 232-262c124 0 200 82 208 206l-16-25v-386zM92-253c0 127 70 225 194 225 126 0 194-96 194-225s-69-224-194-224c-124 0-194 96-194 224" id="as"/><path fill="#fff" d="M52-253c0-153 92-262 242-262 96 0 161 53 198 114 11 20 17 40 17 59-19-31-12-88-13-137-2-26 40-26 40 0v430c1 182-139 281-326 239-39-11-88-26-95-61 0-21 26-24 35-7 28 27 84 39 142 40 125 3 205-88 204-211v-99l10 1C478-52 408 10 294 10 144 10 52-100 52-253zm448 0c0-132-75-224-204-224-128 0-204 93-204 224 0 130 76 225 204 225s204-93 204-225" id="at"/><g id="g"><use transform="matrix(0.019999999999999997,0,0,0.019999999999999997,0,0)" xlink:href="#ar"/><use transform="matrix(0.019999999999999997,0,0,0.019999999999999997,10.999999999999998,0)" xlink:href="#ab"/><use transform="matrix(0.019999999999999997,0,0,0.019999999999999997,17.319999999999997,0)" xlink:href="#aq"/><use transform="matrix(0.019999999999999997,0,0,0.019999999999999997,28.579999999999995,0)" xlink:href="#as"/><use transform="matrix(0.019999999999999997,0,0,0.019999999999999997,40.559999999999995,0)" xlink:href="#am"/><use transform="matrix(0.019999999999999997,0,0,0.019999999999999997,44.67999999999999,0)" xlink:href="#ai"/><use transform="matrix(0.019999999999999997,0,0,0.019999999999999997,55.79999999999999,0)" xlink:href="#ag"/><use transform="matrix(0.019999999999999997,0,0,0.019999999999999997,67.23999999999998,0)" xlink:href="#at"/><use transform="matrix(0.019999999999999997,0,0,0.019999999999999997,79.51999999999998,0)" xlink:href="#aa"/><use transform="matrix(0.019999999999999997,0,0,0.019999999999999997,91.49999999999999,0)" xlink:href="#ag"/><use transform="matrix(0.019999999999999997,0,0,0.019999999999999997,102.93999999999998,0)" xlink:href="#at"/></g><path fill="#232b2b" d="M243-20c1 26-42 26-42 0v-634l10 6c-55 34-105 74-164 105-19 0-31-27-11-39 63-37 120-81 184-118 14-1 23 6 23 20v660" id="au"/><path fill="#232b2b" d="M268-700c134-3 225 121 176 256-18 40-50 75-88 93l-3-4c67 28 124 83 124 176C477-63 387 7 268 10 124 13 21-116 77-258c21-44 61-78 105-96l-2 4c-55-29-104-82-104-164 0-113 80-184 192-186zm0 40c-87-2-152 60-150 146 3 90 63 147 150 147s146-58 149-147c2-85-63-148-149-146zM102-179c-1 89 72 149 166 149 93 0 168-60 167-149-4-94-72-152-167-152-94 0-162 58-166 152" id="av"/><path fill="#232b2b" d="M380-20c1 25-40 26-40 0v-625l11 8L65-252l-3-11h394c26-2 26 38 0 38H35c-16 1-25-21-15-34l323-433c11-15 37-7 37 12v660" id="aw"/><path fill="#232b2b" d="M419-221c0-131-101-190-233-177-20 1-24-25-12-39l212-232 6 14H70c-25 1-26-40 0-40h346c20-2 25 24 14 36L219-427l-20-6c1-5 36-9 43-9 130 7 219 82 219 221 0 142-99 231-239 231-70 0-127-26-160-70-9-22 21-41 37-20 25 32 68 48 123 48 116-4 197-73 197-189" id="ax"/><path fill="#232b2b" d="M480-242C484-63 329 34 148-15c-30-11-60-26-81-49-9-18 16-43 32-25 33 28 78 47 133 48 127-2 208-72 208-198 0-119-77-183-198-185-64-3-111 34-157 46-12-1-19-10-17-24l47-275c2-8 10-17 22-17h305c26-1 26 42 0 42H145l9-9-46 249-20-5c42-25 100-46 169-46 135 5 220 85 223 221" id="ay"/><path fill="#232b2b" d="M188-692c143-53 294 24 285 175-7 108-64 167-132 245L126-28l-9-12h362c25-1 26 40 0 40H93C74 2 60-18 73-34l235-262c62-70 113-121 121-217 9-119-116-189-231-143-49 18-85 57-106 100-19 12-41-6-27-30 26-45 72-85 123-106" id="az"/><g id="h"><use transform="matrix(0.019999999999999997,0,0,0.019999999999999997,0,0)" xlink:href="#au"/><use transform="matrix(0.019999999999999997,0,0,0.019999999999999997,7.259999999999999,0)" xlink:href="#av"/><use transform="matrix(0.019999999999999997,0,0,0.019999999999999997,17.999999999999996,0)" xlink:href="#aw"/><use transform="matrix(0.019999999999999997,0,0,0.019999999999999997,28.119999999999997,0)" xlink:href="#ax"/><use transform="matrix(0.019999999999999997,0,0,0.019999999999999997,38.5,0)" xlink:href="#ay"/><use transform="matrix(0.019999999999999997,0,0,0.019999999999999997,49.199999999999996,0)" xlink:href="#az"/></g><path fill="#232b2b" d="M100-680c-2-20 27-27 38-11l287 427h-20l287-427c11-18 37-7 37 11v660c1 25-43 26-42 0v-615h11c-92 137-181 277-274 413-8 5-23 1-25-6L124-643h16v623c1 25-40 26-40 0v-660" id="aA"/><path fill="#232b2b" d="M440-479c-2-26 40-26 40 0v291C482-62 402 6 281 6 161 6 83-62 83-188v-291c-1-25 40-26 40 0v291C122-88 183-32 281-32s159-56 159-156v-291zm-42-164c0 26-11 44-34 44-24 0-35-18-35-44 0-21 15-36 36-36 19 0 33 16 33 36zm-163 0c0 26-11 44-34 44-24 0-35-18-35-44 0-21 15-36 36-36 19 0 33 16 33 36" id="aB"/><path fill="#232b2b" d="M52-253c0-179 141-296 336-252 39 10 83 26 89 61 1 18-24 27-37 14-24-35-73-48-137-47-127 7-211 94-211 224C92-98 209 1 372-36c27-9 55-25 69-42 9-17 37-14 36 7-23 52-97 81-177 81C145 5 52-97 52-253" id="aC"/><path fill="#232b2b" d="M128-20c2 26-40 26-40 0v-700c-2-26 40-26 40 0v700zm314-479c18-20 47 13 26 30L121-180l-2-48zm33 464c19 18-10 48-29 28L204-265l30-26" id="aD"/><g id="i"><use transform="matrix(0.019999999999999997,0,0,0.019999999999999997,0,0)" xlink:href="#aA"/><use transform="matrix(0.019999999999999997,0,0,0.019999999999999997,16.58,0)" xlink:href="#aB"/><use transform="matrix(0.019999999999999997,0,0,0.019999999999999997,27.839999999999996,0)" xlink:href="#Y"/><use transform="matrix(0.019999999999999997,0,0,0.019999999999999997,39.279999999999994,0)" xlink:href="#aC"/><use transform="matrix(0.019999999999999997,0,0,0.019999999999999997,49.61999999999999,0)" xlink:href="#aD"/></g><path fill="#232b2b" d="M100-680c0-10 10-20 20-20h240c118 3 189 73 189 191s-70 198-189 198H138l4-7v298c1 25-42 27-42 0v-660zm407 171c0-94-53-151-147-151H139l3-5v317l-4-3h222c95-2 147-64 147-158" id="aE"/><path fill="#232b2b" d="M83-720c-1-25 40-26 40 0v349l-25 48c12-110 92-182 203-182 118 0 178 78 178 193v292c1 25-40 26-40 0v-292c-2-93-42-155-138-155-94 0-178 61-178 155v292c1 25-40 26-40 0v-700" id="aF"/><path fill="#232b2b" d="M88-720c-1-25 40-26 40 0v700c1 25-40 26-40 0v-700" id="aG"/><path fill="#232b2b" d="M110-364c32-84 94-141 205-141 146 0 232 106 232 255C547-83 426 39 252-4c-69-17-112-68-142-129l13-14v327c2 26-40 25-40 0v-665c-2-26 40-26 40 0v128zm397 114c0-126-71-217-194-217-124 0-194 90-194 217 0 126 70 218 194 218 123 0 194-92 194-218" id="aH"/><g id="j"><use transform="matrix(0.019999999999999997,0,0,0.019999999999999997,0,0)" xlink:href="#aE"/><use transform="matrix(0.019999999999999997,0,0,0.019999999999999997,11.879999999999999,0)" xlink:href="#aF"/><use transform="matrix(0.019999999999999997,0,0,0.019999999999999997,23.119999999999997,0)" xlink:href="#V"/><use transform="matrix(0.019999999999999997,0,0,0.019999999999999997,27.239999999999995,0)" xlink:href="#aG"/><use transform="matrix(0.019999999999999997,0,0,0.019999999999999997,31.559999999999995,0)" xlink:href="#V"/><use transform="matrix(0.019999999999999997,0,0,0.019999999999999997,35.67999999999999,0)" xlink:href="#aH"/><use transform="matrix(0.019999999999999997,0,0,0.019999999999999997,47.65999999999999,0)" xlink:href="#aH"/></g><path fill="#232b2b" d="M476-479c-2-26 40-26 40 0v459c1 25-40 26-40 0v-142l16-13C479-64 402 10 284 10 136 10 52-104 52-255s85-260 232-260c126 0 201 80 208 206l-16-25v-145zM92-255c0 129 69 227 194 227s194-98 194-227c0-126-71-222-194-222-124 0-194 94-194 222" id="aI"/><path fill="#232b2b" d="M404-186C470-34 286 55 142-11c-32-14-61-37-87-69-21-23 12-49 29-29 33 46 85 83 162 83 69-3 133-29 133-98 0-125-181-91-253-156-29-22-52-51-52-99-6-157 248-172 323-69 22 14-8 48-25 28-30-35-74-56-134-57-68 3-124 30-126 98 23 136 242 77 292 193" id="aJ"/><g id="k"><use transform="matrix(0.019999999999999997,0,0,0.019999999999999997,0,0)" xlink:href="#R"/><use transform="matrix(0.019999999999999997,0,0,0.019999999999999997,10.999999999999998,0)" xlink:href="#aI"/><use transform="matrix(0.019999999999999997,0,0,0.019999999999999997,22.979999999999997,0)" xlink:href="#X"/><use transform="matrix(0.019999999999999997,0,0,0.019999999999999997,30.339999999999996,0)" xlink:href="#aJ"/><use transform="matrix(0.019999999999999997,0,0,0.019999999999999997,39.63999999999999,0)" xlink:href="#S"/><use transform="matrix(0.019999999999999997,0,0,0.019999999999999997,45.85999999999999,0)" xlink:href="#W"/><use transform="matrix(0.019999999999999997,0,0,0.019999999999999997,56.97999999999999,0)" xlink:href="#U"/><use transform="matrix(0.019999999999999997,0,0,0.019999999999999997,68.96,0)" xlink:href="#S"/></g><path fill="#232b2b" d="M77-85c45-8 43 94 0 85-38 4-39-88 0-85" id="aK"/><path fill="#232b2b" d="M528-350c0 185-54 360-234 360C115 10 60-164 60-350s55-360 234-360c180 0 234 174 234 360zm-426 0c0 162 40 318 192 318s192-156 192-318-39-318-192-318-192 156-192 318" id="aL"/><g id="l"><use transform="matrix(0.019999999999999997,0,0,0.019999999999999997,0,0)" xlink:href="#au"/><use transform="matrix(0.019999999999999997,0,0,0.019999999999999997,7.259999999999999,0)" xlink:href="#ay"/><use transform="matrix(0.019999999999999997,0,0,0.019999999999999997,17.559999999999995,0)" xlink:href="#aK"/><use transform="matrix(0.019999999999999997,0,0,0.019999999999999997,20.719999999999995,0)" xlink:href="#aL"/><use transform="matrix(0.019999999999999997,0,0,0.019999999999999997,32.47999999999999,0)" xlink:href="#av"/><use transform="matrix(0.019999999999999997,0,0,0.019999999999999997,43.219999999999985,0)" xlink:href="#aK"/><use transform="matrix(0.019999999999999997,0,0,0.019999999999999997,46.37999999999998,0)" xlink:href="#av"/><use transform="matrix(0.019999999999999997,0,0,0.019999999999999997,57.119999999999976,0)" xlink:href="#aL"/></g><path fill="#232b2b" d="M40-488c-13-25 29-42 37-16L226-45h-17l142-352c4-18 31-15 38 0L542-44h-20l147-460c7-25 46-12 37 16L551-13c-6 16-31 18-38 0L359-360l15 5L238-13c-4 18-34 16-38 0" id="aM"/><path fill="#232b2b" d="M127-615c-3-76 45-118 112-120 27 2 67 2 70 28-6 39-46 7-74 8-48 2-68 33-68 84v595c1 25-40 26-40 0v-595zM47-455c-23 1-25-38 0-38h238c25-2 25 38 0 38H47" id="aN"/><g id="m"><use transform="matrix(0.019999999999999997,0,0,0.019999999999999997,0,0)" xlink:href="#aA"/><use transform="matrix(0.019999999999999997,0,0,0.019999999999999997,16.58,0)" xlink:href="#T"/><use transform="matrix(0.019999999999999997,0,0,0.019999999999999997,27.839999999999996,0)" xlink:href="#aJ"/><use transform="matrix(0.019999999999999997,0,0,0.019999999999999997,37.13999999999999,0)" xlink:href="#V"/><use transform="matrix(0.019999999999999997,0,0,0.019999999999999997,41.25999999999999,0)" xlink:href="#aD"/><use transform="matrix(0.019999999999999997,0,0,0.019999999999999997,51.739999999999995,0)" xlink:href="#aM"/><use transform="matrix(0.019999999999999997,0,0,0.019999999999999997,66.65999999999998,0)" xlink:href="#V"/><use transform="matrix(0.019999999999999997,0,0,0.019999999999999997,70.77999999999999,0)" xlink:href="#aJ"/><use transform="matrix(0.019999999999999997,0,0,0.019999999999999997,80.07999999999998,0)" xlink:href="#aJ"/><use transform="matrix(0.019999999999999997,0,0,0.019999999999999997,89.37999999999998,0)" xlink:href="#W"/><use transform="matrix(0.019999999999999997,0,0,0.019999999999999997,100.49999999999997,0)" xlink:href="#Y"/><use transform="matrix(0.019999999999999997,0,0,0.019999999999999997,111.93999999999997,0)" xlink:href="#aJ"/><use transform="matrix(0.019999999999999997,0,0,0.019999999999999997,121.23999999999997,0)" xlink:href="#aC"/><use transform="matrix(0.019999999999999997,0,0,0.019999999999999997,131.57999999999996,0)" xlink:href="#aF"/><use transform="matrix(0.019999999999999997,0,0,0.019999999999999997,142.81999999999996,0)" xlink:href="#aI"/><use transform="matrix(0.019999999999999997,0,0,0.019999999999999997,154.79999999999995,0)" xlink:href="#aN"/><use transform="matrix(0.019999999999999997,0,0,0.019999999999999997,161.53999999999996,0)" xlink:href="#S"/><use transform="matrix(0.019999999999999997,0,0,0.019999999999999997,167.75999999999996,0)" xlink:href="#W"/><use transform="matrix(0.019999999999999997,0,0,0.019999999999999997,178.87999999999997,0)" xlink:href="#Y"/></g><g id="n"><use transform="matrix(0.019999999999999997,0,0,0.019999999999999997,0,0)" xlink:href="#au"/><use transform="matrix(0.019999999999999997,0,0,0.019999999999999997,7.259999999999999,0)" xlink:href="#av"/><use transform="matrix(0.019999999999999997,0,0,0.019999999999999997,17.999999999999996,0)" xlink:href="#aL"/><use transform="matrix(0.019999999999999997,0,0,0.019999999999999997,29.759999999999994,0)" xlink:href="#az"/><use transform="matrix(0.019999999999999997,0,0,0.019999999999999997,40.739999999999995,0)" xlink:href="#az"/><use transform="matrix(0.019999999999999997,0,0,0.019999999999999997,51.31999999999999,0)" xlink:href="#aw"/></g><path fill="#232b2b" d="M140-20c2 26-40 26-40 0v-660c0-10 10-20 20-20h377c25-1 26 40 0 40H137l3-4v288l-4-8h316c25-1 26 40 0 40H134l6-8v332" id="aO"/><g id="o"><use transform="matrix(0.019999999999999997,0,0,0.019999999999999997,0,0)" xlink:href="#aO"/><use transform="matrix(0.019999999999999997,0,0,0.019999999999999997,11.159999999999998,0)" xlink:href="#X"/><use transform="matrix(0.019999999999999997,0,0,0.019999999999999997,18.08,0)" xlink:href="#W"/><use transform="matrix(0.019999999999999997,0,0,0.019999999999999997,29.199999999999996,0)" xlink:href="#W"/><use transform="matrix(0.019999999999999997,0,0,0.019999999999999997,40.31999999999999,0)" xlink:href="#X"/></g><path fill="#232b2b" d="M100-679c-2-27 42-27 42 0v658c1 26-42 28-42 0v-658zm478 0c-2-27 42-27 42 0v658c1 26-42 28-42 0v-658zM116-380h485l-2 40H110" id="aP"/><g id="p"><use transform="matrix(0.019999999999999997,0,0,0.019999999999999997,0,0)" xlink:href="#aP"/><use transform="matrix(0.019999999999999997,0,0,0.019999999999999997,14.399999999999999,0)" xlink:href="#aI"/><use transform="matrix(0.019999999999999997,0,0,0.019999999999999997,26.18,0)" xlink:href="#T"/><use transform="matrix(0.019999999999999997,0,0,0.019999999999999997,37.44,0)" xlink:href="#aD"/><use transform="matrix(0.019999999999999997,0,0,0.019999999999999997,47.47999999999999,0)" xlink:href="#W"/></g><path fill="#232b2b" d="M100-680c0-10 10-20 20-20h269c134-8 212 123 159 250-21 49-63 87-127 92l-7-12c116 4 186 64 186 181C600-63 520 0 396 0H120c-10 0-20-10-20-20v-660zm423 149c0-80-55-129-139-129H131l11-19v317l-10-17h252c84-3 142-59 139-152zm35 342c0-103-67-149-167-149H138l4-6v312l-5-8h254c96-1 170-47 167-149" id="aQ"/><g id="q"><use transform="matrix(0.019999999999999997,0,0,0.019999999999999997,0,0)" xlink:href="#aQ"/><use transform="matrix(0.019999999999999997,0,0,0.019999999999999997,12.979999999999999,0)" xlink:href="#W"/><use transform="matrix(0.019999999999999997,0,0,0.019999999999999997,24.099999999999998,0)" xlink:href="#X"/><use transform="matrix(0.019999999999999997,0,0,0.019999999999999997,31.459999999999994,0)" xlink:href="#aG"/><use transform="matrix(0.019999999999999997,0,0,0.019999999999999997,35.779999999999994,0)" xlink:href="#V"/><use transform="matrix(0.019999999999999997,0,0,0.019999999999999997,39.89999999999999,0)" xlink:href="#Y"/></g><path fill="#232b2b" d="M454-695c18-2 20 16 15 28L190-11c-7 24-50 12-39-15l272-638 12 9H80c-26 2-26-40 0-40h374" id="aR"/><path fill="#232b2b" d="M60-489c0-128 86-218 215-221 188-5 262 168 214 352C444-187 344-51 188 12c-21 1-31-31-8-41 129-58 234-185 268-339l20-18c-37 70-103 123-204 123-129 0-204-99-204-226zm402-4c0-107-72-177-185-177-109 0-175 71-175 181 0 107 59 183 169 185 119-2 191-75 191-189" id="aS"/><g id="r"><use transform="matrix(0.019999999999999997,0,0,0.019999999999999997,0,0)" xlink:href="#ax"/><use transform="matrix(0.019999999999999997,0,0,0.019999999999999997,10.379999999999999,0)" xlink:href="#au"/><use transform="matrix(0.019999999999999997,0,0,0.019999999999999997,17.639999999999997,0)" xlink:href="#aK"/><use transform="matrix(0.019999999999999997,0,0,0.019999999999999997,20.799999999999997,0)" xlink:href="#aL"/><use transform="matrix(0.019999999999999997,0,0,0.019999999999999997,32.559999999999995,0)" xlink:href="#au"/><use transform="matrix(0.019999999999999997,0,0,0.019999999999999997,39.81999999999999,0)" xlink:href="#aK"/><use transform="matrix(0.019999999999999997,0,0,0.019999999999999997,42.98,0)" xlink:href="#aR"/><use transform="matrix(0.019999999999999997,0,0,0.019999999999999997,52.999999999999986,0)" xlink:href="#aS"/></g><path fill="#232b2b" d="M478-199C474-69 397 7 267 10 169 8 100-59 75-139c-1-21 34-24 39-5 22 59 77 114 153 114 106-2 169-64 169-169v-481c-2-25 42-27 42 0v481" id="aT"/><path fill="#232b2b" d="M299-515c153 0 246 109 246 263 0 153-94 262-246 262C148 10 52-99 52-252c0-154 95-263 247-263zm0 487c129 0 206-93 206-224 0-132-77-225-206-225S92-384 92-252c0 131 79 224 207 224" id="aU"/><path fill="#232b2b" d="M52-253c0-153 92-262 242-262 96 0 161 53 198 114 11 20 17 40 17 59-19-31-12-88-13-137-2-26 40-26 40 0v430c1 182-139 281-326 239-39-11-88-26-95-61 0-21 26-24 35-7 28 27 84 39 142 40 125 3 205-88 204-211v-99l10 1C478-52 408 10 294 10 144 10 52-100 52-253zm448 0c0-132-75-224-204-224-128 0-204 93-204 224 0 130 76 225 204 225s204-93 204-225" id="aV"/><g id="s"><use transform="matrix(0.019999999999999997,0,0,0.019999999999999997,0,0)" xlink:href="#aT"/><use transform="matrix(0.019999999999999997,0,0,0.019999999999999997,11.559999999999999,0)" xlink:href="#aI"/><use transform="matrix(0.019999999999999997,0,0,0.019999999999999997,23.540000000000003,0)" xlink:href="#aH"/><use transform="matrix(0.019999999999999997,0,0,0.019999999999999997,35.519999999999996,0)" xlink:href="#aI"/><use transform="matrix(0.019999999999999997,0,0,0.019999999999999997,47.49999999999999,0)" xlink:href="#Y"/><use transform="matrix(0.019999999999999997,0,0,0.019999999999999997,58.93999999999999,0)" xlink:href="#aU"/><use transform="matrix(0.019999999999999997,0,0,0.019999999999999997,70.88,0)" xlink:href="#aG"/><use transform="matrix(0.019999999999999997,0,0,0.019999999999999997,74.99999999999999,0)" xlink:href="#aU"/><use transform="matrix(0.019999999999999997,0,0,0.019999999999999997,86.93999999999998,0)" xlink:href="#aV"/><use transform="matrix(0.019999999999999997,0,0,0.019999999999999997,99.31999999999998,0)" xlink:href="#V"/><use transform="matrix(0.019999999999999997,0,0,0.019999999999999997,103.43999999999998,0)" xlink:href="#W"/></g><path fill="#232b2b" d="M503-211C503-84 418 7 288 10 99 15 26-158 74-343c45-175 143-320 301-384 23-3 31 35 8 41-132 68-230 193-268 354l-20 18c37-70 103-125 204-125 132 0 204 97 204 228zm-402 4c0 107 73 177 185 177 108 0 175-71 175-181 0-108-58-185-169-187-119 2-191 76-191 191" id="aW"/><g id="t"><use transform="matrix(0.019999999999999997,0,0,0.019999999999999997,0,0)" xlink:href="#au"/><use transform="matrix(0.019999999999999997,0,0,0.019999999999999997,7.259999999999999,0)" xlink:href="#av"/><use transform="matrix(0.019999999999999997,0,0,0.019999999999999997,17.999999999999996,0)" xlink:href="#ax"/><use transform="matrix(0.019999999999999997,0,0,0.019999999999999997,28.379999999999995,0)" xlink:href="#aw"/><use transform="matrix(0.019999999999999997,0,0,0.019999999999999997,38.49999999999999,0)" xlink:href="#aW"/><use transform="matrix(0.019999999999999997,0,0,0.019999999999999997,49.15999999999999,0)" xlink:href="#az"/></g><g id="u"><use transform="matrix(0.019999999999999997,0,0,0.019999999999999997,0,0)" xlink:href="#aE"/><use transform="matrix(0.019999999999999997,0,0,0.019999999999999997,11.879999999999999,0)" xlink:href="#V"/><use transform="matrix(0.019999999999999997,0,0,0.019999999999999997,15.999999999999998,0)" xlink:href="#W"/><use transform="matrix(0.019999999999999997,0,0,0.019999999999999997,27.119999999999997,0)" xlink:href="#aH"/><use transform="matrix(0.019999999999999997,0,0,0.019999999999999997,39.099999999999994,0)" xlink:href="#W"/><use transform="matrix(0.019999999999999997,0,0,0.019999999999999997,50.21999999999999,0)" xlink:href="#X"/></g><g id="v"><use transform="matrix(0.019999999999999997,0,0,0.019999999999999997,0,0)" xlink:href="#aE"/><use transform="matrix(0.019999999999999997,0,0,0.019999999999999997,11.68,0)" xlink:href="#W"/><use transform="matrix(0.019999999999999997,0,0,0.019999999999999997,22.799999999999997,0)" xlink:href="#S"/><use transform="matrix(0.019999999999999997,0,0,0.019999999999999997,29.019999999999996,0)" xlink:href="#W"/><use transform="matrix(0.019999999999999997,0,0,0.019999999999999997,40.13999999999999,0)" xlink:href="#X"/></g><path fill="#232b2b" d="M439-495c-2-26 40-26 40 0v446c2 179-136 282-319 238-30-11-54-18-70-39-7-16 10-34 26-24 27 15 80 41 129 38 150-5 208-119 194-287l2 25C410-39 347 7 261 10 139 9 83-63 83-183v-312c-2-26 40-26 40 0v312c1 95 39 157 138 155 94-5 178-65 178-155v-312" id="aX"/><g id="w"><use transform="matrix(0.019999999999999997,0,0,0.019999999999999997,0,0)" xlink:href="#aQ"/><use transform="matrix(0.019999999999999997,0,0,0.019999999999999997,12.999999999999998,0)" xlink:href="#X"/><use transform="matrix(0.019999999999999997,0,0,0.019999999999999997,19.919999999999998,0)" xlink:href="#aU"/><use transform="matrix(0.019999999999999997,0,0,0.019999999999999997,31.859999999999996,0)" xlink:href="#aU"/><use transform="matrix(0.019999999999999997,0,0,0.019999999999999997,43.79999999999999,0)" xlink:href="#aD"/><use transform="matrix(0.019999999999999997,0,0,0.019999999999999997,54.17999999999999,0)" xlink:href="#aG"/><use transform="matrix(0.019999999999999997,0,0,0.019999999999999997,58.2,0)" xlink:href="#aX"/><use transform="matrix(0.019999999999999997,0,0,0.019999999999999997,69.44,0)" xlink:href="#Y"/></g><g id="x"><use transform="matrix(0.019999999999999997,0,0,0.019999999999999997,0,0)" xlink:href="#aL"/><use transform="matrix(0.019999999999999997,0,0,0.019999999999999997,11.759999999999998,0)" xlink:href="#az"/><use transform="matrix(0.019999999999999997,0,0,0.019999999999999997,22.739999999999995,0)" xlink:href="#aK"/><use transform="matrix(0.019999999999999997,0,0,0.019999999999999997,25.899999999999995,0)" xlink:href="#aL"/><use transform="matrix(0.019999999999999997,0,0,0.019999999999999997,37.66,0)" xlink:href="#ay"/><use transform="matrix(0.019999999999999997,0,0,0.019999999999999997,47.959999999999994,0)" xlink:href="#aK"/><use transform="matrix(0.019999999999999997,0,0,0.019999999999999997,51.11999999999999,0)" xlink:href="#aR"/><use transform="matrix(0.019999999999999997,0,0,0.019999999999999997,61.13999999999999,0)" xlink:href="#ax"/></g><g id="y"><use transform="matrix(0.019999999999999997,0,0,0.019999999999999997,0,0)" xlink:href="#aE"/><use transform="matrix(0.019999999999999997,0,0,0.019999999999999997,11.879999999999999,0)" xlink:href="#aF"/><use transform="matrix(0.019999999999999997,0,0,0.019999999999999997,23.119999999999997,0)" xlink:href="#V"/><use transform="matrix(0.019999999999999997,0,0,0.019999999999999997,27.239999999999995,0)" xlink:href="#aG"/><use transform="matrix(0.019999999999999997,0,0,0.019999999999999997,31.359999999999996,0)" xlink:href="#aU"/><use transform="matrix(0.019999999999999997,0,0,0.019999999999999997,43.29999999999999,0)" xlink:href="#aJ"/><use transform="matrix(0.019999999999999997,0,0,0.019999999999999997,52.599999999999994,0)" xlink:href="#aU"/><use transform="matrix(0.019999999999999997,0,0,0.019999999999999997,64.53999999999999,0)" xlink:href="#aH"/><use transform="matrix(0.019999999999999997,0,0,0.019999999999999997,76.52,0)" xlink:href="#aF"/><use transform="matrix(0.019999999999999997,0,0,0.019999999999999997,87.75999999999999,0)" xlink:href="#V"/><use transform="matrix(0.019999999999999997,0,0,0.019999999999999997,91.88000000000001,0)" xlink:href="#W"/></g><g id="z"><use transform="matrix(0.019999999999999997,0,0,0.019999999999999997,0,0)" xlink:href="#au"/><use transform="matrix(0.019999999999999997,0,0,0.019999999999999997,7.259999999999999,0)" xlink:href="#av"/><use transform="matrix(0.019999999999999997,0,0,0.019999999999999997,17.999999999999996,0)" xlink:href="#ax"/><use transform="matrix(0.019999999999999997,0,0,0.019999999999999997,28.379999999999995,0)" xlink:href="#aw"/><use transform="matrix(0.019999999999999997,0,0,0.019999999999999997,38.49999999999999,0)" xlink:href="#aW"/><use transform="matrix(0.019999999999999997,0,0,0.019999999999999997,49.15999999999999,0)" xlink:href="#aL"/></g><g id="A"><use transform="matrix(0.019999999999999997,0,0,0.019999999999999997,0,0)" xlink:href="#aP"/><use transform="matrix(0.019999999999999997,0,0,0.019999999999999997,14.399999999999999,0)" xlink:href="#aI"/><use transform="matrix(0.019999999999999997,0,0,0.019999999999999997,26.379999999999995,0)" xlink:href="#aC"/><use transform="matrix(0.019999999999999997,0,0,0.019999999999999997,36.71999999999999,0)" xlink:href="#aF"/></g><g id="B"><use transform="matrix(0.019999999999999997,0,0,0.019999999999999997,0,0)" xlink:href="#aP"/><use transform="matrix(0.019999999999999997,0,0,0.019999999999999997,14.399999999999999,0)" xlink:href="#W"/><use transform="matrix(0.019999999999999997,0,0,0.019999999999999997,25.519999999999996,0)" xlink:href="#V"/><use transform="matrix(0.019999999999999997,0,0,0.019999999999999997,29.639999999999997,0)" xlink:href="#aD"/><use transform="matrix(0.019999999999999997,0,0,0.019999999999999997,39.67999999999999,0)" xlink:href="#aU"/></g><path fill="#232b2b" d="M110-364c34-85 94-151 205-151 147 0 232 109 232 260S462 10 315 10c-109 0-166-67-205-143l13-14v127c2 26-40 25-40 0v-699c-2-26 40-26 40 0v362zm397 109c0-128-70-222-194-222-125 0-194 94-194 222 0 129 68 227 194 227 124 0 194-100 194-227" id="aY"/><g id="C"><use transform="matrix(0.019999999999999997,0,0,0.019999999999999997,0,0)" xlink:href="#aP"/><use transform="matrix(0.019999999999999997,0,0,0.019999999999999997,14.399999999999999,0)" xlink:href="#W"/><use transform="matrix(0.019999999999999997,0,0,0.019999999999999997,25.519999999999996,0)" xlink:href="#T"/><use transform="matrix(0.019999999999999997,0,0,0.019999999999999997,36.779999999999994,0)" xlink:href="#aY"/><use transform="matrix(0.019999999999999997,0,0,0.019999999999999997,48.75999999999999,0)" xlink:href="#aI"/><use transform="matrix(0.019999999999999997,0,0,0.019999999999999997,60.73999999999999,0)" xlink:href="#aC"/><use transform="matrix(0.019999999999999997,0,0,0.019999999999999997,71.07999999999998,0)" xlink:href="#aF"/></g><g id="D"><use transform="matrix(0.019999999999999997,0,0,0.019999999999999997,0,0)" xlink:href="#aL"/><use transform="matrix(0.019999999999999997,0,0,0.019999999999999997,11.759999999999998,0)" xlink:href="#aW"/><use transform="matrix(0.019999999999999997,0,0,0.019999999999999997,22.419999999999998,0)" xlink:href="#aK"/><use transform="matrix(0.019999999999999997,0,0,0.019999999999999997,25.579999999999995,0)" xlink:href="#aL"/><use transform="matrix(0.019999999999999997,0,0,0.019999999999999997,37.33999999999999,0)" xlink:href="#az"/><use transform="matrix(0.019999999999999997,0,0,0.019999999999999997,48.319999999999986,0)" xlink:href="#aK"/><use transform="matrix(0.019999999999999997,0,0,0.019999999999999997,51.47999999999998,0)" xlink:href="#aR"/><use transform="matrix(0.019999999999999997,0,0,0.019999999999999997,60.69999999999998,0)" xlink:href="#aw"/></g><path fill="#232b2b" d="M100-680c-1-26 42-26 42 0v658l-18-18h363c25-1 26 40 0 40H120c-11 1-20-9-20-20v-660" id="aZ"/><path fill="#232b2b" d="M83-479c-1-25 40-26 40 0v109l-30 51c7-141 174-233 305-155 31 20 53 52 64 95l-13 9c21-82 106-135 202-135 118 0 175 77 175 194v291c2 26-40 26-40 0v-287c-2-94-42-160-139-160-96 0-178 64-178 160v287c2 26-40 26-40 0v-292c-2-91-39-155-133-155-92 0-173 62-173 155v292c1 25-40 26-40 0v-459" id="ba"/><g id="E"><use transform="matrix(0.019999999999999997,0,0,0.019999999999999997,0,0)" xlink:href="#aZ"/><use transform="matrix(0.019999999999999997,0,0,0.019999999999999997,10.439999999999998,0)" xlink:href="#W"/><use transform="matrix(0.019999999999999997,0,0,0.019999999999999997,21.559999999999995,0)" xlink:href="#aF"/><use transform="matrix(0.019999999999999997,0,0,0.019999999999999997,32.8,0)" xlink:href="#X"/><use transform="matrix(0.019999999999999997,0,0,0.019999999999999997,39.919999999999995,0)" xlink:href="#aI"/><use transform="matrix(0.019999999999999997,0,0,0.019999999999999997,51.89999999999999,0)" xlink:href="#ba"/><use transform="matrix(0.019999999999999997,0,0,0.019999999999999997,70.07999999999998,0)" xlink:href="#S"/></g><g id="F"><use transform="matrix(0.019999999999999997,0,0,0.019999999999999997,0,0)" xlink:href="#au"/><use transform="matrix(0.019999999999999997,0,0,0.019999999999999997,7.259999999999999,0)" xlink:href="#av"/><use transform="matrix(0.019999999999999997,0,0,0.019999999999999997,17.999999999999996,0)" xlink:href="#aw"/><use transform="matrix(0.019999999999999997,0,0,0.019999999999999997,28.119999999999997,0)" xlink:href="#az"/><use transform="matrix(0.019999999999999997,0,0,0.019999999999999997,39.099999999999994,0)" xlink:href="#aL"/><use transform="matrix(0.019999999999999997,0,0,0.019999999999999997,50.85999999999999,0)" xlink:href="#az"/></g><path fill="#232b2b" d="M407-515c16 0 25 20 15 34L102-33l-15-5h310c25-1 26 38 0 38H71C55 1 45-19 55-33l322-452 5 8H101c-25 1-26-38 0-38h306" id="bb"/><g id="G"><use transform="matrix(0.019999999999999997,0,0,0.019999999999999997,0,0)" xlink:href="#R"/><use transform="matrix(0.019999999999999997,0,0,0.019999999999999997,10.999999999999998,0)" xlink:href="#aI"/><use transform="matrix(0.019999999999999997,0,0,0.019999999999999997,22.979999999999997,0)" xlink:href="#Y"/><use transform="matrix(0.019999999999999997,0,0,0.019999999999999997,34.419999999999995,0)" xlink:href="#aC"/><use transform="matrix(0.019999999999999997,0,0,0.019999999999999997,44.75999999999999,0)" xlink:href="#aF"/><use transform="matrix(0.019999999999999997,0,0,0.019999999999999997,55.999999999999986,0)" xlink:href="#W"/><use transform="matrix(0.019999999999999997,0,0,0.019999999999999997,67.11999999999998,0)" xlink:href="#bb"/></g><g id="H"><use transform="matrix(0.019999999999999997,0,0,0.019999999999999997,0,0)" xlink:href="#R"/><use transform="matrix(0.019999999999999997,0,0,0.019999999999999997,10.999999999999998,0)" xlink:href="#aI"/><use transform="matrix(0.019999999999999997,0,0,0.019999999999999997,22.979999999999997,0)" xlink:href="#ba"/><use transform="matrix(0.019999999999999997,0,0,0.019999999999999997,41.16,0)" xlink:href="#T"/><use transform="matrix(0.019999999999999997,0,0,0.019999999999999997,52.419999999999995,0)" xlink:href="#W"/><use transform="matrix(0.019999999999999997,0,0,0.019999999999999997,63.53999999999999,0)" xlink:href="#aG"/></g><path fill="#232b2b" d="M318-20c1 25-40 26-40 0v-656h40v656zm243-661c1 11-9 19-20 19H55c-26 2-26-38 0-38h486c10 0 20 9 20 19" id="bc"/><g id="I"><use transform="matrix(0.019999999999999997,0,0,0.019999999999999997,0,0)" xlink:href="#bc"/><use transform="matrix(0.019999999999999997,0,0,0.019999999999999997,11.919999999999998,0)" xlink:href="#aF"/><use transform="matrix(0.019999999999999997,0,0,0.019999999999999997,23.159999999999997,0)" xlink:href="#aU"/><use transform="matrix(0.019999999999999997,0,0,0.019999999999999997,35.099999999999994,0)" xlink:href="#X"/><use transform="matrix(0.019999999999999997,0,0,0.019999999999999997,42.459999999999994,0)" xlink:href="#Y"/></g><g id="J"><use transform="matrix(0.019999999999999997,0,0,0.019999999999999997,0,0)" xlink:href="#aL"/><use transform="matrix(0.019999999999999997,0,0,0.019999999999999997,11.759999999999998,0)" xlink:href="#au"/><use transform="matrix(0.019999999999999997,0,0,0.019999999999999997,19.019999999999996,0)" xlink:href="#aK"/><use transform="matrix(0.019999999999999997,0,0,0.019999999999999997,21.379999999999995,0)" xlink:href="#au"/><use transform="matrix(0.019999999999999997,0,0,0.019999999999999997,28.639999999999997,0)" xlink:href="#az"/><use transform="matrix(0.019999999999999997,0,0,0.019999999999999997,39.61999999999999,0)" xlink:href="#aK"/><use transform="matrix(0.019999999999999997,0,0,0.019999999999999997,42.77999999999999,0)" xlink:href="#aR"/><use transform="matrix(0.019999999999999997,0,0,0.019999999999999997,52.79999999999998,0)" xlink:href="#av"/></g><path fill="#232b2b" d="M100-679c-2-27 42-27 42 0v658c1 26-42 28-42 0v-658" id="bd"/><g id="K"><use transform="matrix(0.019999999999999997,0,0,0.019999999999999997,0,0)" xlink:href="#bd"/><use transform="matrix(0.019999999999999997,0,0,0.019999999999999997,4.839999999999999,0)" xlink:href="#bd"/><use transform="matrix(0.019999999999999997,0,0,0.019999999999999997,9.679999999999998,0)" xlink:href="#aA"/></g><g id="L"><use transform="matrix(0.019999999999999997,0,0,0.019999999999999997,0,0)" xlink:href="#au"/><use transform="matrix(0.019999999999999997,0,0,0.019999999999999997,7.259999999999999,0)" xlink:href="#av"/><use transform="matrix(0.019999999999999997,0,0,0.019999999999999997,17.999999999999996,0)" xlink:href="#az"/><use transform="matrix(0.019999999999999997,0,0,0.019999999999999997,28.979999999999997,0)" xlink:href="#aS"/><use transform="matrix(0.019999999999999997,0,0,0.019999999999999997,40.08,0)" xlink:href="#aW"/><use transform="matrix(0.019999999999999997,0,0,0.019999999999999997,50.739999999999995,0)" xlink:href="#au"/></g><g id="M"><use transform="matrix(0.019999999999999997,0,0,0.019999999999999997,0,0)" xlink:href="#bc"/><use transform="matrix(0.019999999999999997,0,0,0.019999999999999997,11.919999999999998,0)" xlink:href="#aF"/><use transform="matrix(0.019999999999999997,0,0,0.019999999999999997,23.159999999999997,0)" xlink:href="#V"/><use transform="matrix(0.019999999999999997,0,0,0.019999999999999997,27.279999999999998,0)" xlink:href="#W"/><use transform="matrix(0.019999999999999997,0,0,0.019999999999999997,38.39999999999999,0)" xlink:href="#aG"/><use transform="matrix(0.019999999999999997,0,0,0.019999999999999997,42.51999999999998,0)" xlink:href="#W"/></g><g id="N"><use transform="matrix(0.019999999999999997,0,0,0.019999999999999997,0,0)" xlink:href="#aT"/><use transform="matrix(0.019999999999999997,0,0,0.019999999999999997,11.559999999999999,0)" xlink:href="#T"/><use transform="matrix(0.019999999999999997,0,0,0.019999999999999997,22.819999999999997,0)" xlink:href="#aG"/><use transform="matrix(0.019999999999999997,0,0,0.019999999999999997,27.139999999999997,0)" xlink:href="#V"/><use transform="matrix(0.019999999999999997,0,0,0.019999999999999997,31.259999999999998,0)" xlink:href="#aI"/><use transform="matrix(0.019999999999999997,0,0,0.019999999999999997,43.239999999999995,0)" xlink:href="#Y"/><use transform="matrix(0.019999999999999997,0,0,0.019999999999999997,54.67999999999999,0)" xlink:href="#W"/></g><g id="O"><use transform="matrix(0.019999999999999997,0,0,0.019999999999999997,0,0)" xlink:href="#aA"/><use transform="matrix(0.019999999999999997,0,0,0.019999999999999997,16.58,0)" xlink:href="#aI"/><use transform="matrix(0.019999999999999997,0,0,0.019999999999999997,28.559999999999995,0)" xlink:href="#aV"/><use transform="matrix(0.019999999999999997,0,0,0.019999999999999997,40.53999999999999,0)" xlink:href="#U"/><use transform="matrix(0.019999999999999997,0,0,0.019999999999999997,52.51999999999999,0)" xlink:href="#W"/><use transform="matrix(0.019999999999999997,0,0,0.019999999999999997,63.63999999999999,0)" xlink:href="#aY"/><use transform="matrix(0.019999999999999997,0,0,0.019999999999999997,75.61999999999999,0)" xlink:href="#T"/><use transform="matrix(0.019999999999999997,0,0,0.019999999999999997,86.87999999999998,0)" xlink:href="#X"/><use transform="matrix(0.019999999999999997,0,0,0.019999999999999997,93.94,0)" xlink:href="#aV"/></g><g id="P"><use transform="matrix(0.019999999999999997,0,0,0.019999999999999997,0,0)" xlink:href="#au"/><use transform="matrix(0.019999999999999997,0,0,0.019999999999999997,7.259999999999999,0)" xlink:href="#aS"/><use transform="matrix(0.019999999999999997,0,0,0.019999999999999997,17.559999999999995,0)" xlink:href="#aK"/><use transform="matrix(0.019999999999999997,0,0,0.019999999999999997,20.719999999999995,0)" xlink:href="#aL"/><use transform="matrix(0.019999999999999997,0,0,0.019999999999999997,32.47999999999999,0)" xlink:href="#ax"/><use transform="matrix(0.019999999999999997,0,0,0.019999999999999997,42.859999999999985,0)" xlink:href="#aK"/><use transform="matrix(0.019999999999999997,0,0,0.019999999999999997,46.01999999999998,0)" xlink:href="#av"/><use transform="matrix(0.019999999999999997,0,0,0.019999999999999997,56.75999999999998,0)" xlink:href="#au"/></g><path fill="#232b2b" d="M624-30c18 21-15 48-32 28L290-376l32-32zm-50-660c17-19 47 10 28 28L136-228l-9-43zM142-21c1 26-42 28-42 0v-658c-2-27 42-27 42 0v658" id="be"/><g id="Q"><use transform="matrix(0.019999999999999997,0,0,0.019999999999999997,0,0)" xlink:href="#be"/><use transform="matrix(0.019999999999999997,0,0,0.019999999999999997,13.399999999999999,0)" xlink:href="#T"/><use transform="matrix(0.019999999999999997,0,0,0.019999999999999997,24.659999999999997,0)" xlink:href="#aG"/><use transform="matrix(0.019999999999999997,0,0,0.019999999999999997,28.92,0)" xlink:href="#S"/><use transform="matrix(0.019999999999999997,0,0,0.019999999999999997,35.239999999999995,0)" xlink:href="#T"/><use transform="matrix(0.019999999999999997,0,0,0.019999999999999997,46.49999999999999,0)" xlink:href="#X"/><use transform="matrix(0.019999999999999997,0,0,0.019999999999999997,54.85999999999999,0)" xlink:href="#aM"/><use transform="matrix(0.019999999999999997,0,0,0.019999999999999997,69.77999999999999,0)" xlink:href="#V"/><use transform="matrix(0.019999999999999997,0,0,0.019999999999999997,73.89999999999999,0)" xlink:href="#aJ"/><use transform="matrix(0.019999999999999997,0,0,0.019999999999999997,83.19999999999999,0)" xlink:href="#aJ"/><use transform="matrix(0.019999999999999997,0,0,0.019999999999999997,92.49999999999999,0)" xlink:href="#W"/><use transform="matrix(0.019999999999999997,0,0,0.019999999999999997,103.61999999999999,0)" xlink:href="#Y"/><use transform="matrix(0.019999999999999997,0,0,0.019999999999999997,115.05999999999999,0)" xlink:href="#aJ"/><use transform="matrix(0.019999999999999997,0,0,0.019999999999999997,124.35999999999996,0)" xlink:href="#aC"/><use transform="matrix(0.019999999999999997,0,0,0.019999999999999997,134.69999999999996,0)" xlink:href="#aF"/><use transform="matrix(0.019999999999999997,0,0,0.019999999999999997,145.93999999999997,0)" xlink:href="#aI"/><use transform="matrix(0.019999999999999997,0,0,0.019999999999999997,157.91999999999996,0)" xlink:href="#aN"/><use transform="matrix(0.019999999999999997,0,0,0.019999999999999997,164.65999999999997,0)" xlink:href="#S"/><use transform="matrix(0.019999999999999997,0,0,0.019999999999999997,170.87999999999997,0)" xlink:href="#W"/><use transform="matrix(0.019999999999999997,0,0,0.019999999999999997,181.99999999999997,0)" xlink:href="#Y"/></g></defs></g></svg>