<svg xmlns="http://www.w3.org/2000/svg" xmlns:xlink="http://www.w3.org/1999/xlink" xmlns:lucid="lucid" width="402" height="502"><g transform="translate(-319 -139)" lucid:page-tab-id="jyk4SCIa.f0m"><g filter="url(#a)"><path d="M340 166c0-3.3 2.7-6 6-6h348c3.3 0 6 2.7 6 6v448c0 3.3-2.7 6-6 6H346c-3.3 0-6-2.7-6-6z" stroke="#5e5e5e" stroke-width="3" fill="url(#b)"/><use xlink:href="#c" transform="matrix(1,0,0,1,345,165) translate(173.39000000000001 6.666666666666659)"/><use xlink:href="#d" transform="matrix(1,0,0,1,345,165) translate(67.72888888888896 26.111111111111093)"/></g><g filter="url(#e)" stroke="#5e5e5e" stroke-width="3"><path d="M680 418c0 12.15-71.63 22-160 22s-160-9.85-160-22V242c0-12.15 71.63-22 160-22s160 9.85 160 22z" fill="url(#f)"/><path d="M680 242c0 12.15-71.63 22-160 22s-160-9.85-160-22" fill="none"/></g><path d="M430 286c0-3.3 2.7-6 6-6h168c3.3 0 6 2.7 6 6v28c0 3.3-2.7 6-6 6H436c-3.3 0-6-2.7-6-6z" stroke="#5e5e5e" stroke-width="3" fill="#fff"/><use xlink:href="#g" transform="matrix(1,0,0,1,435,285) translate(7.3555555555555685 21.527777777777775)"/><path d="M400 366c0-3.3 2.7-6 6-6h48c3.3 0 6 2.7 6 6v38c0 3.3-2.7 6-6 6h-48c-3.3 0-6-2.7-6-6z" stroke="#5e5e5e" stroke-width="3" fill="#fff"/><use xlink:href="#h" transform="matrix(1,0,0,1,405,365) translate(6.6888888888888935 27.777777777777775)"/><path d="M540 366c0-3.3 2.7-6 6-6h88c3.3 0 6 2.7 6 6v48c0 3.3-2.7 6-6 6h-88c-3.3 0-6-2.7-6-6z" stroke="#5e5e5e" stroke-width="3" fill="#fff"/><use xlink:href="#i" transform="matrix(1,0,0,1,545,365) translate(1.8977777777777902 17.777777777777775)"/><use xlink:href="#j" transform="matrix(1,0,0,1,545,365) translate(14.057777777777787 39.99999999999999)"/><path d="M480 566c0-3.3 2.7-6 6-6h68c3.3 0 6 2.7 6 6v28c0 3.3-2.7 6-6 6h-68c-3.3 0-6-2.7-6-6z" stroke="#5e5e5e" stroke-width="3" fill="#fff"/><use xlink:href="#k" transform="matrix(1,0,0,1,485,565) translate(18.520000000000003 21.527777777777775)"/><path d="M519.08 321.88l-88.16 36.24" stroke="#5e5e5e" stroke-width="2" fill="none"/><path d="M519.43 322.8l-.54-1.3h3.73zM431.1 358.5h-3.73l3.2-1.3z" stroke="#5e5e5e" stroke-width=".05" fill="#5e5e5e"/><path d="M520.88 321.97l68.24 36.06" stroke="#5e5e5e" stroke-width="2" fill="none"/><path d="M520.44 322.86l-2.58-1.36h3.3zM592.14 358.5h-3.3l.72-1.36z" stroke="#5e5e5e" stroke-width=".05" fill="#5e5e5e"/><path d="M462.5 385H520" stroke="#5e5e5e" stroke-width="2" fill="none"/><path d="M462.53 386h-1.03v-2h1.03z" stroke="#5e5e5e" stroke-width=".05" fill="#5e5e5e"/><path d="M535.26 385L521 389.64v-9.28z" stroke="#5e5e5e" stroke-width="2" fill="#5e5e5e"/><path d="M549.75 557.5v-97.97" stroke="#5e5e5e" stroke-width="2" fill="none"/><path d="M550.75 558.5h-2v-1.03h2z" stroke="#5e5e5e" stroke-width=".05" fill="#5e5e5e"/><path d="M549.75 444.26l4.64 14.27h-9.3z" stroke="#5e5e5e" stroke-width="2" fill="#5e5e5e"/><path d="M490.64 557.5v-98.1" stroke="#5e5e5e" stroke-width="2" fill="none"/><path d="M491.64 558.5h-2v-1.03h2z" stroke="#5e5e5e" stroke-width=".05" fill="#5e5e5e"/><path d="M490.64 444.14l4.63 14.26H486z" stroke="#5e5e5e" stroke-width="2" fill="#5e5e5e"/><path d="M360 486c0-3.3 2.7-6 6-6h108c3.3 0 6 2.7 6 6v48c0 3.3-2.7 6-6 6H366c-3.3 0-6-2.7-6-6z" stroke="#5e5e5e" stroke-width="3" fill="#fff"/><use xlink:href="#l" transform="matrix(1,0,0,1,365,485) translate(10.09333333333334 17.777777777777775)"/><use xlink:href="#m" transform="matrix(1,0,0,1,365,485) translate(14.09333333333334 39.99999999999999)"/><path d="M560 486c0-3.3 2.7-6 6-6h108c3.3 0 6 2.7 6 6v48c0 3.3-2.7 6-6 6H566c-3.3 0-6-2.7-6-6z" stroke="#5e5e5e" stroke-width="3" fill="#fff"/><g><use xlink:href="#l" transform="matrix(1,0,0,1,565,485) translate(10.09333333333334 17.777777777777775)"/><use xlink:href="#n" transform="matrix(1,0,0,1,565,485) translate(2.164444444444456 39.99999999999999)"/></g><defs><linearGradient gradientUnits="userSpaceOnUse" id="b" x1="340" y1="160" x2="340" y2="620"><stop offset="0%" stop-color="#fff"/><stop offset="20%" stop-color="#fff"/><stop offset="100%" stop-color="#dbdbdb"/></linearGradient><path fill-opacity="0" d="M44-477c-17-20 16-46 33-24L438-28c16 20-15 45-32 23zM77-4C63 17 29-6 46-27l175-227 24 31zm329-497c14-21 48-2 31 21L262-246l-21-35" id="o"/><use transform="matrix(0.006666666666666659,0,0,0.006666666666666659,0,0)" xlink:href="#o" id="c"/><path fill="#333" d="M140-20c2 26-40 26-40 0v-660c0-10 10-20 20-20h377c25-1 26 40 0 40H137l3-4v288l-4-8h316c25-1 26 40 0 40H134l6-8v332" id="p"/><path fill="#333" d="M476-479c-2-26 40-26 40 0v459c1 25-40 26-40 0v-142l16-13C479-64 402 10 284 10 136 10 52-104 52-255s85-260 232-260c126 0 201 80 208 206l-16-25v-145zM92-255c0 129 69 227 194 227s194-98 194-227c0-126-71-222-194-222-124 0-194 94-194 222" id="q"/><path fill="#333" d="M128-20c2 26-40 26-40 0v-700c-2-26 40-26 40 0v700zm314-479c18-20 47 13 26 30L121-180l-2-48zm33 464c19 18-10 48-29 28L204-265l30-26" id="r"/><path fill="#333" d="M37-465c-24 0-25-38 0-38h232c24-1 25 38 0 38H37zm122 356c-5 58 30 83 79 69 34 8 8 46-23 40-68 3-96-35-96-107v-523c-1-25 40-26 40 0v521" id="s"/><path fill="#333" d="M465-111c14-22 46 1 30 21C457-42 391 11 308 10 149 5 52-90 52-250c0-154 84-265 226-265 141 0 218 87 226 228 0 10-10 22-20 21H76l-6-38h403l-10 9c-2-114-78-180-185-180-119 0-185 92-187 222C88-98 211 4 372-40c38-14 72-41 93-71" id="t"/><path fill="#333" d="M83-479c-1-25 40-26 40 0v98l-25 48c13-111 98-177 212-182 120-5 179 73 179 189v306c1 25-40 26-40 0v-302c-2-94-46-155-143-155-96 0-183 60-183 155v302c1 25-40 26-40 0v-459" id="u"/><path fill="#333" d="M83-495c-1-25 40-26 40 0v475c1 25-40 26-40 0v-475zm54-128c11 49-70 54-69 8-10-48 70-54 69-8" id="v"/><path fill="#333" d="M127-615c-3-76 45-118 112-120 27 2 67 2 70 28-6 39-46 7-74 8-48 2-68 33-68 84v595c1 25-40 26-40 0v-595zM47-455c-23 1-25-38 0-38h238c25-2 25 38 0 38H47" id="w"/><path fill="#333" d="M299-515c153 0 246 109 246 263 0 153-94 262-246 262C148 10 52-99 52-252c0-154 95-263 247-263zm0 487c129 0 206-93 206-224 0-132-77-225-206-225S92-384 92-252c0 131 79 224 207 224" id="x"/><path fill="#333" d="M123-20c0 25-40 26-40 0v-459c-1-25 40-26 40 0v169l-17 26c10-127 72-223 203-231 17 1 48 3 46 23-3 35-32 13-57 12-84 7-134 73-160 138-34 85-15 213-15 322" id="y"/><path fill="#333" d="M83-479c-1-25 40-26 40 0v109l-30 51c7-141 174-233 305-155 31 20 53 52 64 95l-13 9c21-82 106-135 202-135 118 0 175 77 175 194v291c2 26-40 26-40 0v-287c-2-94-42-160-139-160-96 0-178 64-178 160v287c2 26-40 26-40 0v-292c-2-91-39-155-133-155-92 0-173 62-173 155v292c1 25-40 26-40 0v-459" id="z"/><path fill="#333" d="M404-186C470-34 286 55 142-11c-32-14-61-37-87-69-21-23 12-49 29-29 33 46 85 83 162 83 69-3 133-29 133-98 0-125-181-91-253-156-29-22-52-51-52-99-6-157 248-172 323-69 22 14-8 48-25 28-30-35-74-56-134-57-68 3-124 30-126 98 23 136 242 77 292 193" id="A"/><path fill="#333" d="M439-495c-2-26 40-26 40 0v446c2 179-136 282-319 238-30-11-54-18-70-39-7-16 10-34 26-24 27 15 80 41 129 38 150-5 208-119 194-287l2 25C410-39 347 7 261 10 139 9 83-63 83-183v-312c-2-26 40-26 40 0v312c1 95 39 157 138 155 94-5 178-65 178-155v-312" id="B"/><g id="d"><use transform="matrix(0.01777777777777777,0,0,0.01777777777777777,0,0)" xlink:href="#p"/><use transform="matrix(0.01777777777777777,0,0,0.01777777777777777,9.72444444444444,0)" xlink:href="#q"/><use transform="matrix(0.01777777777777777,0,0,0.01777777777777777,20.373333333333328,0)" xlink:href="#r"/><use transform="matrix(0.01777777777777777,0,0,0.01777777777777777,29.688888888888883,0)" xlink:href="#s"/><use transform="matrix(0.01777777777777777,0,0,0.01777777777777777,35.21777777777777,0)" xlink:href="#t"/><use transform="matrix(0.01777777777777777,0,0,0.01777777777777777,45.10222222222221,0)" xlink:href="#u"/><use transform="matrix(0.01777777777777777,0,0,0.01777777777777777,55.2711111111111,0)" xlink:href="#v"/><use transform="matrix(0.01777777777777777,0,0,0.01777777777777777,58.933333333333316,0)" xlink:href="#u"/><use transform="matrix(0.01777777777777777,0,0,0.01777777777777777,69.1022222222222,0)" xlink:href="#w"/><use transform="matrix(0.01777777777777777,0,0,0.01777777777777777,74.32888888888886,0)" xlink:href="#x"/><use transform="matrix(0.01777777777777777,0,0,0.01777777777777777,84.94222222222218,0)" xlink:href="#y"/><use transform="matrix(0.01777777777777777,0,0,0.01777777777777777,91.4844444444444,0)" xlink:href="#z"/><use transform="matrix(0.01777777777777777,0,0,0.01777777777777777,107.6444444444444,0)" xlink:href="#q"/><use transform="matrix(0.01777777777777777,0,0,0.01777777777777777,118.2933333333333,0)" xlink:href="#s"/><use transform="matrix(0.01777777777777777,0,0,0.01777777777777777,123.91111111111107,0)" xlink:href="#v"/><use transform="matrix(0.01777777777777777,0,0,0.01777777777777777,127.5733333333333,0)" xlink:href="#x"/><use transform="matrix(0.01777777777777777,0,0,0.01777777777777777,138.1866666666666,0)" xlink:href="#u"/><use transform="matrix(0.01777777777777777,0,0,0.01777777777777777,148.3555555555555,0)" xlink:href="#A"/><use transform="matrix(0.01777777777777777,0,0,0.01777777777777777,156.62222222222215,0)" xlink:href="#A"/><use transform="matrix(0.01777777777777777,0,0,0.01777777777777777,164.8888888888888,0)" xlink:href="#B"/><use transform="matrix(0.01777777777777777,0,0,0.01777777777777777,174.70222222222213,0)" xlink:href="#A"/><use transform="matrix(0.01777777777777777,0,0,0.01777777777777777,182.96888888888878,0)" xlink:href="#s"/><use transform="matrix(0.01777777777777777,0,0,0.01777777777777777,188.49777777777769,0)" xlink:href="#t"/><use transform="matrix(0.01777777777777777,0,0,0.01777777777777777,198.38222222222208,0)" xlink:href="#z"/></g><filter id="a" filterUnits="objectBoundingBox" x="-.03" y="-.01" width="1.06" height="1.04"><feOffset result="offOut" in="SourceAlpha" dy="6"/><feGaussianBlur result="blurOut" in="offOut" stdDeviation="5"/><feColorMatrix result="colorOut" in="blurOut" values="0 0 0 0 0 0 0 0 0 0 0 0 0 0 0 0 0 0 0.5019607843137255 0"/><feBlend in="SourceGraphic" in2="colorOut"/></filter><radialGradient gradientUnits="userSpaceOnUse" id="f" fx="520" fy="330" cx="520" cy="330" r="160"><stop offset="0%" stop-color="#fff"/><stop offset="53.54%" stop-color="#dfe3e8"/><stop offset="100%" stop-color="#b6bfca"/></radialGradient><filter id="e" filterUnits="objectBoundingBox" x="-.03" y="-.02" width="1.06" height="1.09"><feOffset result="offOut" in="SourceAlpha" dy="6"/><feGaussianBlur result="blurOut" in="offOut" stdDeviation="5"/><feColorMatrix result="colorOut" in="blurOut" values="0 0 0 0 0 0 0 0 0 0 0 0 0 0 0 0 0 0 0.5019607843137255 0"/><feBlend in="SourceGraphic" in2="colorOut"/></filter><path fill="#333" d="M100-680c0-10 10-20 20-20h260c203 6 290 149 290 350S584 0 380 0H120c-10 0-20-10-20-20v-660zm528 330c0-180-76-310-258-310H136l6-8v637l-6-9h234c184-1 258-130 258-310" id="C"/><path fill="#333" d="M476-720c-2-26 40-26 40 0v700c1 25-40 26-40 0v-142l16-22C480-69 404 10 284 10 137 10 52-103 52-253s85-262 232-262c124 0 200 82 208 206l-16-25v-386zM92-253c0 127 70 225 194 225 126 0 194-96 194-225s-69-224-194-224c-124 0-194 96-194 224" id="D"/><path fill="#333" d="M88-720c-1-25 40-26 40 0v700c1 25-40 26-40 0v-700" id="E"/><path fill="#333" d="M440-479c-2-26 40-26 40 0v291C482-62 402 6 281 6 161 6 83-62 83-188v-291c-1-25 40-26 40 0v291C122-88 183-32 281-32s159-56 159-156v-291" id="F"/><path fill="#333" d="M52-253c0-153 92-262 242-262 96 0 161 53 198 114 11 20 17 40 17 59-19-31-12-88-13-137-2-26 40-26 40 0v430c1 182-139 281-326 239-39-11-88-26-95-61 0-21 26-24 35-7 28 27 84 39 142 40 125 3 205-88 204-211v-99l10 1C478-52 408 10 294 10 144 10 52-100 52-253zm448 0c0-132-75-224-204-224-128 0-204 93-204 224 0 130 76 225 204 225s204-93 204-225" id="G"/><g id="g"><use transform="matrix(0.017777777777777774,0,0,0.017777777777777774,0,0)" xlink:href="#C"/><use transform="matrix(0.017777777777777774,0,0,0.017777777777777774,12.799999999999997,0)" xlink:href="#q"/><use transform="matrix(0.017777777777777774,0,0,0.017777777777777774,23.448888888888884,0)" xlink:href="#s"/><use transform="matrix(0.017777777777777774,0,0,0.017777777777777774,28.977777777777778,0)" xlink:href="#t"/><use transform="matrix(0.017777777777777774,0,0,0.017777777777777774,38.862222222222215,0)" xlink:href="#u"/><use transform="matrix(0.017777777777777774,0,0,0.017777777777777774,49.0311111111111,0)" xlink:href="#z"/><use transform="matrix(0.017777777777777774,0,0,0.017777777777777774,65.1911111111111,0)" xlink:href="#x"/><use transform="matrix(0.017777777777777774,0,0,0.017777777777777774,75.80444444444443,0)" xlink:href="#D"/><use transform="matrix(0.017777777777777774,0,0,0.017777777777777774,86.45333333333332,0)" xlink:href="#t"/><use transform="matrix(0.017777777777777774,0,0,0.017777777777777774,96.33777777777776,0)" xlink:href="#E"/><use transform="matrix(0.017777777777777774,0,0,0.017777777777777774,100.17777777777776,0)" xlink:href="#E"/><use transform="matrix(0.017777777777777774,0,0,0.017777777777777774,104.01777777777778,0)" xlink:href="#v"/><use transform="matrix(0.017777777777777774,0,0,0.017777777777777774,107.67999999999999,0)" xlink:href="#t"/><use transform="matrix(0.017777777777777774,0,0,0.017777777777777774,117.56444444444443,0)" xlink:href="#y"/><use transform="matrix(0.017777777777777774,0,0,0.017777777777777774,124.10666666666665,0)" xlink:href="#F"/><use transform="matrix(0.017777777777777774,0,0,0.017777777777777774,134.11555555555555,0)" xlink:href="#u"/><use transform="matrix(0.017777777777777774,0,0,0.017777777777777774,144.28444444444443,0)" xlink:href="#G"/></g><path fill="#333" d="M100-680c0-10 10-20 20-20h377c25-1 26 40 0 40H132l10-17v310l-12-14h322c25-1 26 40 0 40H132l10-11v317l-4-5h359c25-1 26 40 0 40H120c-10 0-20-10-20-20v-660" id="H"/><path fill="#333" d="M142-20c2 26-42 27-42 0v-660c0-10 10-20 20-20h264c146-5 236 123 182 264-21 48-62 82-114 97l-46-8c98 6 156 72 158 177 1 64 2 105 34 131 22 9 6 50-17 36-47-29-60-83-59-167 1-98-54-143-146-143H133l9-12v305zm398-498c0-85-70-142-161-142H137l5-7v325l-10-11h257c88-12 149-67 151-165" id="I"/><path fill="#333" d="M100-680c-2-20 27-27 38-11l287 427h-20l287-427c11-18 37-7 37 11v660c1 25-43 26-42 0v-615h11c-92 137-181 277-274 413-8 5-23 1-25-6L124-643h16v623c1 25-40 26-40 0v-660" id="J"/><g id="h"><use transform="matrix(0.017777777777777774,0,0,0.017777777777777774,0,0)" xlink:href="#H"/><use transform="matrix(0.017777777777777774,0,0,0.017777777777777774,10.079999999999998,0)" xlink:href="#I"/><use transform="matrix(0.017777777777777774,0,0,0.017777777777777774,21.88444444444444,0)" xlink:href="#J"/></g><g id="i"><use transform="matrix(0.017777777777777774,0,0,0.017777777777777774,0,0)" xlink:href="#I"/><use transform="matrix(0.017777777777777774,0,0,0.017777777777777774,11.715555555555554,0)" xlink:href="#t"/><use transform="matrix(0.017777777777777774,0,0,0.017777777777777774,21.599999999999994,0)" xlink:href="#E"/><use transform="matrix(0.017777777777777774,0,0,0.017777777777777774,25.439999999999994,0)" xlink:href="#q"/><use transform="matrix(0.017777777777777774,0,0,0.017777777777777774,36.08888888888888,0)" xlink:href="#s"/><use transform="matrix(0.017777777777777774,0,0,0.017777777777777774,41.706666666666656,0)" xlink:href="#v"/><use transform="matrix(0.017777777777777774,0,0,0.017777777777777774,45.36888888888887,0)" xlink:href="#x"/><use transform="matrix(0.017777777777777774,0,0,0.017777777777777774,55.982222222222205,0)" xlink:href="#u"/><use transform="matrix(0.017777777777777774,0,0,0.017777777777777774,66.15111111111109,0)" xlink:href="#t"/><use transform="matrix(0.017777777777777774,0,0,0.017777777777777774,76.03555555555555,0)" xlink:href="#u"/></g><path fill="#333" d="M309-335c24-1 25 40 0 40H79c-24 1-25-40 0-40h230" id="K"/><g id="j"><use transform="matrix(0.017777777777777774,0,0,0.017777777777777774,0,0)" xlink:href="#K"/><use transform="matrix(0.017777777777777774,0,0,0.017777777777777774,6.897777777777776,0)" xlink:href="#z"/><use transform="matrix(0.017777777777777774,0,0,0.017777777777777774,23.057777777777773,0)" xlink:href="#x"/><use transform="matrix(0.017777777777777774,0,0,0.017777777777777774,33.6711111111111,0)" xlink:href="#D"/><use transform="matrix(0.017777777777777774,0,0,0.017777777777777774,44.31999999999999,0)" xlink:href="#t"/><use transform="matrix(0.017777777777777774,0,0,0.017777777777777774,54.204444444444434,0)" xlink:href="#E"/><use transform="matrix(0.017777777777777774,0,0,0.017777777777777774,58.04444444444443,0)" xlink:href="#E"/></g><path fill="#333" d="M414-634c-98-68-313-40-303 98 11 163 220 149 321 227 56 43 93 158 40 231-36 52-101 88-189 88-121 0-182-45-246-110-10-22 21-46 37-24 46 54 115 92 205 94 97-2 177-42 177-135 0-142-159-150-260-199-68-33-131-72-128-171 4-117 96-175 220-175 91 0 178 35 206 103 0 14-25 30-37 15-12-16-26-30-43-42" id="L"/><path fill="#333" d="M320 40c149 13 292 164 440 36 10-15 37-15 37 6-21 58-102 77-176 83-145 6-186-86-320-89-33-2-51 19-77 22-20 1-29-31-9-38L376 4l92-4-147 48zm374-536c33 85 33 207 0 292C646-81 549 10 384 10 169 10 50-133 50-350c0-218 120-360 334-360 164 0 262 91 310 214zM384-30c187 0 292-130 292-320S571-670 384-670C198-670 92-540 92-350S198-30 384-30" id="M"/><path fill="#333" d="M100-680c-1-26 42-26 42 0v658l-18-18h363c25-1 26 40 0 40H120c-11 1-20-9-20-20v-660" id="N"/><g id="k"><use transform="matrix(0.017777777777777774,0,0,0.017777777777777774,0,0)" xlink:href="#L"/><use transform="matrix(0.017777777777777774,0,0,0.017777777777777774,9.777777777777775,0)" xlink:href="#M"/><use transform="matrix(0.017777777777777774,0,0,0.017777777777777774,23.679999999999993,0)" xlink:href="#N"/></g><path fill="#333" d="M110-364c34-85 94-151 205-151 147 0 232 109 232 260S462 10 315 10c-109 0-166-67-205-143l13-14v127c2 26-40 25-40 0v-699c-2-26 40-26 40 0v362zm397 109c0-128-70-222-194-222-125 0-194 94-194 222 0 129 68 227 194 227 124 0 194-100 194-227" id="O"/><g id="l"><use transform="matrix(0.017777777777777774,0,0,0.017777777777777774,0,0)" xlink:href="#C"/><use transform="matrix(0.017777777777777774,0,0,0.017777777777777774,12.799999999999997,0)" xlink:href="#q"/><use transform="matrix(0.017777777777777774,0,0,0.017777777777777774,23.448888888888884,0)" xlink:href="#s"/><use transform="matrix(0.017777777777777774,0,0,0.017777777777777774,28.977777777777778,0)" xlink:href="#t"/><use transform="matrix(0.017777777777777774,0,0,0.017777777777777774,38.862222222222215,0)" xlink:href="#u"/><use transform="matrix(0.017777777777777774,0,0,0.017777777777777774,49.0311111111111,0)" xlink:href="#O"/><use transform="matrix(0.017777777777777774,0,0,0.017777777777777774,59.68,0)" xlink:href="#q"/><use transform="matrix(0.017777777777777774,0,0,0.017777777777777774,70.32888888888888,0)" xlink:href="#u"/><use transform="matrix(0.017777777777777774,0,0,0.017777777777777774,80.49777777777778,0)" xlink:href="#r"/></g><g id="m"><use transform="matrix(0.017777777777777774,0,0,0.017777777777777774,0,0)" xlink:href="#K"/><use transform="matrix(0.017777777777777774,0,0,0.017777777777777774,6.897777777777776,0)" xlink:href="#q"/><use transform="matrix(0.017777777777777774,0,0,0.017777777777777774,17.546666666666663,0)" xlink:href="#O"/><use transform="matrix(0.017777777777777774,0,0,0.017777777777777774,28.19555555555555,0)" xlink:href="#w"/><use transform="matrix(0.017777777777777774,0,0,0.017777777777777774,34.133333333333326,0)" xlink:href="#y"/><use transform="matrix(0.017777777777777774,0,0,0.017777777777777774,40.462222222222216,0)" xlink:href="#q"/><use transform="matrix(0.017777777777777774,0,0,0.017777777777777774,51.1111111111111,0)" xlink:href="#G"/><use transform="matrix(0.017777777777777774,0,0,0.017777777777777774,61.75999999999999,0)" xlink:href="#t"/><use transform="matrix(0.017777777777777774,0,0,0.017777777777777774,71.64444444444443,0)" xlink:href="#u"/></g><path fill="#333" d="M476-479c-2-26 40-26 40 0v459c1 25-40 26-40 0v-142l16-13C479-64 402 10 284 10 136 10 52-104 52-255s85-260 232-260c126 0 201 80 208 206l-16-25v-145zM92-255c0 129 69 227 194 227s194-98 194-227c0-126-71-222-194-222-124 0-194 94-194 222zm316-388c0 26-11 44-34 44-24 0-35-18-35-44 0-21 15-36 36-36 19 0 33 16 33 36zm-163 0c0 26-11 44-34 44-24 0-35-18-35-44 0-21 15-36 36-36 19 0 33 16 33 36" id="P"/><g id="n"><use transform="matrix(0.017777777777777774,0,0,0.017777777777777774,0,0)" xlink:href="#K"/><use transform="matrix(0.017777777777777774,0,0,0.017777777777777774,6.897777777777776,0)" xlink:href="#P"/><use transform="matrix(0.017777777777777774,0,0,0.017777777777777774,17.546666666666663,0)" xlink:href="#u"/><use transform="matrix(0.017777777777777774,0,0,0.017777777777777774,27.71555555555555,0)" xlink:href="#D"/><use transform="matrix(0.017777777777777774,0,0,0.017777777777777774,38.36444444444444,0)" xlink:href="#t"/><use transform="matrix(0.017777777777777774,0,0,0.017777777777777774,48.24888888888888,0)" xlink:href="#y"/><use transform="matrix(0.017777777777777774,0,0,0.017777777777777774,54.7911111111111,0)" xlink:href="#F"/><use transform="matrix(0.017777777777777774,0,0,0.017777777777777774,64.79999999999998,0)" xlink:href="#u"/><use transform="matrix(0.017777777777777774,0,0,0.017777777777777774,74.96888888888887,0)" xlink:href="#G"/><use transform="matrix(0.017777777777777774,0,0,0.017777777777777774,85.61777777777776,0)" xlink:href="#t"/><use transform="matrix(0.017777777777777774,0,0,0.017777777777777774,95.5022222222222,0)" xlink:href="#u"/></g></defs></g></svg>