<svg xmlns="http://www.w3.org/2000/svg" xmlns:xlink="http://www.w3.org/1999/xlink" xmlns:lucid="lucid" width="760" height="632.4"><g transform="translate(0 2.8937007874014853)" lucid:page-tab-id="0_0"><path d="M505 124.55c0-3.3 2.7-6 6-6h208c3.3 0 6 2.7 6 6v50.9c0 3.3-2.7 6-6 6H511c-3.3 0-6-2.7-6-6z" stroke="#5e5e5e" stroke-width="3" fill="#fff"/><use xlink:href="#a" transform="matrix(1,0,0,1,505,118.55314960629926) translate(36.076111111111125 37.46527777777777)"/><path d="M555 420.36c0-3.32 2.7-6 6-6h108c3.3 0 6 2.68 6 6v50.44c0 3.3-2.7 6-6 6H561c-3.3 0-6-2.7-6-6z" stroke="#5e5e5e" stroke-width="3" fill="#fff"/><use xlink:href="#b" transform="matrix(1,0,0,1,555,414.35551181102346) translate(39.63166666666667 37.46527777777777)"/><path d="M100 124.55c0-3.3 2.7-6 6-6h108c3.3 0 6 2.7 6 6v50.9c0 3.3-2.7 6-6 6H106c-3.3 0-6-2.7-6-6z" stroke="#5e5e5e" stroke-width="3" fill="#fff"/><use xlink:href="#c" transform="matrix(1,0,0,1,100,118.55314960629926) translate(31.329444444444455 37.46527777777777)"/><path d="M79.45 339.87c0-3.3 2.7-6 6-6h79.02c3.3 0 6 2.7 6 6v32.3c0 3.3-2.7 6-6 6H85.45c-3.3 0-6-2.7-6-6z" stroke="#a9afb8" stroke-width="2" fill="#fff"/><use xlink:href="#d" transform="matrix(1,0,0,1,79.453125,333.87047244094504) translate(28.57833333333334 27.39583333333333)"/><path d="M301.02 250.67c0 16.94-26.87 30.67-60 30.67-33.14 0-60-13.73-60-30.67s26.86-30.67 60-30.67c33.13 0 60 13.73 60 30.67z" stroke="#5e5e5e" stroke-width="3" fill="#fff"/><use xlink:href="#e" transform="matrix(1,0,0,1,181.015625,220) translate(40.22722222222223 37.15277777777777)"/><path d="M140 250.67c0 16.94-26.86 30.67-60 30.67s-60-13.73-60-30.67S46.86 220 80 220s60 13.73 60 30.67z" stroke="#5e5e5e" stroke-width="3" fill="#fff"/><use xlink:href="#f" transform="matrix(1,0,0,1,20,220) translate(35.213888888888896 37.15277777777777)"/><path d="M505 354.45c0 17.37-26.86 31.45-60 31.45s-60-14.08-60-31.45c0-17.37 26.86-31.45 60-31.45s60 14.08 60 31.45z" stroke="#5e5e5e" stroke-width="3" fill="#fff"/><use xlink:href="#g" transform="matrix(1,0,0,1,385,323.00236220472397) translate(43.24944444444445 37.46527777777777)"/><path d="M505 445.8c0 17.37-26.86 31.45-60 31.45s-60-14.08-60-31.45c0-17.37 26.86-31.44 60-31.44s60 14.07 60 31.44z" stroke="#5e5e5e" stroke-width="3" fill="#fff"/><use xlink:href="#h" transform="matrix(1,0,0,1,385,414.35551181102346) translate(40.74277777777778 37.46527777777777)"/><path d="M505 537.16c0 17.36-26.86 31.44-60 31.44s-60-14.08-60-31.44c0-17.37 26.86-31.45 60-31.45s60 14.1 60 31.46z" stroke="#5e5e5e" stroke-width="3" fill="#fff"/><use xlink:href="#i" transform="matrix(1,0,0,1,385,505.70866141732296) translate(37.97833333333334 37.46527777777777)"/><path d="M740 48.55c0 16.57-26.86 30-60 30s-60-13.43-60-30 26.86-30 60-30 60 13.43 60 30z" stroke="#5e5e5e" stroke-width="3" fill="#fff"/><use xlink:href="#j" transform="matrix(1,0,0,1,620,18.553149606299257) translate(40.227222222222224 36.52777777777777)"/><path d="M600 48.55C600 65.92 573.14 80 540 80s-60-14.08-60-31.45c0-17.36 26.86-31.44 60-31.44s60 14.1 60 31.45z" stroke="#5e5e5e" stroke-width="3" fill="#fff"/><use xlink:href="#g" transform="matrix(1,0,0,1,480,17.106299212598515) translate(43.24944444444445 37.46527777777777)"/><path d="M357.63 108.5c2.7-1.93 7.05-1.93 9.74 0l52.76 38c2.7 1.93 2.7 5.07 0 7l-52.76 38c-2.7 1.93-7.05 1.93-9.74 0l-52.76-38c-2.7-1.93-2.7-5.07 0-7z" stroke="#5e5e5e" stroke-width="3" fill="#fff"/><use xlink:href="#k" transform="matrix(1,0,0,1,300,105) translate(47.482777777777784 51.52777777777777)"/><path d="M610.06 253.08c2.73-1.88 7.15-1.88 9.88 0l60.12 41.42c2.73 1.88 2.73 4.93 0 6.8l-60.12 41.43c-2.73 1.88-7.15 1.88-9.88 0l-60.12-41.42c-2.73-1.87-2.73-4.92 0-6.8z" stroke="#5e5e5e" stroke-width="3" fill="#fff"/><use xlink:href="#l" transform="matrix(1,0,0,1,545,249.67283464566924) translate(32.218333333333334 54.15277777777777)"/><path d="M119.8 546.7c2.84-1.66 7.48-1.66 10.33 0l45.7 26.85c2.87 1.68 2.87 4.4 0 6.08l-45.7 26.84c-2.85 1.67-7.5 1.67-10.34 0l-45.72-26.84c-2.86-1.68-2.86-4.4 0-6.08z" stroke="#a9afb8" stroke-width="2" fill="#fff"/><use xlink:href="#m" transform="matrix(1,0,0,1,68.90625,543.676377952756) translate(31.19833333333334 38.08333333333333)"/><path d="M170.47 425c0 13.8-20.38 25-45.5 25-25.14 0-45.52-11.2-45.52-25s20.38-25 45.5-25c25.14 0 45.52 11.2 45.52 25z" stroke="#a9afb8" stroke-width="2" fill="#fff"/><use xlink:href="#n" transform="matrix(1,0,0,1,79.453125,400) translate(23.318333333333342 28.95833333333333)"/><path d="M209.92 496.84c0 13.8-38.04 25-84.96 25-46.92 0-84.96-11.2-84.96-25s38.04-25 84.96-25c46.92 0 84.96 11.2 84.96 25z" stroke="#a9afb8" stroke-width="2" fill="#fff"/><use xlink:href="#o" transform="matrix(1,0,0,1,40,471.8381889763779) translate(37.91166666666669 28.95833333333333)"/><g opacity=".6"><path d="M203 346c0-3.3 2.68-6 6-6h64.03c3.32 0 6 2.7 6 6v20.03c0 3.32-2.68 6-6 6H209c-3.32 0-6-2.68-6-6z" stroke="#000" stroke-opacity="0" stroke-width="3" fill="#fff"/><use xlink:href="#p" transform="matrix(1,0,0,1,207.9984375,345) translate(3.0733333333333412 16.20833333333333)"/></g><path d="M299.96 150H223" stroke="#5e5e5e" stroke-width="3" fill="none"/><path d="M301.34 149.24l.35 2.26h-1.78v-3h1.77zM223.04 151.5h-1.54v-3h1.54z" stroke="#5e5e5e" stroke-width=".05" fill="#5e5e5e"/><path d="M425.04 150H502" stroke="#5e5e5e" stroke-width="3" fill="none"/><path d="M425.08 151.5h-1.77l.36-.74-.35-2.26h1.78zM503.5 151.5h-1.54v-3h1.54z" stroke="#5e5e5e" stroke-width=".05" fill="#5e5e5e"/><path d="M97.58 177.8H86c-3.3 0-6 2.67-6 6V217" stroke="#5e5e5e" stroke-width="3" fill="none"/><path d="M99.48 179.25l.03.04h-1.96v-3h1.13zM81.5 218.56l-1.5-.06-1.5.05v-1.6h3z" stroke="#5e5e5e" stroke-width=".05" fill="#5e5e5e"/><path d="M222.7 176.76h12.32c3.3 0 6 2.68 6 6V217" stroke="#5e5e5e" stroke-width="3" fill="none"/><path d="M222.74 178.26h-1.95l.7-2.6v-.4h1.24zM242.52 218.56l-1.5-.06-1.5.05v-1.6h3z" stroke="#5e5e5e" stroke-width=".05" fill="#5e5e5e"/><path d="M540 83v10.28c0 3.3 2.7 6 6 6h28c3.3 0 6 2.68 6 6v10.27" stroke="#5e5e5e" stroke-width="3" fill="none"/><path d="M540 81.5l1.5-.05v1.6h-3v-1.6zM581.5 117.05h-3v-1.54h3z" stroke="#5e5e5e" stroke-width=".05" fill="#5e5e5e"/><path d="M680 81.55v11c0 3.32-2.7 6-6 6h-28c-3.3 0-6 2.7-6 6v11" stroke="#5e5e5e" stroke-width="3" fill="none"/><path d="M680 80.05l1.5-.05v1.6h-3V80zM641.5 117.05h-3v-1.54h3z" stroke="#5e5e5e" stroke-width=".05" fill="#5e5e5e"/><path d="M615 184.45v64.27" stroke="#5e5e5e" stroke-width="3" fill="none"/><path d="M616.5 184.5h-3v-1.55h3zM616.5 250.27l-.18-.04h-2.5l-.32.06v-1.6h3z" stroke="#5e5e5e" stroke-width=".05" fill="#5e5e5e"/><path d="M615 347.08v64.28" stroke="#5e5e5e" stroke-width="3" fill="none"/><path d="M616.5 347.12h-3v-1.6l.18.05 2.5.02.32-.08zM616.5 412.86h-3v-1.54h3z" stroke="#5e5e5e" stroke-width=".05" fill="#5e5e5e"/><path d="M508 354.45h46.56c3.3 0 6 2.7 6 6v50.97" stroke="#5e5e5e" stroke-width="3" fill="none"/><path d="M508.04 355.95h-1.6l.06-1.5-.05-1.3-.02-.2h1.6zM562.06 412.86h-1.26l-1.74.47v-1.95h3z" stroke="#5e5e5e" stroke-width=".05" fill="#5e5e5e"/><path d="M508 537.16h50.5c3.3 0 6-2.7 6-6V479.8" stroke="#5e5e5e" stroke-width="3" fill="none"/><path d="M508.04 538.66h-1.6l.06-1.5-.05-1.3-.02-.2h1.6zM566 479.83h-3v-1.53h3z" stroke="#5e5e5e" stroke-width=".05" fill="#5e5e5e"/><path d="M508 445.58h44" stroke="#5e5e5e" stroke-width="3" fill="none"/><path d="M508.03 447.08h-1.58l.05-1.27-.05-1.3-.04-.42h1.63zM553.5 447.08h-1.54v-3h1.54z" stroke="#5e5e5e" stroke-width=".05" fill="#5e5e5e"/><path d="M38 496.84H21" stroke="#a9afb8" stroke-width="2" fill="none"/><path d="M39 496.34v.85l.04.5.02.14h-1.1v-2h1.1z" stroke="#a9afb8" stroke-width=".05" fill="#a9afb8"/><path d="M21.03 496.84H20M70.17 576.6H41" stroke="#a9afb8" stroke-width="2" fill="none"/><path d="M71.2 577.6h-1.06v-2h1z" stroke="#a9afb8" stroke-width=".05" fill="#a9afb8"/><path d="M41.03 576.6H40M179.75 576.6H199" stroke="#a9afb8" stroke-width="2" fill="none"/><path d="M179.78 577.6h-1l-.04-2h1.04z" stroke="#a9afb8" stroke-width=".05" fill="#a9afb8"/><path d="M198.97 576.6H200M77.45 425H41" stroke="#a9afb8" stroke-width="2" fill="none"/><path d="M78.45 424.98v.53l.05.5h-1.07v-2h1.08z" stroke="#a9afb8" stroke-width=".05" fill="#a9afb8"/><path d="M41.03 425H40" stroke="#a9afb8" stroke-width="2" fill="none"/><g opacity=".6"><path d="M226.95 566.57c0-3.3 2.7-6 6-6h100.1c3.33 0 6 2.7 6 6v20.04c0 3.32-2.67 6-6 6h-100.1c-3.3 0-6-2.68-6-6z" stroke="#000" stroke-opacity="0" stroke-width="3" fill="#fff"/><use xlink:href="#q" transform="matrix(1,0,0,1,231.953125,565.5736220472438) translate(0.9800000000000182 16.20833333333333)"/></g><defs><path fill="#232b2b" d="M100-680c-1-26 42-26 42 0v658l-18-18h363c25-1 26 40 0 40H120c-11 1-20-9-20-20v-660" id="r"/><path fill="#232b2b" d="M465-111c14-22 46 1 30 21C457-42 391 11 308 10 149 5 52-90 52-250c0-154 84-265 226-265 141 0 218 87 226 228 0 10-10 22-20 21H76l-6-38h403l-10 9c-2-114-78-180-185-180-119 0-185 92-187 222C88-98 211 4 372-40c38-14 72-41 93-71" id="s"/><path fill="#232b2b" d="M83-720c-1-25 40-26 40 0v349l-25 48c12-110 92-182 203-182 118 0 178 78 178 193v292c1 25-40 26-40 0v-292c-2-93-42-155-138-155-94 0-178 61-178 155v292c1 25-40 26-40 0v-700" id="t"/><path fill="#232b2b" d="M123-20c0 25-40 26-40 0v-459c-1-25 40-26 40 0v169l-17 26c10-127 72-223 203-231 17 1 48 3 46 23-3 35-32 13-57 12-84 7-134 73-160 138-34 85-15 213-15 322" id="u"/><path fill="#232b2b" d="M40-488c-13-25 26-42 37-16L262-61l-10 7 188-450c7-25 49-13 37 15L278-13c-4 18-32 15-38 0" id="v"/><path fill="#232b2b" d="M476-479c-2-26 40-26 40 0v459c1 25-40 26-40 0v-142l16-13C479-64 402 10 284 10 136 10 52-104 52-255s85-260 232-260c126 0 201 80 208 206l-16-25v-145zM92-255c0 129 69 227 194 227s194-98 194-227c0-126-71-222-194-222-124 0-194 94-194 222" id="w"/><path fill="#232b2b" d="M83-479c-1-25 40-26 40 0v98l-25 48c13-111 98-177 212-182 120-5 179 73 179 189v306c1 25-40 26-40 0v-302c-2-94-46-155-143-155-96 0-183 60-183 155v302c1 25-40 26-40 0v-459" id="x"/><path fill="#232b2b" d="M404-186C470-34 286 55 142-11c-32-14-61-37-87-69-21-23 12-49 29-29 33 46 85 83 162 83 69-3 133-29 133-98 0-125-181-91-253-156-29-22-52-51-52-99-6-157 248-172 323-69 22 14-8 48-25 28-30-35-74-56-134-57-68 3-124 30-126 98 23 136 242 77 292 193" id="y"/><path fill="#232b2b" d="M37-465c-24 0-25-38 0-38h232c24-1 25 38 0 38H37zm122 356c-5 58 30 83 79 69 34 8 8 46-23 40-68 3-96-35-96-107v-523c-1-25 40-26 40 0v521" id="z"/><path fill="#232b2b" d="M88-720c-1-25 40-26 40 0v700c1 25-40 26-40 0v-700" id="A"/><path fill="#232b2b" d="M440-479c-2-26 40-26 40 0v291C482-62 402 6 281 6 161 6 83-62 83-188v-291c-1-25 40-26 40 0v291C122-88 183-32 281-32s159-56 159-156v-291" id="B"/><path fill="#232b2b" d="M52-253c0-153 92-262 242-262 96 0 161 53 198 114 11 20 17 40 17 59-19-31-12-88-13-137-2-26 40-26 40 0v430c1 182-139 281-326 239-39-11-88-26-95-61 0-21 26-24 35-7 28 27 84 39 142 40 125 3 205-88 204-211v-99l10 1C478-52 408 10 294 10 144 10 52-100 52-253zm448 0c0-132-75-224-204-224-128 0-204 93-204 224 0 130 76 225 204 225s204-93 204-225" id="C"/><g id="a"><use transform="matrix(0.017777777777777774,0,0,0.017777777777777774,0,0)" xlink:href="#r"/><use transform="matrix(0.017777777777777774,0,0,0.017777777777777774,9.279999999999998,0)" xlink:href="#s"/><use transform="matrix(0.017777777777777774,0,0,0.017777777777777774,19.16444444444444,0)" xlink:href="#t"/><use transform="matrix(0.017777777777777774,0,0,0.017777777777777774,29.15555555555555,0)" xlink:href="#u"/><use transform="matrix(0.017777777777777774,0,0,0.017777777777777774,36.58666666666666,0)" xlink:href="#v"/><use transform="matrix(0.017777777777777774,0,0,0.017777777777777774,45.706666666666656,0)" xlink:href="#s"/><use transform="matrix(0.017777777777777774,0,0,0.017777777777777774,55.5911111111111,0)" xlink:href="#u"/><use transform="matrix(0.017777777777777774,0,0,0.017777777777777774,61.91999999999999,0)" xlink:href="#w"/><use transform="matrix(0.017777777777777774,0,0,0.017777777777777774,72.56888888888888,0)" xlink:href="#x"/><use transform="matrix(0.017777777777777774,0,0,0.017777777777777774,82.73777777777777,0)" xlink:href="#y"/><use transform="matrix(0.017777777777777774,0,0,0.017777777777777774,91.00444444444443,0)" xlink:href="#z"/><use transform="matrix(0.017777777777777774,0,0,0.017777777777777774,96.6222222222222,0)" xlink:href="#w"/><use transform="matrix(0.017777777777777774,0,0,0.017777777777777774,107.2711111111111,0)" xlink:href="#A"/><use transform="matrix(0.017777777777777774,0,0,0.017777777777777774,111.05777777777777,0)" xlink:href="#z"/><use transform="matrix(0.017777777777777774,0,0,0.017777777777777774,116.67555555555555,0)" xlink:href="#B"/><use transform="matrix(0.017777777777777774,0,0,0.017777777777777774,126.68444444444444,0)" xlink:href="#x"/><use transform="matrix(0.017777777777777774,0,0,0.017777777777777774,136.85333333333332,0)" xlink:href="#C"/></g><path fill="#232b2b" d="M100-680c0-10 10-20 20-20h269c134-8 212 123 159 250-21 49-63 87-127 92l-7-12c116 4 186 64 186 181C600-63 520 0 396 0H120c-10 0-20-10-20-20v-660zm423 149c0-80-55-129-139-129H131l11-19v317l-10-17h252c84-3 142-59 139-152zm35 342c0-103-67-149-167-149H138l4-6v312l-5-8h254c96-1 170-47 167-149" id="D"/><path fill="#232b2b" d="M52-253c0-179 141-296 336-252 39 10 83 26 89 61 1 18-24 27-37 14-24-35-73-48-137-47-127 7-211 94-211 224C92-98 209 1 372-36c27-9 55-25 69-42 9-17 37-14 36 7-23 52-97 81-177 81C145 5 52-97 52-253" id="E"/><g id="b"><use transform="matrix(0.017777777777777774,0,0,0.017777777777777774,0,0)" xlink:href="#D"/><use transform="matrix(0.017777777777777774,0,0,0.017777777777777774,11.555555555555554,0)" xlink:href="#B"/><use transform="matrix(0.017777777777777774,0,0,0.017777777777777774,21.56444444444444,0)" xlink:href="#E"/><use transform="matrix(0.017777777777777774,0,0,0.017777777777777774,30.75555555555555,0)" xlink:href="#t"/></g><path fill="#232b2b" d="M100-680c0-10 10-20 20-20h260c203 6 290 149 290 350S584 0 380 0H120c-10 0-20-10-20-20v-660zm528 330c0-180-76-310-258-310H136l6-8v637l-6-9h234c184-1 258-130 258-310" id="F"/><path fill="#232b2b" d="M299-515c153 0 246 109 246 263 0 153-94 262-246 262C148 10 52-99 52-252c0-154 95-263 247-263zm0 487c129 0 206-93 206-224 0-132-77-225-206-225S92-384 92-252c0 131 79 224 207 224" id="G"/><path fill="#232b2b" d="M407-515c16 0 25 20 15 34L102-33l-15-5h310c25-1 26 38 0 38H71C55 1 45-19 55-33l322-452 5 8H101c-25 1-26-38 0-38h306" id="H"/><g id="c"><use transform="matrix(0.017777777777777774,0,0,0.017777777777777774,0,0)" xlink:href="#F"/><use transform="matrix(0.017777777777777774,0,0,0.017777777777777774,12.942222222222219,0)" xlink:href="#G"/><use transform="matrix(0.017777777777777774,0,0,0.017777777777777774,23.377777777777773,0)" xlink:href="#H"/><use transform="matrix(0.017777777777777774,0,0,0.017777777777777774,31.679999999999993,0)" xlink:href="#s"/><use transform="matrix(0.017777777777777774,0,0,0.017777777777777774,41.56444444444443,0)" xlink:href="#x"/><use transform="matrix(0.017777777777777774,0,0,0.017777777777777774,51.73333333333332,0)" xlink:href="#z"/></g><path fill="#5e5e5e" d="M100-680c0-10 10-20 20-20h377c25-1 26 40 0 40H132l10-17v310l-12-14h322c25-1 26 40 0 40H132l10-11v317l-4-5h359c25-1 26 40 0 40H120c-10 0-20-10-20-20v-660" id="I"/><path fill="#5e5e5e" d="M83-479c-1-25 40-26 40 0v98l-25 48c13-111 98-177 212-182 120-5 179 73 179 189v306c1 25-40 26-40 0v-302c-2-94-46-155-143-155-96 0-183 60-183 155v302c1 25-40 26-40 0v-459" id="J"/><path fill="#5e5e5e" d="M37-465c-24 0-25-38 0-38h232c24-1 25 38 0 38H37zm122 356c-5 58 30 83 79 69 34 8 8 46-23 40-68 3-96-35-96-107v-523c-1-25 40-26 40 0v521" id="K"/><path fill="#5e5e5e" d="M83-495c-1-25 40-26 40 0v475c1 25-40 26-40 0v-475zm54-128c11 49-70 54-69 8-10-48 70-54 69-8" id="L"/><path fill="#5e5e5e" d="M439-495c-2-26 40-26 40 0v446c2 179-136 282-319 238-30-11-54-18-70-39-7-16 10-34 26-24 27 15 80 41 129 38 150-5 208-119 194-287l2 25C410-39 347 7 261 10 139 9 83-63 83-183v-312c-2-26 40-26 40 0v312c1 95 39 157 138 155 94-5 178-65 178-155v-312" id="M"/><g id="d"><use transform="matrix(0.013333333333333329,0,0,0.013333333333333329,0,0)" xlink:href="#I"/><use transform="matrix(0.013333333333333329,0,0,0.013333333333333329,7.559999999999998,0)" xlink:href="#J"/><use transform="matrix(0.013333333333333329,0,0,0.013333333333333329,15.186666666666662,0)" xlink:href="#K"/><use transform="matrix(0.013333333333333329,0,0,0.013333333333333329,19.399999999999995,0)" xlink:href="#L"/><use transform="matrix(0.013333333333333329,0,0,0.013333333333333329,22.14666666666666,0)" xlink:href="#K"/><use transform="matrix(0.013333333333333329,0,0,0.013333333333333329,26.359999999999992,0)" xlink:href="#M"/></g><path fill="#232b2b" d="M140-20c2 26-40 26-40 0v-660c0-10 10-20 20-20h377c25-1 26 40 0 40H137l3-4v288l-4-8h316c25-1 26 40 0 40H134l6-8v332" id="N"/><g id="e"><use transform="matrix(0.017777777777777774,0,0,0.017777777777777774,0,0)" xlink:href="#N"/><use transform="matrix(0.017777777777777774,0,0,0.017777777777777774,9.724444444444442,0)" xlink:href="#w"/><use transform="matrix(0.017777777777777774,0,0,0.017777777777777774,20.373333333333328,0)" xlink:href="#E"/><use transform="matrix(0.017777777777777774,0,0,0.017777777777777774,29.56444444444444,0)" xlink:href="#t"/></g><path fill="#232b2b" d="M587-681c-1-24 38-26 38 0v659c2 21-26 29-37 14L124-642l14-7v632c1 22-38 23-38 0v-663c-2-19 23-26 33-13L595-63l-8 20v-638" id="O"/><path fill="#232b2b" d="M83-479c-1-25 40-26 40 0v109l-30 51c7-141 174-233 305-155 31 20 53 52 64 95l-13 9c21-82 106-135 202-135 118 0 175 77 175 194v291c2 26-40 26-40 0v-287c-2-94-42-160-139-160-96 0-178 64-178 160v287c2 26-40 26-40 0v-292c-2-91-39-155-133-155-92 0-173 62-173 155v292c1 25-40 26-40 0v-459" id="P"/><g id="f"><use transform="matrix(0.017777777777777774,0,0,0.017777777777777774,0,0)" xlink:href="#O"/><use transform="matrix(0.017777777777777774,0,0,0.017777777777777774,12.888888888888886,0)" xlink:href="#w"/><use transform="matrix(0.017777777777777774,0,0,0.017777777777777774,23.537777777777773,0)" xlink:href="#P"/><use transform="matrix(0.017777777777777774,0,0,0.017777777777777774,39.69777777777777,0)" xlink:href="#s"/><path fill="#232b2b" d="M-.9 2.22h51.37v.9H-.9z"/></g><path fill="#232b2b" d="M318-20c1 25-40 26-40 0v-656h40v656zm243-661c1 11-9 19-20 19H55c-26 2-26-38 0-38h486c10 0 20 9 20 19" id="Q"/><path fill="#232b2b" d="M83-495c-1-25 40-26 40 0v475c1 25-40 26-40 0v-475zm54-128c11 49-70 54-69 8-10-48 70-54 69-8" id="R"/><g id="g"><use transform="matrix(0.017777777777777774,0,0,0.017777777777777774,0,0)" xlink:href="#Q"/><use transform="matrix(0.017777777777777774,0,0,0.017777777777777774,10.595555555555553,0)" xlink:href="#R"/><use transform="matrix(0.017777777777777774,0,0,0.017777777777777774,14.257777777777774,0)" xlink:href="#z"/><use transform="matrix(0.017777777777777774,0,0,0.017777777777777774,19.78666666666666,0)" xlink:href="#s"/><use transform="matrix(0.017777777777777774,0,0,0.017777777777777774,29.671111111111102,0)" xlink:href="#A"/></g><path fill="#232b2b" d="M100-679c-2-27 42-27 42 0v658c1 26-42 28-42 0v-658" id="S"/><path fill="#232b2b" d="M414-634c-98-68-313-40-303 98 11 163 220 149 321 227 56 43 93 158 40 231-36 52-101 88-189 88-121 0-182-45-246-110-10-22 21-46 37-24 46 54 115 92 205 94 97-2 177-42 177-135 0-142-159-150-260-199-68-33-131-72-128-171 4-117 96-175 220-175 91 0 178 35 206 103 0 14-25 30-37 15-12-16-26-30-43-42" id="T"/><g id="h"><use transform="matrix(0.017777777777777774,0,0,0.017777777777777774,0,0)" xlink:href="#S"/><use transform="matrix(0.017777777777777774,0,0,0.017777777777777774,4.3022222222222215,0)" xlink:href="#T"/><use transform="matrix(0.017777777777777774,0,0,0.017777777777777774,14.079999999999997,0)" xlink:href="#D"/><use transform="matrix(0.017777777777777774,0,0,0.017777777777777774,25.635555555555545,0)" xlink:href="#O"/><path fill="#232b2b" d="M-.9 2.22h40.3v.9H-.9z"/></g><path fill="#232b2b" d="M613-27c10 26-31 38-40 14L312-657l15 8L74-13C68 11 26-1 36-27l269-662c3-19 36-16 39 0zM142-217l14-40h324l10 40H142" id="U"/><g id="i"><use transform="matrix(0.017777777777777774,0,0,0.017777777777777774,0,0)" xlink:href="#U"/><use transform="matrix(0.017777777777777774,0,0,0.017777777777777774,11.359999999999998,0)" xlink:href="#B"/><use transform="matrix(0.017777777777777774,0,0,0.017777777777777774,21.36888888888888,0)" xlink:href="#z"/><use transform="matrix(0.017777777777777774,0,0,0.017777777777777774,26.89777777777777,0)" xlink:href="#G"/><use transform="matrix(0.017777777777777774,0,0,0.017777777777777774,37.5111111111111,0)" xlink:href="#u"/></g><path fill="#232b2b" d="M39-669c-16-27 26-44 38-15L337-58l-12-1 261-628c9-25 48-12 37 15L349-13c-4 16-31 17-38 0" id="V"/><g id="j"><use transform="matrix(0.017777777777777774,0,0,0.017777777777777774,0,0)" xlink:href="#r"/><use transform="matrix(0.017777777777777774,0,0,0.017777777777777774,8.391111111111108,0)" xlink:href="#V"/><use transform="matrix(0.017777777777777774,0,0,0.017777777777777774,20.12444444444444,0)" xlink:href="#O"/><use transform="matrix(0.017777777777777774,0,0,0.017777777777777774,33.01333333333332,0)" xlink:href="#u"/><path fill="#232b2b" d="M-.9 2.22h41.34v.9H-.9z"/></g><path fill="#232b2b" d="M476-479c-2-26 40-26 40 0v459c1 25-40 26-40 0v-142l16-13C479-64 402 10 284 10 136 10 52-104 52-255s85-260 232-260c126 0 201 80 208 206l-16-25v-145zM92-255c0 129 69 227 194 227s194-98 194-227c0-126-71-222-194-222-124 0-194 94-194 222zm316-388c0 26-11 44-34 44-24 0-35-18-35-44 0-21 15-36 36-36 19 0 33 16 33 36zm-163 0c0 26-11 44-34 44-24 0-35-18-35-44 0-21 15-36 36-36 19 0 33 16 33 36" id="W"/><g id="k"><use transform="matrix(0.017777777777777774,0,0,0.017777777777777774,0,0)" xlink:href="#t"/><use transform="matrix(0.017777777777777774,0,0,0.017777777777777774,9.99111111111111,0)" xlink:href="#W"/><use transform="matrix(0.017777777777777774,0,0,0.017777777777777774,20.639999999999997,0)" xlink:href="#A"/><use transform="matrix(0.017777777777777774,0,0,0.017777777777777774,24.426666666666662,0)" xlink:href="#z"/></g><path fill="#232b2b" d="M110-364c32-84 94-141 205-141 146 0 232 106 232 255C547-83 426 39 252-4c-69-17-112-68-142-129l13-14v327c2 26-40 25-40 0v-665c-2-26 40-26 40 0v128zm397 114c0-126-71-217-194-217-124 0-194 90-194 217 0 126 70 218 194 218 123 0 194-92 194-218" id="X"/><path fill="#232b2b" d="M127-615c-3-76 45-118 112-120 27 2 67 2 70 28-6 39-46 7-74 8-48 2-68 33-68 84v595c1 25-40 26-40 0v-595zM47-455c-23 1-25-38 0-38h238c25-2 25 38 0 38H47" id="Y"/><g id="l"><use transform="matrix(0.017777777777777774,0,0,0.017777777777777774,0,0)" xlink:href="#s"/><use transform="matrix(0.017777777777777774,0,0,0.017777777777777774,9.884444444444442,0)" xlink:href="#P"/><use transform="matrix(0.017777777777777774,0,0,0.017777777777777774,26.044444444444434,0)" xlink:href="#X"/><use transform="matrix(0.017777777777777774,0,0,0.017777777777777774,36.69333333333333,0)" xlink:href="#Y"/><use transform="matrix(0.017777777777777774,0,0,0.017777777777777774,42.6311111111111,0)" xlink:href="#R"/><use transform="matrix(0.017777777777777774,0,0,0.017777777777777774,46.29333333333332,0)" xlink:href="#s"/><use transform="matrix(0.017777777777777774,0,0,0.017777777777777774,56.17777777777777,0)" xlink:href="#t"/><use transform="matrix(0.017777777777777774,0,0,0.017777777777777774,66.16888888888887,0)" xlink:href="#A"/><use transform="matrix(0.017777777777777774,0,0,0.017777777777777774,69.95555555555555,0)" xlink:href="#z"/></g><path fill="#5e5e5e" d="M142-20c2 26-42 27-42 0v-660c0-10 10-20 20-20h264c146-5 236 123 182 264-21 48-62 82-114 97l-46-8c98 6 156 72 158 177 1 64 2 105 34 131 22 9 6 50-17 36-47-29-60-83-59-167 1-98-54-143-146-143H133l9-12v305zm398-498c0-85-70-142-161-142H137l5-7v325l-10-11h257c88-12 149-67 151-165" id="Z"/><path fill="#5e5e5e" d="M465-111c14-22 46 1 30 21C457-42 391 11 308 10 149 5 52-90 52-250c0-154 84-265 226-265 141 0 218 87 226 228 0 10-10 22-20 21H76l-6-38h403l-10 9c-2-114-78-180-185-180-119 0-185 92-187 222C88-98 211 4 372-40c38-14 72-41 93-71" id="aa"/><path fill="#5e5e5e" d="M88-720c-1-25 40-26 40 0v700c1 25-40 26-40 0v-700" id="ab"/><path fill="#5e5e5e" d="M476-479c-2-26 40-26 40 0v459c1 25-40 26-40 0v-142l16-13C479-64 402 10 284 10 136 10 52-104 52-255s85-260 232-260c126 0 201 80 208 206l-16-25v-145zM92-255c0 129 69 227 194 227s194-98 194-227c0-126-71-222-194-222-124 0-194 94-194 222" id="ac"/><path fill="#5e5e5e" d="M299-515c153 0 246 109 246 263 0 153-94 262-246 262C148 10 52-99 52-252c0-154 95-263 247-263zm0 487c129 0 206-93 206-224 0-132-77-225-206-225S92-384 92-252c0 131 79 224 207 224" id="ad"/><g id="m"><use transform="matrix(0.013333333333333329,0,0,0.013333333333333329,0,0)" xlink:href="#Z"/><use transform="matrix(0.013333333333333329,0,0,0.013333333333333329,8.786666666666664,0)" xlink:href="#aa"/><use transform="matrix(0.013333333333333329,0,0,0.013333333333333329,16.199999999999996,0)" xlink:href="#ab"/><use transform="matrix(0.013333333333333329,0,0,0.013333333333333329,19.079999999999995,0)" xlink:href="#ac"/><use transform="matrix(0.013333333333333329,0,0,0.013333333333333329,27.06666666666666,0)" xlink:href="#K"/><use transform="matrix(0.013333333333333329,0,0,0.013333333333333329,31.27999999999999,0)" xlink:href="#L"/><use transform="matrix(0.013333333333333329,0,0,0.013333333333333329,34.02666666666666,0)" xlink:href="#ad"/><use transform="matrix(0.013333333333333329,0,0,0.013333333333333329,41.98666666666665,0)" xlink:href="#J"/></g><path fill="#5e5e5e" d="M613-27c10 26-31 38-40 14L312-657l15 8L74-13C68 11 26-1 36-27l269-662c3-19 36-16 39 0zM142-217l14-40h324l10 40H142" id="ae"/><path fill="#5e5e5e" d="M123-20c0 25-40 26-40 0v-459c-1-25 40-26 40 0v169l-17 26c10-127 72-223 203-231 17 1 48 3 46 23-3 35-32 13-57 12-84 7-134 73-160 138-34 85-15 213-15 322" id="af"/><path fill="#5e5e5e" d="M110-364c34-85 94-151 205-151 147 0 232 109 232 260S462 10 315 10c-109 0-166-67-205-143l13-14v127c2 26-40 25-40 0v-699c-2-26 40-26 40 0v362zm397 109c0-128-70-222-194-222-125 0-194 94-194 222 0 129 68 227 194 227 124 0 194-100 194-227" id="ag"/><path fill="#5e5e5e" d="M440-479c-2-26 40-26 40 0v291C482-62 402 6 281 6 161 6 83-62 83-188v-291c-1-25 40-26 40 0v291C122-88 183-32 281-32s159-56 159-156v-291" id="ah"/><g id="n"><use transform="matrix(0.013333333333333329,0,0,0.013333333333333329,0,0)" xlink:href="#ae"/><use transform="matrix(0.013333333333333329,0,0,0.013333333333333329,8.586666666666664,0)" xlink:href="#K"/><use transform="matrix(0.013333333333333329,0,0,0.013333333333333329,12.799999999999997,0)" xlink:href="#K"/><use transform="matrix(0.013333333333333329,0,0,0.013333333333333329,17.01333333333333,0)" xlink:href="#af"/><use transform="matrix(0.013333333333333329,0,0,0.013333333333333329,21.919999999999995,0)" xlink:href="#L"/><use transform="matrix(0.013333333333333329,0,0,0.013333333333333329,24.66666666666666,0)" xlink:href="#ag"/><use transform="matrix(0.013333333333333329,0,0,0.013333333333333329,32.65333333333332,0)" xlink:href="#ah"/><use transform="matrix(0.013333333333333329,0,0,0.013333333333333329,40.15999999999998,0)" xlink:href="#K"/></g><path fill="#5e5e5e" d="M100-680c0-10 10-20 20-20h240c118 3 189 73 189 191s-70 198-189 198H138l4-7v298c1 25-42 27-42 0v-660zm407 171c0-94-53-151-147-151H139l3-5v317l-4-3h222c95-2 147-64 147-158" id="ai"/><path fill="#5e5e5e" d="M83-479c-1-25 40-26 40 0v109l-30 51c7-141 174-233 305-155 31 20 53 52 64 95l-13 9c21-82 106-135 202-135 118 0 175 77 175 194v291c2 26-40 26-40 0v-287c-2-94-42-160-139-160-96 0-178 64-178 160v287c2 26-40 26-40 0v-292c-2-91-39-155-133-155-92 0-173 62-173 155v292c1 25-40 26-40 0v-459" id="aj"/><path fill="#5e5e5e" d="M476-479c-2-26 40-26 40 0v459c1 25-40 26-40 0v-142l16-13C479-64 402 10 284 10 136 10 52-104 52-255s85-260 232-260c126 0 201 80 208 206l-16-25v-145zM92-255c0 129 69 227 194 227s194-98 194-227c0-126-71-222-194-222-124 0-194 94-194 222zm316-388c0 26-11 44-34 44-24 0-35-18-35-44 0-21 15-36 36-36 19 0 33 16 33 36zm-163 0c0 26-11 44-34 44-24 0-35-18-35-44 0-21 15-36 36-36 19 0 33 16 33 36" id="ak"/><path fill="#5e5e5e" d="M404-186C470-34 286 55 142-11c-32-14-61-37-87-69-21-23 12-49 29-29 33 46 85 83 162 83 69-3 133-29 133-98 0-125-181-91-253-156-29-22-52-51-52-99-6-157 248-172 323-69 22 14-8 48-25 28-30-35-74-56-134-57-68 3-124 30-126 98 23 136 242 77 292 193" id="al"/><path fill="#5e5e5e" d="M52-253c0-179 141-296 336-252 39 10 83 26 89 61 1 18-24 27-37 14-24-35-73-48-137-47-127 7-211 94-211 224C92-98 209 1 372-36c27-9 55-25 69-42 9-17 37-14 36 7-23 52-97 81-177 81C145 5 52-97 52-253" id="am"/><path fill="#5e5e5e" d="M83-720c-1-25 40-26 40 0v349l-25 48c12-110 92-182 203-182 118 0 178 78 178 193v292c1 25-40 26-40 0v-292c-2-93-42-155-138-155-94 0-178 61-178 155v292c1 25-40 26-40 0v-700" id="an"/><path fill="#5e5e5e" d="M440-479c-2-26 40-26 40 0v291C482-62 402 6 281 6 161 6 83-62 83-188v-291c-1-25 40-26 40 0v291C122-88 183-32 281-32s159-56 159-156v-291zm-42-164c0 26-11 44-34 44-24 0-35-18-35-44 0-21 15-36 36-36 19 0 33 16 33 36zm-163 0c0 26-11 44-34 44-24 0-35-18-35-44 0-21 15-36 36-36 19 0 33 16 33 36" id="ao"/><g id="o"><use transform="matrix(0.013333333333333327,0,0,0.013333333333333327,0,0)" xlink:href="#ai"/><use transform="matrix(0.013333333333333327,0,0,0.013333333333333327,7.919999999999996,0)" xlink:href="#af"/><use transform="matrix(0.013333333333333327,0,0,0.013333333333333327,12.82666666666666,0)" xlink:href="#L"/><use transform="matrix(0.013333333333333327,0,0,0.013333333333333327,15.573333333333327,0)" xlink:href="#aj"/><use transform="matrix(0.013333333333333327,0,0,0.013333333333333327,27.69333333333332,0)" xlink:href="#ak"/><use transform="matrix(0.013333333333333327,0,0,0.013333333333333327,35.679999999999986,0)" xlink:href="#af"/><use transform="matrix(0.013333333333333327,0,0,0.013333333333333327,40.58666666666665,0)" xlink:href="#al"/><use transform="matrix(0.013333333333333327,0,0,0.013333333333333327,46.78666666666665,0)" xlink:href="#am"/><use transform="matrix(0.013333333333333327,0,0,0.013333333333333327,53.67999999999998,0)" xlink:href="#an"/><use transform="matrix(0.013333333333333327,0,0,0.013333333333333327,61.173333333333304,0)" xlink:href="#ab"/><use transform="matrix(0.013333333333333327,0,0,0.013333333333333327,63.986666666666636,0)" xlink:href="#ao"/><use transform="matrix(0.013333333333333327,0,0,0.013333333333333327,71.4933333333333,0)" xlink:href="#al"/><use transform="matrix(0.013333333333333327,0,0,0.013333333333333327,77.6933333333333,0)" xlink:href="#al"/><use transform="matrix(0.013333333333333327,0,0,0.013333333333333327,83.8933333333333,0)" xlink:href="#aa"/><use transform="matrix(0.013333333333333327,0,0,0.013333333333333327,91.30666666666663,0)" xlink:href="#ab"/><path fill="#5e5e5e" d="M-.67 1.67h95.52v.67H-.67z"/></g><path fill="#232b2b" d="M100-680c0-10 10-20 20-20h377c25-1 26 40 0 40H132l10-17v310l-12-14h322c25-1 26 40 0 40H132l10-11v317l-4-5h359c25-1 26 40 0 40H120c-10 0-20-10-20-20v-660" id="ap"/><path fill="#232b2b" d="M439-495c-2-26 40-26 40 0v446c2 179-136 282-319 238-30-11-54-18-70-39-7-16 10-34 26-24 27 15 80 41 129 38 150-5 208-119 194-287l2 25C410-39 347 7 261 10 139 9 83-63 83-183v-312c-2-26 40-26 40 0v312c1 95 39 157 138 155 94-5 178-65 178-155v-312" id="aq"/><path fill="#232b2b" d="M309-335c24-1 25 40 0 40H79c-24 1-25-40 0-40h230" id="ar"/><g id="p"><use transform="matrix(0.013333333333333329,0,0,0.013333333333333329,0,0)" xlink:href="#ap"/><use transform="matrix(0.013333333333333329,0,0,0.013333333333333329,7.559999999999998,0)" xlink:href="#x"/><use transform="matrix(0.013333333333333329,0,0,0.013333333333333329,15.186666666666662,0)" xlink:href="#z"/><use transform="matrix(0.013333333333333329,0,0,0.013333333333333329,19.399999999999995,0)" xlink:href="#R"/><use transform="matrix(0.013333333333333329,0,0,0.013333333333333329,22.14666666666666,0)" xlink:href="#z"/><use transform="matrix(0.013333333333333329,0,0,0.013333333333333329,26.359999999999992,0)" xlink:href="#aq"/><use transform="matrix(0.013333333333333329,0,0,0.013333333333333329,33.853333333333325,0)" xlink:href="#ar"/><use transform="matrix(0.013333333333333329,0,0,0.013333333333333329,39.02666666666666,0)" xlink:href="#Q"/><use transform="matrix(0.013333333333333329,0,0,0.013333333333333329,45.37333333333332,0)" xlink:href="#aq"/><use transform="matrix(0.013333333333333329,0,0,0.013333333333333329,52.86666666666665,0)" xlink:href="#X"/></g><path fill="#232b2b" d="M142-20c2 26-42 27-42 0v-660c0-10 10-20 20-20h264c146-5 236 123 182 264-21 48-62 82-114 97l-46-8c98 6 156 72 158 177 1 64 2 105 34 131 22 9 6 50-17 36-47-29-60-83-59-167 1-98-54-143-146-143H133l9-12v305zm398-498c0-85-70-142-161-142H137l5-7v325l-10-11h257c88-12 149-67 151-165" id="as"/><g id="q"><use transform="matrix(0.013333333333333329,0,0,0.013333333333333329,0,0)" xlink:href="#as"/><use transform="matrix(0.013333333333333329,0,0,0.013333333333333329,8.786666666666664,0)" xlink:href="#s"/><use transform="matrix(0.013333333333333329,0,0,0.013333333333333329,16.199999999999996,0)" xlink:href="#A"/><use transform="matrix(0.013333333333333329,0,0,0.013333333333333329,19.079999999999995,0)" xlink:href="#w"/><use transform="matrix(0.013333333333333329,0,0,0.013333333333333329,27.06666666666666,0)" xlink:href="#z"/><use transform="matrix(0.013333333333333329,0,0,0.013333333333333329,31.27999999999999,0)" xlink:href="#R"/><use transform="matrix(0.013333333333333329,0,0,0.013333333333333329,34.02666666666666,0)" xlink:href="#G"/><use transform="matrix(0.013333333333333329,0,0,0.013333333333333329,41.98666666666665,0)" xlink:href="#x"/><use transform="matrix(0.013333333333333329,0,0,0.013333333333333329,49.613333333333316,0)" xlink:href="#y"/><use transform="matrix(0.013333333333333329,0,0,0.013333333333333329,55.81333333333332,0)" xlink:href="#t"/><use transform="matrix(0.013333333333333329,0,0,0.013333333333333329,63.30666666666664,0)" xlink:href="#R"/><use transform="matrix(0.013333333333333329,0,0,0.013333333333333329,66.05333333333331,0)" xlink:href="#X"/><use transform="matrix(0.013333333333333329,0,0,0.013333333333333329,74.03999999999998,0)" xlink:href="#ar"/><use transform="matrix(0.013333333333333329,0,0,0.013333333333333329,79.21333333333331,0)" xlink:href="#Q"/><use transform="matrix(0.013333333333333329,0,0,0.013333333333333329,85.55999999999997,0)" xlink:href="#aq"/><use transform="matrix(0.013333333333333329,0,0,0.013333333333333329,93.0533333333333,0)" xlink:href="#X"/></g></defs></g></svg>