<svg xmlns="http://www.w3.org/2000/svg" xmlns:xlink="http://www.w3.org/1999/xlink" xmlns:lucid="lucid" width="1620" height="705"><g transform="translate(-600 -30)" lucid:page-tab-id="0_0"><path d="M2040 316c0-3.3 2.7-6 6-6h148c3.3 0 6 2.7 6 6v128c0 3.3-2.7 6-6 6h-148c-3.3 0-6-2.7-6-6z" stroke="#5e5e5e" stroke-width="3" fill="#fff"/><use xlink:href="#a" transform="matrix(1,0,0,1,2040,309.99999999999994) translate(41.423888888888904 81.38888888888889)"/><path d="M1217.5 316c0-3.3 2.7-6 6-6h168c3.3 0 6 2.7 6 6v128c0 3.3-2.7 6-6 6h-168c-3.3 0-6-2.7-6-6z" stroke="#5e5e5e" stroke-width="3" fill="#fff"/><use xlink:href="#b" transform="matrix(1,0,0,1,1217.5,309.99999999999994) translate(30.479444444444468 81.38888888888889)"/><path d="M995.54 54c2.46-2.2 6.46-2.2 8.92 0l91.08 82c2.46 2.2 2.46 5.8 0 8l-91.08 82c-2.46 2.2-6.46 2.2-8.92 0l-91.08-82c-2.46-2.2-2.46-5.8 0-8z" stroke="#5e5e5e" stroke-width="3" fill="#fff"/><use xlink:href="#c" transform="matrix(1,0,0,1,900,50) translate(36.14611111111113 102.01388888888889)"/><use xlink:href="#d" transform="matrix(1,0,0,1,900,50) translate(121.1661111111111 102.01388888888889)"/><path d="M620 316c0-3.3 2.7-6 6-6h168c3.3 0 6 2.7 6 6v128c0 3.3-2.7 6-6 6H626c-3.3 0-6-2.7-6-6z" stroke="#5e5e5e" stroke-width="3" fill="#fff"/><use xlink:href="#e" transform="matrix(1,0,0,1,620,309.99999999999994) translate(28.13944444444447 81.38888888888889)"/><path d="M1614.58 380H1400.5" stroke="#5e5e5e" stroke-width="3" fill="none"/><path d="M1616.08 380.02l.32 1.48h-1.86v-3h1.86zM1400.54 381.5H1399v-3h1.54z" stroke="#5e5e5e" stroke-width=".05" fill="#5e5e5e"/><path d="M1815.42 380H2037" stroke="#5e5e5e" stroke-width="3" fill="none"/><path d="M1815.46 381.5h-1.86l.32-1.52-.32-1.48h1.86zM2038.5 381.5h-1.54v-3h1.54z" stroke="#5e5e5e" stroke-width=".05" fill="#5e5e5e"/><path d="M995.54 539c2.46-2.2 6.46-2.2 8.92 0l91.08 82c2.46 2.2 2.46 5.8 0 8l-91.08 82c-2.46 2.2-6.46 2.2-8.92 0l-91.08-82c-2.46-2.2-2.46-5.8 0-8z" stroke="#5e5e5e" stroke-width="3" fill="#fff"/><use xlink:href="#f" transform="matrix(1,0,0,1,900,535) translate(46.083888888888914 102.01388888888889)"/><use xlink:href="#g" transform="matrix(1,0,0,1,900,535) translate(107.21277777777777 102.01388888888889)"/><path d="M1710.54 294c2.46-2.2 6.46-2.2 8.92 0l91.08 82c2.46 2.2 2.46 5.8 0 8l-91.08 82c-2.46 2.2-6.46 2.2-8.92 0l-91.08-82c-2.46-2.2-2.46-5.8 0-8z" stroke="#5e5e5e" stroke-width="3" fill="#fff"/><use xlink:href="#h" transform="matrix(1,0,0,1,1615,289.99999999999994) translate(52.02055555555558 102.01388888888889)"/><path d="M1100.42 140h201.08c3.3 0 6 2.7 6 6v161" stroke="#5e5e5e" stroke-width="3" fill="none"/><path d="M1100.46 141.5h-1.86l.32-1.52-.32-1.48h1.86zM1309 308.5h-3v-1.54h3z" stroke="#5e5e5e" stroke-width=".05" fill="#5e5e5e"/><path d="M1307.5 453v166c0 3.3-2.7 6-6 6h-201.08" stroke="#5e5e5e" stroke-width="3" fill="none"/><path d="M1309 453.04h-3v-1.54h3zM1100.46 626.5h-1.86l.32-1.52-.32-1.48h1.86z" stroke="#5e5e5e" stroke-width=".05" fill="#5e5e5e"/><path d="M899.58 140H716c-3.3 0-6 2.7-6 6v161" stroke="#5e5e5e" stroke-width="3" fill="none"/><path d="M901.08 140.02l.32 1.48h-1.86v-3h1.86zM711.5 308.5h-3v-1.54h3z" stroke="#5e5e5e" stroke-width=".05" fill="#5e5e5e"/><path d="M710 453v166c0 3.3 2.7 6 6 6h183.58" stroke="#5e5e5e" stroke-width="3" fill="none"/><path d="M711.5 453.04h-3v-1.54h3zM901.08 625.02l.32 1.48h-1.86v-3h1.86z" stroke="#5e5e5e" stroke-width=".05" fill="#5e5e5e"/><path d="M720 566c0-3.3 2.7-6 6-6h88c3.3 0 6 2.7 6 6v38c0 3.3-2.7 6-6 6h-88c-3.3 0-6-2.7-6-6z" stroke="#000" stroke-opacity="0" fill="#fff"/><use xlink:href="#i" transform="matrix(1,0,0,1,725,565) translate(8.973333333333343 29.166666666666657)"/><use xlink:href="#j" transform="matrix(1,0,0,1,725,565) translate(67.18666666666667 29.166666666666657)"/><path d="M1200 156c0-3.3 2.7-6 6-6h88c3.3 0 6 2.7 6 6v38c0 3.3-2.7 6-6 6h-88c-3.3 0-6-2.7-6-6z" stroke="#000" stroke-opacity="0" fill="#fff"/><use xlink:href="#i" transform="matrix(1,0,0,1,1205,154.9999999999999) translate(8.573333333333345 29.166666666666657)"/><use xlink:href="#k" transform="matrix(1,0,0,1,1205,154.9999999999999) translate(66.78666666666666 29.166666666666657)"/><path d="M720 156c0-3.3 2.7-6 6-6h88c3.3 0 6 2.7 6 6v38c0 3.3-2.7 6-6 6h-88c-3.3 0-6-2.7-6-6z" stroke="#000" stroke-opacity="0" fill="#fff"/><use xlink:href="#i" transform="matrix(1,0,0,1,725,154.9999999999999) translate(11.053333333333342 29.166666666666657)"/><use xlink:href="#l" transform="matrix(1,0,0,1,725,154.9999999999999) translate(69.26666666666665 29.166666666666657)"/><path d="M1200 566c0-3.3 2.7-6 6-6h88c3.3 0 6 2.7 6 6v38c0 3.3-2.7 6-6 6h-88c-3.3 0-6-2.7-6-6z" stroke="#000" stroke-opacity="0" fill="#fff"/><use xlink:href="#i" transform="matrix(1,0,0,1,1205,565) translate(9.146666666666675 29.166666666666657)"/><use xlink:href="#m" transform="matrix(1,0,0,1,1205,565) translate(67.35999999999999 29.166666666666657)"/><path d="M1456.25 326c0-3.3 2.7-6 6-6h88c3.3 0 6 2.7 6 6v38c0 3.3-2.7 6-6 6h-88c-3.3 0-6-2.7-6-6z" stroke="#000" stroke-opacity="0" fill="#fff"/><g><use xlink:href="#i" transform="matrix(1,0,0,1,1461.25,325) translate(8.760000000000012 29.166666666666657)"/><use xlink:href="#n" transform="matrix(1,0,0,1,1461.25,325) translate(66.97333333333333 29.166666666666657)"/></g><path d="M1877.5 326c0-3.3 2.7-6 6-6h88c3.3 0 6 2.7 6 6v38c0 3.3-2.7 6-6 6h-88c-3.3 0-6-2.7-6-6z" stroke="#000" stroke-opacity="0" fill="#fff"/><g><use xlink:href="#i" transform="matrix(1,0,0,1,1882.5,325) translate(8.786666666666676 29.166666666666657)"/><use xlink:href="#o" transform="matrix(1,0,0,1,1882.5,325) translate(67 29.166666666666657)"/></g><defs><path fill="#232b2b" d="M414-634c-98-68-313-40-303 98 11 163 220 149 321 227 56 43 93 158 40 231-36 52-101 88-189 88-121 0-182-45-246-110-10-22 21-46 37-24 46 54 115 92 205 94 97-2 177-42 177-135 0-142-159-150-260-199-68-33-131-72-128-171 4-117 96-175 220-175 91 0 178 35 206 103 0 14-25 30-37 15-12-16-26-30-43-42" id="p"/><path fill="#232b2b" d="M37-465c-24 0-25-38 0-38h232c24-1 25 38 0 38H37zm122 356c-5 58 30 83 79 69 34 8 8 46-23 40-68 3-96-35-96-107v-523c-1-25 40-26 40 0v521" id="q"/><path fill="#232b2b" d="M123-20c0 25-40 26-40 0v-459c-1-25 40-26 40 0v169l-17 26c10-127 72-223 203-231 17 1 48 3 46 23-3 35-32 13-57 12-84 7-134 73-160 138-34 85-15 213-15 322" id="r"/><path fill="#232b2b" d="M476-479c-2-26 40-26 40 0v459c1 25-40 26-40 0v-142l16-13C479-64 402 10 284 10 136 10 52-104 52-255s85-260 232-260c126 0 201 80 208 206l-16-25v-145zM92-255c0 129 69 227 194 227s194-98 194-227c0-126-71-222-194-222-124 0-194 94-194 222" id="s"/><path fill="#232b2b" d="M127-615c-3-76 45-118 112-120 27 2 67 2 70 28-6 39-46 7-74 8-48 2-68 33-68 84v595c1 25-40 26-40 0v-595zM47-455c-23 1-25-38 0-38h238c25-2 25 38 0 38H47" id="t"/><path fill="#232b2b" d="M465-111c14-22 46 1 30 21C457-42 391 11 308 10 149 5 52-90 52-250c0-154 84-265 226-265 141 0 218 87 226 228 0 10-10 22-20 21H76l-6-38h403l-10 9c-2-114-78-180-185-180-119 0-185 92-187 222C88-98 211 4 372-40c38-14 72-41 93-71" id="u"/><g id="a"><use transform="matrix(0.028888888888888877,0,0,0.028888888888888877,0,0)" xlink:href="#p"/><use transform="matrix(0.028888888888888877,0,0,0.028888888888888877,15.888888888888882,0)" xlink:href="#q"/><use transform="matrix(0.028888888888888877,0,0,0.028888888888888877,25.017777777777766,0)" xlink:href="#r"/><use transform="matrix(0.028888888888888877,0,0,0.028888888888888877,35.302222222222206,0)" xlink:href="#s"/><use transform="matrix(0.028888888888888877,0,0,0.028888888888888877,52.60666666666664,0)" xlink:href="#t"/><use transform="matrix(0.028888888888888877,0,0,0.028888888888888877,61.09999999999997,0)" xlink:href="#u"/></g><path fill="#232b2b" d="M613-27c10 26-31 38-40 14L312-657l15 8L74-13C68 11 26-1 36-27l269-662c3-19 36-16 39 0zM142-217l14-40h324l10 40H142" id="v"/><path fill="#232b2b" d="M440-479c-2-26 40-26 40 0v291C482-62 402 6 281 6 161 6 83-62 83-188v-291c-1-25 40-26 40 0v291C122-88 183-32 281-32s159-56 159-156v-291" id="w"/><path fill="#232b2b" d="M404-186C470-34 286 55 142-11c-32-14-61-37-87-69-21-23 12-49 29-29 33 46 85 83 162 83 69-3 133-29 133-98 0-125-181-91-253-156-29-22-52-51-52-99-6-157 248-172 323-69 22 14-8 48-25 28-30-35-74-56-134-57-68 3-124 30-126 98 23 136 242 77 292 193" id="x"/><path fill="#232b2b" d="M88-720c-1-25 40-26 40 0v700c1 25-40 26-40 0v-700" id="y"/><path fill="#232b2b" d="M83-495c-1-25 40-26 40 0v475c1 25-40 26-40 0v-475zm54-128c11 49-70 54-69 8-10-48 70-54 69-8" id="z"/><path fill="#232b2b" d="M83-720c-1-25 40-26 40 0v349l-25 48c12-110 92-182 203-182 118 0 178 78 178 193v292c1 25-40 26-40 0v-292c-2-93-42-155-138-155-94 0-178 61-178 155v292c1 25-40 26-40 0v-700" id="A"/><g id="b"><use transform="matrix(0.028888888888888877,0,0,0.028888888888888877,0,0)" xlink:href="#v"/><use transform="matrix(0.028888888888888877,0,0,0.028888888888888877,18.459999999999994,0)" xlink:href="#w"/><use transform="matrix(0.028888888888888877,0,0,0.028888888888888877,34.72444444444443,0)" xlink:href="#x"/><use transform="matrix(0.028888888888888877,0,0,0.028888888888888877,48.15777777777776,0)" xlink:href="#y"/><use transform="matrix(0.028888888888888877,0,0,0.028888888888888877,54.10888888888886,0)" xlink:href="#u"/><use transform="matrix(0.028888888888888877,0,0,0.028888888888888877,70.17111111111107,0)" xlink:href="#z"/><use transform="matrix(0.028888888888888877,0,0,0.028888888888888877,76.12222222222218,0)" xlink:href="#A"/><use transform="matrix(0.028888888888888877,0,0,0.028888888888888877,92.35777777777773,0)" xlink:href="#u"/><use transform="matrix(0.028888888888888877,0,0,0.028888888888888877,108.41999999999994,0)" xlink:href="#r"/></g><path fill="#232b2b" d="M83-479c-1-25 40-26 40 0v109l-30 51c7-141 174-233 305-155 31 20 53 52 64 95l-13 9c21-82 106-135 202-135 118 0 175 77 175 194v291c2 26-40 26-40 0v-287c-2-94-42-160-139-160-96 0-178 64-178 160v287c2 26-40 26-40 0v-292c-2-91-39-155-133-155-92 0-173 62-173 155v292c1 25-40 26-40 0v-459" id="B"/><path fill="#232b2b" d="M128-20c2 26-40 26-40 0v-700c-2-26 40-26 40 0v700zm314-479c18-20 47 13 26 30L121-180l-2-48zm33 464c19 18-10 48-29 28L204-265l30-26" id="C"/><g id="c"><use transform="matrix(0.028888888888888877,0,0,0.028888888888888877,0,0)" xlink:href="#B"/><use transform="matrix(0.028888888888888877,0,0,0.028888888888888877,26.25999999999999,0)" xlink:href="#u"/><use transform="matrix(0.028888888888888877,0,0,0.028888888888888877,42.32222222222221,0)" xlink:href="#r"/><use transform="matrix(0.028888888888888877,0,0,0.028888888888888877,52.95333333333332,0)" xlink:href="#C"/><use transform="matrix(0.028888888888888877,0,0,0.028888888888888877,68.09111111111109,0)" xlink:href="#q"/></g><path fill="#232b2b" d="M40-488c-13-25 26-42 37-16L262-61l-10 7 188-450c7-25 49-13 37 15L278-13c-4 18-32 15-38 0" id="D"/><path fill="#232b2b" d="M299-515c153 0 246 109 246 263 0 153-94 262-246 262C148 10 52-99 52-252c0-154 95-263 247-263zm0 487c129 0 206-93 206-224 0-132-77-225-206-225S92-384 92-252c0 131 79 224 207 224" id="E"/><g id="d"><use transform="matrix(0.028888888888888877,0,0,0.028888888888888877,0,0)" xlink:href="#D"/><use transform="matrix(0.028888888888888877,0,0,0.028888888888888877,14.819999999999993,0)" xlink:href="#E"/><use transform="matrix(0.028888888888888877,0,0,0.028888888888888877,32.066666666666656,0)" xlink:href="#r"/></g><path fill="#232b2b" d="M39-669c-16-27 26-44 38-15L337-58l-12-1 261-628c9-25 48-12 37 15L349-13c-4 16-31 17-38 0" id="F"/><path fill="#232b2b" d="M476-720c-2-26 40-26 40 0v700c1 25-40 26-40 0v-142l16-22C480-69 404 10 284 10 137 10 52-103 52-253s85-262 232-262c124 0 200 82 208 206l-16-25v-386zM92-253c0 127 70 225 194 225 126 0 194-96 194-225s-69-224-194-224c-124 0-194 96-194 224" id="G"/><g id="e"><use transform="matrix(0.028888888888888877,0,0,0.028888888888888877,0,0)" xlink:href="#F"/><use transform="matrix(0.028888888888888877,0,0,0.028888888888888877,19.06666666666666,0)" xlink:href="#z"/><use transform="matrix(0.028888888888888877,0,0,0.028888888888888877,25.017777777777766,0)" xlink:href="#G"/><use transform="matrix(0.028888888888888877,0,0,0.028888888888888877,42.32222222222221,0)" xlink:href="#u"/><use transform="matrix(0.028888888888888877,0,0,0.028888888888888877,58.384444444444426,0)" xlink:href="#E"/><use transform="matrix(0.028888888888888877,0,0,0.028888888888888877,75.63111111111108,0)" xlink:href="#t"/><use transform="matrix(0.028888888888888877,0,0,0.028888888888888877,85.27999999999997,0)" xlink:href="#z"/><use transform="matrix(0.028888888888888877,0,0,0.028888888888888877,91.23111111111108,0)" xlink:href="#y"/><use transform="matrix(0.028888888888888877,0,0,0.028888888888888877,97.47111111111107,0)" xlink:href="#B"/></g><g id="f"><use transform="matrix(0.028888888888888877,0,0,0.028888888888888877,0,0)" xlink:href="#y"/><use transform="matrix(0.028888888888888877,0,0,0.028888888888888877,5.951111111111109,0)" xlink:href="#u"/><use transform="matrix(0.028888888888888877,0,0,0.028888888888888877,22.01333333333332,0)" xlink:href="#z"/><use transform="matrix(0.028888888888888877,0,0,0.028888888888888877,27.964444444444432,0)" xlink:href="#A"/><use transform="matrix(0.028888888888888877,0,0,0.028888888888888877,44.19999999999998,0)" xlink:href="#q"/></g><g id="g"><use transform="matrix(0.028888888888888877,0,0,0.028888888888888877,0,0)" xlink:href="#s"/><use transform="matrix(0.028888888888888877,0,0,0.028888888888888877,17.01555555555555,0)" xlink:href="#w"/><use transform="matrix(0.028888888888888877,0,0,0.028888888888888877,33.27999999999999,0)" xlink:href="#x"/></g><path fill="#232b2b" d="M110-364c34-85 94-151 205-151 147 0 232 109 232 260S462 10 315 10c-109 0-166-67-205-143l13-14v127c2 26-40 25-40 0v-699c-2-26 40-26 40 0v362zm397 109c0-128-70-222-194-222-125 0-194 94-194 222 0 129 68 227 194 227 124 0 194-100 194-227" id="H"/><path fill="#232b2b" d="M407-515c16 0 25 20 15 34L102-33l-15-5h310c25-1 26 38 0 38H71C55 1 45-19 55-33l322-452 5 8H101c-25 1-26-38 0-38h306" id="I"/><g id="h"><use transform="matrix(0.028888888888888877,0,0,0.028888888888888877,0,0)" xlink:href="#H"/><use transform="matrix(0.028888888888888877,0,0,0.028888888888888877,17.30444444444444,0)" xlink:href="#u"/><use transform="matrix(0.028888888888888877,0,0,0.028888888888888877,33.36666666666665,0)" xlink:href="#I"/><use transform="matrix(0.028888888888888877,0,0,0.028888888888888877,47.14666666666665,0)" xlink:href="#s"/><use transform="matrix(0.028888888888888877,0,0,0.028888888888888877,64.45111111111109,0)" xlink:href="#A"/><use transform="matrix(0.028888888888888877,0,0,0.028888888888888877,80.68666666666664,0)" xlink:href="#y"/><use transform="matrix(0.028888888888888877,0,0,0.028888888888888877,86.83999999999996,0)" xlink:href="#q"/></g><path fill="#232b2b" d="M140-20c2 26-40 26-40 0v-660c0-10 10-20 20-20h377c25-1 26 40 0 40H137l3-4v288l-4-8h316c25-1 26 40 0 40H134l6-8v332" id="J"/><g id="i"><use transform="matrix(0.026666666666666658,0,0,0.026666666666666658,0,0)" xlink:href="#J"/><use transform="matrix(0.026666666666666658,0,0,0.026666666666666658,14.719999999999995,0)" xlink:href="#u"/><use transform="matrix(0.026666666666666658,0,0,0.026666666666666658,29.546666666666656,0)" xlink:href="#y"/><use transform="matrix(0.026666666666666658,0,0,0.026666666666666658,35.03999999999999,0)" xlink:href="#G"/></g><path fill="#232b2b" d="M419-221c0-131-101-190-233-177-20 1-24-25-12-39l212-232 6 14H70c-25 1-26-40 0-40h346c20-2 25 24 14 36L219-427l-20-6c1-5 36-9 43-9 130 7 219 82 219 221 0 142-99 231-239 231-70 0-127-26-160-70-9-22 21-41 37-20 25 32 68 48 123 48 116-4 197-73 197-189" id="K"/><use transform="matrix(0.026666666666666658,0,0,0.026666666666666658,0,0)" xlink:href="#K" id="j"/><path fill="#232b2b" d="M188-692c143-53 294 24 285 175-7 108-64 167-132 245L126-28l-9-12h362c25-1 26 40 0 40H93C74 2 60-18 73-34l235-262c62-70 113-121 121-217 9-119-116-189-231-143-49 18-85 57-106 100-19 12-41-6-27-30 26-45 72-85 123-106" id="L"/><use transform="matrix(0.026666666666666658,0,0,0.026666666666666658,0,0)" xlink:href="#L" id="k"/><path fill="#232b2b" d="M243-20c1 26-42 26-42 0v-634l10 6c-55 34-105 74-164 105-19 0-31-27-11-39 63-37 120-81 184-118 14-1 23 6 23 20v660" id="M"/><use transform="matrix(0.026666666666666658,0,0,0.026666666666666658,0,0)" xlink:href="#M" id="l"/><path fill="#232b2b" d="M380-20c1 25-40 26-40 0v-625l11 8L65-252l-3-11h394c26-2 26 38 0 38H35c-16 1-25-21-15-34l323-433c11-15 37-7 37 12v660" id="N"/><use transform="matrix(0.026666666666666658,0,0,0.026666666666666658,0,0)" xlink:href="#N" id="m"/><path fill="#232b2b" d="M480-242C484-63 329 34 148-15c-30-11-60-26-81-49-9-18 16-43 32-25 33 28 78 47 133 48 127-2 208-72 208-198 0-119-77-183-198-185-64-3-111 34-157 46-12-1-19-10-17-24l47-275c2-8 10-17 22-17h305c26-1 26 42 0 42H145l9-9-46 249-20-5c42-25 100-46 169-46 135 5 220 85 223 221" id="O"/><use transform="matrix(0.026666666666666658,0,0,0.026666666666666658,0,0)" xlink:href="#O" id="n"/><path fill="#232b2b" d="M503-211C503-84 418 7 288 10 99 15 26-158 74-343c45-175 143-320 301-384 23-3 31 35 8 41-132 68-230 193-268 354l-20 18c37-70 103-125 204-125 132 0 204 97 204 228zm-402 4c0 107 73 177 185 177 108 0 175-71 175-181 0-108-58-185-169-187-119 2-191 76-191 191" id="P"/><use transform="matrix(0.026666666666666658,0,0,0.026666666666666658,0,0)" xlink:href="#P" id="o"/></defs></g></svg>