<svg version="1.1" viewBox="0.0 0.0 960.0 720.0" fill="none" stroke="none" stroke-linecap="square" stroke-miterlimit="10" xmlns:xlink="http://www.w3.org/1999/xlink" xmlns="http://www.w3.org/2000/svg"><clipPath id="p.0"><path d="m0 0l960.0 0l0 720.0l-960.0 0l0 -720.0z" clip-rule="nonzero"/></clipPath><g clip-path="url(#p.0)"><path fill="#000000" fill-opacity="0.0" d="m0 0l960.0 0l0 720.0l-960.0 0z" fill-rule="evenodd"/><path fill="#000000" fill-opacity="0.0" d="m45.1916 360.0l0 0c0 -196.83951 171.73228 -356.40945 383.57483 -356.40945l0 0c211.84253 0 383.57477 159.56995 383.57477 356.40945l0 0c0 196.83948 -171.73224 356.40942 -383.57477 356.40942l0 0c-211.84253 0 -383.57483 -159.56995 -383.57483 -356.40942z" fill-rule="evenodd"/><path stroke="#000000" stroke-width="3.0" stroke-linejoin="round" stroke-linecap="butt" d="m45.1916 360.0l0 0c0 -196.83951 171.73228 -356.40945 383.57483 -356.40945l0 0c211.84253 0 383.57477 159.56995 383.57477 356.40945l0 0c0 196.83948 -171.73224 356.40942 -383.57477 356.40942l0 0c-211.84253 0 -383.57483 -159.56995 -383.57483 -356.40942z" fill-rule="evenodd"/><path fill="#448d76" d="m320.71915 69.36483l0 0c0 -23.874355 48.37442 -43.228348 108.04727 -43.228348l0 0c59.67282 0 108.04724 19.353992 108.04724 43.228348l0 0c0 23.87436 -48.37442 43.228348 -108.04724 43.228348l0 0c-59.67285 0 -108.04727 -19.353989 -108.04727 -43.228348z" fill-rule="evenodd"/><path stroke="#d9e8e3" stroke-width="1.0" stroke-linejoin="round" stroke-linecap="butt" d="m320.71915 69.36483l0 0c0 -23.874355 48.37442 -43.228348 108.04727 -43.228348l0 0c59.67282 0 108.04724 19.353992 108.04724 43.228348l0 0c0 23.87436 -48.37442 43.228348 -108.04724 43.228348l0 0c-59.67285 0 -108.04727 -19.353989 -108.04727 -43.228348z" fill-rule="evenodd"/><path fill="#000000" d="m380.46625 71.58733l-4.890625 0l0 8.4375l-2.765625 0l0 -20.843754l6.90625 0q3.515625 0 5.40625 1.609375q1.90625 1.59375 1.90625 4.656254q0 1.953125 -1.0625 3.40625q-1.046875 1.4375 -2.921875 2.15625l4.90625 8.84375l0 0.171875l-2.953125 0l-4.53125 -8.4375zm-4.890625 -2.25l4.21875 0q2.046875 0 3.25 -1.046875q1.21875 -1.0625 1.21875 -2.84375q0 -1.9375038 -1.15625 -2.9687538q-1.140625 -1.03125 -3.328125 -1.046875l-4.203125 0l0 7.906254zm21.323608 10.96875q-3.15625 0 -5.140625 -2.0625q-1.96875 -2.078125 -1.96875 -5.53125l0 -0.484375q0 -2.3125 0.875 -4.125q0.890625 -1.8125 2.46875 -2.828125q1.59375 -1.03125 3.4375 -1.03125q3.015625 0 4.6875 2.0q1.6875 1.984375 1.6875 5.6875l0 1.109375l-10.5 0q0.046875 2.28125 1.328125 3.703125q1.296875 1.40625 3.265625 1.40625q1.40625 0 2.375 -0.5625q0.96875 -0.578125 1.703125 -1.53125l1.625 1.265625q-1.953125 2.984375 -5.84375 2.984375zm-0.328125 -13.890625q-1.609375 0 -2.703125 1.171875q-1.078125 1.171875 -1.34375 3.265625l7.765625 0l0 -0.1875q-0.109375 -2.03125 -1.09375 -3.140625q-0.96875 -1.109375 -2.625 -1.109375zm12.318878 13.609375l-2.65625 0l0 -22.000004l2.65625 0l0 22.000004zm10.664093 0.28125q-3.15625 0 -5.140625 -2.0625q-1.96875 -2.078125 -1.96875 -5.53125l0 -0.484375q0 -2.3125 0.875 -4.125q0.890625 -1.8125 2.46875 -2.828125q1.59375 -1.03125 3.4375 -1.03125q3.015625 0 4.6875 2.0q1.6875 1.984375 1.6875 5.6875l0 1.109375l-10.5 0q0.046875 2.28125 1.328125 3.703125q1.296875 1.40625 3.265625 1.40625q1.40625 0 2.375 -0.5625q0.96875 -0.578125 1.703125 -1.53125l1.625 1.265625q-1.953125 2.984375 -5.84375 2.984375zm-0.328125 -13.890625q-1.609375 0 -2.703125 1.171875q-1.078125 1.171875 -1.34375 3.265625l7.765625 0l0 -0.1875q-0.109375 -2.03125 -1.09375 -3.140625q-0.96875 -1.109375 -2.625 -1.109375zm14.367035 10.015625l3.828125 -11.90625l2.703125 0l-5.546875 15.5l-2.015625 0l-5.625 -15.5l2.703125 0l3.953125 11.90625zm18.444092 3.59375q-0.234375 -0.453125 -0.375 -1.625q-1.859375 1.90625 -4.421875 1.90625q-2.28125 0 -3.75 -1.296875q-1.46875 -1.296875 -1.46875 -3.28125q0 -2.421875 1.828125 -3.75q1.84375 -1.34375 5.1875 -1.34375l2.578125 0l0 -1.21875q0 -1.390625 -0.828125 -2.203125q-0.828125 -0.828125 -2.453125 -0.828125q-1.421875 0 -2.375 0.71875q-0.953125 0.703125 -0.953125 1.71875l-2.671875 0q0 -1.15625 0.8125 -2.234375q0.828125 -1.078125 2.234375 -1.703125q1.421875 -0.640625 3.109375 -0.640625q2.6875 0 4.203125 1.34375q1.515625 1.328125 1.578125 3.6875l0 7.125q0 2.140625 0.53125 3.390625l0 0.234375l-2.765625 0zm-4.40625 -2.015625q1.25 0 2.359375 -0.640625q1.125 -0.65625 1.625 -1.6875l0 -3.171875l-2.078125 0q-4.875 0 -4.875 2.84375q0 1.25 0.828125 1.953125q0.84375 0.703125 2.140625 0.703125zm13.296661 -13.484375l0.078125 1.953125q1.78125 -2.234375 4.640625 -2.234375q4.921875 0 4.953125 5.546875l0 10.234375l-2.640625 0l0 -10.25q-0.015625 -1.671875 -0.765625 -2.46875q-0.75 -0.8125 -2.34375 -0.8125q-1.296875 0 -2.265625 0.6875q-0.96875 0.6875 -1.515625 1.796875l0 11.046875l-2.65625 0l0 -15.5l2.515625 0zm16.166382 13.34375l9.0625305 0l0 2.15625l-12.2969055 0l0 -1.953125l8.5469055 -11.34375l-8.4219055 0l0 -2.203125l11.7344055 0l0 1.875l-8.6250305 11.46875z" fill-rule="nonzero"/><path fill="#d9e8e3" d="m481.26248 207.5643l0 0c0 -23.87436 48.37436 -43.228348 108.04721 -43.228348l0 0c59.67285 0 108.04724 19.353989 108.04724 43.228348l0 0c0 23.87436 -48.37439 43.228348 -108.04724 43.228348l0 0c-59.67285 0 -108.04721 -19.353989 -108.04721 -43.228348z" fill-rule="evenodd"/><path stroke="#d9e8e3" stroke-width="1.0" stroke-linejoin="round" stroke-linecap="butt" d="m481.26248 207.5643l0 0c0 -23.87436 48.37436 -43.228348 108.04721 -43.228348l0 0c59.67285 0 108.04724 19.353989 108.04724 43.228348l0 0c0 23.87436 -48.37439 43.228348 -108.04724 43.228348l0 0c-59.67285 0 -108.04721 -19.353989 -108.04721 -43.228348z" fill-rule="evenodd"/><path fill="#000000" d="m559.805 209.7868l-4.890625 0l0 8.4375l-2.765625 0l0 -20.84375l6.90625 0q3.515625 0 5.40625 1.609375q1.90625 1.59375 1.90625 4.65625q0 1.953125 -1.0625 3.40625q-1.046875 1.4375 -2.921875 2.15625l4.90625 8.84375l0 0.171875l-2.953125 0l-4.53125 -8.4375zm-4.890625 -2.25l4.21875 0q2.046875 0 3.25 -1.046875q1.21875 -1.0625 1.21875 -2.84375q0 -1.9375 -1.15625 -2.96875q-1.140625 -1.03125 -3.328125 -1.046875l-4.203125 0l0 7.90625zm21.323608 10.96875q-3.15625 0 -5.140625 -2.0625q-1.96875 -2.078125 -1.96875 -5.53125l0 -0.484375q0 -2.3125 0.875 -4.125q0.890625 -1.8125 2.46875 -2.828125q1.59375 -1.03125 3.4375 -1.03125q3.015625 0 4.6875 2.0q1.6875 1.984375 1.6875 5.6875l0 1.109375l-10.5 0q0.046875 2.28125 1.328125 3.703125q1.296875 1.40625 3.265625 1.40625q1.40625 0 2.375 -0.5625q0.96875 -0.578125 1.703125 -1.53125l1.625 1.265625q-1.953125 2.984375 -5.84375 2.984375zm-0.328125 -13.890625q-1.609375 0 -2.703125 1.171875q-1.078125 1.171875 -1.34375 3.265625l7.765625 0l0 -0.1875q-0.109375 -2.03125 -1.09375 -3.140625q-0.96875 -1.109375 -2.625 -1.109375zm15.647034 11.734375q1.421875 0 2.46875 -0.859375q1.0625 -0.859375 1.1875 -2.15625l2.5 0q-0.0625 1.34375 -0.921875 2.546875q-0.84375 1.203125 -2.25 1.921875q-1.40625 0.703125 -2.984375 0.703125q-3.15625 0 -5.03125 -2.109375q-1.875 -2.109375 -1.875 -5.78125l0 -0.4375q0 -2.265625 0.828125 -4.015625q0.84375 -1.765625 2.390625 -2.734375q1.5625 -0.984375 3.671875 -0.984375q2.609375 0 4.328125 1.5625q1.734375 1.5625 1.84375 4.046875l-2.5 0q-0.125 -1.5 -1.15625 -2.46875q-1.015625 -0.96875 -2.515625 -0.96875q-2.015625 0 -3.125 1.453125q-1.109375 1.453125 -1.109375 4.203125l0 0.5q0 2.6875 1.09375 4.140625q1.109375 1.4375 3.15625 1.4375zm18.710815 1.875q-0.234375 -0.453125 -0.375 -1.625q-1.859375 1.90625 -4.421875 1.90625q-2.28125 0 -3.75 -1.296875q-1.46875 -1.296875 -1.46875 -3.28125q0 -2.421875 1.828125 -3.75q1.84375 -1.34375 5.1875 -1.34375l2.578125 0l0 -1.21875q0 -1.390625 -0.828125 -2.203125q-0.828125 -0.828125 -2.453125 -0.828125q-1.421875 0 -2.375 0.71875q-0.953125 0.703125 -0.953125 1.71875l-2.671875 0q0 -1.15625 0.8125 -2.234375q0.828125 -1.078125 2.234375 -1.703125q1.421875 -0.640625 3.109375 -0.640625q2.6875 0 4.203125 1.34375q1.515625 1.328125 1.578125 3.6875l0 7.125q0 2.140625 0.53125 3.390625l0 0.234375l-2.765625 0zm-4.40625 -2.015625q1.25 0 2.359375 -0.640625q1.125 -0.65625 1.625 -1.6875l0 -3.171875l-2.078125 0q-4.875 0 -4.875 2.84375q0 1.25 0.828125 1.953125q0.84375 0.703125 2.140625 0.703125zm13.671631 2.015625l-2.65625 0l0 -22.0l2.65625 0l0 22.0zm7.1172485 0l-2.65625 0l0 -22.0l2.65625 0l0 22.0z" fill-rule="nonzero"/><path fill="#d9e8e3" d="m169.45407 207.5643l0 0c0 -23.87436 48.37439 -43.228348 108.04724 -43.228348l0 0c59.67285 0 108.04724 19.353989 108.04724 43.228348l0 0c0 23.87436 -48.37439 43.228348 -108.04724 43.228348l0 0c-59.67285 0 -108.04724 -19.353989 -108.04724 -43.228348z" fill-rule="evenodd"/><path stroke="#d9e8e3" stroke-width="1.0" stroke-linejoin="round" stroke-linecap="butt" d="m169.45407 207.5643l0 0c0 -23.87436 48.37439 -43.228348 108.04724 -43.228348l0 0c59.67285 0 108.04724 19.353989 108.04724 43.228348l0 0c0 23.87436 -48.37439 43.228348 -108.04724 43.228348l0 0c-59.67285 0 -108.04724 -19.353989 -108.04724 -43.228348z" fill-rule="evenodd"/><path fill="#000000" d="m222.01926 210.06805l0 8.15625l-2.75 0l0 -20.84375l7.6875 0q3.421875 0 5.359375 1.75q1.9375 1.734375 1.9375 4.609375q0 3.046875 -1.890625 4.6875q-1.890625 1.640625 -5.4375 1.640625l-4.90625 0zm0 -2.25l4.9375 0q2.203125 0 3.375 -1.03125q1.1875 -1.046875 1.1875 -3.015625q0 -1.859375 -1.1875 -2.96875q-1.171875 -1.125 -3.21875 -1.171875l-5.09375 0l0 8.1875zm22.830048 -2.71875q-0.609375 -0.09375 -1.3125 -0.09375q-2.609375 0 -3.53125 2.21875l0 11.0l-2.65625 0l0 -15.5l2.578125 0l0.046875 1.796875q1.296875 -2.078125 3.6875 -2.078125q0.78125 0 1.1875 0.203125l0 2.453125zm8.589386 13.40625q-3.15625 0 -5.140625 -2.0625q-1.96875 -2.078125 -1.96875 -5.53125l0 -0.484375q0 -2.3125 0.875 -4.125q0.890625 -1.8125 2.46875 -2.828125q1.59375 -1.03125 3.4375 -1.03125q3.015625 0 4.6875 2.0q1.6875 1.984375 1.6875 5.6875l0 1.109375l-10.5 0q0.046875 2.28125 1.328125 3.703125q1.296875 1.40625 3.265625 1.40625q1.40625 0 2.375 -0.5625q0.96875 -0.578125 1.703125 -1.53125l1.625 1.265625q-1.953125 2.984375 -5.84375 2.984375zm-0.328125 -13.890625q-1.609375 0 -2.703125 1.171875q-1.078125 1.171875 -1.34375 3.265625l7.765625 0l0 -0.1875q-0.109375 -2.03125 -1.09375 -3.140625q-0.96875 -1.109375 -2.625 -1.109375zm15.647003 11.734375q1.421875 0 2.46875 -0.859375q1.0625 -0.859375 1.1875 -2.15625l2.5 0q-0.0625 1.34375 -0.921875 2.546875q-0.84375 1.203125 -2.25 1.921875q-1.40625 0.703125 -2.984375 0.703125q-3.15625 0 -5.03125 -2.109375q-1.875 -2.109375 -1.875 -5.78125l0 -0.4375q0 -2.265625 0.828125 -4.015625q0.84375 -1.765625 2.390625 -2.734375q1.5625 -0.984375 3.671875 -0.984375q2.609375 0 4.328125 1.5625q1.734375 1.5625 1.84375 4.046875l-2.5 0q-0.125 -1.5 -1.15625 -2.46875q-1.015625 -0.96875 -2.515625 -0.96875q-2.015625 0 -3.125 1.453125q-1.109375 1.453125 -1.109375 4.203125l0 0.5q0 2.6875 1.09375 4.140625q1.109375 1.4375 3.15625 1.4375zm12.023315 1.875l-2.65625 0l0 -15.5l2.65625 0l0 15.5zm-2.875 -19.609375q0 -0.640625 0.390625 -1.078125q0.40625 -0.453125 1.171875 -0.453125q0.78125 0 1.171875 0.453125q0.40625 0.4375 0.40625 1.09375q0 0.640625 -0.40625 1.078125q-0.390625 0.421875 -1.171875 0.421875q-0.765625 0 -1.171875 -0.421875q-0.390625 -0.4375 -0.390625 -1.09375zm16.132843 15.5q0 -1.078125 -0.8125 -1.671875q-0.8125 -0.59375 -2.828125 -1.015625q-2.0 -0.4375 -3.1875 -1.03125q-1.1875 -0.609375 -1.75 -1.4375q-0.5625 -0.828125 -0.5625 -1.96875q0 -1.90625 1.609375 -3.21875q1.609375 -1.328125 4.125 -1.328125q2.625 0 4.265625 1.359375q1.640625 1.359375 1.640625 3.484375l-2.65625 0q0 -1.09375 -0.9375 -1.875q-0.921875 -0.796875 -2.3125 -0.796875q-1.453125 0 -2.265625 0.640625q-0.8125 0.625 -0.8125 1.640625q0 0.953125 0.75 1.453125q0.765625 0.484375 2.75 0.9375q1.984375 0.4375 3.203125 1.046875q1.234375 0.609375 1.828125 1.484375q0.59375 0.859375 0.59375 2.109375q0 2.078125 -1.65625 3.328125q-1.65625 1.25 -4.3125 1.25q-1.859375 0 -3.296875 -0.65625q-1.421875 -0.65625 -2.234375 -1.828125q-0.8125 -1.1875 -0.8125 -2.5625l2.65625 0q0.0625 1.328125 1.0625 2.109375q1.0 0.78125 2.625 0.78125q1.5 0 2.40625 -0.609375q0.921875 -0.609375 0.921875 -1.625zm8.981689 4.109375l-2.65625 0l0 -15.5l2.65625 0l0 15.5zm-2.875 -19.609375q0 -0.640625 0.390625 -1.078125q0.40625 -0.453125 1.171875 -0.453125q0.78125 0 1.171875 0.453125q0.40625 0.4375 0.40625 1.09375q0 0.640625 -0.40625 1.078125q-0.390625 0.421875 -1.171875 0.421875q-0.765625 0 -1.171875 -0.421875q-0.390625 -0.4375 -0.390625 -1.09375zm6.3984985 11.71875q0 -2.28125 0.890625 -4.09375q0.90625 -1.828125 2.5 -2.8125q1.59375 -0.984375 3.640625 -0.984375q3.171875 0 5.125 2.1875q1.953125 2.1875 1.953125 5.828125l0 0.1875q0 2.265625 -0.875 4.0625q-0.859375 1.796875 -2.46875 2.796875q-1.609375 1.0 -3.703125 1.0q-3.140625 0 -5.109375 -2.1875q-1.953125 -2.1875 -1.953125 -5.796875l0 -0.1875zm2.671875 0.3125q0 2.578125 1.1875 4.140625q1.203125 1.5625 3.203125 1.5625q2.015625 0 3.203125 -1.578125q1.203125 -1.59375 1.203125 -4.4375q0 -2.546875 -1.21875 -4.125q-1.203125 -1.59375 -3.21875 -1.59375q-1.953125 0 -3.15625 1.5625q-1.203125 1.5625 -1.203125 4.46875zm17.273071 -7.921875l0.078125 1.953125q1.78125 -2.234375 4.640625 -2.234375q4.921875 0 4.953125 5.546875l0 10.234375l-2.640625 0l0 -10.25q-0.015625 -1.671875 -0.765625 -2.46875q-0.75 -0.8125 -2.34375 -0.8125q-1.296875 0 -2.265625 0.6875q-0.96875 0.6875 -1.515625 1.796875l0 11.046875l-2.65625 0l0 -15.5l2.515625 0z" fill-rule="nonzero"/><path fill="#d9e8e3" d="m292.30972 335.40814l0 0c0 -31.241058 61.09372 -56.566925 136.4567 -56.566925l0 0c75.362946 0 136.45667 25.325867 136.45667 56.566925l0 0c0 31.241058 -61.09372 56.566925 -136.45667 56.566925l0 0c-75.362976 0 -136.4567 -25.325867 -136.4567 -56.566925z" fill-rule="evenodd"/><path stroke="#d9e8e3" stroke-width="1.0" stroke-linejoin="round" stroke-linecap="butt" d="m292.30972 335.40814l0 0c0 -31.241058 61.09372 -56.566925 136.4567 -56.566925l0 0c75.362946 0 136.45667 25.325867 136.45667 56.566925l0 0c0 31.241058 -61.09372 56.566925 -136.45667 56.566925l0 0c-75.362976 0 -136.4567 -25.325867 -136.4567 -56.566925z" fill-rule="evenodd"/><path fill="#000000" d="m353.2337 336.38065l-2.546875 2.640625l0 7.046875l-2.75 0l0 -20.84375l2.75 0l0 10.296875l9.265625 -10.296875l3.3125 0l-8.203125 9.203125l8.859375 11.640625l-3.296875 0l-7.390625 -9.6875zm11.578766 1.796875q0 -2.28125 0.890625 -4.09375q0.90625 -1.828125 2.5 -2.8125q1.59375 -0.984375 3.640625 -0.984375q3.171875 0 5.125 2.1875q1.953125 2.1875 1.953125 5.828125l0 0.1875q0 2.265625 -0.875 4.0625q-0.859375 1.796875 -2.46875 2.796875q-1.609375 1.0 -3.703125 1.0q-3.140625 0 -5.109375 -2.1875q-1.953125 -2.1875 -1.953125 -5.796875l0 -0.1875zm2.671875 0.3125q0 2.578125 1.1875 4.140625q1.203125 1.5625 3.203125 1.5625q2.015625 0 3.203125 -1.578125q1.203125 -1.59375 1.203125 -4.4375q0 -2.546875 -1.21875 -4.125q-1.203125 -1.59375 -3.21875 -1.59375q-1.953125 0 -3.15625 1.5625q-1.203125 1.5625 -1.203125 4.46875zm14.054321 -0.3125q0 -2.28125 0.890625 -4.09375q0.90625 -1.828125 2.5 -2.8125q1.59375 -0.984375 3.640625 -0.984375q3.171875 0 5.125 2.1875q1.953125 2.1875 1.953125 5.828125l0 0.1875q0 2.265625 -0.875 4.0625q-0.859375 1.796875 -2.46875 2.796875q-1.609375 1.0 -3.703125 1.0q-3.140625 0 -5.109375 -2.1875q-1.953125 -2.1875 -1.953125 -5.796875l0 -0.1875zm2.671875 0.3125q0 2.578125 1.1875 4.140625q1.203125 1.5625 3.203125 1.5625q2.015625 0 3.203125 -1.578125q1.203125 -1.59375 1.203125 -4.4375q0 -2.546875 -1.21875 -4.125q-1.203125 -1.59375 -3.21875 -1.59375q-1.953125 0 -3.15625 1.5625q-1.203125 1.5625 -1.203125 4.46875zm22.257446 -5.546875q-0.609375 -0.09375 -1.3125 -0.09375q-2.609375 0 -3.53125 2.21875l0 11.0l-2.65625 0l0 -15.5l2.578125 0l0.046875 1.796875q1.296875 -2.078125 3.6875 -2.078125q0.78125 0 1.1875 0.203125l0 2.453125zm1.511261 5.25q0 -3.5625 1.6875 -5.734375q1.6875 -2.171875 4.421875 -2.171875q2.734375 0 4.3125 1.859375l0 -8.078125l2.65625 0l0 22.0l-2.4375 0l-0.125 -1.65625q-1.59375 1.9375 -4.421875 1.9375q-2.703125 0 -4.40625 -2.203125q-1.6875 -2.203125 -1.6875 -5.75l0 -0.203125zm2.65625 0.296875q0 2.640625 1.078125 4.125q1.09375 1.484375 3.015625 1.484375q2.515625 0 3.671875 -2.25l0 -7.125q-1.1875 -2.1875 -3.640625 -2.1875q-1.953125 0 -3.046875 1.5q-1.078125 1.5 -1.078125 4.453125zm17.41504 7.578125l-2.65625 0l0 -15.5l2.65625 0l0 15.5zm-2.875 -19.609375q0 -0.640625 0.390625 -1.078125q0.40625 -0.453125 1.171875 -0.453125q0.78125 0 1.171875 0.453125q0.40625 0.4375 0.40625 1.09375q0 0.640625 -0.40625 1.078125q-0.390625 0.421875 -1.171875 0.421875q-0.765625 0 -1.171875 -0.421875q-0.390625 -0.4375 -0.390625 -1.09375zm9.617249 4.109375l0.078125 1.953125q1.78125 -2.234375 4.640625 -2.234375q4.921875 0 4.953125 5.546875l0 10.234375l-2.640625 0l0 -10.25q-0.015625 -1.671875 -0.765625 -2.46875q-0.75 -0.8125 -2.34375 -0.8125q-1.296875 0 -2.265625 0.6875q-0.96875 0.6875 -1.515625 1.796875l0 11.046875l-2.65625 0l0 -15.5l2.515625 0zm23.244507 15.5q-0.234375 -0.453125 -0.375 -1.625q-1.859375 1.90625 -4.421875 1.90625q-2.28125 0 -3.75 -1.296875q-1.46875 -1.296875 -1.46875 -3.28125q0 -2.421875 1.828125 -3.75q1.84375 -1.34375 5.1875 -1.34375l2.578125 0l0 -1.21875q0 -1.390625 -0.828125 -2.203125q-0.828125 -0.828125 -2.453125 -0.828125q-1.421875 0 -2.375 0.71875q-0.953125 0.703125 -0.953125 1.71875l-2.671875 0q0 -1.15625 0.8125 -2.234375q0.828125 -1.078125 2.234375 -1.703125q1.421875 -0.640625 3.109375 -0.640625q2.6875 0 4.203125 1.34375q1.515625 1.328125 1.578125 3.6875l0 7.125q0 2.140625 0.53125 3.390625l0 0.234375l-2.765625 0zm-4.40625 -2.015625q1.25 0 2.359375 -0.640625q1.125 -0.65625 1.625 -1.6875l0 -3.171875l-2.078125 0q-4.875 0 -4.875 2.84375q0 1.25 0.828125 1.953125q0.84375 0.703125 2.140625 0.703125zm14.374786 -17.234375l0 3.75l2.890625 0l0 2.046875l-2.890625 0l0 9.609375q0 0.9375 0.390625 1.40625q0.390625 0.46875 1.3125 0.46875q0.46875 0 1.265625 -0.171875l0 2.140625q-1.046875 0.28125 -2.03125 0.28125q-1.78125 0 -2.6875 -1.0625q-0.890625 -1.078125 -0.890625 -3.0625l0 -9.609375l-2.828125 0l0 -2.046875l2.828125 0l0 -3.75l2.640625 0zm8.877197 19.25l-2.65625 0l0 -15.5l2.65625 0l0 15.5zm-2.875 -19.609375q0 -0.640625 0.390625 -1.078125q0.40625 -0.453125 1.171875 -0.453125q0.78125 0 1.171875 0.453125q0.40625 0.4375 0.40625 1.09375q0 0.640625 -0.40625 1.078125q-0.390625 0.421875 -1.171875 0.421875q-0.765625 0 -1.171875 -0.421875q-0.390625 -0.4375 -0.390625 -1.09375zm6.3984985 11.71875q0 -2.28125 0.890625 -4.09375q0.90625 -1.828125 2.5 -2.8125q1.59375 -0.984375 3.640625 -0.984375q3.171875 0 5.125 2.1875q1.953125 2.1875 1.953125 5.828125l0 0.1875q0 2.265625 -0.875 4.0625q-0.859375 1.796875 -2.46875 2.796875q-1.609375 1.0 -3.703125 1.0q-3.140625 0 -5.109375 -2.1875q-1.953125 -2.1875 -1.953125 -5.796875l0 -0.1875zm2.671875 0.3125q0 2.578125 1.1875 4.140625q1.203125 1.5625 3.203125 1.5625q2.015625 0 3.203125 -1.578125q1.203125 -1.59375 1.203125 -4.4375q0 -2.546875 -1.21875 -4.125q-1.203125 -1.59375 -3.21875 -1.59375q-1.953125 0 -3.15625 1.5625q-1.203125 1.5625 -1.203125 4.46875zm17.273071 -7.921875l0.078125 1.953125q1.78125 -2.234375 4.640625 -2.234375q4.921875 0 4.953125 5.546875l0 10.234375l-2.640625 0l0 -10.25q-0.015625 -1.671875 -0.765625 -2.46875q-0.75 -0.8125 -2.34375 -0.8125q-1.296875 0 -2.265625 0.6875q-0.96875 0.6875 -1.515625 1.796875l0 11.046875l-2.65625 0l0 -15.5l2.515625 0z" fill-rule="nonzero"/><path fill="#d9e8e3" d="m298.40945 476.59055l0 0c0 -31.241058 61.09375 -56.566925 136.4567 -56.566925l0 0c75.362946 0 136.45667 25.325867 136.45667 56.566925l0 0c0 31.241058 -61.09372 56.566925 -136.45667 56.566925l0 0c-75.362946 0 -136.4567 -25.325867 -136.4567 -56.566925z" fill-rule="evenodd"/><path stroke="#448d76" stroke-width="1.0" stroke-linejoin="round" stroke-linecap="butt" d="m298.40945 476.59055l0 0c0 -31.241058 61.09375 -56.566925 136.4567 -56.566925l0 0c75.362946 0 136.45667 25.325867 136.45667 56.566925l0 0c0 31.241058 -61.09372 56.566925 -136.45667 56.566925l0 0c-75.362946 0 -136.4567 -25.325867 -136.4567 -56.566925z" fill-rule="evenodd"/><path fill="#000000" d="m359.71292 477.56305l-2.546875 2.640625l0 7.046875l-2.75 0l0 -20.84375l2.75 0l0 10.296875l9.265625 -10.296875l3.3125 0l-8.203125 9.203125l8.859375 11.640625l-3.296875 0l-7.390625 -9.6875zm11.578766 1.796875q0 -2.28125 0.890625 -4.09375q0.90625 -1.828125 2.5 -2.8125q1.59375 -0.984375 3.640625 -0.984375q3.171875 0 5.125 2.1875q1.953125 2.1875 1.953125 5.828125l0 0.1875q0 2.265625 -0.875 4.0625q-0.859375 1.796875 -2.46875 2.796875q-1.609375 1.0 -3.703125 1.0q-3.140625 0 -5.109375 -2.1875q-1.953125 -2.1875 -1.953125 -5.796875l0 -0.1875zm2.671875 0.3125q0 2.578125 1.1875 4.140625q1.203125 1.5625 3.203125 1.5625q2.015625 0 3.203125 -1.578125q1.203125 -1.59375 1.203125 -4.4375q0 -2.546875 -1.21875 -4.125q-1.203125 -1.59375 -3.21875 -1.59375q-1.953125 0 -3.15625 1.5625q-1.203125 1.5625 -1.203125 4.46875zm17.257446 -7.921875l0.0625 1.71875q1.703125 -2.0 4.609375 -2.0q3.25 0 4.421875 2.484375q0.765625 -1.109375 2.0 -1.796875q1.25 -0.6875 2.9375 -0.6875q5.09375 0 5.1875 5.40625l0 10.375l-2.65625 0l0 -10.21875q0 -1.671875 -0.765625 -2.484375q-0.75 -0.828125 -2.546875 -0.828125q-1.46875 0 -2.453125 0.890625q-0.96875 0.875 -1.125 2.359375l0 10.28125l-2.65625 0l0 -10.15625q0 -3.375 -3.3125 -3.375q-2.609375 0 -3.5625 2.21875l0 11.3125l-2.65625 0l0 -15.5l2.515625 0zm36.33008 7.921875q0 3.546875 -1.640625 5.703125q-1.625 2.15625 -4.375 2.15625q-2.9375 0 -4.546875 -2.078125l-0.125 1.796875l-2.4375 0l0 -22.0l2.65625 0l0 8.203125q1.609375 -1.984375 4.421875 -1.984375q2.828125 0 4.4375 2.140625q1.609375 2.125 1.609375 5.84375l0 0.21875zm-2.65625 -0.296875q0 -2.703125 -1.046875 -4.171875q-1.046875 -1.484375 -3.0 -1.484375q-2.625 0 -3.765625 2.4375l0 6.703125q1.21875 2.421875 3.796875 2.421875q1.90625 0 2.953125 -1.46875q1.0625 -1.46875 1.0625 -4.4375zm8.875977 7.875l-2.65625 0l0 -15.5l2.65625 0l0 15.5zm-2.875 -19.609375q0 -0.640625 0.390625 -1.078125q0.40625 -0.453125 1.171875 -0.453125q0.78125 0 1.171875 0.453125q0.40625 0.4375 0.40625 1.09375q0 0.640625 -0.40625 1.078125q-0.390625 0.421875 -1.171875 0.421875q-0.765625 0 -1.171875 -0.421875q-0.390625 -0.4375 -0.390625 -1.09375zm9.617249 4.109375l0.078125 1.953125q1.78125 -2.234375 4.640625 -2.234375q4.921875 0 4.953125 5.546875l0 10.234375l-2.640625 0l0 -10.25q-0.015625 -1.671875 -0.765625 -2.46875q-0.75 -0.8125 -2.34375 -0.8125q-1.296875 0 -2.265625 0.6875q-0.96875 0.6875 -1.515625 1.796875l0 11.046875l-2.65625 0l0 -15.5l2.515625 0zm23.244507 15.5q-0.234375 -0.453125 -0.375 -1.625q-1.859375 1.90625 -4.421875 1.90625q-2.28125 0 -3.75 -1.296875q-1.46875 -1.296875 -1.46875 -3.28125q0 -2.421875 1.828125 -3.75q1.84375 -1.34375 5.1875 -1.34375l2.578125 0l0 -1.21875q0 -1.390625 -0.828125 -2.203125q-0.828125 -0.828125 -2.453125 -0.828125q-1.421875 0 -2.375 0.71875q-0.953125 0.703125 -0.953125 1.71875l-2.671875 0q0 -1.15625 0.8125 -2.234375q0.828125 -1.078125 2.234375 -1.703125q1.421875 -0.640625 3.109375 -0.640625q2.6875 0 4.203125 1.34375q1.515625 1.328125 1.578125 3.6875l0 7.125q0 2.140625 0.53125 3.390625l0 0.234375l-2.765625 0zm-4.40625 -2.015625q1.25 0 2.359375 -0.640625q1.125 -0.65625 1.625 -1.6875l0 -3.171875l-2.078125 0q-4.875 0 -4.875 2.84375q0 1.25 0.828125 1.953125q0.84375 0.703125 2.140625 0.703125zm14.374756 -17.234375l0 3.75l2.890625 0l0 2.046875l-2.890625 0l0 9.609375q0 0.9375 0.390625 1.40625q0.390625 0.46875 1.3125 0.46875q0.46875 0 1.265625 -0.171875l0 2.140625q-1.046875 0.28125 -2.03125 0.28125q-1.78125 0 -2.6875 -1.0625q-0.890625 -1.078125 -0.890625 -3.0625l0 -9.609375l-2.828125 0l0 -2.046875l2.828125 0l0 -3.75l2.640625 0zm8.877228 19.25l-2.65625 0l0 -15.5l2.65625 0l0 15.5zm-2.875 -19.609375q0 -0.640625 0.390625 -1.078125q0.40625 -0.453125 1.171875 -0.453125q0.78125 0 1.171875 0.453125q0.40625 0.4375 0.40625 1.09375q0 0.640625 -0.40625 1.078125q-0.390625 0.421875 -1.171875 0.421875q-0.765625 0 -1.171875 -0.421875q-0.390625 -0.4375 -0.390625 -1.09375zm6.398468 11.71875q0 -2.28125 0.890625 -4.09375q0.90625 -1.828125 2.5 -2.8125q1.59375 -0.984375 3.640625 -0.984375q3.171875 0 5.125 2.1875q1.953125 2.1875 1.953125 5.828125l0 0.1875q0 2.265625 -0.875 4.0625q-0.859375 1.796875 -2.46875 2.796875q-1.609375 1.0 -3.703125 1.0q-3.140625 0 -5.109375 -2.1875q-1.953125 -2.1875 -1.953125 -5.796875l0 -0.1875zm2.671875 0.3125q0 2.578125 1.1875 4.140625q1.203125 1.5625 3.203125 1.5625q2.015625 0 3.203125 -1.578125q1.203125 -1.59375 1.203125 -4.4375q0 -2.546875 -1.21875 -4.125q-1.203125 -1.59375 -3.21875 -1.59375q-1.953125 0 -3.15625 1.5625q-1.203125 1.5625 -1.203125 4.46875zm17.273071 -7.921875l0.078125 1.953125q1.78125 -2.234375 4.640625 -2.234375q4.921875 0 4.953125 5.546875l0 10.234375l-2.640625 0l0 -10.25q-0.015625 -1.671875 -0.765625 -2.46875q-0.75 -0.8125 -2.34375 -0.8125q-1.296875 0 -2.265625 0.6875q-0.96875 0.6875 -1.515625 1.796875l0 11.046875l-2.65625 0l0 -15.5l2.515625 0z" fill-rule="nonzero"/><path fill="#d9e8e3" d="m298.40945 617.3189l0 0c0 -31.241089 61.09375 -56.566956 136.4567 -56.566956l0 0c75.362946 0 136.45667 25.325867 136.45667 56.566956l0 0c0 31.241028 -61.09372 56.566895 -136.45667 56.566895l0 0c-75.362946 0 -136.4567 -25.325867 -136.4567 -56.566895z" fill-rule="evenodd"/><path stroke="#d9e8e3" stroke-width="1.0" stroke-linejoin="round" stroke-linecap="butt" d="m298.40945 617.3189l0 0c0 -31.241089 61.09375 -56.566956 136.4567 -56.566956l0 0c75.362946 0 136.45667 25.325867 136.45667 56.566956l0 0c0 31.241028 -61.09372 56.566895 -136.45667 56.566895l0 0c-75.362946 0 -136.4567 -25.325867 -136.4567 -56.566895z" fill-rule="evenodd"/><path fill="#000000" d="m351.9103 611.6389l0 -18.0l5.890625 0q2.921875 0 4.390625 1.21875q1.484375 1.203125 1.484375 3.578125q0 1.25 -0.71875 2.234375q-0.71875 0.96875 -1.953125 1.5q1.46875 0.40625 2.3125 1.546875q0.84375 1.140625 0.84375 2.734375q0 2.421875 -1.578125 3.8125q-1.5625 1.375 -4.4375 1.375l-6.234375 0zm2.375 -8.421875l0 6.484375l3.921875 0q1.65625 0 2.609375 -0.859375q0.953125 -0.859375 0.953125 -2.375q0 -3.25 -3.53125 -3.25l-3.953125 0zm0 -1.90625l3.578125 0q1.5625 0 2.5 -0.78125q0.9375 -0.78125 0.9375 -2.109375q0 -1.484375 -0.875 -2.15625q-0.859375 -0.671875 -2.625 -0.671875l-3.515625 0l0 5.71875zm18.58075 10.578125q-2.71875 0 -4.421875 -1.78125q-1.703125 -1.796875 -1.703125 -4.78125l0 -0.421875q0 -2.0 0.75 -3.5625q0.765625 -1.5625 2.125 -2.4375q1.375 -0.890625 2.96875 -0.890625q2.609375 0 4.046875 1.71875q1.453125 1.71875 1.453125 4.921875l0 0.953125l-9.0625 0q0.046875 1.96875 1.15625 3.1875q1.109375 1.21875 2.8125 1.21875q1.21875 0 2.046875 -0.484375q0.84375 -0.5 1.484375 -1.3125l1.390625 1.078125q-1.6875 2.59375 -5.046875 2.59375zm-0.28125 -12.0q-1.390625 0 -2.328125 1.015625q-0.9375 1.0 -1.15625 2.8125l6.703125 0l0 -0.171875q-0.109375 -1.734375 -0.953125 -2.6875q-0.828125 -0.96875 -2.265625 -0.96875zm10.309113 -1.625l0.078125 1.671875q1.53125 -1.921875 4.015625 -1.921875q4.234375 0 4.265625 4.78125l0 8.84375l-2.28125 0l0 -8.859375q-0.015625 -1.4375 -0.671875 -2.125q-0.640625 -0.703125 -2.015625 -0.703125q-1.109375 0 -1.953125 0.59375q-0.84375 0.59375 -1.3125 1.5625l0 9.53125l-2.28125 0l0 -13.375l2.15625 0zm20.08435 12.046875q-1.34375 1.578125 -3.921875 1.578125q-2.140625 0 -3.265625 -1.234375q-1.125 -1.25 -1.125 -3.6875l0 -8.703125l2.28125 0l0 8.640625q0 3.046875 2.46875 3.046875q2.625 0 3.5 -1.953125l0 -9.734375l2.28125 0l0 13.375l-2.171875 0l-0.046875 -1.328125zm8.7907715 -15.296875l0 3.25l2.5 0l0 1.765625l-2.5 0l0 8.296875q0 0.796875 0.328125 1.203125q0.34375 0.40625 1.15625 0.40625q0.390625 0 1.078125 -0.15625l0 1.859375q-0.890625 0.25 -1.75 0.25q-1.53125 0 -2.3125 -0.921875q-0.78125 -0.9375 -0.78125 -2.640625l0 -8.296875l-2.4375 0l0 -1.765625l2.4375 0l0 -3.25l2.28125 0zm7.3361816 14.75l7.828125 0l0 1.875l-10.625 0l0 -1.6875l7.375 -9.796875l-7.265625 0l0 -1.890625l10.140625 0l0 1.609375l-7.453125 9.890625zm15.745483 2.125q-2.71875 0 -4.421875 -1.78125q-1.703125 -1.796875 -1.703125 -4.78125l0 -0.421875q0 -2.0 0.75 -3.5625q0.765625 -1.5625 2.125 -2.4375q1.375 -0.890625 2.96875 -0.890625q2.609375 0 4.046875 1.71875q1.453125 1.71875 1.453125 4.921875l0 0.953125l-9.0625 0q0.046875 1.96875 1.15625 3.1875q1.109375 1.21875 2.8125 1.21875q1.21875 0 2.046875 -0.484375q0.84375 -0.5 1.484375 -1.3125l1.390625 1.078125q-1.6875 2.59375 -5.046875 2.59375zm-0.28125 -12.0q-1.390625 0 -2.328125 1.015625q-0.9375 1.0 -1.15625 2.8125l6.703125 0l0 -0.171875q-0.109375 -1.734375 -0.953125 -2.6875q-0.828125 -0.96875 -2.265625 -0.96875zm14.621582 0.421875q-0.515625 -0.09375 -1.125 -0.09375q-2.25 0 -3.0625 1.921875l0 9.5l-2.28125 0l0 -13.375l2.21875 0l0.046875 1.546875q1.125 -1.796875 3.1875 -1.796875q0.671875 0 1.015625 0.171875l0 2.125zm9.883026 7.78125q0 -0.9375 -0.703125 -1.4375q-0.6875 -0.515625 -2.421875 -0.890625q-1.734375 -0.375 -2.765625 -0.890625q-1.015625 -0.515625 -1.515625 -1.234375q-0.484375 -0.71875 -0.484375 -1.703125q0 -1.65625 1.390625 -2.78125q1.40625 -1.140625 3.5625 -1.140625q2.28125 0 3.6875 1.171875q1.421875 1.171875 1.421875 3.0l-2.296875 0q0 -0.9375 -0.796875 -1.609375q-0.796875 -0.6875 -2.015625 -0.6875q-1.25 0 -1.953125 0.546875q-0.703125 0.546875 -0.703125 1.421875q0 0.828125 0.65625 1.25q0.65625 0.421875 2.359375 0.8125q1.71875 0.375 2.78125 0.90625q1.0625 0.53125 1.578125 1.28125q0.515625 0.75 0.515625 1.828125q0 1.78125 -1.4375 2.875q-1.4375 1.078125 -3.71875 1.078125q-1.609375 0 -2.84375 -0.5625q-1.234375 -0.578125 -1.9375 -1.59375q-0.703125 -1.03125 -0.703125 -2.21875l2.296875 0q0.0625 1.15625 0.921875 1.828125q0.859375 0.671875 2.265625 0.671875q1.296875 0 2.078125 -0.515625q0.78125 -0.53125 0.78125 -1.40625zm8.372284 -13.078125l0 3.25l2.5 0l0 1.765625l-2.5 0l0 8.296875q0 0.796875 0.328125 1.203125q0.34375 0.40625 1.15625 0.40625q0.390625 0 1.078125 -0.15625l0 1.859375q-0.890625 0.25 -1.75 0.25q-1.53125 0 -2.3124695 -0.921875q-0.78125 -0.9375 -0.78125 -2.640625l0 -8.296875l-2.4375 0l0 -1.765625l2.4375 0l0 -3.25l2.2812195 0zm13.445587 16.625q-0.203125 -0.390625 -0.328125 -1.40625q-1.59375 1.65625 -3.8125 1.65625q-1.96875 0 -3.25 -1.109375q-1.265625 -1.125 -1.265625 -2.84375q0 -2.09375 1.59375 -3.25q1.59375 -1.15625 4.46875 -1.15625l2.234375 0l0 -1.0625q0 -1.1875 -0.71875 -1.890625q-0.71875 -0.71875 -2.125 -0.71875q-1.21875 0 -2.046875 0.625q-0.828125 0.609375 -0.828125 1.484375l-2.296875 0q0 -1.0 0.703125 -1.9375q0.71875 -0.9375 1.9375 -1.46875q1.21875 -0.546875 2.671875 -0.546875q2.3125 0 3.625 1.15625q1.3125 1.15625 1.359375 3.1875l0 6.15625q0 1.84375 0.46875 2.921875l0 0.203125l-2.390625 0zm-3.796875 -1.75q1.0625 0 2.03125 -0.546875q0.96875 -0.5625 1.40625 -1.453125l0 -2.75l-1.796875 0q-4.203125 0 -4.203125 2.46875q0 1.078125 0.71875 1.6875q0.71875 0.59375 1.84375 0.59375zm11.4646 -11.625l0.078125 1.671875q1.53125 -1.921875 4.015625 -1.921875q4.234375 0 4.265625 4.78125l0 8.84375l-2.28125 0l0 -8.859375q-0.015625 -1.4375 -0.671875 -2.125q-0.640625 -0.703125 -2.015625 -0.703125q-1.109375 0 -1.953125 0.59375q-0.84375 0.59375 -1.3125 1.5625l0 9.53125l-2.28125 0l0 -13.375l2.15625 0zm11.256256 6.578125q0 -3.078125 1.453125 -4.953125q1.46875 -1.875 3.828125 -1.875q2.359375 0 3.71875 1.609375l0 -6.984375l2.296875 0l0 19.0l-2.109375 0l-0.109375 -1.4375q-1.375 1.6875 -3.8125 1.6875q-2.328125 0 -3.796875 -1.90625q-1.46875 -1.90625 -1.46875 -4.96875l0 -0.171875zm2.296875 0.25q0 2.28125 0.9375 3.578125q0.9375 1.28125 2.59375 1.28125q2.171875 0 3.171875 -1.953125l0 -6.15625q-1.015625 -1.890625 -3.140625 -1.890625q-1.6875 0 -2.625 1.296875q-0.9375 1.296875 -0.9375 3.84375zm17.31543 -0.171875l-6.046875 0l0 -1.859375l6.046875 0l0 1.859375z" fill-rule="nonzero"/><path fill="#000000" d="m416.26816 635.09204q0 3.0625 -1.40625 4.9375q-1.390625 1.859375 -3.765625 1.859375q-2.4375 0 -3.84375 -1.546875l0 6.4375l-2.28125 0l0 -18.515625l2.09375 0l0.109375 1.484375q1.390625 -1.734375 3.875 -1.734375q2.421875 0 3.8125 1.8125q1.40625 1.8125 1.40625 5.0625l0 0.203125zm-2.28125 -0.25q0 -2.265625 -0.96875 -3.578125q-0.96875 -1.3125 -2.640625 -1.3125q-2.078125 0 -3.125 1.84375l0 6.390625q1.03125 1.828125 3.140625 1.828125q1.65625 0 2.625 -1.296875q0.96875 -1.3125 0.96875 -3.875zm13.459961 5.46875q-1.34375 1.578125 -3.921875 1.578125q-2.140625 0 -3.265625 -1.234375q-1.125 -1.25 -1.125 -3.6875l0 -8.703125l2.28125 0l0 8.640625q0 3.046875 2.46875 3.046875q2.625 0 3.5 -1.953125l0 -9.734375l2.28125 0l0 13.375l-2.171875 0l-0.046875 -1.328125zm7.8532715 -12.046875l0.078125 1.671875q1.53125 -1.921875 4.015625 -1.921875q4.234375 0 4.265625 4.78125l0 8.84375l-2.28125 0l0 -8.859375q-0.015625 -1.4375 -0.671875 -2.125q-0.640625 -0.703125 -2.015625 -0.703125q-1.109375 0 -1.953125 0.59375q-0.84375 0.59375 -1.3125 1.5625l0 9.53125l-2.28125 0l0 -13.375l2.15625 0zm15.553101 7.171875l-1.4375 1.5l0 4.703125l-2.28125 0l0 -19.0l2.28125 0l0 11.5l1.21875 -1.484375l4.171875 -4.390625l2.78125 0l-5.203125 5.578125l5.8125 7.796875l-2.6875 0l-4.65625 -6.203125zm12.196594 -10.421875l0 3.25l2.5 0l0 1.765625l-2.5 0l0 8.296875q0 0.796875 0.328125 1.203125q0.34375 0.40625 1.15625 0.40625q0.390625 0 1.078125 -0.15625l0 1.859375q-0.890625 0.25 -1.75 0.25q-1.53125 0 -2.3125 -0.921875q-0.78125 -0.9375 -0.78125 -2.640625l0 -8.296875l-2.4375 0l0 -1.765625l2.4375 0l0 -3.25l2.28125 0z" fill-rule="nonzero"/><path fill="#000000" fill-opacity="0.0" d="m505.16736 99.931885l84.15747 64.409454" fill-rule="evenodd"/><path stroke="#000000" stroke-width="3.0" stroke-linejoin="round" stroke-linecap="butt" d="m505.16733 99.931885l69.863434 53.46959" fill-rule="evenodd"/><path fill="#000000" stroke="#000000" stroke-width="3.0" stroke-linecap="butt" d="m572.01917 157.33646l13.822876 4.3393707l-7.7996826 -12.209335z" fill-rule="evenodd"/><path fill="#000000" fill-opacity="0.0" d="m352.36548 99.931885l-74.86615 64.409454" fill-rule="evenodd"/><path stroke="#000000" stroke-width="3.0" stroke-linejoin="round" stroke-linecap="butt" d="m352.36548 99.931885l-61.22104 52.670166" fill-rule="evenodd"/><path fill="#000000" stroke="#000000" stroke-width="3.0" stroke-linecap="butt" d="m287.91275 148.8457l-7.0887756 12.635345l13.552155 -5.12265z" fill-rule="evenodd"/><path fill="#000000" fill-opacity="0.0" d="m277.5013 250.79265l54.771667 44.62993" fill-rule="evenodd"/><path stroke="#000000" stroke-width="3.0" stroke-linejoin="round" stroke-linecap="butt" d="m277.5013 250.79265l40.817566 33.25963" fill-rule="evenodd"/><path fill="#000000" stroke="#000000" stroke-width="3.0" stroke-linecap="butt" d="m315.18878 287.89368l13.684265 4.7585144l-7.4240417 -12.441315z" fill-rule="evenodd"/><path fill="#000000" fill-opacity="0.0" d="m589.3097 250.79265l-64.566895 47.149612" fill-rule="evenodd"/><path stroke="#000000" stroke-width="3.0" stroke-linejoin="round" stroke-linecap="butt" d="m589.3097 250.79265l-50.030273 36.534286" fill-rule="evenodd"/><path fill="#000000" stroke="#000000" stroke-width="3.0" stroke-linecap="butt" d="m536.3572 283.32516l-8.07251 12.03067l13.917053 -4.0270996z" fill-rule="evenodd"/><path fill="#000000" fill-opacity="0.0" d="m202.56566 240.96965l135.81102 195.62206" fill-rule="evenodd"/><path stroke="#000000" stroke-width="3.0" stroke-linejoin="round" stroke-linecap="butt" d="m202.56566 240.96965l125.54582 180.83604" fill-rule="evenodd"/><path fill="#000000" stroke="#000000" stroke-width="3.0" stroke-linecap="butt" d="m324.04105 424.6316l11.834503 8.357483l-3.6936646 -14.009247z" fill-rule="evenodd"/><path fill="#000000" fill-opacity="0.0" d="m663.2296 241.94603l-131.87402 194.64568" fill-rule="evenodd"/><path stroke="#000000" stroke-width="3.0" stroke-linejoin="round" stroke-linecap="butt" d="m663.2296 241.94603l-121.77783 179.74376" fill-rule="evenodd"/><path fill="#000000" stroke="#000000" stroke-width="3.0" stroke-linecap="butt" d="m537.3494 418.9104l-3.5338745 14.050446l11.738525 -8.491699z" fill-rule="evenodd"/><path fill="#000000" fill-opacity="0.0" d="m166.22047 213.47638l132.18898 403.84253" fill-rule="evenodd"/><path stroke="#000000" stroke-width="3.0" stroke-linejoin="round" stroke-linecap="butt" d="m166.22047 213.47638l126.58943 386.73566" fill-rule="evenodd"/><path fill="#000000" stroke="#000000" stroke-width="3.0" stroke-linecap="butt" d="m288.10056 601.75354l8.94455 11.397278l0.4741211 -14.480286z" fill-rule="evenodd"/><path fill="#000000" fill-opacity="0.0" d="m697.6221 209.53937l-126.299255 407.77954" fill-rule="evenodd"/><path stroke="#000000" stroke-width="3.0" stroke-linejoin="round" stroke-linecap="butt" d="m697.6221 209.53937l-120.973755 390.58533" fill-rule="evenodd"/><path fill="#000000" stroke="#000000" stroke-width="3.0" stroke-linecap="butt" d="m571.9149 598.6587l0.70544434 14.470825l8.7612915 -11.538757z" fill-rule="evenodd"/><path fill="#000000" fill-opacity="0.0" d="m94.77737 115.3184l115.02363 -101.196846l29.889755 33.952755l-115.02362 101.19685z" fill-rule="evenodd"/><path fill="#000000" d="m122.28092 130.38625l-10.087051 -11.458206l8.282158 -7.286583l1.1873245 1.3487167l-6.768852 5.9551773l3.0870285 3.5066605l6.3465347 -5.583626l1.1873169 1.3487167l-6.346527 5.583626l3.4380646 3.9054108l7.038666 -6.192566l1.1873169 1.3487167l-8.551979 7.5239563zm10.809563 -9.510162l-6.349579 -7.2126923l-1.2434921 1.094017l-0.9601822 -1.0906982l1.2434998 -1.094017l-0.7743454 -0.8796005q-0.73303986 -0.83267975 -0.9536209 -1.367012q-0.27409363 -0.7369919 -0.06906891 -1.5209045q0.21675873 -0.7942276 1.1435165 -1.609581q0.5865555 -0.51605225 1.4377823 -1.015213l0.87290955 1.4172134q-0.51805115 0.31009674 -0.9051819 0.6506882q-0.64521027 0.5676575 -0.6672363 1.0865097q-0.020622253 0.49680328 0.640152 1.2473907l0.6710892 0.76231384l1.6188965 -1.4242859l0.96017456 1.0906982l-1.6188812 1.4242859l6.349579 7.2127l-1.3960114 1.2281876zm4.159546 -3.6595383l-6.349579 -7.2126923l-1.2434845 1.094017l-0.9601898 -1.0906982l1.2434998 -1.094017l-0.77433777 -0.8796005q-0.7330475 -0.83267975 -0.95362854 -1.367012q-0.27409363 -0.7369919 -0.06906128 -1.5209045q0.2167511 -0.7942276 1.1435089 -1.609581q0.5865631 -0.51605225 1.4377899 -1.015213l0.87290955 1.4172134q-0.51805115 0.31010437 -0.9051819 0.6506882q-0.6452179 0.5676575 -0.6672363 1.0865097q-0.020629883 0.49680328 0.640152 1.2473907l0.67108154 0.76231384l1.6188965 -1.4242859l0.9601898 1.0906982l-1.6188965 1.4242935l6.349579 7.2126923l-1.3960114 1.2281876zm7.4443207 -11.294441l1.5977936 -1.0935593q0.7851715 1.5776596 0.47789 3.0966873q-0.30729675 1.5190353 -1.7619476 2.7988281q-1.8183289 1.5997467 -3.866684 1.424797q-2.0586853 -0.18668365 -3.8448334 -2.215622q-1.8480835 -2.0993042 -1.7806244 -4.198166q0.057144165 -2.1105957 1.7816162 -3.6277695q1.6658173 -1.4655762 3.7113647 -1.2465286q2.0469513 0.1969986 3.8640594 2.2611237q0.10324097 0.11727905 0.3303833 0.37528992l-6.1940155 5.4494553q1.2797546 1.2882004 2.6120148 1.406395q1.3322601 0.11820221 2.3763275 -0.80036163q0.7742462 -0.68118286 0.96284485 -1.5546951q0.19000244 -0.8955612 -0.26618958 -2.0758743zm-6.6250153 1.7912216l4.633789 -4.076767q-1.0127258 -0.9612198 -1.911377 -1.1071014q-1.392807 -0.21061707 -2.4603271 0.7285843q-0.97369385 0.8566437 -1.0627899 2.0796509q-0.08908081 1.2230072 0.80070496 2.3756332zm12.206802 -1.9570389l-10.087051 -11.458214l1.4077301 -1.2385101l5.750763 6.5324707l0.35816956 -6.3087997l1.8183136 -1.5997391l-0.46377563 5.881424l8.090286 2.143303l-1.736206 1.5274963l-6.482559 -1.8304214l-0.14912415 1.816925l2.901184 3.295555l-1.4077301 1.2385101zm9.963577 -10.992691l1.2938232 1.0677032q-0.48330688 0.6333313 -0.95254517 1.0461655q-0.7742615 0.68118286 -1.4030609 0.81817627q-0.6391449 0.12526703 -1.1558228 -0.10694122q-0.5152588 -0.2542572 -1.63031 -1.520874l-4.2124023 -4.7850113l-1.0323334 0.9082413l-0.9601898 -1.0906982l1.0323334 -0.9082413l-1.806778 -2.052391l0.65263367 -2.0726013l2.5501556 2.8968048l1.4194641 -1.2488327l0.96017456 1.0906982l-1.4194641 1.2488327l4.274353 4.8553696q0.5368805 0.60985565 0.76213074 0.72385406q0.22665405 0.09194183 0.48381042 0.053001404q0.25857544 -0.06098938 0.5635834 -0.32933807q0.23461914 -0.20641327 0.58044434 -0.59391785zm-6.1704407 -9.805229l-1.4247894 -1.618454l1.4077301 -1.2385101l1.4247894 1.618454l-1.4077301 1.2385101zm8.662262 9.83976l-7.3097534 -8.3033905l1.4077301 -1.2385178l7.3097534 8.303398l-1.4077301 1.2385101zm5.8568726 -5.152832l-10.477158 -5.516739l1.4898529 -1.3107605l6.160721 3.4038773q1.0056763 0.55120087 2.004303 1.2126541q-0.3904724 -0.8218994 -0.86590576 -2.0477142l-2.6184082 -6.6868668l1.4546661 -1.2797928l4.1658173 11.069405l-1.3138885 1.1559372zm-2.9550781 -14.860886l-1.4247894 -1.6184616l1.4077301 -1.2385101l1.4247894 1.6184616l-1.4077301 1.2385101zm8.662262 9.839752l-7.3097534 -8.3033905l1.4077301 -1.2385101l7.3097534 8.3033905l-1.4077301 1.2385101zm5.514679 -7.078575l1.2938232 1.0677032q-0.48330688 0.6333313 -0.9525604 1.0461655q-0.7742462 0.68118286 -1.4030609 0.81817627q-0.63912964 0.12526703 -1.1558075 -0.10694122q-0.51527405 -0.2542572 -1.6303253 -1.520874l-4.2124023 -4.7850113l-1.0323334 0.9082413l-0.96017456 -1.0906982l1.0323334 -0.9082413l-1.8067932 -2.052391l0.65263367 -2.072609l2.5501556 2.8968124l1.4194641 -1.2488403l0.9601898 1.0907059l-1.4194641 1.2488327l4.274353 4.8553696q0.53686523 0.60985565 0.7621155 0.72384644q0.22666931 0.09194946 0.48382568 0.053009033q0.25856018 -0.06098938 0.5635681 -0.32933807q0.23461914 -0.2064209 0.5804596 -0.59391785zm7.0016327 -5.7437515q-0.2078247 1.3482666 -0.6873627 2.269638q-0.47813416 0.8993149 -1.3110352 1.632103q-1.3608093 1.1972275 -2.6883698 1.1789551q-1.3275604 -0.0182724 -2.2464447 -1.0620651q-0.53686523 -0.60985565 -0.6992798 -1.3618546q-0.16239929 -0.75200653 0.0149383545 -1.4491272q0.1773529 -0.6971283 0.60621643 -1.3449936q0.32940674 -0.4771042 1.069397 -1.315445q1.5254822 -1.6959076 2.087143 -2.6895218q-0.24638367 -0.3035202 -0.3186493 -0.38562012q-0.7536926 -0.85614014 -1.4622803 -0.8570633q-0.9629364 -0.006088257 -2.0304718 0.9331207q-0.9971466 0.8772812 -1.1566467 1.6419525q-0.15951538 0.76467896 0.38020325 1.8506927l-1.537735 1.0199051q-0.5866394 -1.0447311 -0.6392517 -1.9557724q-0.051193237 -0.9330902 0.5001373 -1.9384308q0.5630646 -1.0156631 1.6306 -1.9548721q1.0675201 -0.93920135 1.9516144 -1.2591629q0.8854828 -0.34200287 1.532608 -0.24537659q0.64712524 0.09662628 1.2806549 0.5798187q0.38012695 0.28990936 1.2060852 1.2281494l1.6519318 1.8764725q1.7345123 1.9702988 2.2826385 2.4037628q0.5481262 0.43345642 1.2295227 0.68724823l-1.4663849 1.2901154q-0.6049042 -0.23783875 -1.179779 -0.7726288zm-2.8842926 -3.0398865q-0.4940796 0.97579193 -1.8346863 2.5506592q-0.75453186 0.89276123 -0.9839783 1.3651733q-0.2177124 0.46208954 -0.14871216 0.94247437q0.0690155 0.48038483 0.3890686 0.84394836q0.49557495 0.5629425 1.248291 0.5666809q0.7644348 -0.006576538 1.5856018 -0.72904205q0.80944824 -0.71214294 1.133194 -1.621315q0.31341553 -0.92089844 0.08155823 -1.7990952q-0.2004242 -0.6769409 -1.0160522 -1.6034546l-0.45428467 -0.51602936zm-9.210419 -2.1151352l-1.4144592 -1.6067276l1.4663849 -1.2901192l1.4144592 1.6067314l-1.4663849 1.2901154zm2.909317 -2.5595932l-1.4144592 -1.6067276l1.4781189 -1.3004379l1.4144592 1.6067276l-1.4781189 1.3004379zm15.53833 1.7091217l1.2938232 1.0677032q-0.48330688 0.6333313 -0.95254517 1.0461655q-0.7742615 0.68118286 -1.4030762 0.81817627q-0.63912964 0.12526703 -1.1558075 -0.10694122q-0.5152588 -0.2542572 -1.63031 -1.5208817l-4.2124023 -4.7850037l-1.0323486 0.9082451l-0.96017456 -1.090702l1.0323334 -0.9082413l-1.8067932 -2.0523949l0.6526489 -2.0726013l2.5501556 2.8968048l1.4194641 -1.2488327l0.96017456 1.0906982l-1.4194641 1.2488327l4.274353 4.8553734q0.5368805 0.60985565 0.76213074 0.72384644q0.22665405 0.09194946 0.48381042 0.053009033q0.25856018 -0.06099701 0.5635834 -0.32933807q0.23461914 -0.2064209 0.58044434 -0.59391785z" fill-rule="nonzero"/></g></svg>